<svg xmlns="http://www.w3.org/2000/svg" xmlns:xlink="http://www.w3.org/1999/xlink" width="1920" zoomAndPan="magnify" viewBox="0 0 1440 809.999993" height="1080" preserveAspectRatio="xMidYMid meet" version="1.0"><defs><clipPath id="id1"><path d="M 0 0 L 261 0 L 261 586 L 0 586 Z M 0 0 " clip-rule="nonzero"/></clipPath><clipPath id="id2"><path d="M 353.957031 -166.824219 L 205.695312 585.203125 L -147.503906 515.570312 L 0.753906 -236.457031 Z M 353.957031 -166.824219 " clip-rule="nonzero"/></clipPath><clipPath id="id3"><path d="M 353.957031 -166.824219 L 166.09375 786.085938 L -374.746094 679.460938 L -186.882812 -273.449219 Z M 353.957031 -166.824219 " clip-rule="nonzero"/></clipPath><clipPath id="id4"><path d="M 841.945312 400 L 1436 400 L 1436 722 L 841.945312 722 Z M 841.945312 400 " clip-rule="nonzero"/></clipPath></defs><g clip-path="url(#id1)"><g clip-path="url(#id2)"><g clip-path="url(#id3)"><path fill="rgb(0%, 76.078796%, 79.60968%)" d="M -275.90625 694.949219 C -308.714844 680.949219 -321.890625 642.917969 -326.824219 610.296875 C -330.308594 586.046875 -329.414062 561.890625 -327.632812 537.535156 C -323.84375 486.011719 -315.652344 434.941406 -308.585938 383.785156 C -301.378906 331.535156 -293.003906 279.433594 -283.695312 227.519531 C -265.277344 124.890625 -242.75 23.03125 -211.164062 -76.429688 C -203.292969 -101.238281 -194.902344 -125.890625 -185.941406 -150.328125 C -179.207031 -168.679688 -170.9375 -185.71875 -157.777344 -200.417969 C -134.171875 -226.800781 -100.394531 -242.914062 -64.964844 -244.410156 C -44.253906 -245.296875 -24.25 -240.285156 -4.480469 -234.59375 C 18.890625 -227.859375 41.746094 -219.289062 63.757812 -208.976562 C 105.320312 -189.523438 146.152344 -164.082031 178.652344 -131.410156 C 208.140625 -101.757812 229.34375 -58.003906 213.1875 -16.273438 C 199.726562 18.480469 161.636719 30.253906 139.832031 57.898438 C 129.15625 71.429688 126.121094 88.617188 133.46875 104.480469 C 141.054688 120.84375 155.824219 133.101562 170.570312 142.851562 C 199.804688 162.179688 238.585938 174.714844 254.46875 208.824219 C 272.394531 247.296875 243.953125 285.976562 209.589844 302.371094 C 169.585938 321.457031 121.976562 318.578125 83.976562 342.613281 C 66.308594 353.78125 54.199219 369.574219 49.863281 390.171875 C 45.761719 409.671875 46.84375 429.800781 44.03125 449.476562 C 41.394531 467.945312 34.316406 486.132812 18.441406 497.117188 C 3.84375 507.214844 -14.25 509.523438 -31.355469 512.125 C -49.132812 514.851562 -67.171875 518.195312 -81.304688 530.140625 C -95.132812 541.828125 -102.878906 558.914062 -109.253906 575.441406 C -116.113281 593.21875 -121.554688 611.605469 -130.308594 628.59375 C -139.273438 645.953125 -152.082031 660.777344 -168.027344 672.109375 C -184.066406 683.515625 -202.515625 691.453125 -221.621094 695.988281 C -239.523438 700.246094 -258.5625 702.351562 -275.90625 694.949219 Z M -275.90625 694.949219 " fill-opacity="1" fill-rule="nonzero"/></g></g></g><path fill="rgb(92.158508%, 70.199585%, 54.508972%)" d="M 859.082031 443.570312 L 860.085938 406.660156 C 849.3125 389.109375 862.417969 366.039062 862.417969 366.039062 C 862.304688 362.632812 865.710938 357.492188 870.570312 357.101562 C 871.3125 357.082031 872.050781 357.152344 872.78125 357.3125 C 873.507812 357.46875 874.207031 357.714844 874.878906 358.039062 C 875.546875 358.367188 876.171875 358.769531 876.746094 359.246094 C 877.320312 359.722656 877.828125 360.257812 878.273438 360.859375 L 878.398438 360.859375 C 878.480469 359.699219 879.277344 351.976562 884.59375 351.628906 C 890.332031 351.265625 892.96875 356.597656 892.96875 356.597656 C 892.96875 356.597656 893.148438 349.269531 900.574219 349.167969 C 903.367188 349.167969 906.15625 353.707031 908.070312 359.558594 L 908.667969 359.558594 C 908.054688 346.558594 903.085938 315.167969 916.765625 321.449219 C 930.441406 327.734375 930.71875 416.8125 930.71875 416.8125 Z M 859.082031 443.570312 " fill-opacity="1" fill-rule="nonzero"/><g clip-path="url(#id4)"><path fill="rgb(0%, 76.078796%, 79.60968%)" d="M 1435.089844 660.394531 C 1429.339844 712.066406 1382.753906 720.441406 1377.296875 721.296875 L 1376.765625 721.296875 L 1078.980469 658.875 L 1069.765625 663.675781 C 1018.058594 689.554688 964.242188 669.960938 931.390625 628.765625 C 898.984375 588.019531 841.945312 453.246094 841.945312 453.246094 C 864.273438 431.574219 932.800781 400.449219 932.800781 400.449219 C 954.460938 425.277344 1006.167969 535.414062 1006.167969 535.414062 C 1038.742188 505.851562 1089.179688 480.367188 1122.691406 465.3125 C 1143.09375 456.152344 1157.21875 450.84375 1157.21875 450.84375 L 1233.65625 441.949219 C 1256.949219 447.199219 1280.925781 459.238281 1303.871094 475.28125 C 1377.128906 526.492188 1439.75 618.601562 1435.089844 660.394531 Z M 1435.089844 660.394531 " fill-opacity="1" fill-rule="nonzero"/></g><path fill="rgb(34.509277%, 63.529968%, 40.779114%)" d="M 1400.058594 827.984375 C 1273.601562 880.964844 1049 836.179688 1049 836.179688 C 1046.503906 788.703125 1066.304688 709.285156 1072.992188 664.277344 C 1088.078125 562.335938 1117.902344 478.371094 1122.691406 465.269531 C 1132.460938 460.898438 1140.832031 457.394531 1146.804688 454.921875 L 1153.449219 462.042969 C 1153.449219 462.042969 1149.457031 474.292969 1151.0625 474.292969 C 1152.667969 474.292969 1166.75 470.296875 1166.75 470.296875 L 1202.421875 500.378906 L 1226.371094 470.296875 C 1226.371094 470.296875 1235.136719 474.320312 1236.976562 472.980469 C 1238.820312 471.636719 1232.304688 456.039062 1232.304688 456.039062 L 1246.886719 445.539062 C 1265.953125 451.792969 1285.253906 462.15625 1303.871094 475.183594 C 1329.132812 522.398438 1357.855469 635.777344 1377.324219 721.238281 C 1391 781.511719 1400.058594 827.984375 1400.058594 827.984375 Z M 1400.058594 827.984375 " fill-opacity="1" fill-rule="nonzero"/><path fill="rgb(0%, 76.078796%, 79.60968%)" d="M 1097.570312 462.5625 L 1110.242188 455.453125 C 1110.242188 455.453125 1162.941406 497.570312 1156.378906 514.816406 C 1156.378906 514.816406 1161.460938 491.984375 1238.527344 525.472656 L 1236.503906 546.277344 L 1148.273438 536.125 Z M 1097.570312 462.5625 " fill-opacity="1" fill-rule="nonzero"/><path fill="rgb(34.509277%, 63.529968%, 40.779114%)" d="M 1147.070312 501.996094 C 1146.820312 501.996094 1146.582031 501.929688 1146.367188 501.800781 C 1146.148438 501.667969 1145.980469 501.492188 1145.859375 501.269531 C 1134.554688 480.644531 1108.300781 461.652344 1108.035156 461.457031 C 1107.878906 461.351562 1107.746094 461.222656 1107.640625 461.0625 C 1107.535156 460.902344 1107.46875 460.730469 1107.433594 460.542969 C 1107.398438 460.355469 1107.402344 460.171875 1107.445312 459.984375 C 1107.488281 459.800781 1107.5625 459.628906 1107.675781 459.476562 C 1107.785156 459.320312 1107.921875 459.195312 1108.085938 459.097656 C 1108.25 459 1108.421875 458.9375 1108.613281 458.910156 C 1108.800781 458.882812 1108.984375 458.894531 1109.167969 458.945312 C 1109.351562 458.996094 1109.519531 459.078125 1109.667969 459.195312 C 1110.757812 459.976562 1136.703125 478.746094 1148.300781 499.929688 C 1148.359375 500.035156 1148.402344 500.148438 1148.429688 500.265625 C 1148.460938 500.382812 1148.472656 500.503906 1148.472656 500.625 C 1148.46875 500.746094 1148.449219 500.867188 1148.417969 500.984375 C 1148.382812 501.097656 1148.335938 501.210938 1148.273438 501.3125 C 1148.214844 501.417969 1148.140625 501.511719 1148.050781 501.597656 C 1147.964844 501.683594 1147.871094 501.753906 1147.765625 501.816406 C 1147.660156 501.875 1147.546875 501.921875 1147.429688 501.953125 C 1147.3125 501.980469 1147.191406 501.996094 1147.070312 501.996094 Z M 1145.898438 508.796875 C 1146.066406 508.71875 1146.214844 508.609375 1146.339844 508.46875 C 1146.460938 508.332031 1146.554688 508.175781 1146.617188 508 C 1146.679688 507.824219 1146.703125 507.640625 1146.691406 507.457031 C 1146.683594 507.269531 1146.636719 507.09375 1146.554688 506.925781 C 1141.308594 495.964844 1120.039062 476.386719 1119.199219 475.5625 C 1119.066406 475.4375 1118.910156 475.339844 1118.734375 475.273438 C 1118.5625 475.210938 1118.382812 475.179688 1118.195312 475.1875 C 1118.011719 475.195312 1117.832031 475.238281 1117.664062 475.316406 C 1117.496094 475.394531 1117.347656 475.5 1117.222656 475.636719 C 1117.097656 475.773438 1117 475.929688 1116.9375 476.101562 C 1116.875 476.277344 1116.84375 476.457031 1116.851562 476.640625 C 1116.859375 476.828125 1116.902344 477.003906 1116.980469 477.171875 C 1117.058594 477.34375 1117.167969 477.488281 1117.304688 477.613281 C 1117.527344 477.8125 1139.03125 497.652344 1144.027344 508.128906 C 1144.144531 508.371094 1144.320312 508.566406 1144.546875 508.710938 C 1144.777344 508.855469 1145.027344 508.925781 1145.300781 508.921875 C 1145.507812 508.921875 1145.707031 508.878906 1145.898438 508.796875 Z M 1230.878906 526.867188 C 1230.957031 526.699219 1231 526.519531 1231.007812 526.335938 C 1231.011719 526.148438 1230.984375 525.96875 1230.917969 525.792969 C 1230.851562 525.621094 1230.753906 525.464844 1230.628906 525.328125 C 1230.5 525.191406 1230.351562 525.085938 1230.183594 525.011719 C 1187.644531 505.878906 1165.1875 512.332031 1164.253906 512.609375 C 1164.085938 512.671875 1163.9375 512.761719 1163.804688 512.882812 C 1163.671875 513 1163.566406 513.140625 1163.488281 513.300781 C 1163.410156 513.457031 1163.363281 513.625 1163.347656 513.804688 C 1163.335938 513.980469 1163.351562 514.152344 1163.40625 514.324219 C 1163.457031 514.496094 1163.535156 514.648438 1163.648438 514.789062 C 1163.757812 514.925781 1163.890625 515.039062 1164.042969 515.128906 C 1164.199219 515.21875 1164.363281 515.273438 1164.539062 515.300781 C 1164.714844 515.324219 1164.886719 515.316406 1165.0625 515.277344 C 1165.285156 515.277344 1187.585938 508.910156 1229.039062 527.566406 C 1229.21875 527.648438 1229.410156 527.691406 1229.609375 527.691406 C 1229.882812 527.691406 1230.136719 527.617188 1230.367188 527.46875 C 1230.597656 527.316406 1230.765625 527.117188 1230.878906 526.867188 Z M 1225.003906 531.058594 C 1225.101562 530.902344 1225.167969 530.730469 1225.199219 530.546875 C 1225.230469 530.367188 1225.226562 530.183594 1225.1875 530.003906 C 1225.144531 529.824219 1225.074219 529.65625 1224.964844 529.503906 C 1224.859375 529.355469 1224.726562 529.230469 1224.570312 529.128906 C 1208.589844 518.976562 1181.304688 517.148438 1180.105469 517.078125 C 1179.921875 517.066406 1179.742188 517.089844 1179.566406 517.148438 C 1179.390625 517.210938 1179.230469 517.300781 1179.09375 517.421875 C 1178.953125 517.546875 1178.84375 517.691406 1178.761719 517.855469 C 1178.679688 518.023438 1178.632812 518.199219 1178.621094 518.382812 C 1178.609375 518.570312 1178.632812 518.75 1178.691406 518.925781 C 1178.75 519.101562 1178.84375 519.257812 1178.964844 519.398438 C 1179.085938 519.539062 1179.230469 519.648438 1179.398438 519.730469 C 1179.5625 519.8125 1179.738281 519.859375 1179.925781 519.871094 C 1180.203125 519.871094 1207.699219 521.730469 1223.078125 531.503906 C 1223.234375 531.601562 1223.402344 531.667969 1223.585938 531.699219 C 1223.769531 531.730469 1223.949219 531.726562 1224.128906 531.6875 C 1224.3125 531.644531 1224.476562 531.574219 1224.628906 531.464844 C 1224.78125 531.359375 1224.90625 531.226562 1225.003906 531.070312 Z M 1225.003906 531.058594 " fill-opacity="1" fill-rule="nonzero"/><path fill="rgb(96.859741%, 43.528748%, 43.528748%)" d="M 1245.5625 540.511719 L 1199.015625 657.199219 L 1112.054688 631.097656 C 1092.515625 631.515625 1089.726562 611.339844 1089.726562 611.339844 L 1033.46875 557.03125 L 1091.761719 452.800781 L 1145.203125 513.195312 C 1154.972656 511.199219 1166.316406 520.554688 1166.316406 520.554688 Z M 1245.5625 540.511719 " fill-opacity="1" fill-rule="nonzero"/><path fill="rgb(34.509277%, 63.529968%, 40.779114%)" d="M 1218.027344 572.53125 L 1168.621094 559.070312 L 1178.753906 537.578125 L 1228.171875 551 Z M 1218.027344 572.53125 " fill-opacity="1" fill-rule="nonzero"/><path fill="rgb(34.509277%, 63.529968%, 40.779114%)" d="M 1154.886719 531.042969 C 1154.6875 531.042969 1154.496094 531 1154.316406 530.917969 L 1142.578125 525.738281 C 1142.410156 525.660156 1142.261719 525.558594 1142.136719 525.425781 C 1142.007812 525.292969 1141.914062 525.140625 1141.847656 524.96875 C 1141.78125 524.796875 1141.75 524.621094 1141.75 524.4375 C 1141.753906 524.253906 1141.792969 524.074219 1141.867188 523.90625 C 1141.941406 523.738281 1142.042969 523.585938 1142.175781 523.457031 C 1142.308594 523.328125 1142.464844 523.230469 1142.636719 523.160156 C 1142.808594 523.09375 1142.988281 523.058594 1143.175781 523.0625 C 1143.359375 523.066406 1143.539062 523.105469 1143.707031 523.179688 L 1155.445312 528.363281 C 1155.613281 528.4375 1155.761719 528.542969 1155.890625 528.675781 C 1156.019531 528.808594 1156.117188 528.964844 1156.183594 529.136719 C 1156.25 529.308594 1156.28125 529.488281 1156.277344 529.671875 C 1156.273438 529.859375 1156.230469 530.035156 1156.15625 530.207031 C 1156.046875 530.457031 1155.875 530.660156 1155.644531 530.8125 C 1155.417969 530.964844 1155.164062 531.042969 1154.886719 531.042969 Z M 1091.175781 602.148438 L 1138.628906 519.339844 C 1138.730469 519.179688 1138.796875 519.007812 1138.828125 518.820312 C 1138.859375 518.628906 1138.851562 518.445312 1138.804688 518.257812 C 1138.761719 518.074219 1138.679688 517.90625 1138.566406 517.753906 C 1138.453125 517.601562 1138.3125 517.476562 1138.148438 517.382812 C 1137.984375 517.289062 1137.808594 517.226562 1137.617188 517.207031 C 1137.429688 517.183594 1137.242188 517.199219 1137.0625 517.25 C 1136.878906 517.304688 1136.714844 517.390625 1136.566406 517.511719 C 1136.417969 517.632812 1136.300781 517.777344 1136.214844 517.945312 L 1088.761719 600.769531 C 1088.671875 600.929688 1088.613281 601.101562 1088.589844 601.28125 C 1088.566406 601.464844 1088.582031 601.644531 1088.628906 601.824219 C 1088.675781 602 1088.757812 602.164062 1088.871094 602.308594 C 1088.984375 602.457031 1089.117188 602.574219 1089.277344 602.667969 C 1089.492188 602.792969 1089.726562 602.859375 1089.976562 602.863281 C 1090.511719 602.855469 1090.914062 602.617188 1091.175781 602.148438 Z M 1119.3125 618.90625 L 1158.320312 539.308594 C 1158.417969 539.144531 1158.480469 538.960938 1158.503906 538.769531 C 1158.523438 538.578125 1158.507812 538.386719 1158.453125 538.203125 C 1158.398438 538.015625 1158.308594 537.847656 1158.179688 537.699219 C 1158.054688 537.554688 1157.90625 537.4375 1157.730469 537.351562 C 1157.558594 537.265625 1157.375 537.21875 1157.179688 537.207031 C 1156.988281 537.199219 1156.800781 537.230469 1156.617188 537.300781 C 1156.4375 537.367188 1156.277344 537.472656 1156.140625 537.605469 C 1156 537.742188 1155.894531 537.902344 1155.824219 538.082031 L 1116.746094 617.609375 C 1116.664062 617.777344 1116.617188 617.953125 1116.605469 618.136719 C 1116.59375 618.320312 1116.617188 618.503906 1116.675781 618.679688 C 1116.738281 618.851562 1116.828125 619.011719 1116.953125 619.148438 C 1117.074219 619.289062 1117.21875 619.398438 1117.386719 619.480469 C 1117.582031 619.574219 1117.785156 619.621094 1118 619.621094 C 1118.269531 619.640625 1118.519531 619.585938 1118.757812 619.460938 C 1118.992188 619.332031 1119.179688 619.15625 1119.3125 618.921875 Z M 1119.3125 618.90625 " fill-opacity="1" fill-rule="nonzero"/><path fill="rgb(92.158508%, 70.199585%, 54.508972%)" d="M 1249.105469 590.097656 L 1219.796875 658.972656 C 1219.796875 658.972656 1153.03125 638.375 1154.875 625.792969 C 1156.632812 613.671875 1180.859375 620.429688 1182.644531 620.960938 C 1180.566406 620.347656 1149.347656 611.046875 1154.875 601.535156 C 1160.398438 592.027344 1188.800781 603.476562 1190.671875 604.246094 C 1188.675781 603.421875 1157.328125 590.28125 1162.871094 582.320312 C 1167.058594 576.203125 1185.746094 581.832031 1195.039062 585.113281 C 1187.042969 581.847656 1173.28125 575.144531 1177.734375 569.039062 C 1183.902344 560.578125 1214.089844 575.898438 1214.089844 575.898438 C 1214.089844 575.898438 1203.105469 558.050781 1213.867188 555.773438 C 1224.628906 553.496094 1249.105469 590.097656 1249.105469 590.097656 Z M 1249.105469 590.097656 " fill-opacity="1" fill-rule="nonzero"/><path fill="rgb(0%, 76.078796%, 79.60968%)" d="M 1215.011719 686.453125 C 1215.011719 686.453125 1214.382812 615.234375 1252.148438 581.160156 L 1353.054688 604.691406 L 1377.324219 721.363281 C 1377.324219 721.363281 1246.582031 703.210938 1215.011719 686.453125 Z M 1215.011719 686.453125 " fill-opacity="1" fill-rule="nonzero"/><path fill="rgb(92.158508%, 70.199585%, 54.508972%)" d="M 1233.488281 367.476562 L 1233.753906 446.90625 C 1233.753906 446.90625 1200.132812 472.292969 1157.21875 450.816406 L 1158.613281 429.871094 C 1158.613281 429.871094 1107.617188 428.558594 1100.277344 367.324219 C 1084.503906 365.230469 1077.011719 338.527344 1086.417969 332.257812 C 1091.230469 329.046875 1096.1875 331.503906 1100.023438 334.980469 C 1101.910156 313.324219 1112.070312 260.214844 1166.484375 260.789062 C 1231.4375 261.472656 1233.335938 314.246094 1233.363281 337.886719 C 1237.425781 333.195312 1243.707031 328.195312 1249.804688 332.300781 C 1259.726562 338.878906 1250.949219 368.0625 1233.488281 367.476562 Z M 1233.488281 367.476562 " fill-opacity="1" fill-rule="nonzero"/><path fill="rgb(13.729858%, 12.159729%, 12.548828%)" d="M 1250.863281 342.929688 C 1250.796875 343.097656 1250.695312 343.25 1250.566406 343.382812 C 1250.4375 343.511719 1250.285156 343.613281 1250.117188 343.6875 C 1249.945312 343.757812 1249.769531 343.796875 1249.585938 343.796875 C 1249.398438 343.796875 1249.222656 343.765625 1249.050781 343.695312 C 1242.40625 340.902344 1236.78125 353.820312 1236.726562 353.960938 C 1236.617188 354.214844 1236.445312 354.417969 1236.210938 354.570312 C 1235.976562 354.722656 1235.722656 354.796875 1235.441406 354.796875 C 1235.25 354.800781 1235.0625 354.761719 1234.886719 354.6875 C 1234.714844 354.613281 1234.566406 354.507812 1234.441406 354.375 C 1234.3125 354.246094 1234.214844 354.09375 1234.144531 353.921875 C 1234.078125 353.75 1234.042969 353.570312 1234.046875 353.386719 C 1234.050781 353.203125 1234.085938 353.027344 1234.160156 352.855469 C 1234.4375 352.214844 1240.941406 337.328125 1250.113281 341.113281 C 1250.28125 341.183594 1250.429688 341.285156 1250.5625 341.414062 C 1250.691406 341.542969 1250.789062 341.695312 1250.863281 341.863281 C 1250.933594 342.035156 1250.96875 342.210938 1250.96875 342.394531 C 1250.96875 342.582031 1250.933594 342.757812 1250.863281 342.929688 Z M 1232.011719 340.679688 C 1233.851562 354.910156 1234.703125 391.648438 1200.761719 417.359375 C 1199.8125 418.085938 1198.851562 418.753906 1197.859375 419.480469 C 1197.859375 419.480469 1186.902344 432.523438 1158.710938 430.792969 L 1158.628906 430.792969 L 1158.699219 429.828125 L 1158.027344 429.828125 C 1157.96875 429.84375 1157.90625 429.84375 1157.847656 429.828125 C 1157.539062 429.828125 1157.164062 429.828125 1156.714844 429.730469 C 1155.445312 429.605469 1153.644531 429.355469 1151.441406 428.90625 L 1149.933594 428.570312 C 1149.039062 428.363281 1148.105469 428.140625 1147.140625 427.847656 C 1129.097656 422.804688 1096.578125 405.179688 1099.691406 344.058594 C 1099.691406 344.058594 1099.691406 340.582031 1100.109375 335.039062 C 1093.355469 342.242188 1082.371094 347.898438 1064.449219 342.46875 C 1064.449219 342.46875 1078.195312 335.386719 1077.738281 321.785156 C 1077.277344 308.183594 1073.550781 291.816406 1082.804688 286.050781 C 1092.054688 280.28125 1092.015625 286.511719 1104.226562 278.914062 C 1116.4375 271.316406 1117.09375 246.097656 1137.136719 241.949219 C 1157.175781 237.804688 1163.859375 248.402344 1170.546875 248.402344 C 1177.230469 248.402344 1182.296875 236.882812 1207.640625 249.796875 C 1232.988281 262.714844 1234.160156 288.996094 1231.367188 295.226562 C 1231.367188 295.226562 1243.578125 315.738281 1240.578125 332.34375 C 1240.59375 332.328125 1236.910156 336.140625 1231.96875 340.734375 Z M 1218.484375 352.03125 C 1218.207031 351.292969 1213.769531 339.464844 1216.449219 333.65625 C 1216.449219 333.65625 1203.246094 329.242188 1209.148438 309.664062 C 1209.148438 309.664062 1184.179688 311.523438 1175.195312 299.066406 C 1165.132812 285.101562 1162.816406 310.796875 1143.832031 310.796875 C 1125.691406 310.796875 1113.730469 313.953125 1110.4375 318.226562 C 1109.558594 334.480469 1108.257812 393.421875 1134.160156 410.011719 C 1134.480469 410.222656 1134.804688 410.414062 1135.144531 410.582031 C 1135.484375 410.753906 1135.832031 410.90625 1136.1875 411.035156 C 1136.542969 411.167969 1136.90625 411.277344 1137.273438 411.363281 C 1137.644531 411.453125 1138.015625 411.519531 1138.394531 411.5625 C 1138.769531 411.609375 1139.148438 411.632812 1139.527344 411.632812 C 1139.90625 411.632812 1140.285156 411.609375 1140.660156 411.566406 C 1141.039062 411.523438 1141.410156 411.460938 1141.78125 411.371094 C 1142.148438 411.285156 1142.511719 411.179688 1142.871094 411.050781 C 1143.226562 410.917969 1143.574219 410.769531 1143.914062 410.601562 C 1144.253906 410.429688 1144.582031 410.242188 1144.898438 410.035156 C 1145.214844 409.828125 1145.519531 409.601562 1145.8125 409.355469 C 1146.101562 409.113281 1146.378906 408.855469 1146.640625 408.578125 C 1146.898438 408.304688 1147.144531 408.011719 1147.371094 407.710938 C 1147.597656 407.40625 1147.808594 407.089844 1147.996094 406.761719 C 1148.1875 406.433594 1148.359375 406.09375 1148.507812 405.746094 C 1148.660156 405.398438 1148.789062 405.042969 1148.898438 404.679688 L 1160.625 404.105469 L 1161.125 405.238281 C 1161.367188 405.785156 1161.652344 406.304688 1161.988281 406.800781 C 1162.324219 407.292969 1162.703125 407.753906 1163.121094 408.179688 C 1163.542969 408.605469 1163.996094 408.988281 1164.488281 409.328125 C 1164.976562 409.671875 1165.496094 409.964844 1166.039062 410.210938 C 1166.582031 410.457031 1167.144531 410.652344 1167.726562 410.796875 C 1168.304688 410.941406 1168.894531 411.03125 1169.488281 411.066406 C 1170.085938 411.101562 1170.679688 411.082031 1171.273438 411.007812 C 1171.867188 410.933594 1172.445312 410.808594 1173.015625 410.628906 C 1186.792969 406.296875 1212.972656 392.710938 1218.445312 352.089844 Z M 1136.828125 328.710938 C 1137.375 328.792969 1137.875 328.984375 1138.335938 329.289062 C 1138.792969 329.59375 1139.167969 329.984375 1139.453125 330.457031 C 1140.359375 332.175781 1139.242188 334.285156 1137.917969 335.695312 C 1137.097656 336.558594 1136.199219 337.328125 1135.21875 338 C 1134.238281 338.675781 1133.199219 339.242188 1132.101562 339.695312 C 1131 340.152344 1129.867188 340.488281 1128.699219 340.707031 C 1127.527344 340.921875 1126.347656 341.015625 1125.160156 340.988281 C 1124.507812 341.027344 1123.875 340.9375 1123.257812 340.722656 C 1122.640625 340.507812 1122.085938 340.179688 1121.601562 339.742188 C 1121.195312 339.226562 1120.949219 338.640625 1120.859375 337.988281 C 1120.769531 337.335938 1120.847656 336.707031 1121.097656 336.097656 C 1121.628906 334.921875 1122.40625 333.9375 1123.429688 333.152344 C 1125.195312 331.546875 1127.199219 330.335938 1129.445312 329.523438 C 1130.574219 329.199219 1131.722656 328.976562 1132.890625 328.851562 L 1133.03125 328.851562 C 1134.289062 328.601562 1135.554688 328.554688 1136.828125 328.710938 Z M 1163.34375 328.082031 C 1162.132812 327.542969 1160.863281 327.257812 1159.535156 327.230469 C 1158.515625 327.132812 1157.527344 327.273438 1156.574219 327.652344 C 1156.183594 327.890625 1155.839844 328.183594 1155.542969 328.535156 C 1155.246094 328.886719 1155.015625 329.277344 1154.847656 329.703125 C 1154.679688 330.132812 1154.585938 330.574219 1154.5625 331.035156 C 1154.542969 331.492188 1154.59375 331.941406 1154.71875 332.382812 C 1155.285156 334.183594 1156.320312 335.65625 1157.816406 336.796875 C 1159.890625 338.59375 1162.214844 339.953125 1164.796875 340.875 C 1166.777344 341.574219 1169.277344 341.878906 1170.714844 340.359375 C 1171.164062 339.824219 1171.460938 339.21875 1171.601562 338.53125 C 1171.746094 337.847656 1171.714844 337.171875 1171.507812 336.503906 C 1171.074219 335.179688 1170.375 334.011719 1169.414062 333 C 1167.75 330.902344 1165.71875 329.265625 1163.316406 328.082031 Z M 1147.589844 371.890625 C 1147.605469 371.707031 1147.585938 371.527344 1147.535156 371.351562 C 1147.480469 371.175781 1147.394531 371.015625 1147.28125 370.875 C 1147.164062 370.730469 1147.023438 370.617188 1146.863281 370.527344 C 1146.699219 370.441406 1146.527344 370.386719 1146.347656 370.367188 C 1145.515625 370.261719 1144.863281 369.859375 1144.390625 369.167969 C 1140.820312 364.53125 1142.171875 349.433594 1142.996094 344.03125 C 1143.023438 343.847656 1143.015625 343.664062 1142.96875 343.480469 C 1142.925781 343.300781 1142.847656 343.132812 1142.734375 342.980469 C 1142.625 342.832031 1142.488281 342.707031 1142.328125 342.613281 C 1142.167969 342.515625 1141.996094 342.453125 1141.808594 342.425781 C 1141.625 342.398438 1141.441406 342.40625 1141.261719 342.453125 C 1141.078125 342.496094 1140.914062 342.574219 1140.761719 342.6875 C 1140.613281 342.796875 1140.488281 342.933594 1140.390625 343.09375 C 1140.296875 343.253906 1140.234375 343.425781 1140.207031 343.613281 C 1139.882812 345.71875 1137.191406 364.445312 1142.144531 370.855469 C 1142.601562 371.492188 1143.167969 372.007812 1143.84375 372.402344 C 1144.519531 372.796875 1145.246094 373.035156 1146.023438 373.117188 L 1146.164062 373.117188 C 1146.339844 373.125 1146.507812 373.097656 1146.671875 373.039062 C 1146.835938 372.980469 1146.984375 372.894531 1147.113281 372.78125 C 1147.246094 372.667969 1147.351562 372.53125 1147.433594 372.378906 C 1147.515625 372.226562 1147.566406 372.0625 1147.589844 371.890625 Z M 1158.054688 384.457031 C 1163.191406 381.46875 1166.695312 375.96875 1168.496094 368.121094 C 1168.535156 367.9375 1168.542969 367.753906 1168.511719 367.570312 C 1168.476562 367.386719 1168.414062 367.21875 1168.3125 367.0625 C 1168.214844 366.902344 1168.085938 366.769531 1167.933594 366.664062 C 1167.78125 366.558594 1167.617188 366.484375 1167.433594 366.445312 C 1167.253906 366.402344 1167.074219 366.398438 1166.894531 366.433594 C 1166.710938 366.464844 1166.542969 366.527344 1166.386719 366.625 C 1166.234375 366.722656 1166.101562 366.847656 1165.996094 366.996094 C 1165.890625 367.148438 1165.816406 367.3125 1165.773438 367.492188 C 1164.152344 374.472656 1161.097656 379.429688 1156.6875 382.027344 C 1154.800781 383.058594 1152.792969 383.714844 1150.660156 383.988281 C 1148.53125 384.261719 1146.421875 384.140625 1144.335938 383.621094 C 1144.160156 383.566406 1143.976562 383.550781 1143.792969 383.570312 C 1143.609375 383.589844 1143.433594 383.644531 1143.273438 383.730469 C 1143.109375 383.820312 1142.96875 383.9375 1142.851562 384.082031 C 1142.734375 384.222656 1142.652344 384.386719 1142.597656 384.5625 C 1142.546875 384.742188 1142.527344 384.921875 1142.546875 385.105469 C 1142.566406 385.289062 1142.621094 385.464844 1142.710938 385.628906 C 1142.796875 385.789062 1142.914062 385.929688 1143.058594 386.046875 C 1143.203125 386.164062 1143.363281 386.25 1143.539062 386.300781 C 1145.1875 386.734375 1146.863281 386.945312 1148.566406 386.929688 C 1151.941406 386.941406 1155.089844 386.101562 1158.011719 384.417969 Z M 1129.261719 348.429688 C 1128.839844 348.429688 1128.429688 348.507812 1128.039062 348.667969 C 1127.644531 348.828125 1127.300781 349.058594 1126.996094 349.359375 C 1126.695312 349.65625 1126.464844 350.003906 1126.300781 350.394531 C 1126.136719 350.785156 1126.054688 351.195312 1126.054688 351.617188 C 1126.050781 352.042969 1126.132812 352.453125 1126.292969 352.84375 C 1126.453125 353.238281 1126.683594 353.582031 1126.984375 353.882812 C 1127.285156 354.183594 1127.628906 354.417969 1128.019531 354.578125 C 1128.414062 354.742188 1128.820312 354.824219 1129.246094 354.824219 C 1129.667969 354.824219 1130.078125 354.746094 1130.46875 354.582031 C 1130.863281 354.421875 1131.207031 354.191406 1131.507812 353.890625 C 1131.808594 353.589844 1132.039062 353.246094 1132.203125 352.851562 C 1132.363281 352.460938 1132.445312 352.050781 1132.445312 351.628906 C 1132.449219 351.199219 1132.375 350.78125 1132.210938 350.382812 C 1132.050781 349.984375 1131.816406 349.632812 1131.515625 349.328125 C 1131.210938 349.023438 1130.859375 348.789062 1130.464844 348.628906 C 1130.066406 348.464844 1129.652344 348.382812 1129.222656 348.386719 Z M 1156.28125 348.207031 C 1155.855469 348.199219 1155.441406 348.273438 1155.042969 348.433594 C 1154.644531 348.59375 1154.292969 348.820312 1153.988281 349.121094 C 1153.683594 349.421875 1153.449219 349.769531 1153.28125 350.164062 C 1153.117188 350.558594 1153.03125 350.972656 1153.03125 351.398438 C 1153.03125 351.828125 1153.113281 352.242188 1153.277344 352.636719 C 1153.445312 353.03125 1153.679688 353.378906 1153.984375 353.679688 C 1154.289062 353.980469 1154.640625 354.210938 1155.035156 354.371094 C 1155.433594 354.53125 1155.847656 354.609375 1156.273438 354.601562 C 1156.703125 354.59375 1157.113281 354.507812 1157.507812 354.335938 C 1157.898438 354.164062 1158.242188 353.921875 1158.539062 353.613281 C 1158.835938 353.304688 1159.058594 352.949219 1159.210938 352.550781 C 1159.367188 352.148438 1159.4375 351.734375 1159.421875 351.304688 C 1159.417969 350.886719 1159.332031 350.484375 1159.167969 350.101562 C 1159.003906 349.714844 1158.773438 349.375 1158.476562 349.082031 C 1158.179688 348.789062 1157.835938 348.5625 1157.449219 348.402344 C 1157.0625 348.242188 1156.660156 348.164062 1156.242188 348.164062 Z M 1156.28125 348.207031 " fill-opacity="1" fill-rule="nonzero"/><path fill="rgb(96.859741%, 43.528748%, 43.528748%)" d="M 1198.542969 355.398438 C 1198.542969 355.960938 1198.488281 356.515625 1198.378906 357.066406 C 1198.269531 357.621094 1198.105469 358.15625 1197.890625 358.675781 C 1197.675781 359.191406 1197.414062 359.6875 1197.101562 360.152344 C 1196.789062 360.621094 1196.433594 361.054688 1196.035156 361.449219 C 1195.640625 361.847656 1195.207031 362.203125 1194.742188 362.515625 C 1194.273438 362.828125 1193.78125 363.089844 1193.261719 363.308594 C 1192.742188 363.523438 1192.207031 363.683594 1191.65625 363.792969 C 1191.105469 363.902344 1190.550781 363.957031 1189.988281 363.957031 C 1189.425781 363.957031 1188.871094 363.902344 1188.320312 363.792969 C 1187.765625 363.683594 1187.234375 363.523438 1186.714844 363.308594 C 1186.195312 363.089844 1185.703125 362.828125 1185.234375 362.515625 C 1184.765625 362.203125 1184.335938 361.847656 1183.9375 361.449219 C 1183.539062 361.054688 1183.1875 360.621094 1182.875 360.152344 C 1182.5625 359.6875 1182.296875 359.191406 1182.082031 358.675781 C 1181.867188 358.15625 1181.707031 357.621094 1181.597656 357.066406 C 1181.488281 356.515625 1181.433594 355.960938 1181.433594 355.398438 C 1181.433594 354.835938 1181.488281 354.28125 1181.597656 353.726562 C 1181.707031 353.175781 1181.867188 352.640625 1182.082031 352.121094 C 1182.296875 351.601562 1182.5625 351.109375 1182.875 350.640625 C 1183.1875 350.175781 1183.539062 349.742188 1183.9375 349.34375 C 1184.335938 348.949219 1184.765625 348.59375 1185.234375 348.28125 C 1185.703125 347.96875 1186.195312 347.703125 1186.714844 347.488281 C 1187.234375 347.273438 1187.765625 347.113281 1188.320312 347.003906 C 1188.871094 346.894531 1189.425781 346.835938 1189.988281 346.835938 C 1190.550781 346.835938 1191.105469 346.894531 1191.65625 347.003906 C 1192.207031 347.113281 1192.742188 347.273438 1193.261719 347.488281 C 1193.78125 347.703125 1194.273438 347.96875 1194.742188 348.28125 C 1195.207031 348.59375 1195.640625 348.949219 1196.035156 349.34375 C 1196.433594 349.742188 1196.789062 350.175781 1197.101562 350.640625 C 1197.414062 351.109375 1197.675781 351.601562 1197.890625 352.121094 C 1198.105469 352.640625 1198.269531 353.175781 1198.378906 353.726562 C 1198.488281 354.28125 1198.542969 354.835938 1198.542969 355.398438 Z M 1198.542969 355.398438 " fill-opacity="1" fill-rule="nonzero"/><path fill="rgb(96.859741%, 43.528748%, 43.528748%)" d="M 1393.539062 796.898438 C 1362.683594 812.621094 1308.894531 829.769531 1221.195312 829.769531 C 1206.191406 829.769531 1190.195312 829.269531 1173.140625 828.179688 C 1131.488281 825.496094 1090.230469 819.914062 1049.363281 811.421875 C 1049.363281 810.5 1049.503906 809.550781 1049.574219 808.628906 C 1090.441406 817.164062 1131.703125 822.773438 1173.367188 825.457031 C 1237.410156 829.574219 1327.375 827.550781 1392.269531 794.484375 C 1392.574219 794.335938 1392.890625 794.300781 1393.21875 794.386719 L 1393.722656 796.828125 Z M 1223.539062 802.890625 C 1304.890625 802.890625 1357.058594 788.128906 1388.808594 773.4375 C 1388.613281 772.515625 1388.40625 771.582031 1388.210938 770.644531 C 1323.898438 800.710938 1237.664062 802.484375 1175.710938 798.503906 C 1134.234375 795.800781 1093.152344 790.214844 1052.460938 781.746094 L 1052.085938 784.539062 C 1092.828125 793.003906 1133.960938 798.589844 1175.488281 801.296875 C 1192.542969 802.359375 1208.523438 802.890625 1223.539062 802.890625 Z M 1224.695312 777.167969 C 1301.011719 777.167969 1351.628906 764.179688 1383.800781 750.453125 C 1383.605469 749.53125 1383.394531 748.609375 1383.199219 747.660156 C 1319.640625 775.101562 1236.910156 776.636719 1176.894531 772.78125 C 1136.335938 770.132812 1096.144531 764.75 1056.3125 756.640625 L 1055.851562 759.433594 C 1095.757812 767.566406 1136.03125 772.957031 1176.671875 775.601562 C 1193.644531 776.664062 1209.695312 777.222656 1224.695312 777.222656 Z M 1060.820312 731.140625 C 1099.109375 738.667969 1137.722656 743.714844 1176.660156 746.277344 C 1193.699219 747.378906 1209.695312 747.882812 1224.695312 747.882812 C 1296.460938 747.882812 1345.488281 736.40625 1377.855469 723.613281 C 1377.671875 722.816406 1377.503906 722.035156 1377.324219 721.238281 L 1377.238281 720.875 C 1314.519531 745.902344 1235.023438 747.242188 1176.882812 743.5 C 1138.042969 740.941406 1099.527344 735.902344 1061.339844 728.390625 C 1061.171875 729.351562 1061.058594 730.273438 1060.820312 731.140625 Z M 1060.820312 731.140625 " fill-opacity="1" fill-rule="nonzero"/><path fill="rgb(13.729858%, 12.159729%, 12.548828%)" d="M 867.316406 390.589844 C 865.363281 386.75 861.734375 372.226562 861.300781 370.535156 C 861.25 370.351562 861.234375 370.167969 861.257812 369.980469 C 861.28125 369.789062 861.339844 369.613281 861.433594 369.449219 C 861.527344 369.285156 861.652344 369.144531 861.804688 369.03125 C 861.957031 368.917969 862.125 368.839844 862.308594 368.792969 C 862.492188 368.746094 862.675781 368.738281 862.863281 368.769531 C 863.050781 368.800781 863.226562 368.863281 863.386719 368.964844 C 863.546875 369.066406 863.679688 369.195312 863.789062 369.351562 C 863.898438 369.507812 863.972656 369.679688 864.007812 369.867188 C 865.140625 374.429688 868.40625 386.859375 869.886719 389.414062 C 869.929688 389.507812 869.960938 389.605469 869.984375 389.707031 C 870.386719 390.492188 872.328125 393.535156 876.960938 391.578125 C 881.59375 389.625 880.003906 373.214844 877.433594 362.253906 C 877.394531 362.074219 877.386719 361.890625 877.417969 361.710938 C 877.449219 361.527344 877.511719 361.355469 877.613281 361.199219 C 877.710938 361.042969 877.835938 360.910156 877.984375 360.800781 C 878.136719 360.695312 878.300781 360.621094 878.480469 360.578125 C 878.660156 360.535156 878.84375 360.53125 879.023438 360.558594 C 879.207031 360.589844 879.375 360.652344 879.53125 360.75 C 879.6875 360.847656 879.820312 360.96875 879.929688 361.121094 C 880.039062 361.269531 880.113281 361.433594 880.15625 361.613281 C 881.21875 366.386719 881.96875 371.210938 882.417969 376.078125 C 882.597656 378.160156 882.683594 380.058594 882.683594 381.789062 C 882.816406 381.976562 882.902344 382.179688 882.933594 382.40625 C 882.933594 382.503906 883.449219 386.496094 885.976562 388.394531 C 886.621094 388.847656 887.328125 389.152344 888.101562 389.304688 C 888.875 389.460938 889.644531 389.449219 890.414062 389.277344 C 891.144531 389.164062 891.816406 388.898438 892.425781 388.480469 C 893.035156 388.0625 893.523438 387.53125 893.890625 386.886719 C 897.769531 380.632812 893.945312 364.347656 892.1875 358.609375 C 892.125 358.429688 892.101562 358.246094 892.113281 358.058594 C 892.128906 357.871094 892.175781 357.691406 892.261719 357.523438 C 892.347656 357.355469 892.464844 357.210938 892.609375 357.089844 C 892.753906 356.96875 892.914062 356.878906 893.09375 356.824219 C 893.277344 356.765625 893.460938 356.75 893.648438 356.765625 C 893.835938 356.785156 894.011719 356.839844 894.179688 356.933594 C 894.34375 357.023438 894.484375 357.140625 894.601562 357.289062 C 894.71875 357.4375 894.800781 357.605469 894.851562 357.785156 C 895.0625 358.429688 898.453125 369.558594 898.34375 378.957031 C 898.445312 379.089844 898.523438 379.238281 898.566406 379.402344 C 898.78125 380.070312 899.097656 380.683594 899.523438 381.238281 C 899.949219 381.792969 900.457031 382.265625 901.042969 382.644531 C 901.632812 383.027344 902.265625 383.300781 902.945312 383.460938 C 903.628906 383.625 904.316406 383.667969 905.011719 383.59375 C 905.820312 383.476562 906.546875 383.167969 907.195312 382.671875 C 907.839844 382.175781 908.324219 381.550781 908.640625 380.800781 C 907.621094 373.972656 907.050781 365.4375 909.632812 361.390625 C 909.992188 360.765625 910.464844 360.246094 911.050781 359.828125 C 911.632812 359.410156 912.277344 359.128906 912.980469 358.988281 C 922.234375 357.199219 928.753906 373.636719 929.019531 374.347656 C 929.101562 374.523438 929.144531 374.707031 929.152344 374.902344 C 929.160156 375.097656 929.125 375.285156 929.054688 375.464844 C 928.980469 375.644531 928.878906 375.800781 928.738281 375.9375 C 928.601562 376.074219 928.441406 376.179688 928.261719 376.25 C 928.082031 376.320312 927.894531 376.351562 927.699219 376.34375 C 927.503906 376.335938 927.320312 376.289062 927.144531 376.203125 C 926.972656 376.117188 926.820312 376 926.695312 375.855469 C 926.570312 375.707031 926.476562 375.539062 926.421875 375.351562 C 924.804688 371.164062 919.289062 360.621094 913.5 361.722656 C 912.8125 361.882812 912.300781 362.269531 911.964844 362.882812 C 908.808594 367.785156 911.769531 383.828125 913.175781 389.707031 C 913.289062 390.183594 913.183594 390.601562 912.855469 390.964844 C 912.527344 391.332031 912.117188 391.480469 911.628906 391.414062 C 911.542969 391.414062 902.125 390.210938 896.277344 395.15625 C 893.304688 397.65625 891.710938 401.367188 891.53125 406.1875 C 891.53125 406.371094 891.496094 406.550781 891.425781 406.722656 C 891.355469 406.890625 891.253906 407.042969 891.121094 407.175781 C 890.992188 407.304688 890.839844 407.40625 890.667969 407.476562 C 890.5 407.546875 890.320312 407.582031 890.136719 407.582031 C 889.949219 407.582031 889.773438 407.546875 889.601562 407.476562 C 889.429688 407.40625 889.28125 407.304688 889.148438 407.175781 C 889.019531 407.042969 888.917969 406.890625 888.847656 406.722656 C 888.773438 406.550781 888.738281 406.371094 888.738281 406.1875 C 888.949219 400.601562 890.890625 396.144531 894.488281 393.117188 C 899.613281 388.816406 906.671875 388.480469 910.050781 388.605469 C 909.828125 387.585938 909.546875 386.230469 909.269531 384.679688 C 908.15625 385.753906 906.828125 386.367188 905.292969 386.523438 C 904.949219 386.546875 904.605469 386.546875 904.257812 386.523438 C 903.050781 386.539062 901.890625 386.304688 900.78125 385.816406 C 899.671875 385.328125 898.714844 384.636719 897.910156 383.730469 C 897.648438 385.390625 897.09375 386.945312 896.25 388.394531 C 895.660156 389.386719 894.890625 390.199219 893.933594 390.835938 C 892.976562 391.476562 891.929688 391.878906 890.792969 392.039062 C 890.210938 392.140625 889.625 392.191406 889.03125 392.195312 C 887.242188 392.222656 885.632812 391.695312 884.203125 390.617188 C 883.324219 389.9375 882.59375 389.121094 882.011719 388.171875 C 881.300781 391.355469 879.949219 393.367188 877.9375 394.234375 C 876.683594 394.789062 875.371094 395.078125 874.003906 395.097656 C 873.296875 395.097656 872.601562 394.996094 871.925781 394.792969 C 871.246094 394.59375 870.613281 394.300781 870.019531 393.917969 C 869.425781 393.535156 868.898438 393.074219 868.433594 392.539062 C 867.972656 392.003906 867.59375 391.414062 867.304688 390.769531 C 867.300781 390.710938 867.304688 390.648438 867.316406 390.589844 Z M 1000.558594 522.664062 C 1000.464844 522.503906 1000.34375 522.363281 1000.199219 522.25 C 1000.050781 522.136719 999.886719 522.054688 999.707031 522.007812 C 999.527344 521.957031 999.34375 521.945312 999.160156 521.96875 C 998.976562 521.992188 998.800781 522.050781 998.640625 522.144531 C 998.480469 522.234375 998.339844 522.355469 998.226562 522.503906 C 998.113281 522.648438 998.03125 522.8125 997.980469 522.992188 C 997.933594 523.171875 997.917969 523.355469 997.941406 523.539062 C 997.964844 523.726562 998.023438 523.898438 998.117188 524.0625 L 1012.210938 549.601562 C 1012.335938 549.828125 1012.503906 550.003906 1012.726562 550.132812 C 1012.945312 550.265625 1013.183594 550.328125 1013.441406 550.328125 C 1013.679688 550.328125 1013.902344 550.269531 1014.109375 550.148438 C 1014.269531 550.058594 1014.40625 549.941406 1014.519531 549.796875 C 1014.636719 549.652344 1014.71875 549.492188 1014.769531 549.316406 C 1014.820312 549.140625 1014.835938 548.960938 1014.816406 548.777344 C 1014.796875 548.59375 1014.742188 548.421875 1014.652344 548.261719 Z M 942.304688 431.378906 C 930.457031 432.105469 913.539062 438.765625 892.0625 451.167969 C 876.109375 460.355469 863.410156 469.460938 863.285156 469.558594 C 863.039062 469.734375 862.867188 469.96875 862.773438 470.257812 C 862.679688 470.546875 862.679688 470.832031 862.773438 471.121094 C 862.867188 471.410156 863.039062 471.644531 863.285156 471.820312 C 863.53125 471.996094 863.804688 472.085938 864.105469 472.085938 C 864.40625 472.082031 864.675781 471.996094 864.917969 471.820312 C 865.417969 471.457031 915.160156 435.832031 942.527344 434.117188 C 942.714844 434.105469 942.890625 434.058594 943.058594 433.980469 C 943.222656 433.898438 943.371094 433.789062 943.492188 433.648438 C 943.617188 433.511719 943.707031 433.351562 943.769531 433.175781 C 943.832031 433 943.855469 432.820312 943.84375 432.636719 C 943.832031 432.449219 943.785156 432.273438 943.707031 432.105469 C 943.625 431.9375 943.511719 431.792969 943.375 431.671875 C 943.234375 431.546875 943.078125 431.457031 942.902344 431.394531 C 942.726562 431.335938 942.546875 431.3125 942.359375 431.324219 Z M 927.523438 417.664062 C 927.890625 417.664062 928.253906 417.703125 928.613281 417.773438 C 928.972656 417.84375 929.320312 417.949219 929.660156 418.089844 C 930 418.230469 930.320312 418.402344 930.625 418.605469 C 930.929688 418.8125 931.210938 419.042969 931.472656 419.300781 C 931.730469 419.5625 931.960938 419.84375 932.167969 420.148438 C 932.371094 420.453125 932.542969 420.773438 932.683594 421.113281 C 932.824219 421.453125 932.929688 421.800781 933 422.160156 C 933.070312 422.519531 933.105469 422.882812 933.105469 423.25 C 933.105469 423.617188 933.070312 423.980469 933 424.339844 C 932.929688 424.699219 932.824219 425.050781 932.683594 425.390625 C 932.542969 425.726562 932.371094 426.050781 932.167969 426.355469 C 931.960938 426.660156 931.730469 426.941406 931.472656 427.199219 C 931.210938 427.460938 930.929688 427.691406 930.625 427.894531 C 930.320312 428.097656 930 428.273438 929.660156 428.410156 C 929.320312 428.550781 928.972656 428.660156 928.613281 428.730469 C 928.253906 428.800781 927.890625 428.835938 927.523438 428.835938 C 927.15625 428.835938 926.796875 428.800781 926.433594 428.730469 C 926.074219 428.660156 925.726562 428.550781 925.386719 428.410156 C 925.050781 428.273438 924.726562 428.097656 924.421875 427.894531 C 924.117188 427.691406 923.835938 427.460938 923.578125 427.199219 C 923.316406 426.941406 923.085938 426.660156 922.882812 426.355469 C 922.679688 426.050781 922.507812 425.726562 922.367188 425.390625 C 922.226562 425.050781 922.121094 424.699219 922.050781 424.339844 C 921.976562 423.980469 921.941406 423.617188 921.941406 423.25 C 921.941406 422.882812 921.976562 422.519531 922.050781 422.160156 C 922.121094 421.800781 922.226562 421.453125 922.367188 421.113281 C 922.507812 420.773438 922.679688 420.453125 922.882812 420.148438 C 923.085938 419.84375 923.316406 419.5625 923.578125 419.300781 C 923.835938 419.042969 924.117188 418.8125 924.421875 418.605469 C 924.726562 418.402344 925.050781 418.230469 925.386719 418.089844 C 925.726562 417.949219 926.074219 417.84375 926.433594 417.773438 C 926.796875 417.703125 927.15625 417.664062 927.523438 417.664062 Z M 927.523438 420.457031 C 927.15625 420.457031 926.796875 420.53125 926.457031 420.671875 C 926.113281 420.8125 925.8125 421.015625 925.550781 421.277344 C 925.289062 421.539062 925.085938 421.839844 924.945312 422.183594 C 924.804688 422.523438 924.734375 422.882812 924.734375 423.25 C 924.734375 423.621094 924.804688 423.976562 924.945312 424.320312 C 925.085938 424.664062 925.289062 424.964844 925.550781 425.226562 C 925.8125 425.488281 926.113281 425.691406 926.457031 425.832031 C 926.796875 425.972656 927.15625 426.042969 927.523438 426.042969 C 927.894531 426.042969 928.25 425.972656 928.59375 425.832031 C 928.933594 425.691406 929.238281 425.488281 929.5 425.226562 C 929.761719 424.964844 929.960938 424.664062 930.101562 424.320312 C 930.246094 423.976562 930.316406 423.621094 930.316406 423.25 C 930.316406 422.882812 930.246094 422.523438 930.101562 422.183594 C 929.960938 421.839844 929.761719 421.539062 929.5 421.277344 C 929.238281 421.015625 928.933594 420.8125 928.59375 420.671875 C 928.25 420.53125 927.894531 420.457031 927.523438 420.457031 Z M 1372.132812 610.933594 C 1361.644531 606.804688 1350.96875 603.246094 1340.101562 600.25 C 1339.917969 600.199219 1339.734375 600.183594 1339.546875 600.207031 C 1339.359375 600.230469 1339.179688 600.289062 1339.015625 600.382812 C 1338.851562 600.476562 1338.714844 600.601562 1338.597656 600.753906 C 1338.484375 600.90625 1338.40625 601.074219 1338.359375 601.257812 C 1338.3125 601.441406 1338.304688 601.628906 1338.335938 601.816406 C 1338.367188 602.003906 1338.433594 602.175781 1338.535156 602.335938 C 1338.636719 602.496094 1338.761719 602.632812 1338.917969 602.738281 C 1339.074219 602.847656 1339.246094 602.921875 1339.433594 602.960938 C 1350.171875 605.933594 1360.726562 609.457031 1371.097656 613.53125 C 1371.265625 613.589844 1371.4375 613.621094 1371.617188 613.628906 C 1371.949219 613.628906 1372.246094 613.523438 1372.507812 613.308594 C 1372.765625 613.097656 1372.925781 612.824219 1372.988281 612.496094 C 1373.050781 612.164062 1373.003906 611.855469 1372.839844 611.558594 C 1372.679688 611.265625 1372.445312 611.058594 1372.132812 610.933594 Z M 1239.839844 674.582031 C 1239.839844 674.949219 1239.804688 675.3125 1239.730469 675.671875 C 1239.660156 676.035156 1239.554688 676.382812 1239.414062 676.722656 C 1239.273438 677.058594 1239.101562 677.382812 1238.898438 677.6875 C 1238.695312 677.992188 1238.464844 678.273438 1238.203125 678.535156 C 1237.945312 678.792969 1237.664062 679.023438 1237.359375 679.226562 C 1237.054688 679.433594 1236.730469 679.605469 1236.394531 679.746094 C 1236.054688 679.886719 1235.707031 679.992188 1235.347656 680.0625 C 1234.988281 680.132812 1234.625 680.167969 1234.257812 680.167969 C 1233.890625 680.167969 1233.527344 680.132812 1233.167969 680.0625 C 1232.808594 679.992188 1232.460938 679.886719 1232.121094 679.746094 C 1231.78125 679.605469 1231.460938 679.433594 1231.15625 679.226562 C 1230.851562 679.023438 1230.570312 678.792969 1230.308594 678.535156 C 1230.050781 678.273438 1229.820312 677.992188 1229.613281 677.6875 C 1229.410156 677.382812 1229.238281 677.058594 1229.097656 676.722656 C 1228.960938 676.382812 1228.851562 676.035156 1228.78125 675.671875 C 1228.710938 675.3125 1228.675781 674.949219 1228.675781 674.582031 C 1228.675781 674.21875 1228.710938 673.855469 1228.78125 673.492188 C 1228.851562 673.132812 1228.960938 672.785156 1229.097656 672.445312 C 1229.238281 672.109375 1229.410156 671.785156 1229.617188 671.480469 C 1229.820312 671.175781 1230.050781 670.894531 1230.308594 670.632812 C 1230.570312 670.375 1230.851562 670.144531 1231.15625 669.9375 C 1231.460938 669.734375 1231.78125 669.5625 1232.121094 669.421875 C 1232.460938 669.28125 1232.808594 669.175781 1233.167969 669.105469 C 1233.527344 669.035156 1233.890625 669 1234.257812 669 C 1234.625 669 1234.988281 669.035156 1235.347656 669.105469 C 1235.707031 669.175781 1236.054688 669.28125 1236.394531 669.421875 C 1236.730469 669.5625 1237.054688 669.734375 1237.359375 669.9375 C 1237.664062 670.144531 1237.945312 670.375 1238.203125 670.632812 C 1238.464844 670.894531 1238.695312 671.175781 1238.898438 671.480469 C 1239.101562 671.785156 1239.273438 672.109375 1239.414062 672.445312 C 1239.554688 672.785156 1239.660156 673.132812 1239.730469 673.492188 C 1239.804688 673.855469 1239.839844 674.21875 1239.839844 674.582031 Z M 1237.046875 674.582031 C 1237.046875 674.214844 1236.976562 673.855469 1236.835938 673.515625 C 1236.695312 673.171875 1236.492188 672.871094 1236.230469 672.609375 C 1235.96875 672.347656 1235.667969 672.144531 1235.324219 672.003906 C 1234.984375 671.863281 1234.628906 671.792969 1234.257812 671.792969 C 1233.886719 671.792969 1233.53125 671.863281 1233.1875 672.003906 C 1232.847656 672.144531 1232.546875 672.347656 1232.285156 672.609375 C 1232.023438 672.871094 1231.820312 673.171875 1231.679688 673.515625 C 1231.535156 673.855469 1231.464844 674.214844 1231.464844 674.582031 C 1231.464844 674.953125 1231.535156 675.308594 1231.679688 675.652344 C 1231.820312 675.996094 1232.023438 676.296875 1232.285156 676.558594 C 1232.546875 676.820312 1232.847656 677.023438 1233.1875 677.164062 C 1233.53125 677.304688 1233.886719 677.375 1234.257812 677.375 C 1234.628906 677.375 1234.984375 677.304688 1235.324219 677.164062 C 1235.667969 677.023438 1235.96875 676.820312 1236.230469 676.558594 C 1236.492188 676.296875 1236.695312 675.996094 1236.835938 675.652344 C 1236.976562 675.308594 1237.046875 674.953125 1237.046875 674.582031 Z M 1271.800781 598.714844 C 1254.410156 613.628906 1243.355469 680.671875 1242.894531 683.519531 C 1242.867188 683.703125 1242.871094 683.886719 1242.914062 684.066406 C 1242.953125 684.246094 1243.027344 684.410156 1243.136719 684.5625 C 1243.242188 684.710938 1243.375 684.835938 1243.53125 684.933594 C 1243.6875 685.03125 1243.859375 685.097656 1244.039062 685.128906 L 1244.265625 685.128906 C 1244.609375 685.132812 1244.914062 685.023438 1245.179688 684.800781 C 1245.445312 684.578125 1245.605469 684.296875 1245.660156 683.953125 C 1245.769531 683.269531 1257.003906 615.082031 1273.570312 600.824219 C 1273.710938 600.703125 1273.824219 600.558594 1273.910156 600.394531 C 1273.992188 600.226562 1274.039062 600.050781 1274.054688 599.867188 C 1274.066406 599.679688 1274.046875 599.5 1273.988281 599.324219 C 1273.929688 599.148438 1273.839844 598.988281 1273.71875 598.847656 C 1273.597656 598.707031 1273.453125 598.59375 1273.289062 598.511719 C 1273.121094 598.425781 1272.945312 598.378906 1272.761719 598.363281 C 1272.578125 598.351562 1272.394531 598.375 1272.21875 598.433594 C 1272.042969 598.488281 1271.882812 598.578125 1271.742188 598.699219 Z M 1189.234375 458.566406 C 1189.113281 458.425781 1188.972656 458.3125 1188.808594 458.226562 C 1188.644531 458.140625 1188.46875 458.089844 1188.285156 458.074219 C 1188.101562 458.058594 1187.917969 458.082031 1187.742188 458.136719 C 1187.566406 458.191406 1187.40625 458.28125 1187.265625 458.398438 C 1177.664062 466.554688 1158.335938 471.164062 1152.082031 472.503906 C 1153.003906 467.8125 1155.488281 456.25 1158.402344 451.558594 C 1158.503906 451.398438 1158.566406 451.230469 1158.597656 451.046875 C 1158.628906 450.863281 1158.621094 450.683594 1158.582031 450.5 C 1158.539062 450.320312 1158.464844 450.15625 1158.355469 450.003906 C 1158.246094 449.851562 1158.113281 449.726562 1157.957031 449.628906 C 1157.800781 449.535156 1157.632812 449.472656 1157.449219 449.441406 C 1157.269531 449.414062 1157.089844 449.417969 1156.910156 449.460938 C 1156.730469 449.503906 1156.566406 449.578125 1156.417969 449.683594 C 1156.265625 449.789062 1156.144531 449.921875 1156.046875 450.078125 C 1152.066406 456.457031 1149.066406 473.328125 1148.941406 474.039062 C 1148.859375 474.519531 1148.988281 474.925781 1149.332031 475.269531 C 1149.605469 475.542969 1149.9375 475.675781 1150.324219 475.675781 L 1150.574219 475.675781 C 1151.648438 475.480469 1176.992188 470.800781 1189.066406 460.566406 C 1189.210938 460.445312 1189.328125 460.300781 1189.417969 460.132812 C 1189.503906 459.96875 1189.554688 459.789062 1189.570312 459.601562 C 1189.589844 459.414062 1189.566406 459.230469 1189.507812 459.050781 C 1189.449219 458.871094 1189.359375 458.710938 1189.234375 458.566406 Z M 1236.796875 475.589844 L 1237.046875 475.589844 C 1237.253906 475.59375 1237.453125 475.550781 1237.644531 475.464844 C 1237.832031 475.382812 1237.996094 475.257812 1238.128906 475.101562 C 1238.265625 474.941406 1238.359375 474.765625 1238.414062 474.5625 C 1238.46875 474.363281 1238.480469 474.160156 1238.445312 473.957031 C 1238.316406 473.246094 1235.316406 456.375 1231.355469 449.992188 C 1231.253906 449.835938 1231.132812 449.703125 1230.980469 449.597656 C 1230.828125 449.488281 1230.664062 449.414062 1230.484375 449.375 C 1230.304688 449.332031 1230.121094 449.328125 1229.9375 449.355469 C 1229.757812 449.386719 1229.585938 449.453125 1229.429688 449.550781 C 1229.273438 449.648438 1229.140625 449.773438 1229.03125 449.921875 C 1228.925781 450.074219 1228.851562 450.238281 1228.808594 450.417969 C 1228.765625 450.597656 1228.761719 450.78125 1228.789062 450.964844 C 1228.820312 451.144531 1228.882812 451.316406 1228.980469 451.472656 C 1231.898438 456.164062 1234.398438 467.726562 1235.316406 472.421875 C 1229.050781 471.023438 1209.734375 466.472656 1200.132812 458.316406 C 1199.992188 458.195312 1199.832031 458.109375 1199.65625 458.050781 C 1199.480469 457.996094 1199.300781 457.972656 1199.113281 457.988281 C 1198.929688 458.003906 1198.753906 458.054688 1198.589844 458.140625 C 1198.425781 458.222656 1198.28125 458.335938 1198.160156 458.480469 C 1198.042969 458.621094 1197.953125 458.78125 1197.894531 458.957031 C 1197.839844 459.132812 1197.816406 459.3125 1197.832031 459.5 C 1197.847656 459.683594 1197.898438 459.859375 1197.980469 460.023438 C 1198.066406 460.1875 1198.179688 460.332031 1198.320312 460.453125 C 1210.390625 470.773438 1235.722656 475.449219 1236.796875 475.589844 Z M 1195.738281 622.035156 L 1173.921875 617.371094 C 1173.742188 617.332031 1173.5625 617.328125 1173.378906 617.359375 C 1173.199219 617.394531 1173.03125 617.460938 1172.875 617.558594 C 1172.71875 617.660156 1172.585938 617.785156 1172.480469 617.933594 C 1172.375 618.085938 1172.304688 618.253906 1172.261719 618.433594 C 1172.222656 618.613281 1172.21875 618.796875 1172.253906 618.980469 C 1172.289062 619.160156 1172.355469 619.332031 1172.457031 619.488281 C 1172.554688 619.644531 1172.683594 619.773438 1172.835938 619.878906 C 1172.988281 619.984375 1173.15625 620.054688 1173.335938 620.09375 L 1195.152344 624.773438 L 1195.445312 624.773438 C 1195.628906 624.792969 1195.808594 624.773438 1195.988281 624.71875 C 1196.164062 624.667969 1196.328125 624.582031 1196.46875 624.464844 C 1196.613281 624.347656 1196.730469 624.207031 1196.820312 624.042969 C 1196.90625 623.878906 1196.960938 623.707031 1196.980469 623.523438 C 1197 623.335938 1196.984375 623.15625 1196.929688 622.976562 C 1196.878906 622.800781 1196.792969 622.640625 1196.675781 622.496094 C 1196.5625 622.351562 1196.421875 622.234375 1196.257812 622.144531 C 1196.09375 622.054688 1195.921875 622 1195.738281 621.980469 Z M 1202.117188 605.710938 L 1178.738281 597.917969 C 1178.5625 597.863281 1178.382812 597.839844 1178.199219 597.851562 C 1178.015625 597.867188 1177.84375 597.914062 1177.679688 597.996094 C 1177.511719 598.078125 1177.371094 598.191406 1177.25 598.328125 C 1177.128906 598.46875 1177.039062 598.625 1176.980469 598.796875 C 1176.921875 598.976562 1176.898438 599.15625 1176.910156 599.339844 C 1176.921875 599.527344 1176.96875 599.703125 1177.050781 599.867188 C 1177.132812 600.035156 1177.246094 600.179688 1177.386719 600.300781 C 1177.523438 600.421875 1177.683594 600.511719 1177.859375 600.570312 L 1201.222656 608.363281 C 1201.367188 608.40625 1201.515625 608.429688 1201.667969 608.433594 C 1201.96875 608.433594 1202.242188 608.347656 1202.484375 608.171875 C 1202.730469 608 1202.898438 607.769531 1202.996094 607.484375 C 1203.054688 607.308594 1203.078125 607.128906 1203.066406 606.941406 C 1203.054688 606.757812 1203.007812 606.582031 1202.921875 606.414062 C 1202.839844 606.25 1202.730469 606.105469 1202.589844 605.980469 C 1202.449219 605.859375 1202.292969 605.769531 1202.117188 605.710938 Z M 1209.988281 590.9375 L 1183.46875 580.03125 C 1183.296875 579.960938 1183.121094 579.921875 1182.933594 579.921875 C 1182.75 579.921875 1182.570312 579.957031 1182.398438 580.027344 C 1182.226562 580.097656 1182.078125 580.199219 1181.945312 580.332031 C 1181.8125 580.460938 1181.710938 580.613281 1181.640625 580.785156 C 1181.570312 580.957031 1181.535156 581.132812 1181.535156 581.320312 C 1181.535156 581.503906 1181.570312 581.683594 1181.640625 581.855469 C 1181.710938 582.027344 1181.8125 582.179688 1181.941406 582.308594 C 1182.074219 582.441406 1182.222656 582.542969 1182.394531 582.613281 L 1208.914062 593.519531 C 1209.082031 593.589844 1209.257812 593.628906 1209.441406 593.632812 C 1209.78125 593.636719 1210.078125 593.53125 1210.339844 593.320312 C 1210.601562 593.105469 1210.765625 592.835938 1210.828125 592.503906 C 1210.894531 592.175781 1210.847656 591.863281 1210.683594 591.566406 C 1210.523438 591.269531 1210.285156 591.058594 1209.972656 590.9375 Z M 1209.988281 590.9375 " fill-opacity="1" fill-rule="nonzero"/></svg>