<svg width="140" height="140" viewBox="0 0 140 140" fill="none" xmlns="http://www.w3.org/2000/svg">
<path fill-rule="evenodd" clip-rule="evenodd" d="M39.6003 63.5095L56.8763 55.5074C56.7611 55.1171 56.7036 54.7015 56.7036 54.2727C56.7036 53.2432 57.0554 52.2964 57.6434 51.5416L47.9186 41.9723C47.2729 42.3369 46.5312 42.5416 45.7384 42.5416C45.0224 42.5416 44.3445 42.369 43.7434 42.0682L36.8064 62.0063C37.9188 62.1472 38.9099 62.6972 39.6067 63.5031L39.6003 63.5095Z" fill="#2180A5"/>
<path fill-rule="evenodd" clip-rule="evenodd" d="M57.3815 56.6332L40.2845 64.5523C40.5468 65.1216 40.6938 65.7548 40.6938 66.4201C40.6938 66.9188 40.6106 67.3922 40.4636 67.8402L62.2278 75.1642C62.5731 74.0256 63.3659 73.0788 64.4016 72.5352L61.5182 58.7058C61.3965 58.7186 61.2752 58.7186 61.1536 58.7186C59.5617 58.7186 58.1678 57.8871 57.3815 56.6268V56.6332Z" fill="#0495C1"/>
<path fill-rule="evenodd" clip-rule="evenodd" d="M62.0294 76.405L39.9007 68.9593C39.4148 69.6631 38.7308 70.2196 37.9252 70.5457L42.1194 77.0128L57.7842 83.3647L58.2891 83.5692L58.1485 84.0939L56.3583 90.7591L62.3365 90.8743L64.5935 80.4988C63.0783 79.7889 62.023 78.2474 62.023 76.4627V76.3986L62.0294 76.405Z" fill="#2180A5"/>
<path fill-rule="evenodd" clip-rule="evenodd" d="M62.7201 58.4372L65.5717 72.1131C65.8657 72.049 66.1664 72.0172 66.4797 72.0172C68.9349 72.0172 70.9296 74.0128 70.9296 76.4692V76.5074L81.0957 76.6034L85.6801 70.7312C85.0533 69.9639 84.6698 68.9786 84.6698 67.9105C84.6698 67.5524 84.7144 67.2067 84.7914 66.8806L64.8557 56.7356C64.3441 57.5033 63.596 58.1044 62.7201 58.4372Z" fill="#2180A5"/>
<path fill-rule="evenodd" clip-rule="evenodd" d="M65.3926 55.6162L85.2452 65.7227C85.6034 65.0895 86.1083 64.5587 86.7158 64.1684L81.6776 47.1984C79.593 46.8338 78.0075 45.0106 78.0075 42.8167C78.0075 41.5374 78.5509 40.3795 79.4142 39.5672L77.381 32.7101C77.0867 32.774 76.7799 32.8058 76.4667 32.8058C75.776 32.8058 75.1238 32.646 74.5358 32.3645L63.8839 50.7739C64.926 51.5862 65.591 52.8529 65.591 54.2792C65.591 54.7461 65.5207 55.2005 65.3862 55.6226L65.3926 55.6162Z" fill="#53C5D6"/>
<path fill-rule="evenodd" clip-rule="evenodd" d="M62.8225 50.1471L73.5127 31.6674C72.9244 31.1427 72.4769 30.4585 72.2276 29.6908L49.9711 36.7462C50.1052 37.1685 50.1755 37.6227 50.1755 38.0896C50.1755 39.305 49.6896 40.4052 48.8969 41.211L58.5195 50.678C59.2548 50.1407 60.1625 49.8207 61.1471 49.8207C61.7419 49.8207 62.3045 49.936 62.8225 50.1471Z" fill="#0495C1"/>
<path fill-rule="evenodd" clip-rule="evenodd" d="M82.4575 38.3582C84.6316 38.3582 86.4472 39.9189 86.8307 41.9851L101.984 43.4306C102.01 43.1363 102.067 42.8484 102.15 42.5734L80.3668 30.4966C79.9448 31.2515 79.3183 31.8721 78.5509 32.2749L80.4882 38.8124C81.0829 38.5181 81.7543 38.3518 82.4575 38.3518V38.3582Z" fill="#53C5D6"/>
<path fill-rule="evenodd" clip-rule="evenodd" d="M102.041 44.6781L86.8885 43.2323C86.7861 44.2878 86.3259 45.2282 85.6224 45.9381L101.69 61.8529C102.496 61.0406 103.614 60.5351 104.848 60.5351C104.957 60.5351 105.059 60.5415 105.168 60.548L106.05 48.2921C104.036 48.1323 102.406 46.629 102.041 44.6781Z" fill="#53C5D6"/>
<path fill-rule="evenodd" clip-rule="evenodd" d="M100.942 62.8571L84.6315 46.6993C84.1328 46.9744 83.5763 47.1663 82.9883 47.2302L87.8603 63.644C88.2631 63.5224 88.6851 63.4585 89.1261 63.4585C91.2553 63.4585 93.0391 64.9553 93.474 66.9573L100.584 66.2346C100.469 65.8379 100.405 65.4159 100.405 64.9807C100.405 64.2069 100.603 63.4839 100.948 62.8507L100.942 62.8571Z" fill="#0FA5CD"/>
<path d="M39.8561 76.5074L35.3166 69.5161C35.1824 69.5287 35.0415 69.5351 34.9009 69.5351C32.4457 69.5351 30.451 67.5395 30.451 65.0831C30.451 62.8828 32.0429 61.0595 34.14 60.695L41.3459 39.9957C40.4826 39.1834 39.9456 38.0319 39.9456 36.7526C39.9456 34.2962 41.9403 32.3006 44.3956 32.3006C45.9365 32.3006 47.2985 33.0872 48.0977 34.2772L70.6931 27.113C70.6931 27.0745 70.6931 27.0363 70.6931 27.0042C70.6931 24.5478 72.6878 22.5522 75.1431 22.5522C77.5983 22.5522 79.593 24.5478 79.593 27.0042C79.593 27.3432 79.5548 27.676 79.4845 27.9956L101.338 40.1109C102.131 38.8762 103.512 38.064 105.085 38.064C107.54 38.064 109.535 40.0595 109.535 42.516C109.535 44.6717 108.001 46.4689 105.967 46.8784L105.059 59.4735C106.754 60.1003 107.969 61.7313 107.969 63.6504C107.969 66.1065 105.974 68.1024 103.518 68.1024C101.965 68.1024 100.59 67.3027 99.7974 66.0873L92.2272 66.855C92.0802 69.1833 90.1493 71.0191 87.79 71.0191C86.85 71.0191 85.9741 70.7248 85.2581 70.226L80.5459 76.258L80.3604 76.501H80.0536L69.408 76.405C68.858 78.241 67.1572 79.5842 65.1433 79.5842C64.9067 79.5842 64.6766 79.5649 64.4465 79.5331L62.1 90.2985L61.9912 90.7976L61.4797 90.7848L54.2037 90.6439L53.4107 90.631L53.6155 89.8698L55.4696 82.9745L40.1311 76.757L39.8432 76.5202L39.8561 76.5074ZM47.5669 39.874L57.1895 49.3413C57.9248 48.8037 58.8328 48.484 59.8175 48.484C60.4119 48.484 60.9745 48.5993 61.4925 48.8101L72.183 30.3304C71.5947 29.806 71.147 29.1215 70.8976 28.3538L48.6411 35.4092C48.7752 35.8315 48.8458 36.2857 48.8458 36.7526C48.8458 37.968 48.3596 39.0682 47.5669 39.874ZM79.0304 29.16C78.6087 29.9148 77.9819 30.5352 77.2148 30.9382L79.152 37.4754C79.7468 37.1811 80.4179 37.0148 81.1214 37.0148C83.5763 37.0148 85.5713 39.0107 85.5713 41.4668C85.5713 43.7506 83.8578 45.6248 81.6455 45.887L86.5175 62.3006C86.9203 62.179 87.3423 62.1151 87.7836 62.1151C89.9128 62.1151 91.6966 63.6119 92.1312 65.6139L99.2412 64.8912C99.126 64.4948 99.0621 64.0725 99.0621 63.6376C99.0621 61.1812 101.057 59.1856 103.512 59.1856C103.621 59.1856 103.723 59.192 103.832 59.1984L104.714 46.9423C102.425 46.7568 100.629 44.8443 100.629 42.5095C100.629 42.0682 100.693 41.6395 100.814 41.2303L79.0304 29.1535V29.16ZM84.3437 69.3881C83.7172 68.6204 83.3334 67.6355 83.3334 66.5671C83.3334 66.2089 83.3783 65.8636 83.455 65.5372L63.5193 55.3922C63.0077 56.1598 62.2599 56.7613 61.3837 57.0938L64.2353 70.7697C64.5296 70.7058 64.83 70.6738 65.1433 70.6738C67.5985 70.6738 69.5932 72.6696 69.5932 75.1258V75.1643L79.7593 75.2602L84.3437 69.3881ZM63.2635 79.1621C61.7483 78.4519 60.6997 76.9105 60.6997 75.1258C60.6997 75.1065 60.6997 75.0811 60.6997 75.0619L38.571 67.6162C38.0851 68.3197 37.4008 68.8762 36.5952 69.2026L40.7897 75.6694L56.4542 82.0213L56.9594 82.2261L56.8185 82.7505L55.0283 89.4157L61.0066 89.5309L63.2635 79.1557V79.1621ZM35.4636 60.6696C36.576 60.8102 37.5671 61.3603 38.2642 62.1664L55.5399 54.1643C55.425 53.774 55.3672 53.3581 55.3672 52.9296C55.3672 51.8998 55.719 50.953 56.3072 50.1982L46.5822 40.6289C45.9365 40.9935 45.1947 41.1982 44.402 41.1982C43.686 41.1982 43.0081 41.0255 42.4073 40.7248L35.47 60.6632L35.4636 60.6696ZM60.8914 73.8273C61.2367 72.6886 62.0295 71.7421 63.0655 71.1982L60.1817 57.3688C60.0604 57.3816 59.9388 57.3816 59.8175 57.3816C58.2252 57.3816 56.8314 56.5501 56.045 55.2901L38.9481 63.2088C39.2103 63.7782 39.3573 64.4114 39.3573 65.0767C39.3573 65.5757 39.2742 66.0491 39.1272 66.4968L60.8914 73.8208V73.8273ZM80.3476 45.8485C78.2633 45.484 76.6775 43.661 76.6775 41.4668C76.6775 40.1876 77.2212 39.0297 78.0843 38.2174L76.051 31.3603C75.757 31.4242 75.4499 31.4562 75.1367 31.4562C74.4463 31.4562 73.7877 31.2964 73.2058 31.015L62.5539 49.4244C63.596 50.2367 64.261 51.5031 64.261 52.9296C64.261 53.3966 64.1907 53.8507 64.0565 54.2728L83.9088 64.3796C84.267 63.7464 84.7722 63.2153 85.3794 62.825L80.3412 45.855L80.3476 45.8485Z" fill="#373435"/>
<path d="M103.595 65.4733L79.024 41.1279L79.5163 40.0788L105.66 42.5734L105.545 43.8016L81.1214 41.4733L104.465 64.5969L103.595 65.4733Z" fill="#373435"/>
<path d="M19.5728 107.548C20.4189 107.548 20.946 107.474 21.1536 107.326C21.3613 107.179 21.485 107.021 21.5247 106.854C21.5649 106.686 21.5853 106.482 21.5853 106.243V93.5235C21.5853 93.0289 21.4374 92.6879 21.142 92.5004C20.8462 92.3123 20.3233 92.218 19.5728 92.218V90.9009H32.363L32.8308 95.249L31.0937 95.2607L30.7705 93.9074C30.611 93.2605 30.4473 92.8533 30.2793 92.6859C29.9836 92.3904 29.4848 92.2425 28.7825 92.2425H24.2792V99.2122H26.483C27.3851 99.2122 27.9381 99.1524 28.142 99.0325C28.3456 98.913 28.4853 98.7415 28.5608 98.518C28.6369 98.294 28.6752 97.9706 28.6752 97.5474H30.2315V102.183H28.6752C28.6752 101.44 28.5293 100.979 28.2377 100.799C27.946 100.619 27.3609 100.529 26.483 100.529H24.2792V105.644C24.2792 106.051 24.3089 106.378 24.369 106.626C24.4288 106.874 24.6283 107.089 24.9675 107.273C25.3073 107.456 26.3316 107.548 28.0405 107.548V108.865H19.5728V107.548Z" fill="#373435" fill-opacity="0.4"/>
<path d="M43.3097 106.902C42.3116 108.37 40.9787 109.104 39.3103 109.104C38.1046 109.104 37.1663 108.733 36.4952 107.991C35.8246 107.249 35.4895 106.139 35.4895 104.662V99.6917C35.4895 99.1171 35.4393 98.7417 35.339 98.5659C35.2392 98.3903 34.9703 98.3022 34.5317 98.3022H34.2202V96.985C34.9543 96.985 35.4872 96.9273 35.8185 96.8112C36.1498 96.6954 36.3872 96.6117 36.5313 96.5603C36.6751 96.5084 36.851 96.4822 37.0587 96.4822C37.4652 96.4822 37.7365 96.6082 37.8718 96.8602C38.0077 97.1116 38.076 97.5123 38.076 98.063V104.746C38.076 105.624 38.1676 106.223 38.3513 106.542C38.7028 107.157 39.3057 107.464 40.1597 107.464C40.7351 107.464 41.3021 107.237 41.8607 106.782C42.4198 106.327 42.815 105.796 43.046 105.189V99.6917C43.0302 99.1008 42.9742 98.7216 42.878 98.5542C42.7823 98.3862 42.5152 98.3022 42.0765 98.3022H41.394V96.985C42.1523 96.985 42.7368 96.9273 43.1475 96.8112C43.5587 96.6954 43.8524 96.6117 44.0283 96.5603C44.2039 96.5084 44.3958 96.4822 44.6035 96.4822C45.0101 96.4822 45.2837 96.6021 45.4237 96.8415C45.5637 97.0813 45.6337 97.4724 45.6337 98.0152V105.679C45.6337 106.454 45.6692 106.933 45.741 107.116C45.8684 107.468 46.1878 107.644 46.6988 107.644C46.9701 107.644 47.2019 107.6 47.3942 107.512V108.674C47.0106 108.961 46.4877 109.104 45.825 109.104C44.4358 109.104 43.5972 108.37 43.3097 106.902Z" fill="#373435" fill-opacity="0.4"/>
<path d="M57.1068 97.4167C57.8176 96.5785 58.7396 96.1591 59.873 96.1591C60.2562 96.1591 60.5934 96.3011 60.8845 96.5849C61.1762 96.8681 61.322 97.2193 61.322 97.6384C61.322 98.0569 61.1963 98.3883 60.9452 98.6324C60.6937 98.8759 60.3925 98.9976 60.041 98.9976C59.6892 98.9976 59.3917 98.8978 59.1485 98.6977C58.905 98.4979 58.7711 98.1902 58.7472 97.7749C58.4602 97.8869 58.1968 98.0549 57.9573 98.2789C58.4362 98.9736 58.676 99.7579 58.676 100.632C58.676 101.506 58.5421 102.217 58.2747 102.764C58.0069 103.31 57.6435 103.777 57.1838 104.165C56.7247 104.552 56.1922 104.85 55.5855 105.057C54.9788 105.265 54.434 105.369 53.951 105.369C53.468 105.369 53.1028 105.357 52.8555 105.333C52.2806 105.46 51.8933 105.704 51.6935 106.063C51.6375 106.151 51.6095 106.251 51.6095 106.363C51.6095 106.602 51.8247 106.774 52.2558 106.877C52.6875 106.981 53.4079 107.074 54.4177 107.158C55.428 107.242 56.2625 107.342 56.9213 107.458C57.5799 107.574 58.149 107.756 58.6282 108.003C59.6414 108.538 60.1483 109.448 60.1483 110.733C60.1483 112.019 59.5212 113.047 58.2677 113.817C57.0147 114.587 55.482 114.973 53.6698 114.973C50.8278 114.973 49.0513 114.25 48.3405 112.805C48.125 112.366 48.0173 111.883 48.0173 111.356C48.0173 109.999 48.8436 108.897 50.4965 108.051C49.9295 107.716 49.646 107.197 49.646 106.495C49.646 105.792 50.0887 105.24 50.9748 104.841C50.2241 104.554 49.6335 104.041 49.2027 103.303C48.7716 102.564 48.5563 101.811 48.5563 101.045C48.5563 99.6077 49.0732 98.4883 50.1068 97.6862C51.1405 96.8836 52.3556 96.4822 53.7527 96.4822C55.1503 96.4822 56.2683 96.7937 57.1068 97.4167ZM53.6698 103.991C54.7236 103.991 55.454 103.432 55.8608 102.314C56.0046 101.931 56.0767 101.456 56.0767 100.889C56.0767 99.8349 55.8448 99.0568 55.3813 98.5542C54.9185 98.0511 54.348 97.7994 53.6698 97.7994C52.5597 97.7994 51.7973 98.3623 51.382 99.4876C51.2379 99.8953 51.1662 100.378 51.1662 100.937C51.1662 101.959 51.4158 102.723 51.9152 103.23C52.4145 103.737 52.9993 103.991 53.6698 103.991ZM51.7775 108.806C50.9871 109.229 50.5922 109.947 50.5922 110.961C50.5922 111.799 50.9273 112.438 51.5978 112.876C52.2681 113.315 53.1507 113.535 54.245 113.535C55.9615 113.535 57.0911 113.08 57.6342 112.17C57.8097 111.891 57.8978 111.576 57.8978 111.224C57.8978 110.067 56.9076 109.396 54.9275 109.213C54.3045 109.149 53.7215 109.093 53.1787 109.045C52.6356 108.996 52.1686 108.917 51.7775 108.806Z" fill="#373435" fill-opacity="0.4"/>
<path d="M72.9993 103.345H64.6879C64.6879 104.717 65.0129 105.779 65.6633 106.53C66.3143 107.28 67.1187 107.655 68.0771 107.655C69.3628 107.655 70.285 107.125 70.8444 106.063L72.6283 106.051C72.4445 106.905 71.9195 107.628 71.0533 108.219C70.1867 108.809 69.0189 109.104 67.5498 109.104C66.0812 109.104 64.8119 108.649 63.7418 107.739C62.4646 106.646 61.8261 105.105 61.8261 103.117C61.8261 101.129 62.3348 99.5266 63.3521 98.3092C64.37 97.0912 65.8295 96.4822 67.7306 96.4822C70.2296 96.4822 71.846 97.4884 72.5804 99.5004C72.8759 100.306 73.0238 101.068 73.0238 101.787C73.0238 102.506 73.0156 103.025 72.9993 103.345ZM70.2331 101.548C70.2331 99.1049 69.4027 97.8834 67.7423 97.8834C66.8081 97.8834 66.0792 98.2468 65.5559 98.973C65.0333 99.6996 64.7477 100.706 64.6996 101.991H70.2214C70.229 101.84 70.2331 101.692 70.2331 101.548Z" fill="#373435" fill-opacity="0.4"/>
<path d="M82.0298 98.2789C80.7208 98.2789 79.6591 98.686 78.8448 99.5004V106.29C78.8448 106.785 78.9244 107.097 79.084 107.225C79.3631 107.44 79.8901 107.548 80.6648 107.548V108.865H74.5806V107.548C75.2672 107.548 75.6986 107.479 75.8745 107.339C76.0501 107.199 76.158 107.05 76.1976 106.89C76.2373 106.73 76.2571 106.53 76.2571 106.29V99.7629C76.2571 99.1883 76.2073 98.8132 76.1078 98.6382C76.0081 98.4626 75.7348 98.3745 75.2876 98.3745H74.5573V97.0574C75.3078 97.0574 75.8966 96.9996 76.3236 96.8835C76.7506 96.7677 77.054 96.6837 77.2336 96.6315C77.4133 96.5796 77.607 96.5534 77.8146 96.5534C78.2376 96.5534 78.5149 96.6756 78.6465 96.9197C78.7786 97.1632 78.8448 97.552 78.8448 98.0864C79.6988 97.3686 80.6884 96.8818 81.814 96.6257C82.1897 96.5379 82.5572 96.4939 82.9165 96.4939C85.5033 96.4939 86.7968 98.2065 86.7968 101.632V106.266C86.7968 106.793 86.8727 107.139 87.0243 107.303C87.176 107.466 87.5907 107.548 88.2692 107.548V108.865H82.605V107.548C83.3312 107.548 83.7684 107.474 83.9163 107.326C84.0639 107.179 84.1497 107.025 84.173 106.866C84.1969 106.705 84.2092 106.506 84.2092 106.266V101.787C84.2092 100.677 84.1053 99.9151 83.8977 99.5004C83.4908 98.686 82.8681 98.2789 82.0298 98.2789Z" fill="#373435" fill-opacity="0.4"/>
<path d="M90.7731 107.309C90.7731 106.798 90.9566 106.365 91.3238 106.009C91.6907 105.654 92.13 105.476 92.641 105.476C93.152 105.476 93.5909 105.654 93.9581 106.009C94.3259 106.365 94.51 106.798 94.51 107.309C94.51 107.811 94.3283 108.236 93.9651 108.584C93.6017 108.931 93.1604 109.104 92.641 109.104C92.1221 109.104 91.6811 108.931 91.318 108.584C90.9545 108.236 90.7731 107.811 90.7731 107.309Z" fill="#373435" fill-opacity="0.4"/>
<path d="M109.133 107.296C109.684 107.296 109.959 106.709 109.959 105.536H111.121C111.177 105.792 111.205 106.017 111.205 106.213C111.205 106.409 111.2 106.626 111.192 106.866C111.184 107.105 111.097 107.412 110.93 107.787C110.514 108.665 109.729 109.104 108.575 109.104C107.422 109.104 106.494 108.446 105.792 107.129C105.591 106.754 105.396 106.374 105.205 105.991C104.686 104.937 104.254 104.218 103.911 103.836C103.321 103.189 102.606 102.865 101.768 102.865C101.704 102.865 101.64 102.865 101.575 102.865C101.511 102.865 101.447 102.869 101.384 102.877V106.266C101.384 106.761 101.489 107.099 101.701 107.279C101.913 107.458 102.402 107.548 103.169 107.548V108.865H96.9773V107.548C97.6718 107.548 98.1487 107.452 98.4077 107.261C98.6673 107.069 98.7973 106.737 98.7973 106.266V93.2961C98.7973 92.7215 98.7472 92.3464 98.6468 92.1714C98.5471 91.9958 98.2741 91.9077 97.8278 91.9077H96.8572V90.5894C97.6636 90.5894 98.2945 90.5319 98.7495 90.4167C99.2045 90.3009 99.5294 90.2169 99.7248 90.1647C99.9208 90.1128 100.126 90.0865 100.342 90.0865C100.757 90.0865 101.034 90.2064 101.174 90.4459C101.314 90.6856 101.384 91.0768 101.384 91.6195V101.572H101.995C103.313 100.646 104.462 99.6521 105.444 98.5904C105.604 98.4224 105.724 98.2786 105.803 98.1587H103.731V96.7214H110.343V98.1587C108.857 98.1984 107.336 98.9089 105.78 100.29C105.309 100.698 104.837 101.133 104.366 101.596C105.675 102.091 106.738 103.197 107.552 104.914C107.752 105.345 107.935 105.738 108.103 106.093C108.271 106.448 108.434 106.737 108.594 106.961C108.753 107.185 108.933 107.296 109.133 107.296Z" fill="#373435" fill-opacity="0.4"/>
<path d="M111.9 107.512L119.277 98.0269H115.516C114.614 98.0269 114.011 98.654 113.708 99.9075C113.612 100.275 113.536 100.662 113.48 101.068L111.924 101.057L112.283 96.7214H122.176V98.147L114.893 107.548H118.666C119.664 107.548 120.303 107.041 120.582 106.027C120.678 105.684 120.758 105.285 120.822 104.83H122.415L122.056 108.865H111.9V107.512Z" fill="#373435" fill-opacity="0.4"/>
<path d="M18.4889 106.464C19.335 106.464 19.8621 106.39 20.0697 106.242C20.2774 106.095 20.4011 105.937 20.4407 105.77C20.481 105.602 20.5014 105.398 20.5014 105.159V92.4396C20.5014 91.9449 20.3535 91.6039 20.0581 91.4164C19.7623 91.2283 19.2393 91.1341 18.4889 91.1341V89.8169H31.2791L31.7469 94.1651L30.0097 94.1767L29.6866 92.8234C29.527 92.1765 29.3634 91.7693 29.1954 91.6019C28.8996 91.3064 28.4009 91.1586 27.6986 91.1586H23.1952V98.1282H25.3991C26.3012 98.1282 26.8542 98.0684 27.0581 97.9486C27.2616 97.829 27.4013 97.6575 27.4769 97.4341C27.553 97.2101 27.5912 96.8866 27.5912 96.4634H29.1476V101.099H27.5912C27.5912 100.356 27.4454 99.8946 27.1537 99.7149C26.8621 99.5352 26.277 99.4454 25.3991 99.4454H23.1952V104.56C23.1952 104.967 23.225 105.294 23.2851 105.542C23.3448 105.79 23.5443 106.005 23.8836 106.189C24.2233 106.372 25.2477 106.464 26.9566 106.464V107.781H18.4889V106.464Z" fill="#373435"/>
<path d="M42.2257 105.818C41.2276 107.286 39.8947 108.02 38.2264 108.02C37.0206 108.02 36.0824 107.649 35.4112 106.907C34.7407 106.165 34.4056 105.055 34.4056 103.578V98.6078C34.4056 98.0332 34.3554 97.6578 34.2551 97.4819C34.1553 97.3063 33.8864 97.2183 33.4477 97.2183H33.1362V95.9011C33.8704 95.9011 34.4032 95.8433 34.7346 95.7273C35.0659 95.6115 35.3033 95.5278 35.4474 95.4764C35.5912 95.4245 35.7671 95.3983 35.9747 95.3983C36.3813 95.3983 36.6526 95.5243 36.7879 95.7763C36.9238 96.0277 36.9921 96.4284 36.9921 96.9791V103.662C36.9921 104.54 37.0836 105.139 37.2674 105.458C37.6189 106.073 38.2217 106.38 39.0757 106.38C39.6512 106.38 40.2182 106.153 40.7767 105.698C41.3359 105.243 41.7311 104.712 41.9621 104.105V98.6078C41.9463 98.0168 41.8903 97.6377 41.7941 97.4703C41.6984 97.3023 41.4312 97.2183 40.9926 97.2183H40.3101V95.9011C41.0684 95.9011 41.6529 95.8433 42.0636 95.7273C42.4748 95.6115 42.7685 95.5278 42.9444 95.4764C43.12 95.4245 43.3119 95.3983 43.5196 95.3983C43.9261 95.3983 44.1997 95.5181 44.3397 95.7576C44.4797 95.9973 44.5497 96.3885 44.5497 96.9313V104.595C44.5497 105.37 44.5853 105.849 44.6571 106.032C44.7845 106.384 45.1039 106.56 45.6149 106.56C45.8861 106.56 46.118 106.516 46.3102 106.428V107.59C45.9267 107.877 45.4037 108.02 44.7411 108.02C43.3519 108.02 42.5133 107.286 42.2257 105.818Z" fill="#373435"/>
<path d="M56.0229 96.3327C56.7337 95.4945 57.6556 95.0751 58.789 95.0751C59.1723 95.0751 59.5095 95.2171 59.8005 95.5009C60.0922 95.7841 60.238 96.1353 60.238 96.5544C60.238 96.9729 60.1123 97.3043 59.8612 97.5484C59.6098 97.7919 59.3085 97.9136 58.957 97.9136C58.6053 97.9136 58.3078 97.8138 58.0645 97.6137C57.821 97.4139 57.6871 97.1062 57.6632 96.6909C57.3762 96.8029 57.1128 96.9709 56.8734 97.1949C57.3523 97.8897 57.592 98.6739 57.592 99.5481C57.592 100.422 57.4582 101.133 57.1907 101.68C56.923 102.226 56.5595 102.693 56.0999 103.081C55.6408 103.468 55.1082 103.766 54.5015 103.973C53.8949 104.181 53.35 104.285 52.867 104.285C52.384 104.285 52.0189 104.273 51.7715 104.249C51.1966 104.376 50.8093 104.62 50.6095 104.979C50.5535 105.067 50.5255 105.167 50.5255 105.279C50.5255 105.518 50.7408 105.69 51.1719 105.793C51.6035 105.897 52.3239 105.99 53.3337 106.074C54.344 106.158 55.1785 106.258 55.8374 106.374C56.496 106.49 57.065 106.672 57.5442 106.919C58.5575 107.454 59.0644 108.364 59.0644 109.649C59.0644 110.935 58.4373 111.963 57.1837 112.733C55.9307 113.503 54.398 113.889 52.5859 113.889C49.7439 113.889 47.9673 113.166 47.2565 111.721C47.041 111.282 46.9333 110.799 46.9333 110.272C46.9333 108.915 47.7596 107.813 49.4125 106.967C48.8455 106.632 48.562 106.113 48.562 105.411C48.562 104.708 49.0048 104.156 49.8909 103.757C49.1401 103.47 48.5495 102.957 48.1187 102.219C47.6876 101.48 47.4724 100.727 47.4724 99.9611C47.4724 98.5237 47.9892 97.4043 49.0229 96.6022C50.0565 95.7996 51.2716 95.3982 52.6687 95.3982C54.0664 95.3982 55.1843 95.7097 56.0229 96.3327ZM52.5859 102.907C53.6397 102.907 54.37 102.348 54.7769 101.23C54.9207 100.847 54.9927 100.372 54.9927 99.8047C54.9927 98.7509 54.7608 97.9728 54.2974 97.4702C53.8345 96.9671 53.264 96.7154 52.5859 96.7154C51.4758 96.7154 50.7134 97.2783 50.298 98.4036C50.1539 98.8113 50.0822 99.2943 50.0822 99.8526C50.0822 100.875 50.3319 101.639 50.8312 102.146C51.3305 102.653 51.9153 102.907 52.5859 102.907ZM50.6935 107.722C49.9031 108.145 49.5082 108.863 49.5082 109.877C49.5082 110.715 49.8433 111.354 50.5139 111.792C51.1841 112.231 52.0667 112.451 53.161 112.451C54.8775 112.451 56.0071 111.996 56.5502 111.086C56.7258 110.807 56.8139 110.492 56.8139 110.14C56.8139 108.983 55.8237 108.312 53.8435 108.129C53.2205 108.065 52.6375 108.009 52.0947 107.961C51.5516 107.912 51.0846 107.833 50.6935 107.722Z" fill="#373435"/>
<path d="M71.9153 102.261H63.604C63.604 103.633 63.9289 104.695 64.5793 105.446C65.2303 106.196 66.0347 106.571 66.9931 106.571C68.2788 106.571 69.201 106.041 69.7605 104.979L71.5443 104.967C71.3605 105.821 70.8355 106.544 69.9693 107.135C69.1027 107.725 67.9349 108.02 66.4658 108.02C64.9972 108.02 63.7279 107.565 62.6578 106.655C61.3806 105.562 60.7421 104.021 60.7421 102.033C60.7421 100.045 61.2508 98.4427 62.2681 97.2253C63.286 96.0073 64.7455 95.3983 66.6466 95.3983C69.1456 95.3983 70.762 96.4045 71.4965 98.4164C71.7919 99.2223 71.9398 99.9844 71.9398 100.703C71.9398 101.422 71.9316 101.941 71.9153 102.261ZM69.1491 100.464C69.1491 98.0209 68.3187 96.7994 66.6583 96.7994C65.7241 96.7994 64.9952 97.1628 64.472 97.8891C63.9493 98.6156 63.6638 99.6216 63.6156 100.907H69.1375C69.145 100.756 69.1491 100.608 69.1491 100.464Z" fill="#373435"/>
<path d="M80.9458 97.1949C79.6368 97.1949 78.5752 97.6021 77.7608 98.4164V105.206C77.7608 105.701 77.8405 106.013 78 106.141C78.2791 106.356 78.8062 106.464 79.5808 106.464V107.781H73.4967V106.464C74.1832 106.464 74.6146 106.395 74.7905 106.255C74.9661 106.115 75.074 105.966 75.1137 105.806C75.1533 105.646 75.1732 105.446 75.1732 105.206V98.6789C75.1732 98.1043 75.1233 97.7292 75.0238 97.5542C74.9241 97.3787 74.6508 97.2906 74.2037 97.2906H73.4733V95.9734C74.2238 95.9734 74.8127 95.9157 75.2397 95.7996C75.6667 95.6838 75.97 95.5998 76.1497 95.5476C76.3293 95.4957 76.523 95.4694 76.7307 95.4694C77.1536 95.4694 77.431 95.5916 77.5625 95.8357C77.6946 96.0793 77.7608 96.4681 77.7608 97.0024C78.6148 96.2846 79.6045 95.7978 80.73 95.5417C81.1057 95.454 81.4732 95.4099 81.8325 95.4099C84.4193 95.4099 85.7128 97.1226 85.7128 100.548V105.182C85.7128 105.709 85.7887 106.055 85.9403 106.219C86.092 106.382 86.5067 106.464 87.1852 106.464V107.781H81.521V106.464C82.2472 106.464 82.6845 106.39 82.8323 106.242C82.9799 106.095 83.0657 105.941 83.089 105.782C83.1129 105.621 83.1252 105.422 83.1252 105.182V100.703C83.1252 99.5933 83.0213 98.8312 82.8137 98.4164C82.4068 97.6021 81.7841 97.1949 80.9458 97.1949Z" fill="#373435"/>
<path d="M89.6891 106.225C89.6891 105.714 89.8726 105.281 90.2398 104.925C90.6067 104.57 91.046 104.392 91.557 104.392C92.068 104.392 92.5069 104.57 92.8741 104.925C93.2419 105.281 93.426 105.714 93.426 106.225C93.426 106.727 93.2443 107.152 92.8811 107.5C92.5177 107.847 92.0764 108.02 91.557 108.02C91.0381 108.02 90.5971 107.847 90.234 107.5C89.8706 107.152 89.6891 106.727 89.6891 106.225Z" fill="#373435"/>
<path d="M108.049 106.212C108.6 106.212 108.875 105.625 108.875 104.452H110.037C110.093 104.708 110.121 104.933 110.121 105.129C110.121 105.325 110.116 105.542 110.108 105.782C110.1 106.021 110.013 106.328 109.846 106.703C109.43 107.581 108.645 108.02 107.491 108.02C106.338 108.02 105.41 107.362 104.708 106.045C104.507 105.67 104.312 105.29 104.121 104.907C103.602 103.853 103.17 103.134 102.827 102.752C102.237 102.105 101.522 101.781 100.684 101.781C100.62 101.781 100.556 101.781 100.491 101.781C100.427 101.781 100.363 101.785 100.3 101.793V105.182C100.3 105.677 100.405 106.015 100.617 106.195C100.829 106.374 101.318 106.464 102.085 106.464V107.781H95.8934V106.464C96.5878 106.464 97.0647 106.368 97.3237 106.177C97.5833 105.985 97.7134 105.653 97.7134 105.182V92.2121C97.7134 91.6375 97.6632 91.2624 97.5629 91.0874C97.4631 90.9118 97.1901 90.8237 96.7439 90.8237H95.7732V89.5054C96.5797 89.5054 97.2105 89.4479 97.6655 89.3327C98.1205 89.2169 98.4454 89.1329 98.6409 89.0807C98.8369 89.0288 99.0425 89.0026 99.258 89.0026C99.6734 89.0026 99.9504 89.1224 100.09 89.3619C100.23 89.6016 100.3 89.9928 100.3 90.5356V100.488H100.911C102.229 99.5621 103.378 98.5681 104.36 97.5064C104.52 97.3384 104.64 97.1946 104.719 97.0747H102.647V95.6374H109.259V97.0747C107.773 97.1144 106.252 97.8249 104.696 99.2062C104.225 99.614 103.753 100.049 103.282 100.512C104.591 101.007 105.654 102.113 106.468 103.83C106.668 104.261 106.851 104.654 107.019 105.009C107.187 105.364 107.35 105.653 107.51 105.877C107.669 106.101 107.849 106.212 108.049 106.212Z" fill="#373435"/>
<path d="M110.816 106.428L118.193 96.9429H114.432C113.53 96.9429 112.927 97.57 112.624 98.8236C112.528 99.1908 112.453 99.5778 112.397 99.9844L110.84 99.9727L111.2 95.6374H121.092V97.0631L113.809 106.464H117.582C118.58 106.464 119.219 105.957 119.498 104.943C119.594 104.6 119.674 104.201 119.738 103.746H121.331L120.972 107.781H110.816V106.428Z" fill="#373435"/>
</svg>
