<svg width="908" height="684" viewBox="0 0 908 684" fill="none" xmlns="http://www.w3.org/2000/svg">
<g clip-path="url(#clip0_74_74)">
<path d="M779.827 507.693V587.577H127.806V95.8901H779.827V507.693Z" fill="white"/>
<path d="M127.806 586.832V588.322H779.827V586.832H127.806ZM127.806 95.145V96.6353H779.827V95.145H127.806Z" fill="#F2F2F2"/>
<path d="M695.377 533.968C695.564 533.909 695.73 533.834 695.916 533.774C696.663 533.506 697.452 533.268 698.261 533.059H698.281C698.278 532.984 698.285 532.909 698.302 532.836C697.327 533.208 696.352 533.596 695.377 533.968ZM685.937 540.764C685.979 540.72 685.999 540.675 686.041 540.63C686.248 540.347 686.497 540.049 686.746 539.766C688.721 537.56 691.148 535.807 693.862 534.624C694.057 534.522 694.258 534.433 694.464 534.356C694.708 534.239 694.957 534.134 695.211 534.043C695.273 534.013 695.315 533.998 695.377 533.968C689.298 536.308 683.157 538.588 676.933 540.764H685.937ZM0 94.3998L4.6276 171.392L907.633 97.3805V94.3998H0ZM907.633 507.693V589.067H0V586.086L53.8097 506.724L404.865 586.086C477.594 586.259 550.033 576.915 620.337 558.291C621.748 557.933 623.138 557.546 624.528 557.158C630.627 555.489 636.623 553.76 642.619 551.942H642.681C654.299 548.47 665.716 544.744 676.933 540.764C683.095 538.603 689.187 536.363 695.211 534.043C695.263 534.012 695.319 533.987 695.377 533.968C696.352 533.596 697.327 533.208 698.302 532.836L701.974 531.405H702.036C715.148 526.218 727.886 520.704 740.376 514.877C741.288 514.459 742.181 514.042 743.073 513.61C750.313 510.197 757.443 506.675 764.462 503.043C773.259 498.512 781.868 493.823 790.291 488.974C807.552 479.048 824.018 468.487 839.689 457.289C855.82 445.811 871.307 433.452 886.077 420.268C892.052 414.933 897.855 409.493 903.484 403.949C904.874 402.578 906.264 401.206 907.633 399.82V507.693V507.693Z" fill="#F2F2F2"/>
<path d="M253.876 502.671H127.806V509.482H253.876C254.78 509.482 255.646 509.123 256.284 508.484C256.923 507.846 257.282 506.979 257.282 506.076C257.282 505.173 256.923 504.307 256.284 503.668C255.646 503.029 254.78 502.671 253.876 502.671V502.671Z" fill="#F2F2F2"/>
<path d="M253.876 478.825H127.806V485.636H253.876C254.78 485.636 255.646 485.277 256.284 484.638C256.923 484 257.282 483.133 257.282 482.23C257.282 481.327 256.923 480.461 256.284 479.822C255.646 479.184 254.78 478.825 253.876 478.825V478.825Z" fill="#F2F2F2"/>
<path d="M254.89 455.128C254.729 455.082 254.564 455.047 254.398 455.024C254.226 454.993 254.051 454.978 253.876 454.979H127.806V461.79H253.876C254.678 461.785 255.453 461.501 256.067 460.985C256.533 460.591 256.884 460.079 257.085 459.503C257.286 458.927 257.328 458.307 257.208 457.709C257.087 457.111 256.809 456.556 256.401 456.102C255.994 455.648 255.472 455.312 254.89 455.128H254.89Z" fill="#F2F2F2"/>
<path d="M299.958 445.843L288.855 396.572L285.234 380.52C284.933 379.196 284.119 378.046 282.97 377.322C281.822 376.598 280.432 376.36 279.108 376.66L273.639 377.897L229.777 387.793C229.122 387.941 228.503 388.216 227.955 388.603C227.406 388.99 226.939 389.481 226.581 390.049C226.222 390.616 225.979 391.249 225.865 391.91C225.751 392.572 225.769 393.249 225.917 393.904C223.562 415.827 228.212 436.051 238.302 454.979C239.047 456.395 239.837 457.811 240.657 459.227C240.874 460.206 241.377 461.098 242.102 461.79C242.713 462.373 243.458 462.797 244.272 463.023C245.086 463.249 245.943 463.271 246.767 463.087L252.52 461.79L256.067 460.985L296.098 451.954C297.42 451.655 298.57 450.843 299.294 449.698C300.017 448.552 300.257 447.165 299.958 445.843V445.843Z" fill="#E6E6E6"/>
<path d="M295.368 443.101L284.786 396.229L282.253 384.976C281.974 383.738 281.214 382.66 280.141 381.981C279.068 381.302 277.769 381.077 276.53 381.355L273.162 382.115L234.129 390.923C232.89 391.202 231.813 391.962 231.134 393.035C230.455 394.108 230.229 395.407 230.507 396.646C230.85 413.711 232.639 429.196 239.986 438.645C240.822 442.32 242.617 445.708 245.188 448.465C247.758 451.221 251.013 453.248 254.621 454.338C254.711 454.368 254.785 454.398 254.875 454.427C254.934 454.442 255.009 454.472 255.069 454.487C258.465 455.443 262.046 455.535 265.486 454.755L291.747 448.824C292.985 448.544 294.063 447.785 294.742 446.712C295.421 445.639 295.646 444.34 295.368 443.101V443.101Z" fill="white"/>
<path d="M256.481 406.552C257.345 405.555 258.508 404.865 259.796 404.584C261.084 404.303 262.429 404.446 263.629 404.993C264.829 405.63 265.79 406.64 266.367 407.87C266.944 409.1 267.106 410.484 266.828 411.814C266.364 414.889 264.758 417.688 264.612 420.836C264.481 422.215 264.721 423.604 265.309 424.858C265.896 426.113 266.809 427.187 267.952 427.969C269.703 429.033 271.505 426.4 269.746 425.331C266.851 423.572 267.824 419.708 268.664 417.072C269.712 413.78 270.805 410.425 269.508 407.033C268.933 405.613 268.012 404.36 266.829 403.388C265.645 402.416 264.237 401.756 262.732 401.469C261.228 401.182 259.675 401.277 258.217 401.744C256.758 402.212 255.44 403.039 254.384 404.147C253.002 405.637 255.082 408.06 256.481 406.552V406.552Z" fill="#6C63FF"/>
<path d="M270.532 437.163C272.293 437.163 273.722 435.734 273.722 433.973C273.722 432.211 272.293 430.782 270.532 430.782C268.77 430.782 267.342 432.211 267.342 433.973C267.342 435.734 268.77 437.163 270.532 437.163Z" fill="#6C63FF"/>
<path d="M650.897 312.732C647.671 310.63 643.991 309.328 640.161 308.934C636.331 308.54 632.462 309.064 628.875 310.465C625.289 311.865 622.088 314.101 619.538 316.986C616.989 319.871 615.164 323.322 614.215 327.054L569.789 442.81L493.426 399.456C493.091 394.473 491.186 389.724 487.985 385.891C484.784 382.057 480.451 379.336 475.607 378.117C470.764 376.898 465.659 377.244 461.024 379.106C456.39 380.968 452.464 384.25 449.81 388.481C447.156 392.712 445.911 397.675 446.251 402.657C446.592 407.64 448.503 412.387 451.708 416.217C454.914 420.047 459.25 422.764 464.094 423.977C468.939 425.19 474.044 424.838 478.676 422.971C494.758 440.134 564.476 510.505 593.339 483.009C617.6 459.898 652.612 370.328 661.039 339.397C662.389 334.451 662.135 329.204 660.312 324.412C658.49 319.62 655.193 315.53 650.897 312.732V312.732Z" fill="#FFB6B6"/>
<path d="M567.478 487.859L581.496 551.225L684.011 560.498L693.433 505.324L567.478 487.859Z" fill="#FFB6B6"/>
<path d="M710.993 586.834H565.459L573.015 564.136L575.489 530.453L576.905 530.483L688.831 532.346L690.858 532.376L694.301 561.289C700.865 569.107 706.469 577.683 710.993 586.834V586.834Z" fill="#2F2E41"/>
<path d="M631.461 282.023L682.487 279.394L706.188 316.844C706.188 316.844 729.056 321.534 725.965 374.082C722.874 426.629 693.433 475.505 693.433 475.505L695.62 468.006L691.822 478.86L692.309 484.954L697.491 491.409L698.025 498.083L693.433 508.644L699.677 518.756L568.41 506.039L563.61 488.553L570.612 479.163L566.701 466.915L572.581 455.135L575.647 452.58C575.647 452.58 542.103 402.185 580.611 364.228L596.066 337.954L613.359 316.856L631.461 282.023Z" fill="#3F3D56"/>
<path d="M464.014 355.684C450.211 350.753 432.334 352.677 422.647 364.698C413.97 375.465 412.929 392.608 423.969 402.217C437.409 413.914 456.022 409.611 470.696 403.012C484.124 396.973 498.904 387.237 498.696 370.714C498.665 366.468 497.622 362.29 495.653 358.526C493.685 354.763 490.849 351.523 487.379 349.074C483.858 346.694 479.826 345.176 475.609 344.642C471.392 344.108 467.109 344.574 463.105 346.001C459.562 347.296 461.092 353.01 464.677 351.701C467.563 350.603 470.658 350.163 473.735 350.412C476.813 350.661 479.797 351.593 482.469 353.141C485.141 354.688 487.434 356.812 489.182 359.358C490.93 361.904 492.088 364.807 492.572 367.857C494.645 381.575 482.924 390.46 472.032 395.873C460.082 401.811 444.872 407.493 432.079 400.67C421.136 394.835 419.135 381.524 425.202 371.303C432.723 358.629 449.657 356.816 462.443 361.384C466.031 362.666 467.576 356.957 464.014 355.684V355.684Z" fill="#3F3D56"/>
<path d="M199.819 240.965C189.905 237.423 177.066 238.805 170.108 247.439C163.876 255.172 163.128 267.486 171.058 274.387C180.71 282.788 194.079 279.698 204.619 274.958C214.263 270.621 224.879 263.628 224.73 251.76C224.707 248.71 223.958 245.709 222.544 243.007C221.131 240.304 219.093 237.976 216.601 236.218C214.072 234.508 211.176 233.418 208.147 233.034C205.119 232.651 202.042 232.985 199.167 234.011C196.622 234.941 197.721 239.045 200.295 238.104C202.368 237.316 204.591 236.999 206.802 237.178C209.012 237.357 211.155 238.027 213.075 239.138C214.994 240.25 216.641 241.775 217.896 243.604C219.152 245.432 219.983 247.518 220.331 249.708C221.82 259.561 213.402 265.943 205.578 269.83C196.995 274.096 186.071 278.176 176.882 273.276C169.023 269.085 167.585 259.525 171.943 252.183C177.345 243.081 189.508 241.778 198.691 245.059C201.268 245.979 202.378 241.879 199.819 240.965V240.965Z" fill="#F2F2F2"/>
<path d="M320.295 269.079C334.58 265.193 344.025 254.197 341.392 244.517C338.76 234.838 325.045 230.14 310.761 234.026C296.477 237.911 287.031 248.908 289.664 258.587C292.297 268.267 306.011 272.964 320.295 269.079Z" fill="#F2F2F2"/>
<path d="M253.879 235.33L253.931 268.705C253.952 269.285 254.196 269.834 254.613 270.236C255.03 270.639 255.587 270.864 256.167 270.864C256.747 270.864 257.304 270.639 257.721 270.236C258.138 269.834 258.383 269.285 258.403 268.705L258.35 235.33C258.33 234.751 258.086 234.202 257.669 233.799C257.252 233.396 256.694 233.171 256.114 233.171C255.535 233.171 254.977 233.396 254.56 233.799C254.143 234.202 253.899 234.751 253.879 235.33V235.33Z" fill="#F2F2F2"/>
<path d="M238.286 253.283L270.816 253.363C271.396 253.343 271.945 253.098 272.348 252.681C272.75 252.264 272.976 251.707 272.976 251.127C272.976 250.547 272.75 249.99 272.348 249.573C271.945 249.156 271.396 248.912 270.816 248.892L238.286 248.812C237.707 248.832 237.158 249.076 236.755 249.493C236.352 249.911 236.127 250.468 236.127 251.048C236.127 251.627 236.352 252.185 236.755 252.602C237.158 253.019 237.707 253.263 238.286 253.283V253.283Z" fill="#F2F2F2"/>
<path d="M129.55 269.562C129.591 270.068 129.431 270.569 129.104 270.957C128.778 271.345 128.311 271.588 127.806 271.634V267.252C128.32 267.375 128.775 267.673 129.093 268.094C129.411 268.516 129.573 269.035 129.55 269.562V269.562Z" fill="#F2F2F2"/>
<path d="M137.545 272.501C139.191 272.501 140.526 271.166 140.526 269.52C140.526 267.874 139.191 266.539 137.545 266.539C135.899 266.539 134.564 267.874 134.564 269.52C134.564 271.166 135.899 272.501 137.545 272.501Z" fill="#F2F2F2"/>
<path d="M237.184 540.764C231.759 540.764 227.333 544.446 227.333 548.961C227.333 553.477 231.759 557.158 237.184 557.158H779.827V540.764H237.184Z" fill="white"/>
<path d="M649.956 540.764V557.158H237.184C231.759 557.158 227.333 553.477 227.333 548.961C227.333 544.446 231.759 540.764 237.184 540.764H649.956Z" fill="#53C5D6"/>
<path d="M635.052 564.849C644.107 564.849 651.446 557.509 651.446 548.455C651.446 539.4 644.107 532.061 635.052 532.061C625.998 532.061 618.658 539.4 618.658 548.455C618.658 557.509 625.998 564.849 635.052 564.849Z" fill="#6C63FF"/>
<path d="M218.421 306.553H127.806V313.379H218.421C219.326 313.379 220.194 313.02 220.834 312.38C221.474 311.74 221.834 310.871 221.834 309.966C221.834 309.061 221.474 308.193 220.834 307.553C220.194 306.913 219.326 306.553 218.421 306.553V306.553Z" fill="white"/>
<path d="M445.499 252.274C448.455 244.678 459.399 242.175 465.454 247.452C469.069 250.602 471.763 254.927 476.541 256.473C481.697 258.141 486.589 255.387 490.994 253.001C493.262 251.607 495.765 250.638 498.38 250.141C500.747 249.879 503.143 250.084 505.432 250.744C510.518 252.083 515.187 254.638 520.02 256.649C525.216 258.859 530.821 259.946 536.466 259.838C543.182 259.736 549.899 259.471 556.613 259.282C564.132 259.071 571.652 258.859 579.171 258.648C586.584 258.608 593.982 257.974 601.294 256.753C604.117 256.215 602.922 251.905 600.105 252.442C593.42 253.551 586.657 254.124 579.88 254.157C572.988 254.354 566.096 254.548 559.204 254.738C552.192 254.935 545.181 255.147 538.17 255.329C535.048 255.528 531.913 255.363 528.829 254.839C526.215 254.249 523.664 253.412 521.209 252.337C516.218 250.242 511.383 247.585 506.092 246.299C501.05 245.008 495.712 245.586 491.064 247.927C486.801 250.007 481.553 254.311 476.641 251.689C472.372 249.411 470.03 244.648 465.808 242.221C456.97 237.139 444.824 241.74 441.188 251.086C440.144 253.769 444.465 254.931 445.499 252.274V252.274Z" fill="#F2F2F2"/>
<path d="M456.961 288.021C460.132 283.325 463.704 277.926 469.491 276.329C470.743 275.927 472.069 275.806 473.373 275.974C474.677 276.142 475.928 276.595 477.038 277.301C479.09 278.681 480.657 280.696 482.621 282.199C486.764 285.37 491.344 284.878 495.8 282.684C499.567 280.831 503.812 277.17 508.278 278.637C511.399 279.661 513.83 282.166 516.85 283.443C518.246 284.137 519.788 284.489 521.347 284.468C522.907 284.447 524.438 284.054 525.815 283.322C526.306 283.013 526.657 282.524 526.794 281.961C526.932 281.397 526.845 280.802 526.552 280.302C526.259 279.801 525.784 279.433 525.225 279.277C524.667 279.12 524.069 279.186 523.558 279.462C520.981 280.97 517.971 279.189 515.767 277.762C513.473 275.987 510.839 274.702 508.028 273.987C503.039 273.144 498.798 276.035 494.61 278.273C492.772 279.496 490.603 280.124 488.397 280.071C485.959 279.743 484.189 277.705 482.507 276.107C480.717 274.213 478.495 272.78 476.031 271.932C473.205 271.176 470.216 271.298 467.461 272.282C460.898 274.53 456.822 280.253 453.101 285.764C451.486 288.155 455.358 290.395 456.961 288.021V288.021Z" fill="#F2F2F2"/>
<path d="M401.387 238.075C400.666 238.455 399.847 238.608 399.037 238.515C398.227 238.422 397.465 238.087 396.849 237.553C396.233 237.02 395.792 236.312 395.585 235.524C395.377 234.736 395.413 233.904 395.686 233.136C396.988 229.842 401.719 230.604 403.511 232.92C406.069 236.225 404.887 240.808 402.545 243.847C399.643 247.612 395.175 249.751 391.022 251.821C390.651 252.05 390.354 252.38 390.166 252.773C389.979 253.166 389.909 253.605 389.966 254.037C390.022 254.469 390.202 254.876 390.485 255.207C390.767 255.539 391.139 255.782 391.556 255.907L407.975 259.471C410.78 260.08 411.978 255.771 409.163 255.16L392.745 251.596L393.279 255.682C397.947 253.354 402.702 250.863 405.973 246.668C407.529 244.847 408.595 242.659 409.07 240.312C409.545 237.964 409.412 235.534 408.686 233.251C407.976 231.096 406.543 229.253 404.63 228.033C402.717 226.813 400.441 226.291 398.188 226.556C397.062 226.685 395.975 227.049 394.997 227.622C394.019 228.196 393.172 228.967 392.509 229.886C391.846 230.806 391.382 231.854 391.147 232.963C390.911 234.072 390.91 235.217 391.142 236.327C392.24 242.041 398.72 244.4 403.643 241.936C406.217 240.648 403.955 236.789 401.387 238.075V238.075Z" fill="#F2F2F2"/>
<path d="M416.989 261.323C418.635 261.323 419.969 259.989 419.969 258.342C419.969 256.696 418.635 255.362 416.989 255.362C415.342 255.362 414.008 256.696 414.008 258.342C414.008 259.989 415.342 261.323 416.989 261.323Z" fill="#F2F2F2"/>
<path d="M489.667 306.807H391.08C390.176 306.807 389.31 307.166 388.672 307.804C388.033 308.443 387.674 309.309 387.674 310.212C387.674 311.115 388.033 311.982 388.672 312.62C389.31 313.259 390.176 313.618 391.08 313.618H489.667C490.57 313.618 491.437 313.259 492.075 312.62C492.714 311.982 493.073 311.115 493.073 310.212C493.073 309.309 492.714 308.443 492.075 307.804C491.437 307.166 490.57 306.807 489.667 306.807V306.807Z" fill="#F2F2F2"/>
<path d="M417.835 377.217H296.47C296.074 377.217 295.695 377.06 295.416 376.781C295.136 376.501 294.979 376.122 294.979 375.727C294.979 375.332 295.136 374.953 295.416 374.673C295.695 374.394 296.074 374.237 296.47 374.237H417.835C418.23 374.237 418.609 374.394 418.889 374.673C419.168 374.953 419.325 375.332 419.325 375.727C419.325 376.122 419.168 376.501 418.889 376.781C418.609 377.06 418.23 377.217 417.835 377.217Z" fill="#3F3D56"/>
<path d="M288.047 396.592C296.278 396.592 302.95 389.92 302.95 381.688C302.95 373.457 296.278 366.785 288.047 366.785C279.816 366.785 273.143 373.457 273.143 381.688C273.143 389.92 279.816 396.592 288.047 396.592Z" fill="#53C5D6"/>
<path d="M192.861 164.924C190.178 168.754 185.811 170.975 181.609 173.061C167.808 179.917 154.002 186.768 140.191 193.613L140.937 194.508L141.458 195.148L142.188 196.013C138.388 201.11 134.588 206.202 130.787 211.289C129.789 212.616 128.805 213.957 127.806 215.283V132.21C128.805 131.808 129.789 131.406 130.787 131.018C140.281 127.203 149.769 123.397 159.253 119.602C164.186 117.635 169.432 115.622 174.649 116.532C185.156 118.35 190.044 130.318 193.084 140.542C195.484 148.619 197.69 158.009 192.861 164.924Z" fill="white"/>
<path d="M143.098 196.684C138.999 202.183 134.896 207.687 130.787 213.197C129.789 214.523 128.805 215.865 127.806 217.191V213.391C128.805 212.064 129.803 210.723 130.787 209.396C134.289 204.717 137.782 200.037 141.264 195.357C141.321 195.281 141.386 195.211 141.458 195.148C142.382 194.374 143.917 195.581 143.098 196.684Z" fill="#CCCCCC"/>
<path d="M194.664 164.149C192.369 168.322 188.285 170.9 184.172 173.031C179.477 175.461 174.693 177.756 169.954 180.111C160.267 184.91 150.594 189.709 140.937 194.508C140.847 194.552 140.743 194.597 140.653 194.642C139.342 195.298 138 191.065 139.446 189.023C145.184 180.916 164.663 180.215 173.754 175.699C176.05 174.552 178.345 173.419 180.655 172.271C182.77 171.285 184.825 170.175 186.81 168.948C190.398 166.849 193.016 163.423 194.098 159.41C194.841 155.646 194.755 151.765 193.845 148.038C193.01 143.999 191.889 140.025 190.491 136.145C187.868 128.723 183.621 119.676 175.155 117.769C171.161 116.875 167.078 117.903 163.322 119.244C158.94 120.824 154.633 122.672 150.311 124.401C143.798 127.009 137.29 129.617 130.787 132.225C129.789 132.628 128.805 133.015 127.806 133.418V130.988C128.805 130.586 129.789 130.184 130.787 129.781C139.074 126.472 147.365 123.154 155.661 119.825C159.744 117.951 164.009 116.503 168.389 115.503C172.569 114.686 176.904 115.423 180.58 117.575C184.252 120.024 187.209 123.403 189.15 127.367C191.276 131.509 192.969 135.859 194.202 140.348C196.438 147.889 198.703 156.801 194.664 164.149Z" fill="#CCCCCC"/>
<path d="M140.612 145.492C140.6 145.52 140.59 145.548 140.578 145.576C138.467 144.697 136.095 144.682 133.972 145.534C131.85 146.386 130.146 148.036 129.228 150.131V150.131C128.307 152.233 128.252 154.613 129.073 156.756C129.894 158.899 131.526 160.633 133.615 161.582L133.614 161.584L133.722 161.632L149.608 168.592L156.615 152.598L156.569 152.578C156.581 152.551 156.594 152.526 156.606 152.499C157.535 150.378 157.584 147.975 156.741 145.818C155.898 143.662 154.234 141.928 152.113 140.999V140.999C151.063 140.539 149.932 140.29 148.786 140.267C147.639 140.243 146.5 140.446 145.432 140.864C144.364 141.281 143.389 141.904 142.562 142.698C141.735 143.493 141.072 144.442 140.612 145.492Z" fill="#53C5D6"/>
<path d="M779.826 449.807C778.873 447.78 777.889 445.724 776.846 443.652C773.105 436.096 768.857 428.197 764.342 420.268C751.927 398.36 737.515 376.153 726.173 360.177V360.162C721.598 353.708 717.514 348.298 714.265 344.304C712.25 341.822 709.763 339.764 706.948 338.248C704.132 336.733 701.045 335.79 697.863 335.474C694.682 335.158 691.469 335.475 688.411 336.407C685.352 337.34 682.509 338.869 680.045 340.906C677.58 342.943 675.544 345.448 674.053 348.276C672.562 351.105 671.646 354.2 671.358 357.385C671.07 360.569 671.416 363.779 672.375 366.829C673.334 369.879 674.888 372.709 676.947 375.155L713.714 430.999L731.017 457.289L745.116 478.72L696.739 501.031L688.825 504.683L665.5 515.443L665.366 515.503C665.322 515.473 665.262 515.443 665.217 515.413C664.068 514.712 662.861 514.109 661.611 513.61C658.527 512.393 655.221 511.839 651.908 511.985C649.458 512.087 647.038 512.575 644.74 513.431C640.887 514.854 637.472 517.255 634.83 520.399C632.188 523.543 630.41 527.32 629.672 531.36C629.568 531.837 629.508 532.329 629.449 532.836C629.436 532.909 629.431 532.984 629.434 533.059H629.419C628.913 537.844 629.873 542.67 632.173 546.897C634.473 551.124 638.003 554.552 642.296 556.726C642.594 556.875 642.892 557.024 643.205 557.158C644.694 557.839 646.253 558.353 647.855 558.693C649.855 559.132 651.904 559.307 653.95 559.215C655.853 559.132 657.739 558.822 659.569 558.291H659.584C660.631 557.983 661.657 557.604 662.654 557.158C665.923 555.672 668.813 553.463 671.105 550.698C673.398 547.934 675.033 544.685 675.888 541.197C676.842 541.077 677.915 540.928 679.093 540.764C681.507 540.422 684.369 539.989 687.603 539.468C688.884 539.259 690.226 539.036 691.612 538.797C715.845 534.624 755.444 525.741 776.846 510.033C777.889 509.258 778.888 508.483 779.826 507.693V449.807Z" fill="#FFB6B6"/>
<path d="M181.981 570.81C195.151 570.81 205.827 560.134 205.827 546.964C205.827 533.795 195.151 523.118 181.981 523.118C168.811 523.118 158.135 533.795 158.135 546.964C158.135 560.134 168.811 570.81 181.981 570.81Z" fill="#53C5D6"/>
<path d="M178.362 559.813C178.155 559.812 177.949 559.771 177.757 559.691C177.471 559.576 177.226 559.377 177.055 559.121C176.884 558.864 176.794 558.562 176.797 558.254V536.303C176.797 535.996 176.888 535.695 177.059 535.439C177.23 535.184 177.473 534.984 177.757 534.867C178.041 534.749 178.354 534.718 178.656 534.778C178.957 534.838 179.234 534.986 179.452 535.204L190.427 546.179C190.718 546.471 190.882 546.866 190.882 547.279C190.882 547.691 190.718 548.086 190.427 548.378L179.452 559.353C179.31 559.498 179.14 559.614 178.953 559.693C178.766 559.772 178.565 559.812 178.362 559.813Z" fill="white"/>
<path d="M667.987 192.327C682.803 192.327 694.814 180.317 694.814 165.501C694.814 150.685 682.803 138.674 667.987 138.674C653.171 138.674 641.16 150.685 641.16 165.501C641.16 180.317 653.171 192.327 667.987 192.327Z" fill="#2F2E41"/>
<path d="M668.205 204.364C655.396 196.918 651.883 179.92 659.768 167.376C661.642 164.393 664.086 161.809 666.959 159.77C669.833 157.732 673.08 156.28 676.514 155.496C679.949 154.713 683.504 154.614 686.977 155.204C690.45 155.795 693.773 157.064 696.756 158.938C709.3 166.822 699.881 182.096 705.193 195.927C712.708 215.493 685.479 214.405 668.205 204.364Z" fill="#2F2E41"/>
<path d="M605.917 196.061C604.985 198.234 576.238 198.001 574.922 199.935C564.771 214.871 601.363 278.42 591.212 293.375L589.798 295.061C593.11 293.534 596.291 291.74 599.31 289.694C599.581 283.573 599.852 277.432 600.143 271.31C603.183 275.2 605.637 279.514 607.427 284.115C609.79 282.449 611.729 279.361 621.859 273.286C625.96 268.781 630.688 264.889 635.897 261.73L605.917 196.061Z" fill="#2F2E41"/>
<path d="M620.167 266.535C646.444 266.535 667.746 245.233 667.746 218.955C667.746 192.678 646.444 171.376 620.167 171.376C593.889 171.376 572.587 192.678 572.587 218.955C572.587 245.233 593.889 266.535 620.167 266.535Z" fill="#FFB6B6"/>
<path d="M656.304 287.497C652.429 284.26 649.733 279.833 648.632 274.905C647.753 280.889 647.982 286.983 649.311 292.883C646.734 294.82 644.235 296.66 641.872 298.326C640.082 293.725 637.628 289.411 634.588 285.521C634.297 291.643 634.026 297.784 633.755 303.905C630.736 305.951 627.555 307.745 624.243 309.271L625.657 307.586C635.808 292.631 609.54 265.103 619.691 250.167C622.538 245.983 609.675 212.915 599.873 211.423C591.156 210.106 591.524 212.624 583.077 214.464C582.2 210.806 580.839 207.282 579.029 203.984C579.51 207.659 579.399 211.387 578.699 215.026C575.697 215.143 573.334 213.229 570.137 212.74C549.738 209.621 551.811 187.557 557.487 180.563C563.182 173.589 582.09 171.497 590.807 169.231C591.601 168.456 593.403 168.94 594.197 168.204C610.903 152.914 633.247 150.382 653.355 157.159C674.798 164.386 688.167 178.373 695.029 199.935L696.997 217.191C698.762 222.739 696.541 248.555 695.029 254.177C689.149 276.033 676.628 265.122 656.304 287.497Z" fill="#2F2E41"/>
</g>
<defs>
<clipPath id="clip0_74_74">
<rect width="907.633" height="683.467" fill="white"/>
</clipPath>
</defs>
</svg>
