<svg width="664" height="1140" viewBox="0 0 664 1140" fill="none" xmlns="http://www.w3.org/2000/svg">
<path d="M311.682 138.682C311.667 139.344 311.62 140 311.531 140.651C311.443 141.307 311.312 141.953 311.151 142.594C310.989 143.234 310.786 143.864 310.552 144.479C310.312 145.094 310.042 145.698 309.734 146.281C309.432 146.864 309.088 147.432 308.719 147.979C308.349 148.521 307.943 149.047 307.51 149.542C307.078 150.042 306.62 150.515 306.13 150.958C305.646 151.406 305.13 151.823 304.599 152.208C304.062 152.594 303.505 152.948 302.927 153.271C302.349 153.588 301.755 153.88 301.146 154.13C300.536 154.385 299.911 154.599 299.276 154.781C298.64 154.958 298 155.104 297.349 155.208C296.693 155.312 296.042 155.38 295.38 155.411C294.719 155.437 294.062 155.432 293.401 155.385C292.745 155.338 292.088 155.25 291.437 155.13C290.792 155.005 290.151 154.844 289.521 154.646C287.969 161.838 285.39 168.635 281.781 175.047C278.172 181.458 273.693 187.193 268.349 192.25V253.432C265.802 254.729 263.193 255.88 260.515 256.885C257.838 257.89 255.114 258.739 252.344 259.437C249.573 260.13 246.765 260.667 243.932 261.047C241.099 261.427 238.255 261.646 235.396 261.708C232.542 261.765 229.687 261.661 226.844 261.396C223.995 261.135 221.172 260.713 218.375 260.13C215.573 259.547 212.818 258.807 210.104 257.917C207.385 257.021 204.729 255.979 202.135 254.786L199.224 253.432V190.687H199.557C194.635 185.713 190.5 180.151 187.161 174C183.823 167.849 181.411 161.354 179.922 154.515C179.062 154.656 178.193 154.724 177.323 154.724C176.193 154.771 175.073 154.703 173.958 154.521C172.844 154.338 171.76 154.047 170.703 153.646C169.646 153.245 168.64 152.739 167.687 152.135C166.734 151.531 165.849 150.838 165.036 150.057C164.224 149.276 163.495 148.417 162.854 147.489C162.213 146.557 161.672 145.573 161.229 144.536C160.786 143.5 160.453 142.427 160.224 141.318C160 140.213 159.885 139.094 159.885 137.963C159.885 136.838 160 135.719 160.224 134.614C160.453 133.505 160.786 132.432 161.229 131.396C161.672 130.354 162.213 129.375 162.854 128.443C163.495 127.515 164.224 126.656 165.036 125.875C165.849 125.094 166.734 124.401 167.687 123.797C168.64 123.193 169.646 122.687 170.703 122.286C171.76 121.885 172.844 121.594 173.958 121.411C175.073 121.229 176.193 121.161 177.323 121.208C177.781 121.182 178.239 121.182 178.703 121.208C183.901 88.4946 206.948 63.7915 234.75 63.7915C262.552 63.7915 286.193 89.2759 290.927 122.427C292.156 122.135 293.406 121.984 294.672 121.989C295.776 121.979 296.87 122.083 297.958 122.286C299.042 122.495 300.099 122.807 301.125 123.224C302.151 123.64 303.125 124.151 304.047 124.755C304.974 125.364 305.828 126.052 306.62 126.828C307.406 127.604 308.114 128.443 308.739 129.359C309.359 130.271 309.89 131.234 310.323 132.255C310.76 133.271 311.088 134.318 311.318 135.401C311.547 136.484 311.667 137.578 311.682 138.682Z" fill="#EBB38B"/>
<path d="M211.938 151.005C211.891 151.427 211.807 151.838 211.677 152.239C211.552 152.646 211.386 153.031 211.182 153.401C210.979 153.771 210.74 154.12 210.469 154.443C210.198 154.765 209.896 155.062 209.568 155.328C209.234 155.588 208.886 155.823 208.511 156.015C208.136 156.213 207.745 156.37 207.339 156.484C206.932 156.604 206.516 156.682 206.099 156.719C205.677 156.755 205.255 156.755 204.833 156.708C204.412 156.661 204 156.578 203.599 156.448C203.193 156.323 202.807 156.156 202.438 155.953C202.068 155.755 201.719 155.515 201.391 155.245C201.068 154.974 200.776 154.672 200.511 154.344C200.245 154.015 200.011 153.667 199.818 153.292C199.62 152.917 199.464 152.526 199.344 152.12C199.224 151.713 199.146 151.302 199.104 150.88C199.068 150.458 199.068 150.036 199.115 149.62C199.162 149.198 199.245 148.786 199.37 148.38C199.495 147.979 199.656 147.588 199.859 147.219C200.063 146.849 200.297 146.5 200.568 146.172C200.839 145.849 201.141 145.552 201.469 145.286C201.797 145.021 202.146 144.786 202.521 144.594C202.896 144.396 203.287 144.234 203.688 144.114C204.094 143.995 204.511 143.917 204.927 143.875C205.349 143.838 205.771 143.838 206.193 143.88C206.615 143.927 207.031 144.01 207.438 144.135C207.844 144.26 208.234 144.427 208.609 144.63C208.979 144.833 209.333 145.068 209.656 145.344C209.984 145.614 210.281 145.917 210.547 146.25C210.818 146.578 211.047 146.932 211.245 147.312C211.443 147.687 211.599 148.078 211.719 148.489C211.839 148.896 211.917 149.312 211.953 149.734C211.99 150.161 211.984 150.583 211.938 151.005Z" fill="#FF7B6C"/>
<path d="M269.651 117.62C269.885 118.271 269.948 118.937 269.839 119.625C269.729 120.307 269.458 120.922 269.026 121.469C268.203 122.14 267.266 122.552 266.214 122.693C265.156 122.833 264.146 122.682 263.177 122.245C260.547 121.437 258.156 120.182 255.995 118.479C254.464 117.401 253.38 115.979 252.745 114.213C252.599 113.781 252.526 113.333 252.526 112.875C252.526 112.416 252.599 111.974 252.75 111.541C252.896 111.109 253.109 110.708 253.391 110.349C253.672 109.984 254 109.677 254.385 109.427C255.323 109.026 256.302 108.854 257.323 108.906C258.646 108.864 259.922 109.088 261.146 109.583C263.589 110.656 265.688 112.198 267.443 114.213C268.432 115.182 269.172 116.318 269.651 117.62ZM202.943 122.245C205.557 121.432 207.943 120.172 210.094 118.479C211.625 117.396 212.719 115.974 213.37 114.213C213.51 113.776 213.578 113.333 213.578 112.875C213.573 112.416 213.495 111.974 213.344 111.541C213.193 111.109 212.979 110.708 212.698 110.349C212.417 109.989 212.089 109.682 211.703 109.427C210.776 109.026 209.802 108.854 208.792 108.906C207.469 108.859 206.193 109.083 204.969 109.583C202.521 110.656 200.411 112.198 198.651 114.213C197.656 115.182 196.917 116.318 196.438 117.62C196.203 118.271 196.141 118.937 196.25 119.625C196.359 120.307 196.63 120.922 197.063 121.469C197.891 122.146 198.833 122.557 199.891 122.698C200.948 122.838 201.969 122.687 202.943 122.245ZM207.828 125.911C207.411 125.87 207 125.911 206.599 126.031C206.198 126.151 205.833 126.344 205.505 126.609C205.177 126.875 204.917 127.193 204.719 127.562C204.516 127.932 204.396 128.328 204.354 128.745C204.307 129.166 204.349 129.573 204.469 129.979C204.589 130.38 204.781 130.745 205.047 131.073C205.313 131.396 205.63 131.661 206 131.859C206.37 132.062 206.766 132.182 207.182 132.224C207.599 132.271 208.01 132.229 208.417 132.109C208.818 131.989 209.182 131.797 209.51 131.531C209.833 131.265 210.099 130.948 210.297 130.578C210.5 130.208 210.62 129.818 210.667 129.396C210.708 128.979 210.672 128.568 210.552 128.161C210.427 127.76 210.234 127.396 209.969 127.068C209.703 126.739 209.385 126.479 209.016 126.276C208.646 126.078 208.25 125.958 207.828 125.911ZM255.708 125.911C255.292 125.87 254.88 125.911 254.479 126.031C254.078 126.151 253.714 126.344 253.385 126.609C253.057 126.875 252.797 127.193 252.599 127.562C252.396 127.932 252.276 128.328 252.234 128.745C252.193 129.166 252.229 129.573 252.349 129.979C252.469 130.38 252.661 130.745 252.927 131.073C253.193 131.396 253.51 131.661 253.88 131.859C254.25 132.062 254.646 132.182 255.063 132.224C255.484 132.271 255.891 132.229 256.297 132.109C256.698 131.989 257.063 131.797 257.391 131.531C257.719 131.265 257.979 130.948 258.182 130.578C258.38 130.208 258.5 129.818 258.547 129.396C258.589 128.979 258.552 128.568 258.432 128.161C258.313 127.76 258.115 127.396 257.849 127.068C257.583 126.739 257.266 126.479 256.896 126.276C256.526 126.078 256.13 125.958 255.708 125.911ZM239.74 199.193C221.693 205.797 206.505 194.823 200.729 189.802C200.557 189.656 200.365 189.552 200.151 189.484C199.932 189.416 199.714 189.39 199.49 189.411C199.266 189.432 199.052 189.495 198.854 189.599C198.656 189.703 198.484 189.838 198.339 190.01C198.193 190.182 198.089 190.375 198.016 190.594C197.948 190.807 197.927 191.026 197.948 191.25C197.964 191.474 198.026 191.687 198.13 191.885C198.234 192.088 198.375 192.26 198.547 192.401L199.224 192.974L199.068 216.094C208.078 213.005 216.745 209.151 225.073 204.521C226.115 204.625 227.182 204.677 228.271 204.677C232.62 204.677 236.833 203.922 240.911 202.416C241.115 202.333 241.297 202.224 241.458 202.073C241.615 201.922 241.74 201.745 241.833 201.547C241.922 201.349 241.969 201.135 241.979 200.916C241.984 200.698 241.953 200.489 241.875 200.281C241.818 200.062 241.714 199.864 241.573 199.682C241.427 199.505 241.255 199.364 241.052 199.26C240.849 199.156 240.63 199.099 240.406 199.088C240.177 199.073 239.953 199.109 239.74 199.193ZM257.688 147.182C257.495 147.078 257.292 147.01 257.073 146.989C256.859 146.963 256.646 146.979 256.432 147.041C256.224 147.104 256.031 147.203 255.865 147.338C255.693 147.479 255.557 147.64 255.453 147.833C251.24 155.635 245.906 159.484 239.583 159.614C239.37 159.614 239.161 159.661 238.958 159.75C238.76 159.833 238.589 159.953 238.432 160.109C238.281 160.265 238.167 160.448 238.089 160.651C238.01 160.849 237.969 161.062 237.974 161.276C237.979 161.495 238.021 161.703 238.104 161.901C238.188 162.099 238.307 162.276 238.458 162.427C238.615 162.583 238.792 162.698 238.99 162.786C239.188 162.87 239.396 162.911 239.609 162.916C244.813 162.916 252.302 160.318 258.286 149.422C258.411 149.224 258.49 149.015 258.526 148.786C258.563 148.562 258.552 148.333 258.49 148.114C258.432 147.89 258.328 147.687 258.188 147.51C258.042 147.328 257.865 147.187 257.661 147.078L257.688 147.182ZM236.333 149.344H236.594C236.813 149.359 237.026 149.333 237.229 149.26C237.438 149.193 237.625 149.088 237.786 148.943C237.953 148.802 238.083 148.635 238.182 148.437C238.276 148.245 238.333 148.036 238.349 147.823C238.365 147.604 238.339 147.39 238.271 147.187C238.203 146.979 238.094 146.791 237.953 146.63C237.813 146.463 237.641 146.333 237.448 146.234C237.25 146.135 237.047 146.083 236.828 146.068C235.609 145.864 234.656 145.245 233.969 144.219C230.25 139.021 231.521 125.344 232.328 120.479C232.349 120.271 232.333 120.062 232.276 119.859C232.219 119.656 232.125 119.469 231.995 119.302C231.87 119.13 231.714 118.995 231.531 118.885C231.349 118.776 231.156 118.703 230.948 118.672C230.74 118.635 230.531 118.64 230.323 118.682C230.12 118.729 229.927 118.807 229.75 118.927C229.573 119.041 229.427 119.187 229.307 119.364C229.188 119.536 229.099 119.729 229.052 119.932C229.052 120.713 225.984 138.812 231.318 146.146C231.901 146.979 232.63 147.661 233.495 148.203C234.365 148.739 235.302 149.083 236.307 149.239L236.333 149.344ZM305.568 134.026C304.479 132.995 303.214 132.265 301.776 131.833C300.339 131.401 298.88 131.318 297.401 131.583C296.047 132.021 294.839 132.708 293.771 133.646C292.703 134.588 291.865 135.703 291.266 136.989C291.172 137.187 291.12 137.396 291.109 137.614C291.104 137.833 291.135 138.047 291.214 138.25C291.286 138.458 291.401 138.64 291.547 138.797C291.698 138.958 291.87 139.083 292.068 139.177C292.266 139.265 292.474 139.318 292.693 139.328C292.911 139.338 293.125 139.302 293.328 139.229C293.536 139.151 293.719 139.041 293.88 138.89C294.036 138.739 294.167 138.568 294.255 138.37C294.651 137.541 295.193 136.818 295.87 136.193C296.552 135.573 297.318 135.104 298.182 134.781C299.141 134.682 300.078 134.791 300.984 135.109C301.896 135.427 302.693 135.927 303.385 136.599C303.557 136.739 303.75 136.833 303.958 136.896C304.172 136.953 304.385 136.974 304.604 136.948C304.823 136.922 305.026 136.854 305.219 136.745C305.411 136.64 305.573 136.5 305.714 136.328C305.849 136.156 305.948 135.963 306.005 135.75C306.068 135.541 306.083 135.328 306.057 135.109C306.031 134.89 305.964 134.682 305.859 134.495C305.75 134.302 305.609 134.135 305.438 134L305.568 134.026ZM174.542 131.583C173.063 131.318 171.604 131.401 170.167 131.833C168.729 132.265 167.464 132.995 166.375 134.026C166.203 134.166 166.068 134.333 165.964 134.526C165.859 134.719 165.792 134.927 165.771 135.146C165.745 135.364 165.76 135.578 165.823 135.786C165.88 136 165.979 136.193 166.115 136.364C166.25 136.536 166.417 136.672 166.609 136.776C166.802 136.88 167.005 136.943 167.224 136.963C167.438 136.989 167.651 136.969 167.859 136.906C168.073 136.838 168.26 136.739 168.427 136.599C169.13 135.906 169.948 135.401 170.885 135.078C171.823 134.76 172.781 134.661 173.76 134.781C174.625 135.094 175.401 135.562 176.078 136.182C176.76 136.807 177.297 137.536 177.688 138.37C177.828 138.661 178.031 138.89 178.302 139.068C178.573 139.239 178.875 139.328 179.193 139.333C179.432 139.328 179.656 139.276 179.87 139.177C180.073 139.083 180.245 138.958 180.396 138.797C180.542 138.64 180.656 138.458 180.729 138.25C180.807 138.047 180.839 137.833 180.828 137.614C180.823 137.396 180.771 137.187 180.677 136.989C180.083 135.682 179.25 134.547 178.177 133.583C177.104 132.625 175.885 131.922 174.516 131.479L174.542 131.583Z" fill="#231F20"/>
<path d="M446.219 204.625C446.11 204.391 446.053 204.146 446.037 203.891C446.026 203.63 446.063 203.38 446.146 203.141C446.23 202.896 446.36 202.677 446.532 202.484C446.698 202.292 446.901 202.141 447.131 202.026C469.584 190.281 492.646 179.88 516.313 170.823C541.125 161.406 579.693 154.594 587.704 153.245C588.146 153.161 588.568 153.224 588.964 153.427C589.365 153.63 589.667 153.932 589.86 154.333C594.412 163.516 620.943 217.495 636.86 254.396C653.839 293.844 661.386 316.802 663.047 322.005C663.167 322.37 663.172 322.74 663.073 323.109C662.974 323.479 662.787 323.797 662.5 324.057C658.443 327.932 640.24 344.052 602.683 359.995C577.448 370.542 551.209 376.984 523.959 379.313C523.526 379.339 523.131 379.24 522.766 379.016C522.396 378.792 522.131 378.484 521.954 378.094L446.219 204.625Z" fill="#EBB38B"/>
<path d="M438.312 221.213C438.213 220.979 438.161 220.734 438.151 220.479C438.146 220.229 438.182 219.979 438.265 219.739C438.349 219.5 438.474 219.281 438.64 219.088C438.807 218.896 439 218.734 439.224 218.614C461.693 206.89 484.765 196.489 508.432 187.411C533.239 178 571.812 171.187 579.823 169.807C580.265 169.739 580.687 169.807 581.083 170.01C581.484 170.219 581.781 170.521 581.979 170.927C586.505 180.104 613.062 234.088 628.953 270.984C645.958 310.432 653.479 333.39 655.14 338.594C655.265 338.958 655.281 339.323 655.187 339.698C655.088 340.068 654.901 340.385 654.62 340.646C650.562 344.547 632.359 360.667 594.802 376.583C569.573 387.146 543.328 393.594 516.078 395.927C515.646 395.953 515.245 395.854 514.875 395.63C514.505 395.406 514.229 395.099 514.047 394.708L438.312 221.213Z" fill="#FF7B6C"/>
<path d="M494.126 242.042C493.803 242.167 493.469 242.224 493.126 242.214C492.782 242.203 492.454 242.125 492.136 241.984C491.823 241.844 491.547 241.646 491.308 241.396C491.073 241.146 490.896 240.859 490.771 240.536C490.652 240.214 490.594 239.88 490.605 239.536C490.615 239.188 490.688 238.859 490.829 238.547C490.975 238.229 491.167 237.953 491.417 237.719C491.672 237.484 491.959 237.302 492.282 237.182L550.172 212.818C550.49 212.698 550.813 212.641 551.152 212.646C551.485 212.656 551.808 212.724 552.115 212.854C552.428 212.99 552.698 213.172 552.938 213.411C553.172 213.651 553.36 213.922 553.49 214.234C553.62 214.542 553.688 214.865 553.693 215.203C553.704 215.536 553.646 215.859 553.527 216.177C553.407 216.49 553.23 216.771 553.001 217.016C552.771 217.26 552.506 217.458 552.204 217.599L494.308 241.964L494.126 242.042ZM500.631 256.422L558.626 232.292C558.948 232.161 559.23 231.974 559.475 231.729C559.714 231.484 559.907 231.198 560.037 230.88C560.167 230.562 560.235 230.229 560.235 229.88C560.23 229.536 560.162 229.203 560.032 228.885C559.896 228.573 559.709 228.297 559.464 228.057C559.219 227.818 558.938 227.63 558.62 227.505C558.308 227.375 557.98 227.313 557.636 227.313C557.292 227.313 556.964 227.375 556.652 227.505L498.626 251.563C498.323 251.693 498.053 251.88 497.823 252.115C497.589 252.354 497.407 252.625 497.277 252.932C497.152 253.234 497.084 253.557 497.073 253.885C497.068 254.219 497.126 254.542 497.24 254.849C497.355 255.161 497.527 255.443 497.751 255.688C497.975 255.932 498.235 256.13 498.532 256.276C498.829 256.422 499.141 256.505 499.475 256.531C499.808 256.557 500.131 256.521 500.448 256.422H500.631ZM506.376 269.427L563.594 243.786C563.907 243.646 564.183 243.448 564.417 243.198C564.652 242.948 564.834 242.661 564.954 242.339C565.073 242.016 565.131 241.682 565.12 241.339C565.11 240.995 565.037 240.667 564.896 240.354C564.756 240.042 564.563 239.766 564.313 239.531C564.063 239.297 563.782 239.115 563.464 238.99C563.146 238.865 562.813 238.807 562.469 238.813C562.131 238.818 561.803 238.891 561.485 239.026L504.271 264.693C503.975 264.833 503.714 265.021 503.49 265.26C503.266 265.5 503.089 265.776 502.969 266.078C502.85 266.385 502.787 266.698 502.787 267.026C502.782 267.354 502.844 267.672 502.959 267.979C503.079 268.286 503.251 268.557 503.469 268.802C503.693 269.042 503.954 269.234 504.245 269.38C504.542 269.521 504.855 269.609 505.183 269.63C505.506 269.656 505.829 269.625 506.141 269.526L506.376 269.427Z" fill="#EBB38B"/>
<path d="M451.057 318.417L471.577 267.735C471.577 267.735 479.38 247.349 481.484 267.735C483.593 288.12 479.301 295.818 479.301 295.818C479.301 295.818 498.025 318.958 492.515 338.776C491.661 342.339 491.005 345.932 490.536 349.568C476.234 344.521 463.124 333.86 451.057 318.417Z" fill="#EBB38B"/>
<path d="M451.057 318.417L423.646 386.021L408.479 358.771C369.781 281.229 350.641 242.38 268.349 226.417L226.74 224.203L224.839 225.74L225.906 224.203L168.245 240.25C163.63 241.531 159.099 243.052 154.646 244.818C150.193 246.578 145.844 248.573 141.604 250.797C137.365 253.021 133.25 255.464 129.271 258.125C125.287 260.786 121.458 263.651 117.781 266.724C114.104 269.792 110.599 273.047 107.271 276.484C103.938 279.927 100.797 283.531 97.849 287.307C94.9011 291.078 92.1615 295 89.6303 299.063C87.099 303.13 84.7917 307.318 82.7032 311.625C55.7865 367.51 24.3438 445.776 28.2969 472.922C32.5886 502.151 54.7188 511.073 104.214 510.318C106.531 491.125 112.328 475.266 122.24 463.51L113.083 593.526L210.094 595.036L356.854 593.005L353.76 398.271C372.458 429.318 398.729 461.042 428.042 460.677C478.26 460.208 485.75 382.328 490.458 349.724C476.234 344.521 463.125 333.859 451.057 318.417ZM94.099 446.766C104.901 424.646 116.167 402.766 127.906 381.135L122.266 461.25L94.099 446.766Z" fill="#FF7B6C"/>
<path d="M312.563 239.26C312.563 239.26 291.63 290.719 238.651 291.265C185.672 291.812 168.297 240.094 168.297 240.094C241.198 200.672 312.563 239.26 312.563 239.26Z" fill="#EBB38B"/>
<path fill-rule="evenodd" clip-rule="evenodd" d="M151.313 244.021C151.313 244.021 158.365 237.182 186.74 233.62C186.74 233.62 186.74 240.25 187.052 251.328C187.12 253.125 187.286 254.912 187.536 256.693C187.792 258.469 188.135 260.235 188.568 261.979C189.005 263.724 189.526 265.443 190.135 267.13C190.745 268.823 191.438 270.479 192.214 272.099C192.99 273.724 193.849 275.302 194.792 276.833C195.729 278.365 196.745 279.849 197.833 281.276C198.922 282.708 200.083 284.078 201.313 285.391C202.542 286.703 203.833 287.948 205.193 289.13C206.547 290.307 207.964 291.417 209.432 292.453C210.901 293.49 212.422 294.448 213.99 295.328C215.557 296.208 217.167 297.005 218.813 297.724C220.464 298.443 222.146 299.073 223.859 299.62C225.573 300.162 227.307 300.62 229.068 300.99C230.828 301.354 232.604 301.636 234.391 301.823C236.177 302.011 237.974 302.104 239.771 302.11C241.568 302.115 243.365 302.026 245.151 301.849C246.943 301.672 248.719 301.396 250.479 301.037C252.245 300.672 253.984 300.224 255.698 299.682C257.417 299.146 259.099 298.516 260.75 297.807C262.401 297.094 264.016 296.297 265.589 295.422C267.156 294.547 268.682 293.594 270.151 292.557C271.625 291.526 273.047 290.422 274.406 289.245C275.766 288.068 277.063 286.828 278.297 285.516C279.531 284.208 280.693 282.839 281.786 281.412C282.88 279.985 283.901 278.5 284.844 276.969C285.786 275.438 286.646 273.86 287.427 272.24C288.208 270.62 288.906 268.964 289.516 267.271C290.13 265.583 290.656 263.865 291.089 262.12C291.526 260.37 291.875 258.61 292.13 256.828C292.385 255.047 292.552 253.261 292.625 251.464C292.698 249.667 292.682 247.87 292.568 246.073C292.458 244.276 292.26 242.49 291.964 240.719C291.391 236.651 290.474 232.662 289.208 228.755L319.328 235.906C319.328 235.906 339.016 304.089 325.281 432.802C325.281 432.802 350.536 470.037 359.094 611.625C367.651 753.214 340.885 1128.46 340.885 1128.46C340.885 1128.46 261.198 1140.16 223.484 1136.1C223.484 1136.1 239.661 696.057 231.547 620.542C231.547 620.542 194.568 741.667 167.698 875.375C140.833 1009.08 112.12 1138.73 112.12 1138.73C112.12 1138.73 32.5365 1142.92 0 1124.43C0 1124.43 90.7917 539.724 160.651 450.302L159.245 440.682C154.984 410.625 154.38 380.495 157.427 350.292C158.021 344.61 158.125 338.912 157.74 333.208C150.745 249.037 151.313 244.021 151.313 244.021Z" fill="#00C2CB"/>
<path d="M234.958 518.974C234.958 518.974 238.677 525.526 236.203 529.375C233.734 533.224 228.401 530.911 228.401 530.911C228.651 531.177 228.875 531.464 229.068 531.771C229.255 532.078 229.417 532.406 229.547 532.745C229.672 533.083 229.765 533.432 229.823 533.792C229.88 534.151 229.901 534.516 229.885 534.875C229.875 535.24 229.823 535.599 229.734 535.953C229.651 536.307 229.531 536.646 229.375 536.974C229.224 537.307 229.036 537.615 228.818 537.906C228.604 538.203 228.359 538.469 228.088 538.714C224.239 542.693 207.286 532.057 207.286 532.057C207.286 532.057 203.588 533.797 189.911 530C183.875 528.339 146.765 519.313 103.901 508.339L106.167 495.859C107.547 488.224 110.146 481.031 113.969 474.276L119.349 464.812C125.047 466.672 130.838 468.161 136.724 469.286C150.276 473.495 180.364 471.234 195.708 477.318C211.057 483.401 243.307 501.526 245.463 510.422C247.62 519.313 239.87 521.24 234.958 518.974Z" fill="#EBB38B"/>
<path d="M112.641 410.333C112.385 410.323 112.141 410.266 111.911 410.151C111.714 410.057 111.542 409.922 111.396 409.755C111.25 409.589 111.146 409.401 111.073 409.187C111.005 408.979 110.984 408.76 111 408.542C111.021 408.323 111.083 408.115 111.182 407.917L142.682 346.37C142.76 346.146 142.885 345.948 143.052 345.776C143.219 345.604 143.417 345.474 143.635 345.391C143.859 345.302 144.089 345.266 144.328 345.276C144.568 345.286 144.792 345.349 145.005 345.458C145.214 345.568 145.396 345.714 145.547 345.901C145.693 346.089 145.797 346.297 145.854 346.526C145.917 346.76 145.922 346.995 145.885 347.229C145.844 347.464 145.755 347.677 145.62 347.875L114.125 409.427C113.984 409.708 113.781 409.927 113.51 410.094C113.245 410.255 112.953 410.339 112.641 410.333ZM365.802 414.156C365.958 414.005 366.078 413.828 366.167 413.63C366.25 413.427 366.292 413.219 366.292 413C366.292 412.781 366.25 412.573 366.167 412.37C366.078 412.172 365.958 411.995 365.802 411.844C352.589 397.958 335.531 347.797 335.375 347.302C335.302 347.099 335.198 346.911 335.052 346.745C334.906 346.583 334.734 346.453 334.542 346.354C334.344 346.26 334.135 346.203 333.917 346.187C333.698 346.177 333.484 346.203 333.281 346.276C333.073 346.344 332.885 346.453 332.724 346.599C332.557 346.74 332.427 346.911 332.333 347.109C332.234 347.307 332.182 347.516 332.167 347.729C332.151 347.948 332.182 348.161 332.25 348.37C332.953 350.448 349.703 399.698 363.464 414.104C363.787 414.453 364.182 414.625 364.656 414.625C365.104 414.63 365.49 414.474 365.802 414.156ZM236.177 520.094C236.339 519.937 236.458 519.76 236.542 519.557C236.63 519.354 236.672 519.146 236.672 518.922C236.672 518.703 236.63 518.495 236.542 518.292C236.458 518.089 236.339 517.906 236.177 517.755C235.193 516.844 211.495 495.078 195.344 491.099C195.135 491.047 194.922 491.036 194.703 491.068C194.49 491.099 194.287 491.172 194.099 491.286C193.912 491.396 193.75 491.542 193.62 491.714C193.49 491.891 193.396 492.083 193.344 492.297C193.292 492.51 193.281 492.724 193.313 492.937C193.344 493.156 193.417 493.359 193.526 493.547C193.641 493.734 193.781 493.891 193.958 494.021C194.135 494.151 194.328 494.245 194.542 494.297C209.885 498.094 233.708 519.964 233.943 520.302C234.255 520.599 234.63 520.745 235.063 520.745C235.526 520.687 235.901 520.469 236.177 520.094ZM230.068 531.328C230.135 531.12 230.162 530.911 230.141 530.698C230.12 530.479 230.057 530.281 229.958 530.089C229.854 529.901 229.714 529.74 229.547 529.604C229.375 529.474 229.182 529.38 228.974 529.323C228.141 528.937 223.073 525.375 218.208 521.917C209.208 515.724 198.13 507.745 193.083 505.323C192.891 505.224 192.682 505.167 192.464 505.151C192.245 505.135 192.037 505.161 191.828 505.229C191.62 505.297 191.432 505.401 191.266 505.547C191.104 505.687 190.969 505.854 190.875 506.052C190.771 506.245 190.708 506.453 190.693 506.672C190.672 506.891 190.698 507.104 190.766 507.312C190.833 507.521 190.943 507.708 191.089 507.875C191.229 508.036 191.401 508.167 191.599 508.26C196.307 510.656 207.854 518.818 216.281 524.776C224.708 530.729 227.13 532.396 227.984 532.573C228.141 532.599 228.297 532.599 228.453 532.573C228.833 532.578 229.177 532.464 229.479 532.234C229.781 532 229.974 531.698 230.068 531.328ZM208.766 532.911C208.891 532.734 208.974 532.536 209.021 532.323C209.068 532.109 209.073 531.896 209.037 531.677C209 531.464 208.927 531.26 208.813 531.073C208.698 530.885 208.552 530.729 208.375 530.599C207.568 530.052 188.948 516.896 184.422 514.714C184.224 514.615 184.021 514.562 183.802 514.552C183.583 514.536 183.37 514.568 183.167 514.641C182.958 514.714 182.776 514.823 182.609 514.964C182.448 515.109 182.318 515.281 182.224 515.479C182.13 515.677 182.078 515.88 182.063 516.099C182.052 516.318 182.083 516.531 182.156 516.734C182.224 516.943 182.333 517.125 182.479 517.292C182.625 517.453 182.797 517.583 182.995 517.677C187.281 519.755 206.271 533.276 206.401 533.276C206.688 533.484 207.01 533.589 207.359 533.589C207.927 533.641 208.396 533.448 208.766 533.016V532.911ZM249.755 417.979C268.141 416.911 281.927 410.333 290.771 398.427C308.688 374.297 300.026 337.187 299.667 335.63C299.568 335.229 299.354 334.906 299.016 334.672C298.677 334.432 298.307 334.339 297.896 334.38L192.406 345.12C192.005 345.156 191.662 345.323 191.38 345.615C191.099 345.901 190.948 346.25 190.927 346.651C190.927 348.161 188.714 383.839 209.13 404.38C218.234 413.557 230.406 418.214 245.385 418.214C246.792 418.214 248.271 418.161 249.755 418.083V417.979ZM296.75 337.812C298.13 344.781 303.229 376.115 288.115 396.448C279.896 407.552 266.922 413.661 249.573 414.651C233.578 415.589 220.729 411.297 211.443 401.937C194.307 384.672 193.995 354.896 194.177 348.135L296.75 337.812Z" fill="#231F20"/>
<path d="M161.719 451.266C139.687 451.266 125.646 450.745 125.307 450.745C125.068 450.776 124.838 450.755 124.609 450.682C124.38 450.615 124.177 450.5 124 450.339C123.818 450.182 123.682 449.995 123.583 449.776C123.484 449.557 123.432 449.333 123.432 449.094C123.432 448.854 123.484 448.625 123.583 448.406C123.682 448.193 123.818 448.005 124 447.844C124.177 447.688 124.38 447.573 124.609 447.5C124.838 447.432 125.068 447.411 125.307 447.443C126.609 447.443 256.125 452.276 350.614 432.229C350.828 432.182 351.042 432.182 351.255 432.219C351.474 432.26 351.672 432.339 351.854 432.458C352.036 432.578 352.193 432.729 352.312 432.911C352.437 433.094 352.521 433.292 352.562 433.505C352.614 433.714 352.62 433.932 352.583 434.146C352.547 434.359 352.469 434.557 352.354 434.745C352.234 434.927 352.088 435.078 351.906 435.203C351.729 435.328 351.531 435.411 351.318 435.453C287.364 449.026 207.411 451.266 161.719 451.266ZM352.328 447.078C352.542 447.026 352.739 446.938 352.922 446.813C353.099 446.688 353.25 446.531 353.37 446.349C353.484 446.161 353.568 445.964 353.609 445.745C353.651 445.531 353.646 445.318 353.604 445.099C353.557 444.891 353.469 444.693 353.338 444.516C353.213 444.339 353.057 444.188 352.875 444.073C352.687 443.953 352.489 443.88 352.271 443.839C352.057 443.802 351.844 443.807 351.63 443.854C257.14 463.875 127.62 459.089 126.323 459.036C126.104 459.036 125.896 459.078 125.693 459.156C125.489 459.234 125.312 459.349 125.151 459.495C124.989 459.641 124.864 459.813 124.771 460.01C124.677 460.203 124.62 460.411 124.604 460.625C124.599 460.844 124.63 461.057 124.708 461.26C124.786 461.464 124.896 461.646 125.047 461.807C125.193 461.969 125.37 462.094 125.568 462.188C125.765 462.281 125.974 462.333 126.193 462.344C126.609 462.344 140.651 462.885 162.604 462.885C208.375 462.885 288.323 460.651 352.354 447.078H352.328ZM247.547 313.24C248.729 313.141 249.906 313.01 251.083 312.844C252.26 312.682 253.432 312.49 254.599 312.266C255.765 312.042 256.927 311.792 258.078 311.505C259.234 311.224 260.38 310.906 261.515 310.563C262.651 310.219 263.781 309.844 264.896 309.443C266.015 309.036 267.12 308.604 268.213 308.146C269.312 307.682 270.39 307.193 271.458 306.677C272.531 306.156 273.583 305.609 274.625 305.036C275.667 304.464 276.687 303.865 277.698 303.24C278.708 302.609 279.698 301.958 280.677 301.281C281.651 300.599 282.604 299.896 283.542 299.167C284.479 298.438 285.401 297.688 286.297 296.911C287.198 296.13 288.073 295.333 288.932 294.51C289.786 293.688 290.62 292.839 291.432 291.974C292.245 291.109 293.036 290.219 293.802 289.313C294.568 288.401 295.307 287.474 296.026 286.531C296.739 285.583 297.432 284.615 298.099 283.635C298.765 282.651 299.406 281.651 300.021 280.635C300.635 279.62 301.219 278.583 301.781 277.536C302.338 276.49 302.875 275.427 303.375 274.354C303.88 273.276 304.359 272.193 304.807 271.089C305.25 269.99 305.672 268.88 306.057 267.755C306.448 266.635 306.807 265.505 307.14 264.359C307.469 263.219 307.765 262.073 308.036 260.917C308.307 259.76 308.547 258.594 308.755 257.427C308.963 256.255 309.14 255.083 309.286 253.906C309.437 252.724 309.552 251.547 309.635 250.359C309.724 249.177 309.776 247.99 309.797 246.802C309.823 245.615 309.812 244.427 309.776 243.24C309.734 242.052 309.667 240.87 309.562 239.682C309.463 238.5 309.328 237.323 309.167 236.146C309.005 234.969 308.807 233.797 308.583 232.63V232.24C308.542 232.026 308.458 231.828 308.338 231.646C308.219 231.469 308.062 231.318 307.885 231.198C307.703 231.073 307.505 230.995 307.292 230.953C307.073 230.911 306.859 230.911 306.646 230.953C306.432 230.995 306.234 231.078 306.057 231.198C305.875 231.323 305.724 231.474 305.604 231.656C305.479 231.839 305.401 232.036 305.359 232.25C305.318 232.464 305.318 232.677 305.359 232.891V233.411C305.568 234.521 305.75 235.63 305.901 236.75C306.052 237.87 306.177 238.99 306.271 240.115C306.364 241.24 306.427 242.365 306.458 243.49C306.495 244.62 306.5 245.745 306.474 246.875C306.448 248 306.396 249.13 306.312 250.255C306.229 251.38 306.114 252.5 305.969 253.62C305.828 254.74 305.656 255.854 305.458 256.964C305.255 258.073 305.026 259.177 304.765 260.276C304.51 261.375 304.219 262.464 303.906 263.547C303.588 264.63 303.245 265.703 302.875 266.771C302.5 267.833 302.104 268.891 301.677 269.932C301.25 270.979 300.797 272.01 300.312 273.031C299.833 274.052 299.323 275.057 298.792 276.052C298.255 277.047 297.698 278.026 297.114 278.99C296.526 279.953 295.917 280.901 295.281 281.833C294.651 282.766 293.989 283.682 293.307 284.583C292.625 285.479 291.922 286.359 291.193 287.219C290.463 288.083 289.713 288.922 288.937 289.745C288.167 290.568 287.375 291.37 286.557 292.151C285.745 292.932 284.911 293.688 284.057 294.427C283.203 295.161 282.328 295.88 281.437 296.568C280.547 297.26 279.635 297.927 278.708 298.573C277.781 299.214 276.838 299.833 275.88 300.427C274.922 301.026 273.948 301.594 272.958 302.135C271.969 302.682 270.969 303.198 269.953 303.688C268.937 304.177 267.906 304.646 266.87 305.083C265.828 305.521 264.776 305.927 263.719 306.313C262.656 306.693 261.583 307.047 260.505 307.375C259.422 307.698 258.333 308 257.239 308.266C256.146 308.536 255.042 308.776 253.932 308.99C252.828 309.203 251.713 309.385 250.594 309.536C249.479 309.693 248.354 309.818 247.234 309.911C244.828 310.12 242.422 310.203 240.01 310.167C237.599 310.135 235.193 309.974 232.797 309.698C230.401 309.422 228.026 309.026 225.672 308.51C223.318 307.99 220.989 307.359 218.698 306.609C216.406 305.854 214.156 304.995 211.953 304.016C209.75 303.036 207.599 301.953 205.5 300.76C203.406 299.568 201.375 298.271 199.411 296.875C197.448 295.474 195.557 293.984 193.739 292.396C191.927 290.807 190.193 289.13 188.547 287.37C186.901 285.604 185.349 283.766 183.885 281.849C182.427 279.927 181.068 277.943 179.807 275.885C178.547 273.828 177.39 271.714 176.344 269.542C175.297 267.37 174.359 265.151 173.536 262.885C172.708 260.62 172 258.318 171.411 255.979C170.818 253.641 170.344 251.281 169.989 248.896C169.635 246.51 169.401 244.115 169.286 241.703C169.13 238.661 169.052 236.87 169.052 236.87C169.042 236.651 168.989 236.443 168.896 236.245C168.807 236.052 168.677 235.88 168.515 235.734C168.354 235.589 168.172 235.474 167.969 235.401C167.765 235.328 167.552 235.297 167.333 235.307C167.114 235.312 166.906 235.365 166.708 235.453C166.51 235.547 166.338 235.672 166.193 235.833C166.042 235.995 165.932 236.182 165.864 236.385C165.792 236.594 165.76 236.807 165.776 237.026C165.776 237.026 165.776 238.792 165.984 241.859C166.094 244.245 166.323 246.615 166.656 248.974C166.995 251.333 167.448 253.672 168.005 255.99C168.568 258.307 169.234 260.594 170.015 262.849C170.792 265.104 171.677 267.318 172.661 269.484C173.651 271.656 174.739 273.776 175.932 275.839C177.12 277.906 178.406 279.911 179.786 281.854C181.172 283.802 182.64 285.672 184.198 287.479C185.76 289.281 187.401 291.01 189.125 292.656C190.849 294.302 192.646 295.865 194.515 297.344C196.39 298.823 198.328 300.203 200.333 301.5C202.338 302.792 204.396 303.984 206.515 305.083C208.635 306.177 210.797 307.172 213.01 308.063C215.224 308.953 217.474 309.734 219.76 310.411C222.047 311.089 224.359 311.656 226.703 312.109C229.042 312.568 231.401 312.911 233.776 313.146C236.146 313.375 238.526 313.495 240.911 313.5C243.073 313.5 245.229 313.422 247.547 313.24Z" fill="#FF7B6C"/>
<path d="M297.088 121.807C294.791 122.286 292.536 122.13 290.327 121.339C290.327 121.339 281.51 93.8802 277.114 94.9167C217.296 109.063 199.093 86.0521 199.093 86.0521C190.327 101.651 184.812 124.875 184.812 124.875L179.504 120.479C179.504 120.479 167.332 67.3542 204.942 47.9583C204.26 45.0833 203.916 42.1719 203.9 39.2188C203.869 37.9479 203.9 36.6771 203.994 35.4063C204.088 34.1354 204.244 32.875 204.463 31.625C204.681 30.3698 204.963 29.1302 205.306 27.9063C205.65 26.6771 206.056 25.474 206.52 24.2865C206.984 23.1042 207.504 21.9427 208.088 20.8125C208.666 19.6771 209.301 18.5781 209.989 17.5052C210.681 16.4375 211.421 15.4063 212.213 14.4115C213.01 13.4115 213.848 12.4583 214.739 11.5469C215.624 10.6354 216.556 9.77083 217.53 8.95313C218.504 8.13542 219.52 7.36458 220.572 6.65104C221.624 5.93229 222.707 5.27083 223.822 4.66146C224.942 4.05208 226.088 3.5 227.26 3.00521C228.431 2.51042 229.629 2.07292 230.843 1.69792C232.062 1.32292 233.291 1.01042 234.541 0.755208C235.786 0.505208 237.046 0.3125 238.312 0.1875C239.577 0.0625 240.848 0 242.119 0C243.395 0 244.666 0.0625 245.931 0.1875C247.197 0.3125 248.452 0.505208 249.702 0.755208C250.947 1.01042 252.181 1.32292 253.4 1.69792C254.614 2.07292 255.806 2.51042 256.984 3.00521C258.155 3.5 259.301 4.05208 260.416 4.66146C261.536 5.27083 262.619 5.93229 263.671 6.65104C264.723 7.36458 265.734 8.13542 266.713 8.95313C267.687 9.77083 268.619 10.6354 269.504 11.5469C270.395 12.4583 271.234 13.4115 272.025 14.4115C272.822 15.4063 273.562 16.4375 274.249 17.5052C274.942 18.5781 275.577 19.6771 276.155 20.8125C276.734 21.9427 277.26 23.1042 277.723 24.2865C278.187 25.474 278.588 26.6771 278.931 27.9063C279.275 29.1302 279.556 30.3698 279.78 31.625C279.999 32.875 280.155 34.1354 280.249 35.4063C280.343 36.6771 280.374 37.9479 280.338 39.2188C280.338 43.2135 279.728 47.1146 278.52 50.9219C307.65 72.7656 297.088 121.807 297.088 121.807Z" fill="#2D3456"/>
</svg>
