<svg width="467" height="656" viewBox="0 0 467 656" fill="none" xmlns="http://www.w3.org/2000/svg">
<path d="M249.232 0.49588C248.226 0.49588 247.205 0.49588 246.226 0.49588C241.268 0.626089 236.351 1.12609 231.471 2.00109C223.518 3.50109 215.789 5.76671 208.289 8.80317C200.784 11.8344 193.653 15.5792 186.898 20.0323C180.268 24.4125 174.159 29.423 168.565 35.0584C162.976 40.7146 158.06 46.9021 153.825 53.6313C149.065 61.2771 145.247 69.3709 142.383 77.9126C139.315 87.2459 137.018 96.7615 135.492 106.465C134.758 110.97 133.987 115.673 133.372 121.006C133.013 123.762 132.674 126.522 132.362 129.288L132.216 130.579C132.034 132.084 131.851 133.584 131.747 135.194V134.86C131.289 138.819 130.596 142.735 129.674 146.616C128.862 149.965 127.815 153.241 126.528 156.439C125.482 158.939 124.268 161.35 122.888 163.683C121.669 165.725 120.153 167.996 118.377 170.418L118.482 170.131C115.065 174.459 111.357 178.522 107.357 182.314L107.143 182.527C104.961 184.631 102.825 186.72 100.752 188.897C98.6742 191.074 96.4346 193.584 94.5388 195.871C86.5284 205.293 79.9555 215.631 74.8253 226.887C71.3305 234.595 68.7836 242.61 67.1846 250.928C65.5857 259.329 65.1378 267.798 65.8461 276.319C66.2003 280.657 66.8722 284.944 67.8617 289.183C68.8461 293.381 70.1951 297.449 71.9242 301.402C74.5284 307.485 78.0336 312.996 82.4503 317.928C83.8722 319.517 85.3722 321.017 86.9607 322.439C87.1846 322.762 87.4972 322.923 87.893 322.918C89.4242 322.881 90.9294 322.657 92.4034 322.241C93.1169 322.043 93.8044 321.782 94.4659 321.459C95.1013 321.131 95.6951 320.741 96.2576 320.288C96.4659 320.095 96.5857 319.855 96.6274 319.574C96.669 319.293 96.6117 319.027 96.4659 318.788C96.1065 317.168 95.919 315.527 95.9086 313.871C95.9763 311.017 96.4034 308.22 97.1899 305.47C98.1794 302.105 99.5336 298.892 101.247 295.824L101.159 296.668C100.898 298.793 100.794 300.928 100.841 303.069C100.955 307.517 101.825 311.808 103.461 315.944C104.211 317.897 105.107 319.782 106.153 321.595C107.19 323.298 108.336 324.918 109.596 326.465C109.836 326.772 110.153 326.918 110.544 326.902C110.966 326.907 111.325 326.762 111.627 326.465C111.898 326.173 112.034 325.834 112.034 325.433C112.034 325.038 111.898 324.694 111.627 324.407C110.705 323.204 109.95 321.902 109.357 320.512C108.575 318.574 108.023 316.569 107.7 314.501C107.455 312.715 107.341 310.918 107.357 309.11C107.357 307.095 107.549 305.246 107.773 303.475C108.023 301.668 108.414 299.887 108.935 298.142L109.023 297.657C109.023 298.303 109.023 298.949 109.023 299.584C109.221 302.86 109.83 306.058 110.841 309.183C111.846 312.241 113.185 315.137 114.857 317.887C118.362 323.496 122.763 328.277 128.065 332.235C133.586 336.36 139.57 339.668 146.002 342.152C149.164 343.402 152.393 344.439 155.69 345.262C157.372 345.699 159.028 346.058 160.591 346.36L163.133 346.782H164.398L165.091 346.902L166.065 347.079H166.638C171.695 349.277 176.919 350.959 182.31 352.116C188.054 353.314 193.857 354.121 199.711 354.548C204.086 354.866 208.732 355.027 213.383 355.027C220.075 355.027 227.247 354.715 235.263 354.038C241.023 353.543 247.096 352.913 254.377 352.053C259.883 351.392 266.273 350.553 272.648 349.652C284.617 347.871 296.45 345.454 308.159 342.392C319.82 339.35 331.206 335.48 342.31 330.793C353.429 326.11 364.06 320.496 374.195 313.949C375.294 314.022 376.362 314.069 377.367 314.069C379.206 314.064 381.039 313.933 382.857 313.678C389.919 312.631 396.435 310.157 402.409 306.256C408.581 302.319 413.914 297.465 418.409 291.694C422.935 285.985 426.367 279.678 428.695 272.777C429.82 269.449 430.601 266.043 431.028 262.558C431.2 261.168 431.273 259.777 431.237 258.381L431.466 259.027C431.612 259.491 431.763 259.959 431.961 260.423L431.81 260.168C432.445 262.485 432.789 264.845 432.831 267.246C432.831 269.131 432.601 270.991 432.138 272.819C431.674 274.308 431.039 275.73 430.247 277.074C430.096 277.381 430.096 277.694 430.247 278.006C430.263 278.069 430.294 278.131 430.336 278.183C430.461 278.433 430.643 278.626 430.893 278.756C432.179 279.605 433.534 280.319 434.966 280.892C435.633 281.142 436.315 281.334 437.013 281.475C437.638 281.579 438.263 281.637 438.893 281.642H439.268C439.492 281.626 439.69 281.558 439.872 281.428C440.06 281.402 440.232 281.345 440.398 281.251L441.044 280.876L441.211 280.782C442.398 280.079 443.617 279.371 444.742 278.558C445.815 277.803 446.841 276.996 447.825 276.126C449.586 274.579 451.221 272.913 452.732 271.121C455.659 267.652 458.049 263.845 459.903 259.704C461.711 255.6 463.002 251.345 463.784 246.928C464.596 242.413 464.945 237.86 464.836 233.272C464.648 227.501 463.841 221.819 462.419 216.225C460.997 210.631 458.987 205.251 456.398 200.095C455.138 197.595 453.747 195.178 452.216 192.834C451.377 191.543 450.581 190.418 449.794 189.366C449.013 188.314 447.945 187.006 446.982 185.819C444.591 182.902 442.096 180.017 439.674 177.22L439.284 176.772L438.909 176.334L433.252 169.845L433.148 169.678C430.742 166.824 427.643 163.038 424.831 158.918C422.143 155.017 419.789 150.928 417.763 146.642C414.95 140.095 412.732 133.355 411.101 126.418C409.476 119.897 408.091 113.137 406.872 107.168L406.002 102.918C404.497 95.4021 402.695 87.3969 400.304 79.6261C399.008 75.4334 397.685 71.7198 396.273 68.3084C394.95 65.1573 393.461 61.9542 391.836 58.8292C388.721 52.7511 385.075 47.0011 380.903 41.5948C376.768 36.1834 372.023 31.3709 366.674 27.1521C361.383 22.975 355.549 19.7667 349.185 17.5375C341.971 15.2771 334.591 14.173 327.034 14.2303H324.971C320.851 14.2303 316.518 14.3969 310.94 14.7875C295.435 8.77713 278.648 3.03755 260.919 1.17296C257.023 0.740671 253.112 0.521922 249.19 0.511505" fill="#231F20"/>
<path d="M196.31 279.569C268.497 363.881 303.872 280.621 303.872 280.621L302.846 254.157C335.83 252.579 353.757 225.173 361.263 191.241C363.575 180.605 364.945 169.845 365.382 158.965C365.382 158.423 365.382 157.881 365.382 157.314C367.382 110.022 368.388 33.0428 284.367 34.0948C199.32 35.1157 198.294 118.048 199.32 149.798C200.341 181.548 196.31 279.569 196.31 279.569Z" fill="#EBB38B"/>
<path d="M169.346 138.064C169.185 136.621 169.211 135.178 169.429 133.741C169.643 132.303 170.039 130.918 170.617 129.584C171.195 128.251 171.935 127.017 172.836 125.876C173.737 124.735 174.768 123.73 175.935 122.855C180.445 119.642 187.122 118.183 195.815 125.308C198.33 127.329 200.57 129.616 202.549 132.163C204.523 134.715 206.174 137.454 207.502 140.392C208.83 143.334 209.799 146.387 210.409 149.548C211.018 152.715 211.252 155.907 211.112 159.131L209.185 169.814C209.185 169.814 172.804 173.376 169.346 138.064Z" fill="#EBB38B"/>
<path d="M251.206 248.298C258.841 251.183 266.628 253.595 274.56 255.527C278.352 258.949 291.133 269.47 305.227 272.475V258.303H304.024C304.44 258.152 304.763 257.887 304.998 257.506C305.232 257.126 305.321 256.72 305.268 256.277C305.232 256.017 305.154 255.777 305.024 255.553C304.893 255.329 304.722 255.137 304.518 254.98C304.315 254.819 304.086 254.709 303.836 254.637C303.586 254.569 303.331 254.548 303.076 254.579C284.393 256.996 252.951 244.808 252.633 244.689C252.393 244.59 252.138 244.543 251.878 244.543C251.617 244.543 251.367 244.59 251.128 244.694C250.883 244.793 250.675 244.933 250.487 245.121C250.305 245.303 250.159 245.517 250.06 245.756C249.961 246.001 249.914 246.251 249.914 246.512C249.914 246.772 249.961 247.022 250.06 247.262C250.164 247.506 250.305 247.715 250.492 247.902C250.675 248.084 250.888 248.225 251.128 248.329L251.206 248.298ZM335.784 122.209H335.998C337.701 122.189 339.393 122.319 341.081 122.6C344.466 123.392 347.576 124.798 350.404 126.824C352.034 127.824 353.326 129.152 354.284 130.803C354.748 131.642 354.966 132.538 354.946 133.491C354.925 134.444 354.664 135.329 354.164 136.142C353.534 136.855 352.789 137.423 351.93 137.84C351.071 138.256 350.17 138.491 349.216 138.543C347.503 138.788 345.779 138.845 344.055 138.73C342.331 138.61 340.633 138.314 338.972 137.84C337.305 137.366 335.706 136.725 334.18 135.918C332.649 135.11 331.216 134.152 329.888 133.043C327.722 131.209 325.737 128.371 326.774 125.725C327.107 124.991 327.576 124.36 328.19 123.834C328.805 123.308 329.503 122.933 330.279 122.72C332.086 122.256 333.925 122.084 335.784 122.209ZM291.883 126.267C293.55 125.288 295.341 124.668 297.253 124.402C298.711 124.095 300.159 124.131 301.602 124.512C302.211 124.782 302.763 125.147 303.253 125.605C303.742 126.058 304.143 126.584 304.461 127.173C304.774 127.767 304.982 128.392 305.091 129.053C305.196 129.709 305.19 130.371 305.076 131.032C304.56 133.73 303.31 136.038 301.331 137.944C298.612 140.902 295.451 143.262 291.841 145.022C289.102 146.36 285.539 147.199 283.19 145.246C282.446 144.553 281.909 143.725 281.581 142.762C281.258 141.793 281.185 140.808 281.357 139.808C281.763 137.819 282.576 136.017 283.795 134.397C285.888 131.09 288.586 128.381 291.883 126.267ZM322.097 186.913C322.039 186.657 322.034 186.402 322.081 186.147C322.123 185.887 322.216 185.647 322.362 185.428C322.503 185.209 322.68 185.022 322.893 184.876C323.112 184.725 323.347 184.626 323.602 184.569C324.81 184.277 325.701 183.579 326.279 182.48C330.701 175.163 326.19 153.543 324.071 145.834C324.003 145.584 323.987 145.329 324.018 145.074C324.055 144.814 324.138 144.574 324.268 144.35C324.393 144.126 324.565 143.939 324.768 143.777C324.977 143.621 325.201 143.512 325.451 143.444C325.701 143.376 325.956 143.355 326.211 143.387C326.466 143.418 326.711 143.501 326.935 143.631C327.159 143.756 327.352 143.923 327.508 144.126C327.664 144.334 327.779 144.558 327.847 144.808C328.175 145.996 335.8 174.246 329.633 184.496C329.076 185.475 328.347 186.298 327.44 186.965C326.534 187.631 325.529 188.084 324.43 188.329C324.284 188.34 324.138 188.34 323.992 188.329C323.555 188.334 323.159 188.204 322.805 187.944C322.456 187.678 322.216 187.334 322.097 186.913ZM309.013 206.704C301.102 203.246 295.117 195.913 291.222 184.887C291.154 184.647 291.128 184.402 291.154 184.152C291.175 183.902 291.242 183.668 291.357 183.444C291.472 183.22 291.623 183.027 291.815 182.86C292.003 182.699 292.216 182.574 292.451 182.491C292.69 182.407 292.93 182.371 293.18 182.381C293.43 182.392 293.67 182.449 293.899 182.553C294.128 182.657 294.331 182.798 294.503 182.975C294.68 183.157 294.815 183.36 294.909 183.595C298.43 193.527 303.69 200.121 310.534 203.126C313.446 204.298 316.472 204.902 319.612 204.944C322.748 204.985 325.789 204.459 328.732 203.366C328.966 203.293 329.206 203.262 329.446 203.277C329.69 203.293 329.925 203.35 330.149 203.454C330.373 203.553 330.565 203.694 330.737 203.871C330.909 204.048 331.039 204.246 331.133 204.475C331.232 204.699 331.279 204.933 331.284 205.178C331.295 205.423 331.253 205.663 331.17 205.892C331.086 206.121 330.966 206.329 330.805 206.512C330.643 206.699 330.451 206.845 330.237 206.959C326.847 208.267 323.341 208.918 319.706 208.913C315.987 208.923 312.425 208.189 309.013 206.704ZM344.524 149.892C345.133 149.819 345.737 149.866 346.331 150.032C346.925 150.204 347.461 150.475 347.946 150.86C348.425 151.241 348.821 151.699 349.117 152.235C349.42 152.777 349.607 153.35 349.68 153.959C349.748 154.574 349.701 155.173 349.534 155.767C349.367 156.36 349.091 156.897 348.706 157.381C348.326 157.86 347.867 158.256 347.331 158.553C346.789 158.855 346.216 159.043 345.602 159.11C344.992 159.183 344.388 159.137 343.795 158.97C343.206 158.803 342.664 158.527 342.18 158.147C341.701 157.762 341.305 157.303 341.008 156.767C340.706 156.23 340.518 155.652 340.446 155.043C340.373 154.433 340.425 153.829 340.591 153.235C340.758 152.642 341.034 152.105 341.414 151.621C341.8 151.142 342.258 150.746 342.795 150.449C343.336 150.147 343.909 149.959 344.524 149.892ZM305.42 154.095C306.034 154.027 306.633 154.074 307.227 154.241C307.821 154.407 308.357 154.683 308.841 155.064C309.326 155.449 309.716 155.907 310.018 156.444C310.321 156.98 310.503 157.558 310.576 158.168C310.649 158.777 310.602 159.381 310.43 159.975C310.263 160.564 309.987 161.105 309.607 161.584C309.227 162.069 308.763 162.459 308.227 162.762C307.69 163.064 307.112 163.246 306.503 163.319C305.888 163.392 305.289 163.345 304.696 163.178C304.102 163.006 303.565 162.735 303.081 162.35C302.597 161.97 302.206 161.512 301.904 160.975C301.602 160.439 301.42 159.86 301.347 159.251C301.274 158.642 301.326 158.038 301.492 157.444C301.664 156.855 301.935 156.319 302.321 155.834C302.701 155.35 303.159 154.959 303.696 154.657C304.237 154.355 304.81 154.168 305.42 154.095ZM195.831 152.491C195.831 152.371 193.633 141.371 187.154 137.282C185.946 136.527 184.638 136.058 183.227 135.881C181.815 135.699 180.435 135.819 179.076 136.246C178.826 136.314 178.571 136.324 178.315 136.293C178.055 136.256 177.815 136.173 177.591 136.043C177.367 135.913 177.175 135.741 177.018 135.532C176.862 135.329 176.753 135.1 176.685 134.85C176.617 134.595 176.602 134.345 176.638 134.084C176.675 133.829 176.758 133.59 176.888 133.366C177.018 133.142 177.19 132.949 177.399 132.793C177.602 132.637 177.831 132.522 178.086 132.459C179.966 131.897 181.878 131.746 183.826 132.012C185.774 132.272 187.576 132.923 189.242 133.959C197.138 138.933 199.576 151.199 199.664 151.72C199.716 151.975 199.716 152.225 199.67 152.475C199.623 152.73 199.524 152.959 199.383 153.173C199.242 153.387 199.065 153.569 198.857 153.709C198.643 153.855 198.414 153.954 198.159 154.006C198.034 154.022 197.909 154.022 197.784 154.006C197.326 154.012 196.92 153.871 196.56 153.584C196.201 153.303 195.977 152.933 195.873 152.491H195.831Z" fill="#231F20"/>
<path d="M334.898 291.845C334.622 291.84 334.372 291.918 334.148 292.069C333.924 292.225 333.763 292.428 333.664 292.683C333.357 292.855 333.148 293.105 333.034 293.439C330.508 299.194 328.518 305.173 326.773 310.267L325.513 314.11C324.971 315.782 324.43 317.449 323.872 319.116L322.669 322.678C322.143 324.178 321.617 325.788 321.164 327.334C317.331 338.923 313.919 350.298 310.997 361.147C305.289 382.262 300.878 403.642 297.763 425.293C294.68 447.1 293.133 468.965 293.133 490.881C293.133 502.001 293.586 513.09 294.414 523.866C294.971 533.225 296.128 542.512 297.888 551.725C301.096 567.506 306.857 582.298 315.164 596.1C319.117 602.756 323.695 608.954 328.914 614.678C334.128 620.402 339.867 625.548 346.133 630.1C352.539 634.689 359.409 638.444 366.732 641.366C374.055 644.293 381.617 646.298 389.43 647.381C393.638 647.949 397.862 648.288 402.107 648.392C403.612 648.392 405.008 648.392 406.466 648.392C409.477 648.392 412.034 648.298 414.513 648.137C423.013 647.501 429.732 645.61 435.076 642.303C438.237 640.376 441.039 638.017 443.482 635.225C444.878 633.605 446.159 631.897 447.331 630.1C448.549 628.225 449.753 626.209 450.971 623.928C453.388 619.439 455.461 614.798 457.18 609.996C458.971 604.923 460.435 599.751 461.57 594.491C463.997 583.668 465.503 572.72 466.086 561.642C466.633 550.584 466.456 539.543 465.56 528.512C464.732 517.84 463.273 506.631 461.242 495.209C459.419 485.308 457.227 475.194 455.284 466.314C451.648 449.532 447.497 431.558 441.914 413.814C438.909 404.288 435.898 395.902 432.68 388.267C429.263 379.939 425.299 371.876 420.799 364.074C416.44 356.512 411.456 349.387 405.852 342.694C403.174 339.538 400.195 336.381 396.831 333.048C393.096 329.381 389.565 326.121 386.06 323.053C378.414 316.282 370.294 310.142 361.695 304.631C353.466 299.267 344.68 295.069 335.331 292.038C335.201 292.022 335.07 292.022 334.94 292.038" fill="#FFC23F"/>
<path d="M304.398 279.626H304.711C304.924 279.637 305.133 279.673 305.331 279.746C312.143 281.897 318.07 284.043 323.466 286.345C329.982 289.11 335.846 290.475 340.81 293.782C340.93 293.855 340.81 295.553 340.81 295.689C340.914 296.35 341.018 297.012 341.138 297.673C341.976 309.423 344.065 320.944 347.409 332.235C350.101 341.834 353.289 351.319 356.325 360.121L356.435 360.334C357.2 362.392 358.07 364.449 359.081 366.673C362.487 373.532 366.237 380.199 370.331 386.673C375.518 394.72 380.028 403.131 383.867 411.902C385.445 415.907 386.648 420.017 387.476 424.241C388.336 428.652 388.7 433.105 388.555 437.6C388.403 442.303 387.841 446.954 386.872 451.558C385.893 456.142 384.549 460.616 382.825 464.975C380.497 470.876 377.555 476.449 374.002 481.704C370.456 486.954 366.377 491.767 361.773 496.126C361.773 503.819 361.534 511.59 361.336 519.1C361.065 528.975 360.794 539.163 361.112 549.157C361.112 550.131 361.112 551.126 361.112 552.163C361.044 552.272 360.966 552.376 360.883 552.475C360.633 552.741 360.32 552.881 359.95 552.897L358.596 553.199C358.148 553.324 357.706 553.48 357.273 553.663C356.07 554.23 354.94 554.907 353.877 555.704C352.883 556.491 351.935 557.329 350.976 558.173C350.372 558.699 349.784 559.225 349.169 559.673C348.555 560.126 347.664 560.892 346.914 561.475L346.252 561.986L342.971 564.496C338.971 567.501 334.763 570.506 330.101 573.512C321.278 579.22 312.164 584.397 302.742 589.048C293.945 593.454 284.487 597.584 273.825 601.72C261.862 606.433 249.659 610.387 237.2 613.574C230.539 615.241 224.013 616.579 217.831 617.512C211.617 618.48 205.367 619.017 199.081 619.116H197.903C192.518 619.142 187.18 618.642 181.888 617.616C176.716 616.611 171.836 614.824 167.242 612.251C165.06 611.001 163.023 609.548 161.133 607.892C159.247 606.209 157.549 604.345 156.049 602.303C154.476 600.152 153.159 597.85 152.096 595.407C150.607 591.944 149.476 588.366 148.711 584.678C147.648 579.834 146.966 574.944 146.669 569.996C146.325 564.85 146.268 559.704 146.487 554.548C146.799 545.038 147.857 535.439 148.877 526.137L149.086 524.303C150.278 513.47 151.706 502.407 153.45 490.465C155.195 478.517 157.148 466.121 158.742 456.142C159.419 451.98 160.065 447.803 160.726 443.657C161.388 439.506 162.065 435.298 162.726 431.137C163.93 423.532 165.252 415.871 166.638 408.043L167.013 405.834C169.601 390.881 172.294 375.407 174.383 360.095C177.976 333.241 174.502 307.829 173.107 288.584C173.107 288.074 177.888 292.444 178.43 292.235C178.549 292.038 178.43 287.079 178.565 286.959C185.799 282.798 192.612 282.829 199.815 280.949C200.008 280.876 200.2 280.824 200.403 280.782C200.555 280.762 200.711 280.762 200.867 280.782C200.976 280.767 201.086 280.767 201.2 280.782C201.544 280.887 201.81 281.095 201.997 281.402L202.268 281.777L202.555 282.152C204.799 284.928 207.341 287.402 210.18 289.574C213.549 292.116 217.086 294.397 220.794 296.413C223.68 298.053 226.643 299.527 229.7 300.829C236.331 303.569 243.206 305.423 250.315 306.387C253.633 306.824 256.961 307.038 260.305 307.038C263.159 307.038 265.997 306.86 268.831 306.496H269.055C273.56 305.85 277.914 304.668 282.122 302.949H281.976C285.034 301.616 287.893 299.949 290.56 297.944C292.909 296.121 294.992 294.038 296.82 291.694C298.69 289.22 300.232 286.553 301.45 283.699L301.539 283.532C301.976 282.48 302.367 281.428 302.7 280.376C302.784 280.095 302.95 279.86 303.185 279.683C303.424 279.501 303.695 279.407 303.992 279.402C304.107 279.381 304.221 279.381 304.336 279.402L304.398 279.626ZM343.966 560.47L344.039 560.366L343.091 561.116L343.846 560.543L343.966 560.47Z" fill="#FF7B6C"/>
<path d="M14.6221 551.381L14.4398 551.303L14.7106 551.861C15.0804 552.538 15.4085 553.236 15.7054 553.949C15.8252 554.246 15.9242 554.553 16.0075 554.866C16.0596 555.048 16.1012 555.23 16.1273 555.423C16.1637 555.605 16.1898 555.788 16.2002 555.975C16.2262 556.277 16.2262 556.579 16.2002 556.881C16.1794 557.116 16.1325 557.345 16.0492 557.569C15.9867 557.756 15.8981 557.923 15.7783 558.079L15.6169 558.262L15.3877 558.413C15.0908 558.595 14.7627 558.673 14.4137 558.652C13.9762 558.626 13.5544 558.558 13.1325 558.444L11.6273 558.022H11.7523L11.1794 557.902C10.9189 557.85 10.6585 557.814 10.3981 557.793C9.81478 557.736 9.23145 557.704 8.65332 557.704C8.18457 557.725 7.72103 557.788 7.2679 557.902H7.37207L6.98145 558.022C6.82519 558.069 6.67936 558.142 6.54395 558.23C6.37207 558.334 6.21061 558.454 6.06478 558.59L6.1377 558.517L5.87207 558.834C5.77832 558.949 5.70019 559.069 5.62728 559.194V559.1C5.60124 559.173 5.56478 559.236 5.52311 559.298C5.52311 559.465 5.40332 559.616 5.35645 559.777V559.991C5.34082 560.152 5.34082 560.319 5.35645 560.486V560.381C5.35645 560.543 5.35645 560.709 5.35645 560.876C5.38769 561.105 5.42936 561.329 5.49186 561.553C5.73665 562.288 6.04915 563.053 6.33561 563.683C6.46582 564.006 6.57519 564.329 6.66895 564.663C6.8304 565.282 6.87728 565.918 6.80436 566.553C6.78353 566.798 6.72103 567.027 6.62207 567.246C6.53353 567.413 6.41374 567.548 6.2627 567.652C6.11165 567.751 5.94499 567.808 5.7627 567.819C5.59603 567.834 5.42415 567.834 5.25228 567.819C4.99186 567.751 4.73665 567.668 4.48665 567.564L3.40332 567.126L2.09603 566.647C1.4502 566.423 0.814779 566.178 0.200195 565.939C0.757487 566.72 1.38769 567.444 2.00228 568.225L2.12728 568.376L2.66374 568.944L2.78874 569.048C2.8304 569.058 2.87728 569.058 2.92415 569.048C2.97624 569.147 3.04915 569.23 3.13249 569.303L35.4085 597.855L55.9502 616.053L76.4033 634.173C76.445 634.324 76.5127 634.465 76.6012 634.595C77.8252 636.486 79.4867 637.855 81.5752 638.699C81.6637 638.756 81.7575 638.798 81.8617 638.819C82.6585 639.142 83.4814 639.376 84.3304 639.522C86.9294 639.965 89.4971 639.814 92.0283 639.074C94.4242 638.454 96.4814 637.262 98.2106 635.496C98.9867 634.704 99.5492 633.777 99.8929 632.72C100.242 631.663 100.336 630.584 100.179 629.486C99.8617 627.866 99.1794 626.413 98.1325 625.126C98.0648 624.881 97.9346 624.673 97.7419 624.496L96.9606 623.808C96.4658 623.308 95.9242 622.814 95.2783 622.303L95.1273 622.199L57.2731 588.538L17.5387 553.361L16.7887 552.762C16.2627 552.402 15.7523 552.043 15.2106 551.709L14.6533 551.381" fill="#231F20"/>
<path d="M373.32 538.621C370.794 538.621 368.226 538.621 365.684 538.819C354.101 539.496 342.669 541.163 331.377 543.819C316.658 547.345 302.164 551.61 287.882 556.621C272.226 561.928 256.575 567.428 243.309 572.116L229.429 577.058C229.335 577.074 229.252 577.105 229.169 577.147C218.554 580.954 207.945 584.782 197.346 588.631C189.679 591.423 182.013 594.241 174.351 597.074L171.013 598.324L162.908 601.329L156.049 603.97L151.809 605.626C151.481 605.788 151.268 606.043 151.164 606.392C151.049 606.746 151.08 607.084 151.252 607.413C151.289 607.496 151.341 607.574 151.403 607.636L151.492 607.834C153.268 610.84 154.877 613.845 156.263 616.85C158.955 622.371 160.903 628.147 162.096 634.173C162.716 637.657 162.903 641.163 162.653 644.694C162.653 645.189 162.549 645.668 162.471 646.194C162.414 646.558 162.476 646.902 162.669 647.22C162.867 647.506 163.138 647.694 163.481 647.772C163.57 647.788 163.658 647.788 163.752 647.772C163.893 647.782 164.028 647.756 164.158 647.699C164.309 647.814 164.481 647.892 164.669 647.923C176.039 649.428 187.679 650.433 200.268 651.199C223.757 652.704 247.518 652.824 269.7 652.824H315.481C320.231 652.824 325.002 652.897 329.752 652.97H330.46C334.388 652.97 338.429 653.079 342.419 653.241C347.83 653.47 353.304 653.814 358.611 654.157L365.007 654.579C372.283 655.032 380.044 655.439 387.804 655.439H389.07C396.872 655.496 404.627 654.892 412.335 653.631C415.898 653.027 419.408 652.178 422.861 651.095C426.028 650.116 429.07 648.845 431.992 647.277C434.533 645.897 436.877 644.241 439.028 642.303C441.018 640.511 442.763 638.506 444.263 636.293C447.148 631.902 448.992 627.105 449.794 621.913C450.627 616.517 450.627 611.126 449.794 605.73C448.95 600.095 447.486 594.626 445.403 589.319C443.367 584.064 440.835 579.053 437.809 574.293C434.559 569.006 430.627 564.298 426.002 560.152C422.966 557.548 419.757 555.168 416.377 553.017L412.752 550.704C410.695 549.397 408.559 548.043 406.513 546.663C404.466 545.277 402.695 543.939 401.039 542.605C401.028 542.428 400.986 542.261 400.903 542.105C400.757 541.777 400.513 541.558 400.169 541.449C394.518 540.209 388.804 539.381 383.039 538.97C379.773 538.741 376.497 538.636 373.278 538.636" fill="#FFC23F"/>
<path d="M198.867 181.579C200.154 181.647 201.242 182.147 202.133 183.084C202.69 183.621 203.19 184.204 203.633 184.84C204.227 185.678 204.753 186.553 205.216 187.47C206.357 189.725 207.362 192.038 208.222 194.413L208.357 194.788C211.367 202.782 214.045 211.064 216.597 219.084C217.352 221.428 218.102 223.772 218.857 226.116C218.086 221.053 217.591 216.079 217.352 211.319C217.211 209.178 217.18 207.043 217.263 204.902C217.305 203.256 217.518 201.631 217.909 200.032C218.117 198.808 218.748 197.866 219.789 197.194C220.133 197.017 220.498 196.933 220.883 196.939C221.102 196.907 221.315 196.907 221.534 196.939C222.18 197.126 222.742 197.459 223.216 197.944C223.789 198.512 224.289 199.137 224.722 199.824C225.414 200.86 226.045 201.933 226.602 203.053C227.56 204.902 228.555 206.975 229.607 209.35C231.503 213.527 233.295 217.944 235.097 222.871C238.81 232.923 241.758 243.006 244.123 251.558C245.414 256.157 246.664 260.782 247.909 265.397L248.029 265.86L248.977 269.334L249.909 272.803C250.164 273.751 250.435 274.699 250.696 275.647C251.071 277.012 251.446 278.366 251.805 279.73C253.196 285.058 254.034 290.465 254.331 295.959C254.597 301.199 254.498 306.428 254.034 311.647C253.597 317.074 252.873 322.543 252.18 327.829L251.716 331.35C250.888 337.824 250.076 344.871 249.821 351.996C249.81 352.355 249.68 352.663 249.425 352.923C249.17 353.178 248.857 353.308 248.498 353.319C248.117 353.314 247.795 353.173 247.534 352.897C247.279 352.652 247.159 352.35 247.175 351.996V351.694C243.888 354.725 240.102 356.892 235.821 358.183C232.987 359.084 230.086 359.668 227.128 359.944C225.628 360.095 224.123 360.168 222.612 360.168C221.112 360.168 219.607 360.095 218.102 359.959C212.06 359.506 206.347 357.897 200.956 355.121C198.451 353.845 196.18 352.235 194.154 350.282C192.128 348.334 190.43 346.126 189.06 343.668C188.211 342.053 187.571 340.36 187.138 338.59C187.138 338.907 187.018 339.204 186.956 339.506C186.878 339.798 186.716 340.032 186.477 340.215C186.237 340.397 185.966 340.485 185.664 340.485C185.555 340.501 185.446 340.501 185.331 340.485C184.982 340.381 184.716 340.173 184.534 339.855C184.352 339.538 184.31 339.199 184.399 338.845C185.18 335.36 186.279 331.902 187.409 328.569L188.086 326.402C188.836 323.97 189.393 321.985 189.847 320.168C190.341 318.084 190.727 315.98 191.003 313.855V314.204C191.893 306.73 191.81 299.267 190.748 291.814C189.253 282.428 187.206 273.168 184.597 264.027L184.086 262.09C182.821 257.314 181.498 252.189 180.399 247.064C179.617 243.444 178.893 239.553 178.31 235.282C177.242 227.98 176.581 221.548 176.279 215.6C176.065 211.918 176.045 208.235 176.206 204.553C176.321 201.157 176.748 197.803 177.498 194.485C177.836 193.038 178.3 191.621 178.883 190.251C179.352 189.084 179.961 187.996 180.716 186.991C181.461 185.918 182.404 185.069 183.545 184.433C184.17 184.126 184.831 183.97 185.529 183.97C185.94 183.97 186.341 184.027 186.732 184.147C187.768 184.517 188.643 185.121 189.347 185.97C190.18 186.928 190.873 187.975 191.44 189.11C192.081 190.355 192.649 191.637 193.138 192.954C193.117 192.595 193.117 192.235 193.138 191.871C193.274 190.079 193.597 188.324 194.102 186.6C194.482 185.267 195.107 184.064 195.982 182.991C196.742 182.1 197.711 181.642 198.883 181.626" fill="#EBB38B"/>
<path d="M202.148 185.095C202.544 185.095 202.914 184.98 203.242 184.751C203.57 184.527 203.81 184.225 203.955 183.855C204.101 183.48 204.132 183.1 204.044 182.709C203.95 182.319 203.763 181.991 203.471 181.715C202.872 181.079 202.174 180.579 201.382 180.22C200.586 179.855 199.752 179.663 198.882 179.626C198.622 179.626 198.377 179.678 198.138 179.777C197.898 179.876 197.685 180.017 197.502 180.199C197.32 180.381 197.179 180.595 197.08 180.834C196.981 181.074 196.935 181.319 196.935 181.579C196.935 181.84 196.981 182.09 197.08 182.324C197.179 182.564 197.32 182.777 197.502 182.959C197.685 183.142 197.898 183.282 198.138 183.381C198.377 183.48 198.622 183.532 198.882 183.532C199.659 183.626 200.299 183.975 200.81 184.569C201.185 184.918 201.632 185.095 202.148 185.095Z" fill="#231F20"/>
<path d="M64.1905 468.959C63.9405 486.637 65.7738 504.09 69.6957 521.324C73.5551 538.558 80.3415 554.553 90.0603 569.303C92.5394 572.959 95.1905 576.475 97.9248 579.751C100.727 583.1 103.701 586.288 106.842 589.319C112.805 595.183 119.472 600.09 126.847 604.032C129.477 605.965 132.274 607.626 135.237 609.006C138.399 610.491 141.69 611.574 145.118 612.251C147.857 612.793 150.628 613.069 153.42 613.079H155.045C158.357 612.939 161.628 612.47 164.852 611.678C168.123 610.855 171.3 609.756 174.383 608.392C180.857 605.465 186.852 601.756 192.357 597.272C198.065 592.678 203.3 587.595 208.055 582.017C212.602 576.725 216.706 571.111 220.373 565.173C222.164 562.168 223.685 559.496 225.008 556.85C226.628 553.605 228.237 550.012 230.102 545.595C237.138 528.668 242.461 511.225 246.076 493.256C249.711 475.22 252.118 457.017 253.295 438.652C255.763 402.59 254.571 367.366 252.904 328.345C252.899 327.98 252.769 327.668 252.513 327.413C252.253 327.157 251.946 327.022 251.581 327.022C251.399 327.022 251.217 327.043 251.039 327.095C250.94 327.079 250.836 327.079 250.737 327.095C248.467 327.564 246.227 327.954 244.013 328.235C239.899 328.788 235.763 329.069 231.607 329.079C228.18 329.084 224.769 328.871 221.368 328.433C216.347 327.767 211.482 326.501 206.779 324.631C206.779 324.631 206.69 324.631 206.675 324.631C203.118 323.126 199.795 321.209 196.717 318.876C195.305 317.777 193.967 316.595 192.701 315.329C192.024 312.397 191.196 309.527 190.342 306.767C189.56 304.392 188.69 302.048 187.737 299.73L187.362 298.876C186.914 297.897 186.461 296.923 185.977 295.959C184.888 293.959 183.732 291.954 182.519 289.949C181.831 288.793 181.107 287.668 180.368 286.522H180.295C180.211 286.47 180.123 286.428 180.024 286.402C179.888 286.376 179.753 286.376 179.618 286.402C179.409 286.407 179.211 286.449 179.019 286.522C168.315 290.137 158.159 294.913 148.545 300.845C139.029 306.699 130.201 313.449 122.065 321.1C115.748 326.965 109.946 333.298 104.649 340.095C99.1853 347.267 94.3103 354.819 90.029 362.751C81.2478 379.095 74.7582 396.298 70.5707 414.371C66.3571 432.324 64.2321 450.522 64.1905 468.959Z" fill="#FFC23F"/>
<path d="M321.784 34.0532C322.232 34.2146 322.654 34.4125 323.092 34.5896C326.529 36.074 329.79 37.8865 332.868 40.0167C335.727 41.9803 338.394 44.1834 340.868 46.6105C343.352 49.0323 345.628 51.6365 347.696 54.4282C351.883 60.0896 355.232 66.2042 357.758 72.7719C357.868 73.0219 357.868 73.2771 357.758 73.5271C357.623 73.8084 367.29 104.241 367.024 104.329C366.753 104.418 356.555 74.1261 356.373 74.1261C356.066 73.9959 355.852 73.7719 355.727 73.4646L355.639 73.2407L355.529 73.074C354.435 71.1053 353.17 69.2511 351.727 67.5167C349.274 64.673 346.488 62.199 343.378 60.0896C339.316 57.4438 335.107 55.048 330.764 52.8917L330.086 52.548C328.222 58.85 325.519 64.7667 321.961 70.2928C318.232 76.1001 313.836 81.3501 308.774 86.0428C303.649 90.798 298.071 94.9542 292.05 98.5115C286.045 102.084 279.748 105.032 273.159 107.366C266.68 109.673 260.04 111.345 253.232 112.371C249.477 112.907 245.701 113.256 241.909 113.407C237.889 113.605 233.878 113.449 229.878 112.939C229.159 114.793 228.295 116.569 227.279 118.272C225.972 120.564 224.467 122.72 222.764 124.735C221.081 126.777 219.139 128.522 216.93 129.98C214.909 131.366 212.67 132.121 210.222 132.246C207.769 132.308 205.571 131.584 203.633 130.069C201.946 128.595 200.784 126.782 200.149 124.631C199.441 122.314 199.092 119.944 199.107 117.522C199.076 115.006 199.238 112.501 199.592 110.012C199.935 107.407 200.43 104.871 200.868 102.72C200.852 102.631 200.852 102.543 200.868 102.449L200.779 100.949C200.42 94.1573 200.024 87.1261 202.284 80.574C202.868 78.8136 203.613 77.1209 204.508 75.4959C205.529 73.6678 206.691 71.9334 207.998 70.2928C210.102 67.6469 212.373 65.1417 214.795 62.7823C219.836 57.8813 225.3 53.5063 231.185 49.6625C237.347 45.6365 243.805 42.1625 250.56 39.2355C257.336 36.2719 264.326 33.9282 271.524 32.2042C278.529 30.5063 285.628 29.5375 292.831 29.2875C299.623 29.074 306.321 29.7303 312.941 31.2563C315.93 31.9698 318.857 32.9021 321.706 34.0532" fill="#231F20"/>
<path d="M363.424 44.074L307.856 30.548L259.987 41.1886L189.06 97.8813C189.06 97.8813 193.2 134.485 207.377 139.22C221.56 143.954 234.57 118.543 234.57 118.543C302.549 130.308 331.497 60.6001 331.497 60.6001C342.731 77.7459 372.284 95.4646 372.284 95.4646L363.424 44.074Z" fill="#231F20"/>
<path d="M214.691 219.715C215.409 222.022 216.144 224.303 216.883 226.569L221.79 273.272C221.81 273.511 221.878 273.741 221.988 273.954C222.097 274.173 222.243 274.36 222.42 274.522C222.597 274.683 222.8 274.808 223.029 274.897C223.253 274.985 223.488 275.027 223.727 275.027H223.941C224.196 275.001 224.435 274.923 224.665 274.798C224.889 274.678 225.087 274.511 225.248 274.314C225.409 274.11 225.529 273.886 225.602 273.636C225.675 273.392 225.696 273.136 225.67 272.881L220.748 225.98C220.029 221.116 219.519 216.199 219.248 211.376C219.113 208.881 219.081 206.959 219.154 205.157C219.191 203.631 219.389 202.131 219.743 200.647C220.014 199.642 220.357 199.147 220.602 199.043C220.842 198.933 220.722 198.949 221.066 199.043C221.373 199.163 221.633 199.35 221.847 199.595C222.316 200.053 222.732 200.553 223.097 201.1C223.748 202.064 224.326 203.064 224.842 204.105C225.805 205.97 226.779 207.996 227.847 210.324C229.727 214.444 231.503 218.814 233.295 223.699C236.993 233.72 239.925 243.746 242.316 252.251C243.597 256.756 244.81 261.267 246.045 265.86L248.107 273.48C248.3 274.261 248.529 274.985 248.738 275.808L248.993 276.756C249.342 277.959 249.67 279.178 250.003 280.392C251.352 285.59 252.17 290.871 252.451 296.23C252.456 303.652 251.951 311.043 250.951 318.397C250.909 318.652 250.92 318.907 250.982 319.157C251.045 319.407 251.154 319.637 251.305 319.845C251.462 320.053 251.649 320.225 251.873 320.36C252.092 320.496 252.331 320.579 252.587 320.621H252.784C253.269 320.621 253.696 320.465 254.066 320.147C254.435 319.829 254.654 319.433 254.722 318.949C255.779 311.366 256.305 303.741 256.305 296.079C255.998 290.423 255.133 284.855 253.717 279.371C253.383 278.152 253.055 276.923 252.706 275.689L252.451 274.746C252.227 273.975 252.019 273.241 251.805 272.444L249.758 264.824C248.529 260.319 247.295 255.72 246.029 251.183C243.607 242.616 240.649 232.506 236.904 222.345C235.081 217.371 233.264 212.907 231.352 208.72C230.269 206.329 229.264 204.209 228.269 202.319C227.68 201.116 227.008 199.965 226.253 198.86C225.727 198.058 225.118 197.324 224.42 196.668C223.706 195.928 222.852 195.428 221.863 195.163C220.821 194.918 219.821 195.027 218.857 195.496C218.102 195.933 217.472 196.511 216.967 197.225C216.462 197.939 216.128 198.725 215.967 199.579C215.519 201.314 215.258 203.069 215.185 204.855C215.185 206.043 215.185 207.261 215.185 208.61C213.592 203.772 211.92 198.907 210.118 194.142L209.967 193.767C209.118 191.314 208.113 188.923 206.962 186.6C206.456 185.595 205.873 184.636 205.217 183.73C204.712 182.985 204.133 182.303 203.488 181.683C203.295 181.511 203.076 181.376 202.831 181.293C202.587 181.204 202.337 181.163 202.076 181.173C201.821 181.189 201.571 181.246 201.337 181.355C201.102 181.465 200.894 181.616 200.722 181.808C200.545 182.001 200.415 182.215 200.326 182.459C200.238 182.704 200.196 182.954 200.206 183.215C200.217 183.47 200.279 183.72 200.389 183.954C200.498 184.189 200.649 184.397 200.837 184.569C201.3 185.027 201.701 185.527 202.055 186.074C202.618 186.829 203.123 187.626 203.56 188.459C204.654 190.647 205.602 192.892 206.42 195.194L206.571 195.569C209.503 203.475 212.18 211.735 214.691 219.715ZM192.821 189.829C193.076 189.793 193.331 189.803 193.581 189.871C193.831 189.933 194.06 190.038 194.269 190.194C194.477 190.345 194.649 190.532 194.784 190.751C194.92 190.975 195.008 191.215 195.05 191.465L208.04 275.225C208.081 275.48 208.071 275.735 208.008 275.985C207.946 276.235 207.837 276.465 207.685 276.673C207.529 276.881 207.342 277.053 207.118 277.189C206.899 277.324 206.659 277.407 206.404 277.449H206.102C205.623 277.449 205.201 277.288 204.837 276.975C204.472 276.663 204.253 276.272 204.175 275.793L191.123 192.126C191.076 191.86 191.081 191.6 191.144 191.334C191.206 191.069 191.316 190.829 191.477 190.616C191.639 190.397 191.837 190.22 192.071 190.084C192.305 189.949 192.555 189.86 192.821 189.829Z" fill="#231F20"/>
<path d="M263.175 336.803C263.175 342.36 266.185 346.871 269.899 346.871C273.612 346.871 276.607 342.36 276.607 336.803C276.607 331.241 273.597 326.751 269.899 326.751C266.201 326.751 263.175 331.241 263.175 336.803ZM273.253 364.48C276.966 364.48 279.977 368.991 279.977 374.548C279.977 380.11 276.966 384.616 273.253 384.616C269.539 384.616 266.545 380.11 266.545 374.548C266.545 368.991 269.55 364.48 273.253 364.48ZM275.779 403.069C279.477 403.069 282.487 407.579 282.487 413.121C282.487 418.668 279.477 423.189 275.779 423.189C272.081 423.189 269.055 418.683 269.055 413.121C269.055 407.564 272.065 403.069 275.779 403.069ZM294.336 378.095C294.654 402.631 296.034 432.897 300.847 437.704C303.315 440.168 309.618 441.069 317.18 441.069C331.649 441.069 350.763 437.777 356.706 435.798C357.409 435.553 358.034 435.173 358.581 434.668C359.128 434.163 359.55 433.564 359.847 432.881C364.357 423.746 354.071 392.204 347.591 374.277C347.289 373.449 346.873 372.678 346.336 371.98C345.795 371.277 345.164 370.673 344.435 370.168C343.711 369.663 342.925 369.282 342.081 369.022C341.232 368.762 340.368 368.637 339.482 368.642L325.769 368.991L323.196 359.402H312.295L312.956 369.303L302.519 369.574C301.972 369.59 301.43 369.657 300.894 369.777C300.362 369.897 299.841 370.069 299.341 370.288C298.841 370.512 298.368 370.777 297.92 371.095C297.472 371.407 297.055 371.762 296.675 372.157C296.3 372.553 295.961 372.98 295.664 373.439C295.368 373.902 295.123 374.387 294.92 374.897C294.722 375.402 294.571 375.928 294.472 376.465C294.373 377.006 294.331 377.548 294.336 378.095ZM298.321 378.095C298.31 377.512 298.409 376.949 298.623 376.402C298.831 375.86 299.138 375.376 299.545 374.954C299.946 374.532 300.414 374.204 300.946 373.965C301.482 373.73 302.039 373.605 302.623 373.584L339.591 372.668H339.696C340.149 372.668 340.586 372.735 341.019 372.871C341.451 373.006 341.847 373.204 342.216 373.459C342.586 373.72 342.909 374.027 343.185 374.381C343.461 374.741 343.675 375.131 343.831 375.553C354.19 404.288 358.868 425.579 356.253 431.152C355.909 431.876 355.576 431.98 355.44 432.022C343.878 435.887 308.581 439.808 303.675 434.897C301.508 432.73 298.821 416.548 298.321 378.048V378.095ZM309.211 393.918C309.211 394.829 309.3 395.73 309.477 396.626C309.654 397.517 309.914 398.387 310.263 399.225C310.612 400.069 311.039 400.871 311.545 401.626C312.05 402.387 312.623 403.084 313.269 403.73C313.909 404.376 314.612 404.949 315.368 405.459C316.128 405.965 316.925 406.392 317.769 406.741C318.612 407.09 319.477 407.355 320.373 407.532C321.269 407.709 322.17 407.803 323.081 407.803C323.993 407.803 324.899 407.715 325.789 407.538C326.685 407.36 327.555 407.1 328.394 406.751C329.237 406.402 330.039 405.975 330.795 405.47C331.555 404.965 332.258 404.387 332.904 403.746C333.545 403.1 334.123 402.402 334.628 401.642C335.138 400.887 335.565 400.09 335.914 399.246C336.263 398.402 336.529 397.538 336.706 396.642C336.883 395.751 336.972 394.85 336.972 393.939C336.972 393.027 336.883 392.126 336.706 391.23C336.529 390.34 336.269 389.47 335.92 388.626C335.571 387.788 335.144 386.985 334.633 386.23C334.128 385.47 333.555 384.772 332.909 384.126C332.263 383.485 331.565 382.907 330.805 382.402C330.05 381.897 329.248 381.47 328.404 381.121C327.56 380.772 326.696 380.506 325.8 380.329C324.904 380.152 324.003 380.064 323.091 380.064C322.185 380.064 321.284 380.152 320.394 380.329C319.503 380.506 318.633 380.772 317.795 381.116C316.956 381.465 316.159 381.892 315.404 382.392C314.644 382.897 313.946 383.47 313.3 384.11C312.659 384.751 312.081 385.444 311.576 386.199C311.071 386.954 310.638 387.746 310.289 388.584C309.935 389.423 309.67 390.288 309.493 391.178C309.31 392.064 309.216 392.965 309.211 393.871V393.918ZM313.211 393.918C313.211 393.272 313.274 392.626 313.399 391.991C313.529 391.355 313.716 390.741 313.961 390.142C314.211 389.543 314.513 388.97 314.878 388.433C315.237 387.892 315.649 387.397 316.107 386.939C316.565 386.48 317.065 386.069 317.602 385.709C318.144 385.35 318.711 385.043 319.31 384.798C319.909 384.548 320.529 384.36 321.164 384.235C321.8 384.11 322.44 384.043 323.091 384.043C323.743 384.043 324.383 384.11 325.019 384.235C325.654 384.36 326.274 384.548 326.873 384.798C327.472 385.043 328.039 385.35 328.581 385.709C329.123 386.069 329.618 386.48 330.081 386.939C330.539 387.397 330.946 387.892 331.305 388.433C331.67 388.97 331.972 389.543 332.222 390.142C332.466 390.741 332.654 391.355 332.784 391.991C332.909 392.626 332.972 393.272 332.972 393.918C332.972 394.564 332.909 395.209 332.784 395.845C332.654 396.48 332.466 397.095 332.222 397.694C331.972 398.293 331.67 398.866 331.305 399.402C330.946 399.944 330.539 400.439 330.081 400.897C329.618 401.355 329.123 401.767 328.581 402.126C328.039 402.485 327.472 402.793 326.873 403.038C326.274 403.288 325.654 403.475 325.019 403.6C324.383 403.725 323.743 403.788 323.091 403.788C322.44 403.788 321.795 403.725 321.159 403.6C320.519 403.47 319.899 403.282 319.3 403.032C318.701 402.782 318.128 402.48 317.586 402.116C317.05 401.756 316.55 401.345 316.091 400.881C315.628 400.423 315.222 399.923 314.862 399.381C314.503 398.84 314.196 398.267 313.951 397.663C313.701 397.064 313.519 396.444 313.394 395.803C313.269 395.168 313.206 394.522 313.211 393.871V393.918ZM314.232 418.892L339.607 416.204C339.878 416.157 340.149 416.168 340.414 416.23C340.685 416.298 340.925 416.413 341.149 416.579C341.368 416.746 341.545 416.949 341.68 417.189C341.815 417.428 341.899 417.689 341.93 417.959C341.956 418.235 341.93 418.506 341.847 418.767C341.769 419.032 341.633 419.267 341.456 419.475C341.274 419.683 341.06 419.85 340.81 419.97C340.565 420.09 340.3 420.157 340.024 420.168L314.654 422.86H314.446C314.19 422.855 313.946 422.803 313.711 422.709C313.477 422.61 313.269 422.475 313.086 422.298C312.904 422.121 312.763 421.923 312.659 421.689C312.55 421.459 312.493 421.22 312.477 420.965C312.466 420.715 312.498 420.465 312.581 420.225C312.659 419.985 312.779 419.772 312.946 419.574C313.107 419.381 313.3 419.225 313.524 419.105C313.748 418.985 313.982 418.907 314.232 418.876V418.892Z" fill="#FFC23F"/>
<path d="M53.4972 650.465C53.7993 650.459 54.0858 650.387 54.3566 650.251C54.6587 650.116 84.091 635.918 111.851 635.376C112.112 635.371 112.357 635.314 112.596 635.209C112.831 635.105 113.039 634.959 113.221 634.772C113.398 634.584 113.534 634.371 113.627 634.131C113.721 633.887 113.768 633.637 113.763 633.376C113.758 633.121 113.706 632.871 113.607 632.631C113.502 632.397 113.357 632.183 113.169 632.006C112.982 631.824 112.768 631.689 112.528 631.595C112.284 631.506 112.034 631.459 111.773 631.47C83.1274 632.027 53.8722 646.152 52.6431 646.751C52.2316 646.949 51.9295 647.256 51.7316 647.668C51.5337 648.079 51.4868 648.506 51.591 648.949C51.6899 649.392 51.9191 649.756 52.2785 650.038C52.6379 650.324 53.0441 650.465 53.4972 650.465ZM406.695 557.496C406.107 556.459 391.867 532.116 360.221 540.814C359.971 540.881 359.721 540.902 359.461 540.866C359.206 540.834 358.966 540.751 358.742 540.626C358.518 540.496 358.325 540.329 358.164 540.126C358.008 539.923 357.893 539.694 357.825 539.444C357.758 539.199 357.737 538.944 357.768 538.689C357.805 538.428 357.883 538.189 358.008 537.965C358.138 537.741 358.305 537.548 358.508 537.387C358.711 537.23 358.935 537.116 359.185 537.043C393.773 527.532 409.94 555.303 410.091 555.584C410.221 555.814 410.299 556.053 410.331 556.308C410.362 556.569 410.346 556.819 410.273 557.069C410.206 557.319 410.091 557.543 409.935 557.751C409.773 557.954 409.581 558.121 409.357 558.246C409.055 558.407 408.737 558.491 408.393 558.485C408.039 558.485 407.711 558.397 407.409 558.22C407.107 558.043 406.867 557.803 406.695 557.496ZM125.31 509.892C125.055 509.86 124.81 509.788 124.586 509.663C124.357 509.538 124.164 509.376 124.002 509.173C123.841 508.975 123.721 508.746 123.648 508.501C123.575 508.251 123.555 508.001 123.581 507.741C131.914 428.6 187.784 312.715 188.341 311.543C188.456 311.314 188.612 311.11 188.805 310.939C188.997 310.767 189.216 310.642 189.461 310.553C189.711 310.47 189.961 310.439 190.221 310.449C190.476 310.465 190.721 310.527 190.956 310.642C191.19 310.751 191.398 310.907 191.57 311.1C191.742 311.293 191.872 311.512 191.956 311.762C192.044 312.006 192.075 312.256 192.06 312.517C192.044 312.777 191.976 313.022 191.862 313.256C191.305 314.413 135.732 429.678 127.461 508.105C127.435 508.345 127.372 508.569 127.263 508.788C127.153 509.001 127.008 509.189 126.831 509.35C126.648 509.512 126.445 509.631 126.221 509.72C125.997 509.803 125.763 509.845 125.523 509.845L125.31 509.892Z" fill="#231F20"/>
<path d="M257.627 171.798C257.851 172.376 258.132 172.923 258.466 173.444C258.804 173.965 259.184 174.449 259.617 174.897C260.044 175.345 260.518 175.741 261.023 176.095C261.533 176.449 262.07 176.751 262.643 177.001C263.21 177.246 263.799 177.439 264.403 177.569C265.007 177.699 265.622 177.772 266.242 177.782C266.861 177.798 267.476 177.746 268.085 177.637C268.695 177.527 269.289 177.36 269.867 177.131C270.445 176.907 270.997 176.626 271.518 176.293C272.039 175.959 272.523 175.574 272.971 175.147C273.419 174.715 273.815 174.246 274.169 173.735C274.523 173.23 274.825 172.689 275.075 172.121C275.32 171.553 275.512 170.97 275.643 170.36C275.778 169.756 275.846 169.142 275.861 168.522C275.872 167.907 275.82 167.293 275.71 166.678C275.601 166.069 275.434 165.475 275.21 164.902C274.981 164.324 274.7 163.777 274.367 163.251C274.028 162.73 273.648 162.246 273.216 161.803C272.789 161.355 272.32 160.954 271.809 160.6C271.299 160.246 270.762 159.949 270.19 159.699C269.622 159.454 269.039 159.262 268.429 159.131C267.825 158.996 267.21 158.928 266.591 158.913C265.971 158.902 265.356 158.954 264.747 159.064C264.137 159.173 263.544 159.34 262.966 159.564C262.387 159.793 261.841 160.074 261.32 160.407C260.799 160.746 260.315 161.126 259.867 161.558C259.419 161.985 259.023 162.459 258.669 162.965C258.315 163.475 258.012 164.012 257.768 164.579C257.518 165.147 257.325 165.735 257.195 166.34C257.065 166.944 256.992 167.553 256.976 168.173C256.966 168.793 257.012 169.407 257.122 170.017C257.231 170.626 257.398 171.22 257.627 171.798Z" fill="#FF7B6C"/>
</svg>
