<svg width="1167" height="1093" viewBox="0 0 1167 1093" fill="none" xmlns="http://www.w3.org/2000/svg">
<path d="M702.8 89.125C678.3 103.625 671.3 128.625 668.4 138.925C667.7 141.425 659.5 172.125 673.7 204.125C677.9 213.625 682.4 223.425 692.6 228.125C698.5 230.925 703.8 230.725 724.6 228.925C734.3 228.125 744.8 227.125 756 225.925C763.9 215.825 777.5 195.625 781.5 167.225C782.2 161.925 790.4 98.725 756 81.925C733.5 70.825 706.4 86.925 702.8 89.125Z" fill="#EC615B"/>
<path d="M250.4 238.225C262.882 238.225 273 227.032 273 213.225C273 199.418 262.882 188.225 250.4 188.225C237.918 188.225 227.8 199.418 227.8 213.225C227.8 227.032 237.918 238.225 250.4 238.225Z" fill="#EC615B"/>
<path d="M762.9 638.825C772.178 638.825 779.7 631.572 779.7 622.625C779.7 613.678 772.178 606.425 762.9 606.425C753.622 606.425 746.1 613.678 746.1 622.625C746.1 631.572 753.622 638.825 762.9 638.825Z" fill="#EC615B"/>
<path d="M250.6 541.025C257.504 541.025 263.1 535.428 263.1 528.525C263.1 521.621 257.504 516.025 250.6 516.025C243.697 516.025 238.1 521.621 238.1 528.525C238.1 535.428 243.697 541.025 250.6 541.025Z" fill="#EC615B"/>
<path d="M227.3 229.925C238.29 229.925 247.2 220.568 247.2 209.025C247.2 197.482 238.29 188.125 227.3 188.125C216.31 188.125 207.4 197.482 207.4 209.025C207.4 220.568 216.31 229.925 227.3 229.925Z" fill="#0495C1"/>
<path d="M758.3 613.225C765.093 613.225 770.6 607.494 770.6 600.425C770.6 593.356 765.093 587.625 758.3 587.625C751.507 587.625 746 593.356 746 600.425C746 607.494 751.507 613.225 758.3 613.225Z" fill="#0495C1"/>
<path d="M922.7 260.225C930.156 260.225 936.2 253.778 936.2 245.825C936.2 237.872 930.156 231.425 922.7 231.425C915.244 231.425 909.2 237.872 909.2 245.825C909.2 253.778 915.244 260.225 922.7 260.225Z" fill="#0495C1"/>
<path d="M629.5 349.225C627.3 345.725 623.7 349.025 622.2 351.425C619.1 356.425 617.1 362.625 619.4 368.325C621.1 372.625 625.3 376.225 630.2 375.525C634.7 374.925 638.1 371.225 638 366.725C638 365.525 636.3 364.625 635.4 365.625C630.1 372.325 623.6 381.825 628.9 390.425C632.6 396.325 641.7 397.125 645.3 390.725C644.4 390.625 643.5 390.525 642.6 390.325C643.1 393.125 643.6 395.925 644 398.725C644.3 400.625 647.2 399.825 646.9 397.925C646.4 395.125 645.9 392.325 645.5 389.525C645.3 388.225 643.3 388.125 642.8 389.125C641.2 391.925 637.6 392.925 634.7 391.525C631.5 389.925 630.1 386.325 630.1 382.825C630.1 377.025 634.2 371.925 637.6 367.625C636.7 367.225 635.9 366.925 635 366.525C635.1 370.325 631.4 373.125 627.7 372.325C624.9 371.725 623.1 369.325 622.1 366.725C621.1 364.025 621.2 361.325 622 358.625C622.1 358.425 626.2 349.525 626.8 350.525C627.9 352.325 630.5 350.825 629.5 349.225Z" fill="#EC615B"/>
<path d="M221.2 358.225C223.4 352.225 230.7 354.825 233 359.025C233.8 360.425 234.2 362.025 234.4 363.625C234.8 366.625 234.5 367.825 231.9 369.625C229.1 372.425 228.4 371.325 229.9 366.325C230.6 366.025 231.4 365.725 232.1 365.425C234 364.925 236.2 365.025 238.1 365.625C242.9 367.225 245.3 372.325 244.6 377.025C244.4 378.225 245.6 379.425 246.8 378.725C253.3 375.025 261.9 379.125 263.4 386.425C263.8 388.325 266.7 387.525 266.3 385.625C264.4 376.425 253.5 371.625 245.3 376.225C246 376.825 246.8 377.325 247.5 377.925C248.8 369.125 242.1 360.925 232.8 362.325C229.6 362.825 224.8 364.825 224.4 368.625C224.1 371.725 227 374.025 229.9 374.325C238.5 375.125 238.3 362.625 235.5 357.625C231.7 350.825 221.2 349.125 218.2 357.525C217.6 359.225 220.5 360.025 221.2 358.225Z" fill="#EC615B"/>
<path d="M747.7 734.625C755.4 739.725 761.9 746.225 767.1 753.825C768.2 755.425 770.8 753.925 769.7 752.325C764.2 744.325 757.4 737.525 749.3 732.125C747.6 730.925 746.1 733.525 747.7 734.625Z" fill="#0495C1"/>
<path d="M767.2 740.125C768.8 742.025 770.3 744.025 771.9 745.925C773.1 747.425 775.2 745.325 774 743.825C772.4 741.925 770.9 739.925 769.3 738.025C768.1 736.525 766 738.725 767.2 740.125Z" fill="#0495C1"/>
<path d="M758 712.125C764.9 718.525 770.6 725.825 775 734.125C775.9 735.825 778.5 734.325 777.6 732.625C773.1 724.125 767.2 716.525 760.1 710.025C758.7 708.625 756.6 710.825 758 712.125Z" fill="#0495C1"/>
<path d="M66.6 824.725C68.8 846.425 72.6 867.825 77.9 889.025C78.4 890.925 81.3 890.125 80.8 888.225C75.6 867.325 71.8 846.125 69.6 824.725C69.4 822.825 66.4 822.825 66.6 824.725Z" fill="#E8E8E8"/>
<path d="M78.5 890.026C98.2 895.126 118.7 895.126 138.4 890.026C140.3 889.526 139.5 886.626 137.6 887.126C118.4 892.126 98.5 892.126 79.3 887.126C77.5 886.626 76.7 889.526 78.5 890.026Z" fill="#E8E8E8"/>
<path d="M140.7 887.025C142 865.725 143.7 844.425 145.7 823.125C145.9 821.225 142.9 821.225 142.7 823.125C140.7 844.425 139 865.725 137.7 887.025C137.6 888.925 140.6 888.925 140.7 887.025Z" fill="#E8E8E8"/>
<path d="M68.3 826.325C93.2 831.425 118.8 831.225 143.7 825.625C145.6 825.225 144.8 822.325 142.9 822.725C118.6 828.125 93.5 828.425 69.1 823.425C67.2 823.025 66.4 825.925 68.3 826.325Z" fill="#E8E8E8"/>
<path d="M68 833.525C68.8 837.625 74 837.425 77.2 837.725C85.3 838.425 93.5 838.625 101.6 838.425C109.4 838.225 117.2 837.625 125 836.725C131.2 835.925 137.2 835.125 142.7 832.025C144.4 831.125 142.9 828.525 141.2 829.425C131.3 834.925 117.6 834.725 106.5 835.225C101 835.425 95.4 835.525 89.9 835.425C87 835.325 71.5 836.025 70.9 832.725C70.5 830.825 67.7 831.625 68 833.525Z" fill="#E8E8E8"/>
<path d="M73.7 868.225C78.5 876.725 84.6 884.225 91.9 890.725C93.3 892.025 95.5 889.925 94 888.625C86.8 882.325 80.9 875.025 76.3 866.725C75.4 865.025 72.8 866.525 73.7 868.225Z" fill="#E8E8E8"/>
<path d="M69.8 845.125C80 862.325 92.4 878.125 106.6 892.325C108 893.725 110.1 891.525 108.7 890.225C94.7 876.225 82.5 860.625 72.4 843.625C71.4 842.025 68.8 843.525 69.8 845.125Z" fill="#E8E8E8"/>
<path d="M86.5001 837.926C97.1001 856.826 109.4 874.726 123.3 891.426C124.5 892.926 126.6 890.826 125.4 889.326C111.7 872.826 99.5001 855.126 89.1001 836.426C88.2001 834.726 85.6001 836.226 86.5001 837.926Z" fill="#E8E8E8"/>
<path d="M105.6 838.625C115.9 854.025 126.3 869.325 136.8 884.625C137.9 886.225 140.5 884.725 139.4 883.125C128.9 867.825 118.5 852.525 108.2 837.125C107.1 835.525 104.5 837.025 105.6 838.625Z" fill="#E8E8E8"/>
<path d="M121.6 837.726C126.8 846.126 132.4 854.326 138.2 862.326C139.3 863.826 141.9 862.326 140.8 860.826C135 852.826 129.4 844.626 124.2 836.226C123.2 834.626 120.6 836.126 121.6 837.726Z" fill="#E8E8E8"/>
<path d="M35.1001 736.726C36.3001 743.626 37.5001 750.626 38.8001 757.526C39.2001 759.426 39.5001 761.425 41.1001 762.625C42.2001 763.525 45.8001 763.425 46.5001 764.425C46.6001 763.825 46.7001 763.225 46.7001 762.625C45.2001 764.125 43.7001 765.626 42.1001 767.026C41.7001 767.426 41.6001 768.026 41.7001 768.526C42.6001 771.226 43.2001 775.226 45.0001 777.526C45.9001 778.726 47.5001 778.526 48.2001 779.226C48.8001 779.826 48.6001 779.426 48.3001 781.226C48.1001 782.726 48.1001 784.325 48.3001 785.925C48.6001 788.325 49.3001 790.625 50.2001 792.825C55.4001 805.425 65.5001 815.626 75.2001 825.026C76.6001 826.326 78.7001 824.225 77.3001 822.925C71.1001 816.925 64.9001 810.726 59.8001 803.726C54.8001 796.826 48.9001 787.526 52.0001 778.726C52.2001 778.226 52.0001 777.526 51.6001 777.226C49.7001 775.726 47.8001 776.325 46.5001 773.925C44.0001 769.425 45.4001 767.925 48.6001 764.825C49.1001 764.425 49.2001 763.526 48.8001 763.026C48.0001 761.826 47.4001 761.426 46.1001 761.026C45.3001 760.726 44.1001 761.025 43.3001 760.625C41.6001 759.725 41.6001 757.525 41.3001 755.925C40.1001 749.325 38.9001 742.626 37.8001 736.026C37.6001 734.026 34.7001 734.826 35.1001 736.726Z" fill="#E8E8E8"/>
<path d="M37.3 736.326C76.3 749.326 103 785.725 103.8 826.925C103.8 828.825 106.8 828.825 106.8 826.925C106 784.425 78.4 746.925 38.1 733.425C36.3 732.825 35.5 735.726 37.3 736.326Z" fill="#E8E8E8"/>
<path d="M97.2 785.925C106.9 759.025 121.2 733.025 144.1 715.325C145.6 714.125 144.1 711.525 142.6 712.725C119 731.025 104.3 757.425 94.3 785.125C93.7 786.925 96.6 787.725 97.2 785.925Z" fill="#E8E8E8"/>
<path d="M141.5 714.725C142.2 723.925 143 733.125 143.7 742.425C143.9 744.325 146.9 744.325 146.7 742.425C146 733.225 145.2 724.025 144.5 714.725C144.4 712.825 141.4 712.825 141.5 714.725Z" fill="#E8E8E8"/>
<path d="M145 741.425C143.7 741.725 142.4 742.025 141.2 742.425C139.3 742.925 140.1 745.825 142 745.325C143.3 745.025 144.6 744.725 145.8 744.325C147.7 743.825 146.9 741.025 145 741.425Z" fill="#E8E8E8"/>
<path d="M139.7 745.125C140.1 747.025 141.7 748.225 143.5 748.425C144.3 748.525 145 747.725 145 746.925C145 746.025 144.3 745.525 143.5 745.425C143.8 745.425 143.5 745.425 143.4 745.425C143.3 745.425 143.1 745.325 143.3 745.425C143.2 745.325 143.1 745.325 143 745.225C142.8 745.125 143.2 745.425 142.9 745.125C142.8 745.025 142.8 745.025 142.7 744.925C142.9 745.125 142.7 744.925 142.7 744.825C142.6 744.725 142.6 744.525 142.6 744.725C142.6 744.625 142.5 744.425 142.5 744.325C142.3 743.525 141.4 743.025 140.7 743.325C139.9 743.525 139.5 744.325 139.7 745.125Z" fill="#E8E8E8"/>
<path d="M142 747.325C142.1 753.025 141.9 758.625 141.3 764.225C141.1 766.025 141.4 770.225 140.2 771.625C140.1 771.725 138.3 772.025 137.9 772.325C136.4 773.525 138.5 775.625 140 774.425C140.5 774.025 141.7 774.425 142.5 773.525C143.7 772.325 143.5 769.525 143.7 768.125C144.6 761.225 145 754.225 144.9 747.225C145 745.425 142 745.425 142 747.325Z" fill="#E8E8E8"/>
<path d="M136.7 774.925C139.9 778.725 139 785.025 138.7 789.625C138.3 794.925 137.4 799.825 134.8 804.425C131.1 811.225 125.9 816.925 123.2 824.325C122.5 826.125 125.4 826.925 126.1 825.125C129.7 815.425 138 808.225 140.5 798.025C142.3 790.725 144 779.025 138.8 772.825C137.6 771.425 135.5 773.525 136.7 774.925Z" fill="#E8E8E8"/>
<path d="M113.1 825.725C115.9 797.325 123.4 769.625 135.4 743.825C136.2 742.125 133.6 740.525 132.8 742.325C120.6 768.725 112.9 796.825 110.1 825.825C109.9 827.725 112.9 827.625 113.1 825.725Z" fill="#E8E8E8"/>
<path d="M54.1 753.025C71.6 775.025 84.4 800.325 91.9 827.325C92.4 829.225 95.3 828.425 94.8 826.525C87.1 798.925 74 773.325 56.2 750.925C55 749.425 52.9 751.525 54.1 753.025Z" fill="#E8E8E8"/>
<path d="M56 789.925C64.4 789.425 72.2 791.425 79.3 795.825C80.9 796.825 82.5 794.225 80.8 793.225C73.3 788.625 64.8 786.425 56 786.925C54 787.025 54 790.025 56 789.925Z" fill="#E8E8E8"/>
<path d="M74.3 776.526C73.7 771.026 74.4 765.726 76.5 760.526C77.2 758.726 74.3 757.926 73.6 759.726C71.4 765.126 70.7 770.726 71.3 776.526C71.5 778.426 74.5 778.426 74.3 776.526Z" fill="#E8E8E8"/>
<path d="M106.7 759.925C110 768.025 114.8 776.625 116 785.226C116.3 787.126 119.2 786.325 118.9 784.425C117.6 775.725 112.8 767.125 109.6 759.125C108.9 757.325 106 758.125 106.7 759.925Z" fill="#E8E8E8"/>
<path d="M125.1 769.425C128 766.125 130.8 762.226 134.5 759.726C137.6 757.626 141 756.225 143.4 753.325C144.6 751.825 142.5 749.726 141.3 751.226C138.7 754.326 134.9 755.626 131.8 758.026C128.4 760.626 125.8 764.125 123 767.325C121.7 768.825 123.8 770.925 125.1 769.425Z" fill="#E8E8E8"/>
<path d="M126.1 824.725C130.9 823.425 135.8 822.925 140.8 823.225C142.7 823.325 142.7 820.325 140.8 820.225C135.5 819.925 130.4 820.425 125.3 821.825C123.5 822.325 124.2 825.225 126.1 824.725Z" fill="#E8E8E8"/>
<path d="M125.7 825.925C131.3 826.425 136.7 825.725 142.1 824.025C143.9 823.425 143.1 820.525 141.3 821.125C136.2 822.725 131 823.325 125.7 822.925C123.8 822.825 123.8 825.825 125.7 825.925Z" fill="#E8E8E8"/>
<path d="M69.6 825.425C70.9 825.425 72.1 825.425 73.4 825.425C75.3 825.425 75.3 822.425 73.4 822.425C72.1 822.425 70.9 822.425 69.6 822.425C67.7 822.425 67.7 825.425 69.6 825.425Z" fill="#E8E8E8"/>
<path d="M142.9 849.625C174.6 849.625 206.4 849.625 238.1 849.625C240 849.625 240 846.625 238.1 846.625C206.4 846.625 174.6 846.625 142.9 846.625C141 846.625 141 849.625 142.9 849.625Z" fill="#E8E8E8"/>
<path d="M679.5 829.825C698.4 829.825 717.2 829.825 736.1 829.825C738 829.825 738 826.825 736.1 826.825C717.2 826.825 698.4 826.825 679.5 826.825C677.6 826.825 677.6 829.825 679.5 829.825Z" fill="#E8E8E8"/>
<path d="M851.1 831.625C932.6 831.625 1014.1 831.625 1095.6 831.625C1118.8 831.625 1142 831.625 1165.2 831.625C1167.1 831.625 1167.1 828.625 1165.2 828.625C1083.7 828.625 1002.2 828.625 920.7 828.625C897.5 828.625 874.3 828.625 851.1 828.625C849.2 828.625 849.2 831.625 851.1 831.625Z" fill="#E8E8E8"/>
<path d="M730.4 503.325C722.8 519.025 714.6 534.425 705.9 549.525C705.5 550.325 705.8 551.625 706.8 551.725C749.7 558.225 788.1 579.525 825.1 601.025C826.8 602.025 828.3 599.425 826.6 598.425C789.3 576.825 750.7 555.425 707.5 548.825C707.8 549.525 708.1 550.325 708.4 551.025C717.2 535.925 725.3 520.525 732.9 504.825C733.8 503.125 731.3 501.525 730.4 503.325Z" fill="#E8E8E8"/>
<path d="M737 557.825C740 549.225 743 540.525 746 531.925C747.3 528.325 748.2 524.325 749.9 520.825C750.3 518.725 751.6 517.125 753.6 515.925C754.8 516.225 756 516.525 757.2 516.825C759 517.325 760.8 517.725 762.5 518.225C766.6 519.225 773.2 519.225 772.5 524.725C772 528.625 769.7 532.825 768.4 536.625C765.4 545.125 762.5 553.625 759.5 562.125C758.9 563.925 761.8 564.725 762.4 562.925C766.3 551.725 770.2 540.425 774.1 529.225C775 526.625 777.5 522.225 775.5 519.425C773.3 516.425 766.7 516.225 763.3 515.325C760 514.525 754.2 511.525 750.8 513.125C747.9 514.425 747.3 519.425 746.4 521.925C742.3 533.625 738.2 545.425 734.1 557.125C733.5 558.825 736.4 559.625 737 557.825Z" fill="#E8E8E8"/>
<path d="M775.6 568.525C782 555.025 788.5 541.425 794.9 527.925C798.1 521.125 801.3 514.425 804.6 507.625C806.1 504.525 807.3 500.825 809.2 497.925C810.8 495.425 811.2 494.825 814 495.925C815.5 496.525 817.3 498.025 818.6 498.925C820.3 500.125 823 501.425 824.2 503.025C825.7 504.925 825.1 506.925 824.2 509.325C823 512.525 821.2 515.625 819.7 518.725C816.4 525.525 813.1 532.325 809.6 539.125C803 552.025 796.1 564.825 789 577.525C788 579.225 790.6 580.725 791.6 579.025C800.3 563.625 808.6 548.025 816.4 532.225C820.3 524.425 824.6 516.425 827.9 508.325C830.2 502.425 825.2 500.025 820.8 496.925C817.3 494.525 811.8 489.025 808 493.525C805.6 496.325 804.3 501.025 802.7 504.425C800.7 508.525 798.8 512.625 796.8 516.825C788.8 533.625 780.8 550.425 772.9 567.225C772.2 568.725 774.8 570.325 775.6 568.525Z" fill="#E8E8E8"/>
<path d="M808.8 589.325C817.4 575.825 827.1 563.025 837.8 551.225C837.2 551.325 836.6 551.425 836 551.425C839.8 554.025 843.5 556.525 847.3 559.125C847.1 558.425 846.9 557.725 846.8 557.025C838.3 570.325 829.8 583.525 821.3 596.825C820.3 598.425 822.8 599.925 823.9 598.325C832.4 585.025 840.9 571.825 849.4 558.525C849.9 557.825 849.5 556.925 848.9 556.425C845.1 553.825 841.4 551.325 837.6 548.725C837.1 548.325 836.2 548.525 835.8 548.925C824.9 561.025 815 573.925 806.3 587.625C805.2 589.525 807.8 591.025 808.8 589.325Z" fill="#E8E8E8"/>
<path d="M928.1 494.225C918.1 490.425 911.8 480.425 913.6 469.725C915.4 458.825 926.1 449.125 937.1 455.625C944.7 460.125 948.6 470.325 945.7 478.625C942.7 487.525 932.9 492.825 923.8 491.425C921.9 491.125 921.1 494.025 923 494.325C933.7 495.925 945 490.025 948.6 479.425C952.2 468.825 946.4 456.025 936 451.725C923.8 446.725 912.7 457.225 910.6 468.925C908.4 481.325 915.7 492.725 927.2 497.125C929.1 497.825 929.9 494.925 928.1 494.225Z" fill="#E8E8E8"/>
<path d="M948.6 492.325C928.7 491.725 936.2 459.825 953.8 461.025C971.4 462.325 964.2 498.225 944.9 491.625C943.1 491.025 942.3 493.925 944.1 494.525C966.4 502.125 976.4 461.525 955.1 458.125C944.7 456.425 935.3 466.225 933.7 475.925C932.1 485.525 938.6 494.925 948.6 495.225C950.5 495.425 950.5 492.425 948.6 492.325Z" fill="#E8E8E8"/>
<path d="M933.7 401.825C932 400.025 931.2 397.125 932.5 394.925C933.8 392.825 937 391.825 939 393.425C940.8 394.825 941.2 397.825 939.5 399.325C937.5 401.125 934.3 400.225 932.4 398.725C930.9 397.525 928.8 399.625 930.3 400.825C933.4 403.225 938.2 404.425 941.5 401.525C944.5 398.825 944.2 393.825 941.2 391.225C938.1 388.525 933.2 389.325 930.6 392.325C927.7 395.725 928.5 400.825 931.5 403.925C932.9 405.325 935 403.225 933.7 401.825Z" fill="#E8E8E8"/>
<path d="M643.5 477.125C640.7 460.125 650.6 439.625 669.8 439.825C679.6 439.925 689.1 443.925 699 442.525C706 441.525 712 437.525 716.2 432.025C720.4 426.525 722.8 419.625 723.2 412.725C723.7 402.525 719.8 392.125 722.6 382.025C724 376.925 727 372.225 732.1 370.325C737 368.625 742.3 369.625 747.4 369.425C754.8 369.125 760.6 365.925 764.3 359.425C769.5 350.325 768.3 339.425 771.9 329.825C776.2 318.225 788.3 308.325 801.1 314.025C802.8 314.825 804.4 312.225 802.6 311.425C785.2 303.625 770.7 319.325 767.3 335.125C765.1 345.425 765.5 361.425 753.2 365.525C744.6 368.425 734.9 363.925 727 369.825C720.5 374.625 718.6 383.425 718.7 391.125C719 402.425 722.5 413.425 717.5 424.225C712.9 434.425 703.8 440.525 692.5 439.825C682.5 439.225 672.6 435.125 662.5 437.725C645.4 442.025 638.1 462.225 640.8 478.025C641 479.725 643.9 478.925 643.5 477.125Z" fill="#E8E8E8"/>
<path d="M769.9 405.825C766.2 397.425 771.3 389.425 779.4 386.725C785.3 384.725 791.8 384.625 796.9 380.625C800.9 377.525 802.2 373.625 801.7 368.625C801.2 363.925 801.2 360.225 804.9 357.025C808 354.325 812.1 353.325 816.1 353.125C827.1 352.725 842.2 358.325 850.2 347.625C853.9 342.625 852.8 336.425 854.5 330.825C856.8 323.025 864.3 318.225 872.3 318.625C874.2 318.725 874.2 315.725 872.3 315.625C866.2 315.325 860.3 317.625 856.1 322.025C850.9 327.525 851.6 333.725 850 340.625C845.7 359.525 819.4 346.225 807 352.125C802.4 354.325 798.7 358.225 798.3 363.425C797.8 369.525 800.6 374.525 794.4 378.725C791.1 380.925 787.3 381.625 783.5 382.525C777.2 384.025 771 385.925 767.8 392.025C765.2 396.825 765.2 402.325 767.4 407.225C768.1 409.125 770.6 407.525 769.9 405.825Z" fill="#E8E8E8"/>
<path d="M948.1 272.625C947.7 271.725 947.3 270.725 947 269.725C948.3 268.225 949.5 266.725 950.8 265.225C951.2 265.125 953 266.326 953.6 266.326C955.1 266.526 956.4 266.125 957.6 265.225C961.3 262.325 960 257.726 961.1 253.826C962.9 247.126 970.8 251.725 974.4 246.725C978 241.825 976.7 231.425 986.3 234.225C988.2 234.725 989 231.826 987.1 231.326C981.6 229.726 976.6 232.325 974.6 237.625C974 239.125 973.8 240.826 973.2 242.326C971.9 245.826 970.5 246.326 966.7 246.526C963.9 246.726 961.7 246.526 959.8 248.926C958.2 251.026 958.2 253.725 957.9 256.225C957.6 259.925 957.9 263.025 952.4 262.625C951.3 262.525 950.4 261.526 949.2 261.526C942.6 261.426 943.7 269.526 945.3 273.426C945.9 275.226 948.9 274.425 948.1 272.625Z" fill="#E8E8E8"/>
<path d="M966.9 280.925C965.3 278.825 962.6 272.725 967.3 271.125C969 270.525 971.2 271.225 973 271.225C974.6 271.225 976 271.225 977.3 270.125C981.3 266.925 978.4 261.225 980.5 257.225C983.9 250.725 990.7 255.825 995.5 252.425C998.9 250.025 999.8 245.425 1000.4 241.625C1000.7 239.725 997.8 238.925 997.5 240.825C996.8 245.325 996 250.325 990.4 250.825C987.5 251.125 985.3 250.125 982.6 251.425C978.2 253.525 976.8 257.425 976.7 261.925C976.6 265.725 977.5 267.625 971.1 267.925C970.3 267.925 969.5 267.725 968.7 267.725C966.4 267.925 964.4 269.125 963.1 271.025C960.3 275.025 961.9 279.625 964.7 283.125C966 284.625 968.1 282.425 966.9 280.925Z" fill="#E8E8E8"/>
<path d="M116.7 335.125C125 325.125 136.8 316.925 150.4 318.325C165.2 319.825 172.5 331.625 173.9 345.425C176.3 368.325 170.7 395.725 186.2 415.225C192.3 422.925 201.4 427.025 211.2 424.625C223 421.825 232.2 412.525 242.7 407.025C255.1 400.525 272.2 397.025 283.4 407.925C291.6 415.925 293.4 428.125 296.1 438.725C298.6 448.325 302.9 458.925 311.5 464.625C316.7 468.025 322.4 468.325 328.4 467.925C335.1 467.425 348.8 467.025 347.4 477.525C347.2 479.425 350.2 479.425 350.4 477.525C350.9 473.425 349 470.125 345.7 467.725C340.5 463.925 334.5 464.525 328.4 464.925C321.5 465.425 315.6 464.825 310.3 459.925C305.5 455.525 302.6 449.325 300.5 443.225C297 432.725 296 421.225 290 411.625C284.1 402.125 273.9 397.525 262.9 397.925C249 398.425 237.3 406.425 226.2 413.825C220.9 417.325 215.2 421.025 208.7 422.125C200.9 423.425 194 420.025 189 414.225C179.6 403.225 178.1 387.525 177.6 373.725C177.1 360.825 178.8 346.825 174.5 334.325C170.6 322.925 160.7 315.825 148.8 315.225C135 314.525 122.9 322.825 114.4 333.025C113.3 334.525 115.4 336.625 116.7 335.125Z" fill="#E8E8E8"/>
<path d="M66.2 489.426C81.8 515.426 95.7 542.326 108 570.026C108.8 571.826 111.4 570.226 110.6 568.526C98.3 540.826 84.3 513.926 68.8 487.926C67.8 486.226 65.2 487.726 66.2 489.426Z" fill="#E8E8E8"/>
<path d="M68.1 488.226C92.4 473.126 117.4 459.026 143.1 446.226C144.8 445.326 143.3 442.726 141.6 443.626C116 456.426 91 470.526 66.6 485.626C64.9 486.726 66.4 489.326 68.1 488.226Z" fill="#E8E8E8"/>
<path d="M141.3 444.925C154 471.625 167.4 497.925 181.6 523.825C182.5 525.525 185.1 524.025 184.2 522.325C170 496.425 156.5 470.125 143.9 443.425C143 441.625 140.5 443.125 141.3 444.925Z" fill="#E8E8E8"/>
<path d="M111.4 570.625C135.3 556.225 158.9 541.425 182.3 526.225C183.9 525.225 182.4 522.625 180.8 523.625C157.4 538.825 133.8 553.625 109.9 568.025C108.3 569.025 109.8 571.625 111.4 570.625Z" fill="#E8E8E8"/>
<path d="M109.5 479.425C108.9 498.625 110 517.726 112.8 536.726C113.1 538.626 116 537.825 115.7 535.925C112.9 517.225 111.9 498.325 112.5 479.425C112.6 477.525 109.6 477.525 109.5 479.425Z" fill="#E8E8E8"/>
<path d="M109.6 478.425C123.5 489.325 137.4 500.025 151.5 510.625C153 511.825 154.5 509.225 153 508.025C139.1 497.625 125.3 487.025 111.7 476.325C110.2 475.125 108.1 477.225 109.6 478.425Z" fill="#E8E8E8"/>
<path d="M115.9 537.325C127.4 527.025 142.4 521.525 153.3 510.425C154.7 509.025 152.5 506.925 151.2 508.325C140.3 519.325 125.4 524.925 113.8 535.225C112.3 536.425 114.5 538.525 115.9 537.325Z" fill="#E8E8E8"/>
<path d="M70.2 505.125C73.4 503.525 76.6 502.025 79.8 500.425C81.5 499.625 80 497.025 78.3 497.825C75.1 499.425 71.9 500.925 68.7 502.525C67 503.425 68.5 505.925 70.2 505.125Z" fill="#E8E8E8"/>
<path d="M80.5 522.125C83.2 520.325 86.1 518.825 89.1 517.525C90.9 516.825 90.1 513.925 88.3 514.625C85 516.025 81.9 517.625 78.9 519.525C77.4 520.625 78.9 523.225 80.5 522.125Z" fill="#E8E8E8"/>
<path d="M91.7999 541.725C94.5999 540.325 97.3999 538.925 100.2 537.625C101.9 536.725 100.4 534.225 98.6999 535.025C95.8999 536.425 93.0999 537.825 90.2999 539.125C88.5999 539.925 90.0999 542.525 91.7999 541.725Z" fill="#E8E8E8"/>
<path d="M97.6001 561.325C100.7 558.625 103.9 556.325 107.5 554.325C109.2 553.325 107.7 550.825 106 551.725C102.3 553.825 98.8 556.325 95.5 559.225C94 560.525 96.1001 562.625 97.6001 561.325Z" fill="#E8E8E8"/>
<path d="M147 464.625C149.3 463.025 151.7 461.925 154.4 461.225C156.3 460.725 155.5 457.925 153.6 458.325C150.7 459.025 147.9 460.225 145.4 462.025C143.9 463.125 145.4 465.725 147 464.625Z" fill="#E8E8E8"/>
<path d="M155.9 481.725C159.1 479.725 162.3 477.725 165.4 475.625C167 474.625 165.5 472.025 163.9 473.025C160.7 475.025 157.5 477.025 154.4 479.125C152.7 480.225 154.2 482.825 155.9 481.725Z" fill="#E8E8E8"/>
<path d="M166.1 502.225C169.5 500.725 173 499.225 176.4 497.725C178.2 496.925 176.6 494.325 174.9 495.125C171.5 496.625 168 498.125 164.6 499.625C162.8 500.425 164.4 503.025 166.1 502.225Z" fill="#E8E8E8"/>
<path d="M173.4 515.625C176.1 513.025 179.1 510.825 182.4 508.925C184.1 508.025 182.6 505.425 180.9 506.325C177.4 508.325 174.2 510.625 171.3 513.425C169.9 514.825 172 516.925 173.4 515.625Z" fill="#E8E8E8"/>
<path d="M119.9 557.425C122.4 561.125 124.5 565.025 126.1 569.125C126.8 570.925 129.7 570.125 129 568.325C127.3 563.925 125.2 559.725 122.5 555.825C121.4 554.325 118.8 555.825 119.9 557.425Z" fill="#E8E8E8"/>
<path d="M135.2 549.125C137.1 552.525 138.9 555.825 140.8 559.225C141.7 560.925 144.3 559.425 143.4 557.725C141.5 554.325 139.7 551.025 137.8 547.625C136.9 545.925 134.3 547.425 135.2 549.125Z" fill="#E8E8E8"/>
<path d="M152.9 536.426C154.9 540.026 156.9 543.626 158.9 547.226C159.8 548.926 162.4 547.426 161.5 545.726C159.5 542.126 157.5 538.526 155.5 534.926C154.6 533.226 152 534.726 152.9 536.426Z" fill="#E8E8E8"/>
<path d="M168.8 526.926C170.4 530.726 172 534.526 173.7 538.226C174.5 540.026 177 538.426 176.3 536.726C174.7 532.926 173.1 529.126 171.4 525.426C170.6 523.726 168 525.226 168.8 526.926Z" fill="#E8E8E8"/>
<path d="M78.1 472.826C80 475.926 81.8 479.026 83.7 482.026C84.7 483.726 87.3 482.126 86.3 480.526C84.4 477.426 82.6 474.326 80.7 471.326C79.7 469.726 77.1 471.226 78.1 472.826Z" fill="#E8E8E8"/>
<path d="M95.2999 462.825C97.0999 466.825 98.8999 470.825 100.7 474.825C101.5 476.625 104.1 475.025 103.3 473.325C101.5 469.325 99.6999 465.325 97.8999 461.325C96.9999 459.525 94.4999 461.025 95.2999 462.825Z" fill="#E8E8E8"/>
<path d="M110.8 453.225C113.5 456.825 115.6 460.725 117 464.925C117.6 466.725 120.5 465.925 119.9 464.125C118.4 459.625 116.3 455.425 113.4 451.725C112.3 450.225 109.7 451.625 110.8 453.225Z" fill="#E8E8E8"/>
<path d="M127.5 445.525C129.6 448.725 131.6 451.825 133.7 455.025C134.7 456.625 137.3 455.125 136.3 453.525C134.2 450.325 132.2 447.225 130.1 444.025C129 442.425 126.4 443.925 127.5 445.525Z" fill="#E8E8E8"/>
<path d="M283 247.225C273.3 244.225 272.8 233.925 277.4 226.225C281.9 218.725 290.6 216.725 297.4 222.925C303 228.125 303.5 237.025 298.3 242.725C293.1 248.525 284.6 248.425 278.6 244.025C277.1 242.825 275.6 245.425 277.1 246.625C284.7 252.225 295.8 251.325 301.5 243.425C307.4 235.425 305.3 224.225 297 218.825C277 205.925 259.8 243.125 282.2 250.125C284.1 250.725 284.9 247.825 283 247.225Z" fill="#E8E8E8"/>
<path d="M299.1 249.825C291.6 252.125 289.8 243.125 293.1 238.325C295.8 234.425 301.1 232.125 305.9 233.425C310.5 234.625 313.8 239.325 312.6 244.025C311.1 249.925 304.9 252.025 299.4 251.125C297.5 250.825 296.7 253.725 298.6 254.025C306 255.325 314 252.125 315.6 244.125C317 237.225 311.6 230.925 304.9 230.125C297.5 229.225 289.4 234.625 288.4 242.225C287.5 248.825 293.5 254.725 300.1 252.625C301.8 252.125 301 249.225 299.1 249.825Z" fill="#E8E8E8"/>
<path d="M235.3 314.926C232.9 319.826 236.3 324.726 241.3 326.026C245.1 327.026 249.1 326.126 253 326.326C257.2 326.526 261.4 327.526 265.2 329.226C273.6 333.026 279 339.926 279.3 349.226C279.6 357.026 277.3 365.126 280.7 372.526C287.9 388.126 307.7 376.226 317.9 386.326C326.4 394.826 322.9 410.326 334.3 416.826C336 417.826 337.5 415.226 335.8 414.226C325.6 408.426 328 393.326 320.8 384.926C317 380.526 311.5 379.326 305.9 378.926C299.1 378.526 290.3 379.926 285.3 374.126C279.5 367.326 282.6 357.126 282.3 349.126C282.1 342.826 280 337.126 275.6 332.626C271.7 328.726 266.6 326.026 261.3 324.626C258.6 323.926 255.8 323.426 253 323.326C249.4 323.126 233.8 324.926 238 316.426C238.8 314.726 236.2 313.226 235.3 314.926Z" fill="#E8E8E8"/>
<path d="M1.5 854.726C19.6 854.726 37.6 854.726 55.7 854.726C57.6 854.726 57.6 851.726 55.7 851.726C37.6 851.726 19.6 851.726 1.5 851.726C-0.5 851.726 -0.5 854.726 1.5 854.726Z" fill="#E8E8E8"/>
<path d="M30.7 922.525C65.5 922.525 100.2 922.525 135 922.525C136.9 922.525 136.9 919.525 135 919.525C100.2 919.525 65.5 919.525 30.7 919.525C28.7 919.525 28.7 922.525 30.7 922.525Z" fill="#E8E8E8"/>
<path d="M130.8 903.726C163.1 903.726 195.5 903.726 227.8 903.726C229.7 903.726 229.7 900.726 227.8 900.726C195.5 900.726 163.1 900.726 130.8 900.726C128.8 900.726 128.8 903.726 130.8 903.726Z" fill="#E8E8E8"/>
<path d="M668.7 898.526C685 894.526 701.4 894.126 718 896.726C725 897.826 732.1 898.926 739.2 898.326C746.1 897.726 752.8 895.626 759.5 893.826C767.1 891.726 774.7 890.126 782.7 890.726C790.9 891.326 798.8 893.626 806.8 895.426C813.7 897.026 820.7 898.126 827.8 898.026C835.3 897.826 842.7 896.526 850 895.426C870 892.226 888.8 894.226 908.6 897.526C910.5 897.826 911.3 894.926 909.4 894.626C893.4 892.026 877.3 889.326 861 890.926C844 892.626 828.2 896.826 811 893.326C796.6 890.426 782.9 885.926 768.1 888.726C760.2 890.226 752.7 893.026 744.8 894.526C736 896.226 727.5 895.226 718.7 893.826C701.6 891.226 684.7 891.426 667.8 895.626C666.1 896.126 666.9 899.026 668.7 898.526Z" fill="#E8E8E8"/>
<path d="M822.3 868.125C853.7 866.425 885.1 864.725 916.5 863.125C932 862.325 947 862.625 962.4 864.725C969.3 865.625 975.9 865.825 982.8 865.025C990.5 864.125 998.5 862.925 1005.7 866.625C1007.4 867.525 1008.9 864.925 1007.2 864.025C995 857.825 980.9 863.625 967.8 862.425C960 861.725 952.4 860.225 944.6 859.825C936.5 859.425 928.4 859.625 920.3 860.025C887.6 861.525 854.9 863.525 822.2 865.225C820.4 865.225 820.4 868.225 822.3 868.125Z" fill="#E8E8E8"/>
<path d="M207.4 954.025C222.2 955.425 237.1 956.825 251.9 955.125C258.8 954.325 265.4 952.825 272.1 950.825C280.8 948.225 288.6 947.525 297.6 949.125C304.5 950.325 311.3 952.025 318.2 952.625C325.5 953.225 332.8 952.825 340.1 952.125C355.4 950.625 370.7 948.025 385.9 951.425C387.8 951.825 388.6 948.925 386.7 948.525C372.1 945.325 357.5 947.425 342.8 948.925C335.5 949.625 328.2 950.325 320.9 949.925C312.6 949.525 304.6 947.325 296.5 946.025C289.7 944.925 283.2 944.925 276.5 946.525C269.3 948.325 262.5 950.725 255.1 951.825C239.3 954.125 223.2 952.525 207.4 951.125C205.4 950.825 205.5 953.825 207.4 954.025Z" fill="#E8E8E8"/>
<path d="M365.6 147.125C361.7 144.425 356.4 140.125 358 134.725C359.7 129.125 363.9 131.825 367.8 130.525C373 128.825 372.7 122.525 371.2 118.425C369.7 114.425 366.5 104.725 374.8 108.025C376.7 108.825 378.1 110.125 380.3 109.425C382.3 108.825 383.3 107.025 383.8 105.125C384.2 103.425 383.9 101.625 383.8 99.8254C383.6 98.6254 383.5 97.3254 383.5 96.1254C383.1 93.2254 384.9 92.0254 388.7 92.5254C388.8 94.4254 391.8 94.4254 391.7 92.5254C391.5 89.7254 389.4 87.7254 386.4 87.8254C382.9 87.9254 381 91.3254 380.6 94.5254C380.3 96.7254 382.1 101.825 381.1 103.625C379.9 104.425 378.7 105.325 377.4 106.125C376.9 105.825 376.4 105.525 375.9 105.225C375 104.925 374.3 104.325 373.4 104.125C370.3 103.425 367.8 105.325 366.7 108.125C364.8 112.925 368.2 116.925 369.2 121.425C370.5 127.625 365.8 126.925 361.7 127.625C359.9 127.925 358.4 128.825 357.2 130.125C350.9 137.425 358.2 145.525 364.2 149.725C365.7 150.825 367.2 148.225 365.6 147.125Z" fill="#E8E8E8"/>
<path d="M385.3 144.325C382 140.525 379.5 135.325 385.9 133.325C387.5 132.825 389.3 133.025 390.8 132.025C394.1 129.725 392.7 126.625 392.1 123.425C391.8 121.625 391.1 119.225 392.2 117.425C393 116.125 395.9 115.625 397.4 115.325C399.5 114.825 401.7 114.525 403.5 113.325C406.2 111.425 407.2 108.025 405.4 105.125C404.4 103.525 401.8 105.025 402.8 106.625C405.8 111.425 391.8 112.725 389.4 116.225C386.6 120.325 392.5 127.525 387.6 130.125C385.7 131.125 383.3 130.425 381.5 131.725C380.2 132.625 379.3 134.025 378.9 135.525C377.8 139.825 380.7 143.525 383.3 146.525C384.5 147.925 386.6 145.825 385.3 144.325Z" fill="#E8E8E8"/>
<path d="M267.2 120.626C264.6 118.826 264.3 115.626 265.1 112.826C265.6 110.926 268 105.726 270.3 105.526C274.1 105.126 276 109.925 277 112.725C277.9 115.425 278.2 118.126 278.3 120.926C278.3 122.826 281.3 122.826 281.3 120.926C281.2 115.326 277.5 98.1255 268.3 103.126C264.8 105.026 262.2 110.526 261.8 114.326C261.4 117.926 262.8 121.125 265.7 123.225C267.2 124.325 268.7 121.726 267.2 120.626Z" fill="#E8E8E8"/>
<path d="M266 122.225C262.4 123.125 258.8 124.025 255.1 124.925C253 125.425 249.4 125.625 247.7 127.225C244.8 129.925 245.6 138.225 245.6 141.725C245.6 142.725 246.6 143.425 247.5 143.125C248 143.025 248.5 142.825 249.1 142.725C251.7 141.325 253 142.225 253.1 145.225C255.1 147.225 255.1 148.425 253.1 148.625C251.9 149.125 250.7 149.325 249.4 149.325C248.6 149.425 247.9 149.925 247.9 150.825C248.1 157.225 248.6 163.525 249.3 169.925C249.5 171.825 252.5 171.825 252.3 169.925C251.6 163.525 251.1 157.225 250.9 150.825C250.4 151.325 249.9 151.825 249.4 152.325C253.6 151.825 260.3 150.125 259.4 144.425C258.4 138.325 251 139.025 246.8 140.225C247.4 140.725 248.1 141.225 248.7 141.625C248.7 139.325 248.7 137.125 248.9 134.825C249.2 131.225 249 129.925 252.3 128.625C256.8 126.825 262.1 126.225 266.8 125.025C268.7 124.725 267.9 121.825 266 122.225Z" fill="#E8E8E8"/>
<path d="M280.4 123.126C284.6 122.926 288.9 122.926 293.1 123.426C297.1 123.926 296.9 124.526 297.5 128.026C297.9 130.226 298 132.526 298.2 134.726C299 143.326 299.6 151.926 300.1 160.526C300.2 162.426 303.2 162.426 303.1 160.526C302.5 148.826 302.1 136.826 300.2 125.226C299.7 122.326 299.2 121.426 296.2 120.926C291 119.926 285.6 119.926 280.4 120.226C278.5 120.226 278.5 123.226 280.4 123.126Z" fill="#E8E8E8"/>
<path d="M251.5 172.025C257.4 171.025 263.3 170.025 269.1 169.025C275.8 167.925 282.2 168.425 288.9 167.925C292 167.625 306.7 166.125 301.3 160.025C300 158.625 297.9 160.725 299.2 162.125C300 163.025 286.4 165.025 286.1 165.025C281.9 165.125 277.7 164.925 273.5 165.425C265.9 166.325 258.3 167.925 250.7 169.225C248.8 169.425 249.6 172.325 251.5 172.025Z" fill="#E8E8E8"/>
<path d="M782.7 747.925C782.4 758.425 782.1 768.925 781.8 779.525C795.1 780.425 808.3 781.225 821.6 782.125C821.6 771.325 821.6 760.525 821.6 749.725C808.6 749.125 795.7 748.525 782.7 747.925Z" fill="white" stroke="#161616" stroke-width="2" stroke-miterlimit="10"/>
<path d="M800 864.625C801.8 876.225 802.6 885.825 803 892.725C804.3 915.625 803.3 920.925 801.3 925.125C796.4 935.425 787.5 939.725 788.3 941.125C788.9 942.025 793.3 941.025 812.9 930.725C811.7 907.925 810.6 885.225 809.4 862.425C806.3 863.225 803.2 863.925 800 864.625Z" fill="white" stroke="#161616" stroke-width="2" stroke-miterlimit="10"/>
<path d="M774.1 791.125C791.1 791.225 808.1 791.426 825.1 791.526C823.2 814.326 821.4 837.026 819.5 859.826C804.7 858.626 789.8 857.526 775 856.326C774.6 834.625 774.3 812.925 774.1 791.125Z" fill="white" stroke="#161616" stroke-width="2" stroke-miterlimit="10"/>
<path d="M781 863.825C786.4 876.925 788.2 888.225 788.8 895.825C789.7 907.025 790.3 915.625 784.9 921.325C782.9 923.525 779.6 925.625 773.2 929.925C767.5 933.725 764.8 935.125 765 935.525C765.3 936.125 770.8 934.925 794.8 926.425C796.4 918.325 797.7 907.925 797.4 895.725C797 882.725 794.9 871.625 792.6 863.325C788.8 863.525 784.9 863.625 781 863.825Z" fill="white" stroke="#161616" stroke-width="2" stroke-miterlimit="10"/>
<path d="M789.7 942.025C792.7 939.525 795.5 936.825 798.2 933.925C801.3 930.525 805.9 925.325 810.7 929.825C810.8 929.025 810.9 928.225 811 927.425C803.9 930.925 796.9 934.425 789.8 937.825C788.4 938.525 789.1 940.625 790.6 940.625C797.3 940.725 801.5 929.025 808.4 931.225C810.2 931.825 811 928.925 809.2 928.325C806.2 927.425 803.9 928.225 801.4 930.025C798.5 932.125 794.4 937.625 790.7 937.625C791 938.525 791.2 939.525 791.5 940.425C798.6 936.925 805.6 933.425 812.7 930.025C813.6 929.625 813.7 928.325 813 927.625C810.3 925.125 805.5 924.225 802.1 925.825C799.6 926.925 798 929.825 796.2 931.725C793.5 934.625 790.7 937.225 787.7 939.825C786.1 941.125 788.2 943.325 789.7 942.025Z" fill="#161616"/>
<path d="M802 926.425C805 926.525 807.9 927.125 810.7 928.325C812.4 929.125 814 926.525 812.2 925.725C808.9 924.225 805.6 923.425 802 923.325C800.1 923.425 800.1 926.425 802 926.425Z" fill="#161616"/>
<path d="M785.6 922.925C787.9 923.525 789.9 924.725 791.5 926.525C792.8 927.925 794.9 925.825 793.6 924.425C791.6 922.325 789.1 920.825 786.3 920.125C784.6 919.525 783.8 922.425 785.6 922.925Z" fill="#161616"/>
<path d="M769.4 935.025C772.5 932.725 775.7 930.625 779 928.625C780.5 927.725 782.1 926.525 783.7 926.025C786.2 925.125 787.7 925.725 790 926.725C790 925.825 790 925.025 790 924.125C786.8 925.525 783.2 925.425 779.9 926.825C776.7 928.125 773.7 931.325 770.4 931.925C770.8 932.825 771.2 933.725 771.6 934.625C777.5 931.725 784.1 931.225 790 928.325C791.7 927.425 790.2 924.925 788.5 925.725C782.6 928.625 776 929.125 770.1 932.025C768.5 932.825 769.7 935.025 771.3 934.725C774.9 934.125 777.8 930.825 781.2 929.525C784.6 928.225 788.3 928.125 791.6 926.725C792.6 926.325 792.6 924.525 791.6 924.125C787.8 922.425 786.1 921.425 782.3 923.425C777.3 926.025 772.6 929.125 768.1 932.425C766.3 933.525 767.8 936.125 769.4 935.025Z" fill="#161616"/>
<path d="M786.5 879.126C789 878.226 791.5 878.326 793.8 879.526C795.5 880.426 797 877.825 795.3 876.925C792.3 875.325 788.9 875.026 785.7 876.226C783.9 876.926 784.7 879.826 786.5 879.126Z" fill="#161616"/>
<path d="M789 889.125C791.1 888.925 793.1 889.425 794.7 890.825C796.2 892.025 798.3 889.925 796.8 888.725C794.6 886.925 791.9 885.925 789 886.125C787.1 886.225 787.1 889.225 789 889.125Z" fill="#161616"/>
<path d="M790.1 901.625C792 901.425 793.8 902.125 794.9 903.725C795.9 905.325 798.5 903.825 797.5 902.225C796 899.725 793.1 898.225 790.2 898.625C789.4 898.725 788.7 899.225 788.7 900.125C788.6 900.825 789.3 901.725 790.1 901.625Z" fill="#161616"/>
<path d="M803 878.425C804.8 877.425 807.1 877.525 808.8 878.925C810.3 880.125 812.4 878.025 810.9 876.825C808.2 874.625 804.6 874.125 801.5 875.825C799.8 876.825 801.3 879.425 803 878.425Z" fill="#161616"/>
<path d="M804.7 897.326C806.3 896.626 808.1 896.925 809.4 898.125C810.8 899.425 813 897.326 811.5 896.026C809.2 893.926 806 893.426 803.1 894.826C801.4 895.526 803 898.126 804.7 897.326Z" fill="#161616"/>
<path d="M805.1 913.325C806.7 912.325 808.7 912.325 810.2 913.525C811.7 914.725 813.8 912.625 812.3 911.425C809.8 909.325 806.3 909.025 803.6 910.825C802 911.825 803.5 914.425 805.1 913.325Z" fill="#161616"/>
<path d="M827.5 791.425C825.5 814.425 823.5 837.425 821.5 860.425" stroke="#161616" stroke-width="6" stroke-miterlimit="10"/>
<path d="M774.7 857.226C791.4 858.426 808.1 859.526 824.8 860.726" stroke="#161616" stroke-width="6" stroke-miterlimit="10"/>
<path d="M824.9 748.825C824.5 760.225 824 771.525 823.6 782.925" stroke="#161616" stroke-width="6" stroke-miterlimit="10"/>
<path d="M827 804.925C836.3 803.225 846.2 810.525 846.9 820.125C847.9 832.125 834.2 834.225 825.2 832.925C823.3 832.625 822.5 835.525 824.4 835.825C835.4 837.425 850.9 834.325 849.9 820.125C849.1 808.425 837.4 799.925 826.2 802.025C824.3 802.325 825.1 805.225 827 804.925Z" fill="#161616"/>
<path d="M824.8 838.225C828.7 839.025 831.8 841.825 832.9 845.625C833.4 847.525 836.3 846.725 835.8 844.825C834.5 840.025 830.6 836.225 825.7 835.325C823.7 835.025 822.9 837.825 824.8 838.225Z" fill="#161616"/>
<path d="M823.3 837.226C825.7 840.726 826.8 844.625 826.4 848.925C826.3 850.825 829.3 850.825 829.4 848.925C829.7 844.225 828.5 839.626 825.8 835.726C824.8 834.126 822.2 835.626 823.3 837.226Z" fill="#161616"/>
<path d="M774 803.525C767.4 799.325 755.3 811.425 753.8 817.325C750.8 829.325 766.2 827.925 772.6 831.925C774.2 832.925 775.7 830.325 774.1 829.325C769.5 826.425 762.7 827.525 758.7 823.925C753.8 819.525 758.3 814.225 761.7 811.125C763.5 809.525 769.6 804.225 772.5 806.025C774.1 807.225 775.7 804.625 774 803.525Z" fill="#161616"/>
<path d="M772.4 830.525C769.8 831.525 767.4 833.025 765.4 835.125C763.9 836.725 762 839.225 763.5 841.425C764.6 843.025 767.2 841.525 766.1 839.925C765.4 838.925 768 836.725 768.7 836.125C770 834.925 771.5 834.025 773.2 833.425C775 832.725 774.3 829.825 772.4 830.525Z" fill="#161616"/>
<path d="M771.2 832.625C769.3 835.625 768.7 839.025 769.4 842.425C769.8 844.325 772.7 843.525 772.3 841.625C771.7 838.925 772.3 836.425 773.8 834.125C774.9 832.525 772.3 831.025 771.2 832.625Z" fill="#161616"/>
<path d="M780.7 801.625C780.2 808.925 780.3 816.325 780.8 823.625C781 825.525 784 825.525 783.8 823.625C783.2 816.325 783.2 808.925 783.7 801.625C783.9 799.725 780.9 799.725 780.7 801.625Z" fill="#161616"/>
<path d="M782.9 802.425C793.5 803.025 804 803.425 814.6 803.625C814.1 803.125 813.6 802.625 813.1 802.125C812.8 809.625 812.5 817.225 812.1 824.725C812 826.625 815 826.625 815.1 824.725C815.4 817.225 815.7 809.625 816.1 802.125C816.1 801.325 815.4 800.625 814.6 800.625C804 800.425 793.5 800.025 782.9 799.425C781 799.325 781 802.325 782.9 802.425Z" fill="#161616"/>
<path d="M781.7 824.925C786.1 826.125 791 825.825 795.4 826.125C800.8 826.425 806.3 826.825 811.7 827.125C813.6 827.225 813.6 824.225 811.7 824.125C806.9 823.825 802.1 823.525 797.3 823.225C792.5 822.925 787.1 823.225 782.4 822.025C780.7 821.525 779.9 824.425 781.7 824.925Z" fill="#161616"/>
<path d="M785.1 840.425C786.9 844.325 790.8 840.925 793.8 842.325C795.2 842.925 794.9 843.825 796.8 843.925C799 844.025 804.4 839.625 805.5 843.725C805.8 844.825 807.2 845.125 808 844.425C809 844.125 810.1 843.825 811.1 843.625C812.3 845.125 814.5 842.925 813.2 841.525C810.9 838.825 808 840.325 805.8 842.325C806.6 842.525 807.5 842.725 808.3 843.025C807.4 839.525 803.7 837.225 800.2 838.825C798.5 839.625 798.3 841.125 795.7 840.125C795.2 839.925 795 839.125 794.5 838.925C793.4 838.525 787.6 839.125 787.6 839.025C786.9 837.125 784.3 838.625 785.1 840.425Z" fill="#161616"/>
<path d="M790.4 761.725C790.6 760.625 791.9 760.325 792.8 760.725C794.1 761.225 794.8 762.725 795.4 763.825C796.2 765.525 798.8 764.025 798 762.325C796.9 760.125 795.2 757.825 792.5 757.525C790.3 757.325 788 758.625 787.6 760.825C787.1 762.825 790 763.625 790.4 761.725Z" fill="#161616"/>
<path d="M808.8 763.125C809 762.125 809.9 761.525 810.9 761.925C812.1 762.325 812.6 763.825 812.8 764.925C813.1 766.825 816 766.025 815.7 764.125C815.3 761.725 813.7 759.225 811.1 758.825C808.8 758.525 806.3 759.925 805.9 762.325C805.6 764.225 808.5 765.025 808.8 763.125Z" fill="#161616"/>
<path d="M791.9 768.025C795.3 774.025 803.4 774.925 807.8 769.525C809 768.025 806.9 765.925 805.7 767.425C802.5 771.325 797 771.025 794.5 766.525C793.6 764.825 791 766.325 791.9 768.025Z" fill="#161616"/>
<path d="M687 224.625C674.4 219.525 666.8 207.325 662.2 195.125C657.3 182.425 655.2 168.625 655.9 155.025C657.1 129.925 667.8 104.525 687.6 88.5252C706.3 73.3252 734 69.0252 754.8 82.8252C776.5 97.2252 780.4 126.925 780.6 150.825C780.8 177.425 774.6 205.325 754.9 224.425C753.5 225.725 755.6 227.925 757 226.525C775.7 208.325 782.8 182.325 783.5 156.925C784.2 132.025 781.2 100.525 760.7 83.4252C741.5 67.4252 713 68.2252 692.5 81.2252C669.8 95.6252 656.4 121.725 653.5 148.025C651.7 164.325 653.7 181.225 659.7 196.625C664.8 209.625 672.9 222.025 686.3 227.425C688 228.225 688.7 225.325 687 224.625Z" fill="#161616"/>
<path d="M685.6 226.525C682.2 231.325 682.9 238.425 687.9 242.025C691.7 244.725 697.3 245.125 701.8 245.725C707.2 246.525 712.7 246.825 718.2 246.825C728 246.725 739.2 246.025 748.3 242.225C754.9 239.425 759.9 232.825 756.4 225.725C755.6 224.025 753 225.525 753.8 227.225C761.3 242.525 725.8 243.825 718.1 243.825C711 243.825 703.9 243.225 697 241.925C693.7 241.325 690 240.725 687.9 237.825C685.8 234.825 686.2 230.925 688.2 228.125C689.3 226.425 686.7 224.925 685.6 226.525Z" fill="#161616"/>
<path d="M688.8 242.725C688.8 247.725 688.9 252.825 689.5 257.825C689.8 260.125 690.3 262.125 692.2 263.525C694.9 265.525 699.4 265.425 702.6 265.725C708 266.125 713.5 266.125 718.9 265.925C724 265.725 729.1 265.325 734.2 264.825C737.2 264.525 740.6 264.625 742.9 262.325C748 257.325 748.1 247.825 746.8 241.525C746.4 239.625 743.5 240.425 743.9 242.325C744.6 245.725 744.8 249.125 744.1 252.625C743.1 257.525 741.7 260.725 736.2 261.725C729.8 262.925 722.6 262.925 716.1 263.025C709.7 263.125 702.5 263.425 696.2 261.925C690.4 260.525 691.9 247.525 691.9 242.725C691.8 240.825 688.8 240.825 688.8 242.725Z" fill="#161616"/>
<path d="M689.8 135.025C701.8 142.525 710.9 153.525 716 166.725C716.7 168.525 719.6 167.725 718.9 165.925C713.5 151.925 704 140.325 691.4 132.425C689.7 131.325 688.2 133.925 689.8 135.025Z" fill="#161616"/>
<path d="M718.4 166.725C724.3 154.325 732.9 143.725 743.9 135.525C745.4 134.425 743.9 131.725 742.4 132.925C731 141.425 722 152.425 715.8 165.225C715 166.925 717.6 168.425 718.4 166.725Z" fill="#161616"/>
<path d="M716 163.225C717.5 183.825 718.2 204.425 717.9 225.025C717.9 226.925 720.9 226.925 720.9 225.025C721.2 204.425 720.5 183.725 719 163.225C718.8 161.225 715.8 161.225 716 163.225Z" fill="#161616"/>
<path d="M598.9 213.625C612.2 209.125 625.4 204.625 638.7 200.125C640.5 199.525 639.7 196.625 637.9 197.225C624.6 201.725 611.4 206.225 598.1 210.725C596.2 211.325 597 214.225 598.9 213.625Z" fill="#161616"/>
<path d="M614.1 193.625C618.7 192.325 623.3 190.925 627.9 189.625C629.7 189.125 629 186.225 627.1 186.725C622.5 188.025 617.9 189.425 613.3 190.725C611.5 191.325 612.2 194.225 614.1 193.625Z" fill="#161616"/>
<path d="M580.8 160.325C598.4 160.125 615.9 160.625 633.4 161.725C635.3 161.825 635.3 158.825 633.4 158.725C615.9 157.625 598.3 157.225 580.8 157.325C578.9 157.325 578.9 160.325 580.8 160.325Z" fill="#161616"/>
<path d="M618 146.725C622.2 147.825 626.5 148.325 630.8 148.425C632.7 148.425 632.7 145.425 630.8 145.425C626.7 145.325 622.7 144.825 618.8 143.825C616.9 143.325 616.1 146.225 618 146.725Z" fill="#161616"/>
<path d="M611.5 53.6248C627.2 67.1248 641.5 81.9248 654.4 98.1248C655.6 99.6248 657.7 97.5248 656.5 96.0248C643.6 79.8248 629.3 64.9248 613.6 51.5248C612.2 50.2248 610 52.3248 611.5 53.6248Z" fill="#161616"/>
<path d="M655.4 82.0251C658.1 84.8251 660.7 87.6251 663.4 90.5251C664.7 91.9251 666.8 89.8251 665.5 88.4251C662.8 85.6251 660.2 82.8251 657.5 79.9251C656.2 78.5251 654.1 80.6251 655.4 82.0251Z" fill="#161616"/>
<path d="M594.5 87.6252C599.4 90.5252 604.4 93.2252 609.5 95.7252C611.2 96.6252 612.7 94.0252 611 93.1252C605.9 90.5252 600.9 87.8252 596 85.0252C594.3 84.0252 592.8 86.6252 594.5 87.6252Z" fill="#161616"/>
<path d="M768.5 64.825C783.3 50.025 798.1 35.225 812.9 20.425C814.3 19.025 812.1 16.925 810.8 18.325C796 33.125 781.2 47.925 766.4 62.725C765 64.125 767.1 66.225 768.5 64.825Z" fill="#161616"/>
<path d="M783.4 71.7249C787.2 68.9249 791 66.2249 794.8 63.4249C796.3 62.3249 794.9 59.7249 793.3 60.8249C789.5 63.6249 785.7 66.3249 781.9 69.1249C780.3 70.2249 781.8 72.8249 783.4 71.7249Z" fill="#161616"/>
<path d="M722.3 45.225C725.3 30.725 727.6 16.125 729 1.425C729.2 -0.475 726.2 -0.475 726 1.425C724.6 15.825 722.4 30.225 719.4 44.425C719 46.325 721.9 47.125 722.3 45.225Z" fill="#161616"/>
<path d="M806.4 137.225C833.6 134.725 860.7 132.225 887.9 129.725C889.8 129.525 889.8 126.525 887.9 126.725C860.7 129.225 833.6 131.725 806.4 134.225C804.5 134.325 804.4 137.325 806.4 137.225Z" fill="#161616"/>
<path d="M692.1 230.125C709 233.825 726.2 233.725 743 229.925C744.9 229.525 744.1 226.625 742.2 227.025C725.9 230.725 709.2 230.825 692.9 227.225C691 226.825 690.2 229.725 692.1 230.125Z" fill="#161616"/>
<path d="M694.6 255.525C707.5 257.225 720.4 257.625 733.4 256.725C735.3 256.625 735.3 253.625 733.4 253.725C720.4 254.625 707.5 254.225 694.6 252.525C692.7 252.325 692.7 255.325 694.6 255.525Z" fill="#161616"/>
<path d="M787.5 220.025C807.8 234.325 828.5 248.125 849.5 261.425C851.1 262.425 852.6 259.825 851 258.825C830 245.525 809.3 231.725 789 217.425C787.4 216.325 785.9 218.925 787.5 220.025Z" fill="#161616"/>
<path d="M532 923.425C513 946.725 494.1 969.925 475.1 993.225C497.4 1071.63 510 1092.23 517.5 1091.13C522.9 1090.33 525.5 1078.63 528.4 1065.53C535.6 1032.83 531.3 1004.73 526.9 987.225C538.9 973.825 550.8 960.325 562.8 946.925C552.5 939.125 542.3 931.325 532 923.425Z" fill="#161616" stroke="#161616" stroke-width="2" stroke-miterlimit="10"/>
<path d="M461.9 803.425C473.8 812.625 485.2 809.325 508.8 813.325C528.9 816.725 551.5 824.225 575.5 839.225C549.9 869.225 524.3 900.925 498.9 934.325C492.8 942.425 486.7 950.525 480.8 958.625C490.6 960.925 502.4 964.525 515.2 970.325C527.7 975.925 537.9 982.225 546 987.925C584.1 954.725 618.1 922.625 648.4 892.325C662.4 878.325 682.2 856.925 685.3 826.625C685.5 824.925 685.5 823.425 685.5 821.925C684.8 771.625 621.5 735.225 583 721.825C540.9 707.225 468.5 699.325 448.3 734.225C436.4 754.825 443.4 789.125 461.9 803.425Z" fill="#EC615B"/>
<path opacity="0.26" d="M535.8 753.125C535.1 762.625 533.4 773.925 529.9 786.425C527.4 795.325 524.4 803.225 521.4 809.925C518.1 811.225 514.9 812.525 511.6 813.825C533.1 822.325 554.7 830.825 576.2 839.325C560.2 857.625 544.1 876.825 527.9 896.825C511.2 917.425 495.3 937.625 480.2 957.525C490.9 961.025 501.5 964.525 512.2 967.925C550.5 925.725 588.8 883.425 627.1 841.225C631.1 829.725 630.9 820.725 629.7 814.425C624.2 783.625 586.5 758.525 535.8 753.125Z" fill="#6D6C6C"/>
<path opacity="0.23" d="M576 839.125C579.5 844.425 582.9 849.825 586.4 855.125C556.6 891.025 526.8 926.825 497 962.725C491.7 961.325 486.3 959.825 481 958.425C500.1 932.225 520.7 905.325 543 878.225C554.1 864.725 565.1 851.725 576 839.125Z" fill="#6D6C6C"/>
<path d="M476.5 885.425C506 890.825 535.6 896.125 565.1 901.525C599.2 975.925 603 999.925 596.6 1004.03C592 1006.93 582.4 999.725 571.7 991.625C544.9 971.325 530 947.125 521.9 930.825C504.1 928.425 486.3 925.925 468.5 923.525C471.1 910.825 473.8 898.125 476.5 885.425Z" fill="#161616" stroke="#161616" stroke-width="2" stroke-miterlimit="10"/>
<path d="M415.7 719.725C361.9 735.525 329.1 768.325 308 789.925C279.5 819.225 244.5 855.125 254.6 881.625C259.8 895.125 275.6 903.425 349.2 916.225C404.8 925.925 453 931.125 490.6 934.025C495.3 916.825 500 899.725 504.6 882.525C466.8 870.325 429.1 858.225 391.3 846.025C414.5 841.125 438.9 835.325 464.3 828.225C483.6 822.825 502 817.225 519.5 811.325C535.7 778.625 539.2 743.325 522.3 723.325C498.7 695.325 445.8 710.825 415.7 719.725Z" fill="#EC615B"/>
<path opacity="0.29" d="M535.4 754.325C534.9 764.225 533.2 776.925 528.6 790.925C525.8 799.425 522.6 806.825 519.4 812.925C516.7 813.125 514 813.425 511.3 813.625C488.5 821.125 464.2 828.225 438.5 834.825C421.9 839.125 405.7 842.825 390 846.225C427.9 858.125 465.8 869.925 503.7 881.825C502.9 885.925 501.9 890.225 500.7 894.725C499.3 899.925 497.7 904.725 496.2 909.125C443.9 896.225 391.6 883.325 339.3 870.425C336.9 867.525 329 857.025 330.2 843.125C331.5 828.025 345.9 817.325 364.3 807.525C417.5 779.325 506.7 760.225 535.4 754.325Z" fill="#6D6C6C"/>
<path opacity="0.24" d="M363.1 848.325C372.6 847.625 382.2 846.925 391.7 846.125C429 858.525 466.3 871.025 503.6 883.425C502 889.325 500.4 895.325 498.8 901.225C453.6 883.525 408.3 865.925 363.1 848.325Z" fill="#6D6C6C"/>
<path d="M401.6 493.125C416.4 484.425 442.1 472.025 476.3 468.425C528.7 462.925 568.9 481.725 584.8 490.225C581.9 529.525 577.4 560.925 573.8 582.525C569.5 608.325 566 622.625 564.4 646.325C562.4 676.025 564.9 700.425 567.2 716.425C549.8 721.825 523.5 727.725 491.1 727.025C459.9 726.325 434.7 719.525 417.8 713.625C422.3 677.825 420.8 649.425 418.6 630.125C416.1 608.625 412.7 598.125 408.6 572.125C403.3 538.525 401.9 511.025 401.6 493.125Z" fill="white" stroke="#161616" stroke-width="2" stroke-miterlimit="10"/>
<path opacity="0.14" d="M509.8 480.325C511.9 487.925 514.3 498.425 515.9 511.025C517 519.525 521.5 558.025 507.5 608.825C498.9 640.125 489.8 673.225 460 700.425C450.4 709.225 441.1 715.125 434.3 718.825C449.4 722.725 469.1 726.425 492.4 726.625C522.9 726.925 548.1 721.425 565.6 716.025C564.6 708.525 563.3 697.225 562.8 683.625C562.4 671.725 562.4 652.725 570.6 599.225C577.1 557.125 581.7 539.025 584 500.925C584.3 496.525 584.4 492.825 584.6 490.325C577.3 486.025 567.8 481.325 556.1 477.525C545.3 474.025 535.6 472.225 527.6 471.425C521.8 474.325 515.8 477.325 509.8 480.325Z" fill="#6D6C6C"/>
<path opacity="0.17" d="M581.7 506.625C576.1 538.325 568.7 563.925 562.9 581.725C545.9 633.725 534 668.725 501.9 694.325C482 710.225 461.3 716.925 448 720.125C461.5 723.925 480.6 727.625 503.7 727.125C530.3 726.525 551.8 720.525 565.9 715.425C564 703.225 561.8 684.925 562.4 662.625C563.1 633.725 567.8 616.325 573 584.625C575.9 566.025 579.6 539.425 581.7 506.625Z" fill="#6D6C6C"/>
<path d="M401 492.625C388 501.625 371.3 515.825 356.7 536.925C323.8 584.725 324.7 635.425 326 654.125C332 670.225 342.3 691.325 360.3 712.025C370.8 724.125 386.2 741.525 412.5 752.725C421.3 756.525 429 758.625 434.6 759.825C439.4 755.525 444.1 751.225 448.9 746.925C433.5 728.925 418 710.025 402.5 690.525C390.6 675.625 379.2 660.825 368.2 646.225C368.6 633.925 371.2 611.625 384.6 588.325C392.2 575.125 401.1 565.525 408.2 559.025C405.8 536.925 403.4 514.825 401 492.625Z" fill="white" stroke="#161616" stroke-width="2" stroke-miterlimit="10"/>
<path opacity="0.13" d="M402.9 514.925C374.1 547.425 360.4 578.225 353.6 597.625C341.7 631.225 344.2 648.825 346 657.225C347.5 663.825 350.8 675.125 362.9 692.325C373.4 707.225 395.5 733.925 437.6 755.925C441.3 752.325 445 748.825 448.7 745.225C436.8 731.825 424.8 717.725 412.7 703.025C396.8 683.725 382 664.725 368.3 646.125C368.7 636.025 370.4 621.925 376.3 606.125C385.2 582.425 399.2 566.825 407.9 558.525C406.1 544.025 404.5 529.525 402.9 514.925Z" fill="#6D6C6C"/>
<path opacity="0.16" d="M368.2 647.425C370 659.125 373.7 674.025 381.5 690.125C398.7 725.125 425.6 744.425 439.3 752.825C442 750.425 444.6 748.125 447.3 745.725C420.9 712.925 394.6 680.125 368.2 647.425Z" fill="#6D6C6C"/>
<path d="M586.3 490.825C600.9 499.725 619.7 513.625 636 534.325C673 581.225 671.9 631.025 670.5 649.425C663.7 665.225 652.2 685.925 632 706.325C620.2 718.125 602.9 735.225 573.4 746.325C563.5 750.025 554.8 752.125 548.5 753.325C543.2 749.125 537.8 744.925 532.5 740.725C549.7 723.025 567.2 704.525 584.6 685.325C597.9 670.625 610.7 656.125 623.1 641.825C622.6 629.825 619.8 607.925 604.7 584.925C596.1 571.925 586.2 562.525 578.2 556.125C581 534.325 583.7 512.625 586.3 490.825Z" fill="white" stroke="#161616" stroke-width="2" stroke-miterlimit="10"/>
<path opacity="0.16" d="M585.6 515.125C598.3 528.425 615.6 549.725 629.1 579.425C635.5 593.525 645.9 616.425 646.1 638.025C646.8 703.725 553.8 748.925 548.4 751.525C543.1 748.125 537.9 744.825 532.6 741.425C562.7 708.425 592.7 675.425 622.8 642.425C622.2 631.625 619.7 611.525 607.7 590.125C597.8 572.525 585.5 561.125 577.4 554.825C580.2 541.625 582.9 528.425 585.6 515.125Z" fill="#6D6C6C"/>
<path opacity="0.12" d="M623.8 642.725C622.3 651.425 619.8 660.925 615.9 670.725C598.3 715.125 562.7 739.425 544.7 749.825C540.4 747.025 536.2 744.225 531.9 741.425C562.5 708.525 593.1 675.625 623.8 642.725Z" fill="#6D6C6C"/>
<path d="M609.3 650.125H363.4V805.825H609.3V650.125Z" fill="white" stroke="#161616" stroke-width="2" stroke-miterlimit="10"/>
<path d="M482.8 742.825C469.8 744.425 463.5 728.625 466.9 718.125C470.2 707.725 482.5 702.825 492.5 706.425C502.4 710.025 507.2 722.125 503.7 731.825C499.8 742.625 486.2 747.025 476.2 742.225C474.5 741.425 472.9 744.025 474.7 744.825C483.6 749.125 494.5 747.525 501.6 740.525C508.5 733.625 509.5 722.725 505.2 714.225C495.4 694.825 465.1 701.025 463 722.325C461.9 733.725 470.1 747.425 482.8 745.925C484.7 745.625 484.7 742.625 482.8 742.825Z" fill="#161616"/>
<path opacity="0.14" d="M455.7 649.725C489 661.325 511.7 691.025 512.4 722.925C513.3 762.925 479.7 800.525 433.9 804.325C492.2 804.825 550.5 805.325 608.9 805.825C608.7 753.625 608.6 701.425 608.4 649.325C557.5 649.325 506.6 649.525 455.7 649.725Z" fill="#6D6C6C"/>
<path opacity="0.26" d="M608.9 649.225C608 681.025 601.7 705.825 596.4 722.125C588.6 745.825 583 763.125 566.9 778.425C545 799.425 517.7 803.325 505.7 804.325C539.8 804.625 573.9 804.925 608 805.325C608.1 775.625 608.3 745.925 608.5 716.125C608.5 693.825 608.7 671.525 608.9 649.225Z" fill="#6D6C6C"/>
<path d="M479.1 412.425C473.6 419.125 478.9 427.325 477.9 449.225C477.4 460.125 475.6 468.925 474.2 474.825C478.9 477.025 487.2 480.125 497.9 480.425C511.1 480.725 521.1 476.625 526 474.225C523.8 469.825 520.9 463.025 519.1 454.225C514.6 431.825 522.6 421.325 516 413.025C508.3 403.425 486.5 403.325 479.1 412.425Z" fill="white" stroke="#161616" stroke-width="2" stroke-miterlimit="10"/>
<path d="M444.2 316.225C437.9 332.425 440.3 347.025 441.7 353.325C441.1 353.425 429.4 355.925 426.2 364.925C423 374.025 429.6 386.925 443.4 391.125C448.4 403.325 460.5 426.925 486 439.825C490.3 441.925 494.4 443.625 498.5 444.825C502.2 443.425 507.2 441.225 512.9 437.925C530.7 427.625 540.6 414.825 542.9 411.725C547.1 406.125 552.8 397.125 556.8 384.725C559 385.125 562.9 385.325 566.7 383.425C575.3 379.025 579.6 365.325 573.6 356.425C568.6 349.025 558.9 348.725 557.7 348.725C559 343.525 563 324.825 552.9 306.325C541.3 285.025 516.4 273.825 493 277.025C458.4 281.525 444.8 314.625 444.2 316.225Z" fill="white" stroke="#161616" stroke-width="2" stroke-miterlimit="10"/>
<path d="M477.8 438.926C483.9 442.526 490.6 448.126 498.1 447.526C504.3 447.026 511.2 443.425 515.9 439.625C517.4 438.425 515.3 436.326 513.8 437.526C509.4 441.026 502.3 444.725 496.5 444.625C490.4 444.525 484.2 439.426 479.2 436.326C477.7 435.326 476.2 437.926 477.8 438.926Z" fill="#161616"/>
<path d="M477.4 440.225C483.1 445.125 489.6 450.625 497.6 450.225C505.4 449.825 512.7 444.625 517.8 439.025C519.1 437.625 517 435.525 515.7 436.925C511.3 441.725 505.1 446.425 498.3 447.125C490.8 447.825 484.8 442.725 479.5 438.125C478.1 436.825 476 438.925 477.4 440.225Z" fill="#161616"/>
<path d="M481.2 440.825C481.2 440.725 481.2 440.725 481.2 440.825C480.6 439.925 479.5 439.725 478.8 440.425C478.8 440.425 478.8 440.425 478.7 440.525C478.1 441.025 478.1 442.125 478.7 442.625C489.7 453.125 509.9 456.525 517.8 440.425C518.6 438.725 516.1 437.125 515.2 438.925C508.2 453.325 490.5 449.825 480.9 440.525C480.9 441.225 480.9 441.925 480.9 442.625C480.9 442.625 480.9 442.625 481 442.525C480.2 442.425 479.4 442.325 478.6 442.225V442.325C479.6 443.925 482.2 442.425 481.2 440.825Z" fill="#161616"/>
<path d="M493.2 348.325C491.9 364.525 492.6 380.625 495.2 396.625C495.3 397.425 496.3 397.925 497 397.625C500.9 396.325 503.7 394.025 505.8 390.525C506.8 388.825 504.2 387.325 503.2 389.025C501.5 391.925 499.4 393.625 496.2 394.725C496.8 395.025 497.4 395.425 498 395.725C495.4 380.025 494.8 364.125 496.1 348.225C496.4 346.325 493.4 346.325 493.2 348.325Z" fill="#161616"/>
<path d="M475.4 364.225C475.6 365.125 477.1 370.725 475.4 371.625C473.7 372.525 468.9 368.925 467.4 364.225C466.2 360.225 467.2 355.225 469.1 354.825C471.1 354.325 474.2 359.825 475.4 364.225Z" fill="#161616" stroke="#161616" stroke-miterlimit="10"/>
<path d="M527 364.225C527.2 365.125 528.7 370.725 527 371.625C525.3 372.525 520.5 368.925 519 364.225C517.8 360.225 518.8 355.225 520.7 354.825C522.7 354.325 525.8 359.825 527 364.225Z" fill="#161616" stroke="#161616" stroke-miterlimit="10"/>
<path d="M489.6 409.825C501.8 415.025 512.9 407.725 521.9 399.825C523.4 398.525 521.2 396.425 519.8 397.725C512 404.525 502 411.825 491.2 407.225C489.3 406.525 487.8 409.125 489.6 409.825Z" fill="#161616"/>
<path d="M524.8 380.125C526.7 380.125 526.7 377.125 524.8 377.125C522.9 377.125 522.9 380.125 524.8 380.125Z" fill="#161616"/>
<path d="M535.9 374.525C536 374.425 536.1 374.325 536.2 374.225C536.8 373.625 536.8 372.725 536.2 372.125C535.6 371.525 534.7 371.525 534.1 372.125C534 372.225 533.9 372.325 533.8 372.425C533.2 373.025 533.2 373.925 533.8 374.525C534.4 375.125 535.3 375.125 535.9 374.525Z" fill="#161616"/>
<path d="M532.6 381.825C532.7 381.825 532.8 381.825 532.9 381.825C533.7 381.825 534.4 381.125 534.4 380.325C534.4 379.525 533.7 378.825 532.9 378.825C532.8 378.825 532.7 378.825 532.6 378.825C531.8 378.825 531.1 379.525 531.1 380.325C531.1 381.125 531.7 381.825 532.6 381.825Z" fill="#161616"/>
<path d="M463.6 346.325C467.4 343.125 473 343.025 476.8 346.125C478.3 347.325 480.4 345.225 478.9 344.025C473.7 339.825 466.5 339.825 461.4 344.225C460 345.425 462.2 347.525 463.6 346.325Z" fill="#161616"/>
<path d="M512.4 345.225C516.7 341.425 522.8 340.725 527.9 343.425C529.6 344.325 531.1 341.725 529.4 340.825C523.1 337.425 515.6 338.325 510.3 343.125C508.8 344.425 510.9 346.525 512.4 345.225Z" fill="#161616"/>
<path d="M464.4 379.825C466.3 379.825 466.3 376.825 464.4 376.825C462.5 376.825 462.5 379.825 464.4 379.825Z" fill="#161616"/>
<path d="M475 378.425C476.9 378.425 476.9 375.425 475 375.425C473.1 375.425 473.1 378.425 475 378.425Z" fill="#161616"/>
<path d="M469.7 380.725C469.6 380.825 469.5 380.925 469.4 381.025C468.8 381.625 468.8 382.525 469.4 383.125C470 383.725 470.9 383.725 471.5 383.125C471.6 383.025 471.7 382.925 471.8 382.825C472.4 382.225 472.4 381.325 471.8 380.725C471.2 380.125 470.3 380.125 469.7 380.725Z" fill="#161616"/>
<path d="M460.5 283.725C454.5 287.425 441.4 295.525 432.5 312.125C423.6 328.625 423.7 344.225 424.1 350.925C409.5 377.225 402.9 400.425 399.7 416.225C394.5 441.325 397.3 450.525 400.9 456.625C409.7 471.625 427.4 475.325 431.7 476.225C453.8 480.925 471.4 469.625 475.4 467.025C476.5 463.725 477.6 459.625 478.2 455.025C479.3 447.125 478.7 440.325 477.8 435.425C472.8 431.325 467 425.825 461.4 418.625C452.9 407.625 448.1 396.825 445.4 389.025C436.6 388.125 430 382.125 429.4 375.425C428.8 369.125 433.2 361.025 439 361.025C443.3 361.025 446.4 365.425 447 366.225C450.3 364.325 454.9 361.025 459 355.825C464.9 348.325 465.9 341.625 468.6 334.625C471.2 327.825 476.2 318.425 487 308.625C497.4 312.325 505.7 315.925 511.4 318.625C529.7 327.125 540.1 332.125 548.2 343.025C552.7 349.025 555 354.925 556.2 358.625C565.5 351.525 569.3 353.425 570.1 353.825C576 357.125 575.8 375.225 566.6 380.225C563.1 382.125 559.1 381.625 556.6 381.025C553.7 391.125 547.3 407.625 532.6 422.225C527.7 427.125 522.7 430.925 518.2 433.825C517.8 437.525 517.6 442.625 518.6 448.625C519.5 454.125 521.1 458.625 522.6 461.825C546.9 477.825 577.1 474.925 593.5 457.725C608.1 442.325 608.1 419.025 602.6 403.125C597.6 388.625 587.9 379.925 583.1 376.125C584.4 370.525 591.6 337.325 570.7 306.825C565.3 298.925 550.2 279.825 523 273.225C494.2 266.225 470.5 277.625 460.5 283.725Z" fill="#0495C1"/>
<path opacity="0.17" d="M523.9 324.825C535.2 339.025 538.2 352.125 539.2 358.925C543.3 387.525 526.7 410.725 518.3 422.625C511.4 432.325 504.3 439.225 499.2 443.725C503.6 455.525 507.9 467.225 512.3 479.025C516.8 477.525 521.3 476.025 525.8 474.525C523.7 470.825 521.5 466.225 519.8 460.625C516.7 450.625 516.5 441.825 516.8 435.825C522.3 431.925 528.7 426.625 534.9 419.625C547.3 405.625 553.5 391.225 556.7 381.525C558.7 381.925 563 382.425 567.1 380.125C575.7 375.225 574.3 363.025 574.2 362.225C573.9 359.625 573.3 355.425 570.3 353.725C566.8 351.825 561 353.625 556.4 359.025C555 354.125 551 342.825 540.2 333.825C534.2 328.825 528.1 326.225 523.9 324.825Z" fill="#6D6C6C"/>
<path opacity="0.19" d="M494.6 349.225C494 349.125 492 357.825 485.9 396.225C489.4 396.225 492.9 396.225 496.4 396.225C495.7 391.125 494.9 383.725 494.5 374.725C494 359.325 495.2 349.325 494.6 349.225Z" fill="#6D6C6C"/>
<path opacity="0.54" d="M582.5 377.125C580.8 378.125 587.2 386.725 586.3 399.525C586 403.525 585.4 412.625 578.2 418.725C577.7 419.125 567 427.925 556.4 422.325C550.1 419.025 546.3 412.025 546.5 404.425C543.5 410.025 538.6 417.425 530.9 424.625C526.1 429.125 521.4 432.425 517.3 434.925C517 439.325 517 445.325 518.6 452.125C519.5 455.825 520.6 459.025 521.7 461.625C524.8 463.625 529.4 466.325 535.4 468.425C539.2 469.725 560.1 477.025 580.5 466.925C584.1 465.125 592.1 461.025 597.9 452.225C598.6 451.125 601.2 447.225 603.1 440.625C609.9 418.025 599.9 397.625 599 395.925C593.5 384.825 584.6 375.925 582.5 377.125Z" fill="#341999"/>
<path opacity="0.35" d="M445.3 389.425C444.4 389.525 446.4 397.725 444.2 405.825C442.6 411.825 437.5 421.625 428.8 423.625C419.7 425.625 408.4 418.925 403.2 406.425C400.8 411.925 397.6 420.725 397.1 431.925C396.8 439.225 396.4 447.025 400 454.725C408.1 471.925 431.9 478.625 449.6 477.025C461.4 475.925 470.3 471.325 475.1 468.225C476.3 464.825 477.5 460.725 478.3 456.025C479.6 447.925 479.3 440.825 478.6 435.625C470.7 429.925 465.3 424.025 461.9 419.725C457.1 413.625 450.6 405.425 447.3 394.025C446.8 392.725 445.9 389.325 445.3 389.425Z" fill="#341999"/>
</svg>
