<svg width="792" height="818" viewBox="0 0 792 818" fill="none" xmlns="http://www.w3.org/2000/svg">
<path d="M22.8491 270.11L24.1876 220.896C9.82302 197.495 27.297 166.735 27.297 166.735C27.1459 162.193 31.6876 155.339 38.1668 154.818C39.1564 154.792 40.1407 154.886 41.1147 155.099C42.0834 155.308 43.0157 155.636 43.9116 156.068C44.8022 156.506 45.6355 157.042 46.4011 157.678C47.1668 158.313 47.8439 159.027 48.4376 159.829H48.6043C48.7136 158.282 49.7761 147.985 56.8647 147.521C64.5157 147.037 68.0314 154.146 68.0314 154.146C68.0314 154.146 68.2709 144.376 78.172 144.24C81.8959 144.24 85.6147 150.292 88.1668 158.094H88.9636C88.1459 140.761 81.5209 98.9068 99.7605 107.282C117.995 115.662 118.365 234.433 118.365 234.433L22.8491 270.11Z" fill="#EBB38B"/>
<path d="M790.859 559.208C783.193 628.104 721.078 639.271 713.802 640.412H713.094L316.047 557.182L303.76 563.583C234.818 598.089 163.062 571.964 119.26 517.037C76.0521 462.708 0 283.011 0 283.011C29.7708 254.115 121.141 212.615 121.141 212.615C150.021 245.719 218.964 392.568 218.964 392.568C262.396 353.151 329.646 319.172 374.328 299.099C401.531 286.886 420.365 279.807 420.365 279.807L522.281 267.948C553.339 274.948 585.307 291 615.901 312.391C713.578 380.672 797.073 503.485 790.859 559.208Z" fill="#00C2CB"/>
<path d="M744.151 782.662C575.542 853.303 276.073 793.589 276.073 793.589C272.745 730.287 299.146 624.396 308.063 564.386C328.177 428.464 367.943 316.511 374.328 299.042C387.354 293.214 398.516 288.542 406.479 285.245L415.339 294.74C415.339 294.74 410.016 311.073 412.156 311.073C414.297 311.073 433.073 305.745 433.073 305.745L480.635 345.855L512.568 305.745C512.568 305.745 524.255 311.11 526.708 309.323C529.167 307.532 520.479 286.735 520.479 286.735L539.922 272.735C565.344 281.073 591.078 294.891 615.901 312.261C649.583 375.214 687.88 526.386 713.839 640.334C732.073 720.698 744.151 782.662 744.151 782.662Z" fill="#58A268"/>
<path d="M340.833 295.432L357.729 285.953C357.729 285.953 427.995 342.109 419.245 365.104C419.245 365.104 426.021 334.661 528.776 379.312L526.078 407.052L408.438 393.516L340.833 295.432Z" fill="#00C2CB"/>
<path d="M406.833 348.011C406.5 348.011 406.182 347.922 405.896 347.751C405.604 347.574 405.38 347.339 405.219 347.042C390.146 319.542 355.141 294.219 354.786 293.959C354.578 293.818 354.401 293.646 354.26 293.433C354.12 293.219 354.031 292.99 353.984 292.74C353.937 292.49 353.943 292.245 354 291.995C354.057 291.751 354.156 291.521 354.307 291.318C354.453 291.11 354.635 290.943 354.854 290.813C355.073 290.683 355.302 290.6 355.557 290.563C355.807 290.527 356.052 290.542 356.297 290.61C356.542 290.678 356.766 290.787 356.963 290.943C358.417 291.985 393.01 317.011 408.474 345.256C408.552 345.396 408.609 345.547 408.646 345.704C408.687 345.86 408.703 346.021 408.703 346.183C408.698 346.344 408.672 346.506 408.63 346.662C408.583 346.813 408.521 346.964 408.437 347.1C408.359 347.24 408.26 347.365 408.141 347.48C408.026 347.594 407.901 347.688 407.76 347.771C407.62 347.85 407.469 347.912 407.312 347.954C407.156 347.99 406.995 348.011 406.833 348.011ZM405.271 357.079C405.495 356.975 405.693 356.829 405.859 356.641C406.021 356.459 406.146 356.251 406.229 356.016C406.312 355.782 406.344 355.537 406.328 355.292C406.318 355.042 406.255 354.808 406.146 354.584C399.151 339.969 370.792 313.865 369.672 312.766C369.495 312.6 369.286 312.469 369.052 312.381C368.823 312.297 368.583 312.256 368.333 312.266C368.088 312.277 367.849 312.334 367.625 312.438C367.401 312.542 367.203 312.683 367.036 312.865C366.87 313.047 366.739 313.256 366.656 313.485C366.573 313.719 366.531 313.959 366.542 314.204C366.552 314.454 366.609 314.688 366.713 314.912C366.818 315.141 366.963 315.334 367.146 315.501C367.443 315.766 396.114 342.219 402.776 356.188C402.932 356.511 403.167 356.771 403.469 356.964C403.776 357.157 404.109 357.251 404.474 357.245C404.75 357.245 405.016 357.188 405.271 357.079ZM518.578 381.172C518.682 380.949 518.739 380.709 518.75 380.464C518.755 380.214 518.719 379.975 518.63 379.74C518.542 379.511 518.411 379.303 518.245 379.12C518.073 378.938 517.875 378.797 517.651 378.699C460.932 353.188 430.989 361.792 429.745 362.162C429.521 362.245 429.323 362.365 429.146 362.527C428.969 362.683 428.828 362.87 428.724 363.084C428.62 363.292 428.557 363.516 428.536 363.756C428.521 363.99 428.542 364.219 428.614 364.449C428.682 364.678 428.786 364.881 428.937 365.068C429.083 365.251 429.26 365.402 429.463 365.521C429.672 365.641 429.891 365.714 430.125 365.751C430.359 365.782 430.588 365.771 430.823 365.719C431.12 365.719 460.854 357.23 516.125 382.105C516.364 382.214 516.62 382.271 516.885 382.271C517.25 382.271 517.588 382.172 517.896 381.975C518.203 381.771 518.427 381.506 518.578 381.172ZM510.745 386.761C510.875 386.553 510.963 386.324 511.005 386.079C511.047 385.839 511.042 385.594 510.989 385.355C510.932 385.115 510.838 384.891 510.693 384.688C510.552 384.49 510.375 384.324 510.167 384.188C488.859 370.652 452.479 368.214 450.88 368.12C450.635 368.105 450.396 368.136 450.161 368.214C449.927 368.297 449.713 368.417 449.531 368.579C449.344 368.745 449.198 368.938 449.088 369.157C448.979 369.381 448.917 369.615 448.901 369.86C448.885 370.11 448.917 370.35 448.995 370.584C449.073 370.818 449.198 371.027 449.359 371.214C449.521 371.402 449.713 371.547 449.937 371.657C450.156 371.766 450.391 371.829 450.641 371.844C451.01 371.844 487.672 374.324 508.177 387.355C508.385 387.485 508.609 387.574 508.854 387.615C509.099 387.657 509.338 387.652 509.578 387.6C509.823 387.542 510.042 387.449 510.245 387.303C510.448 387.162 510.614 386.985 510.745 386.777V386.761Z" fill="#58A268"/>
<path d="M538.156 399.365L476.094 554.948L360.146 520.146C334.094 520.703 330.375 493.802 330.375 493.802L255.365 421.391L333.089 282.417L404.344 362.943C417.37 360.282 432.495 372.756 432.495 372.756L538.156 399.365Z" fill="#F76F6F"/>
<path d="M501.443 442.057L435.568 424.109L449.078 395.453L514.969 413.349L501.443 442.057Z" fill="#58A268"/>
<path d="M417.255 386.739C416.99 386.739 416.735 386.682 416.495 386.573L400.844 379.667C400.62 379.562 400.422 379.427 400.255 379.25C400.084 379.073 399.959 378.87 399.87 378.641C399.781 378.411 399.74 378.177 399.74 377.932C399.745 377.687 399.797 377.448 399.896 377.224C399.995 377 400.13 376.797 400.307 376.625C400.485 376.453 400.693 376.323 400.922 376.229C401.151 376.141 401.391 376.094 401.641 376.099C401.886 376.104 402.125 376.156 402.349 376.255L418 383.167C418.224 383.266 418.422 383.406 418.594 383.583C418.766 383.76 418.896 383.969 418.985 384.198C419.073 384.427 419.115 384.667 419.11 384.911C419.104 385.161 419.047 385.396 418.948 385.625C418.802 385.958 418.573 386.229 418.266 386.432C417.964 386.635 417.625 386.739 417.255 386.739ZM332.307 481.547L395.578 371.135C395.714 370.922 395.802 370.693 395.844 370.443C395.886 370.187 395.875 369.943 395.813 369.693C395.755 369.448 395.646 369.224 395.495 369.021C395.344 368.818 395.156 368.651 394.938 368.526C394.719 368.401 394.485 368.318 394.229 368.292C393.979 368.26 393.729 368.281 393.49 368.349C393.245 368.422 393.026 368.536 392.828 368.698C392.63 368.859 392.474 369.052 392.36 369.276L329.089 479.708C328.969 479.922 328.891 480.151 328.86 480.391C328.828 480.635 328.849 480.875 328.912 481.114C328.974 481.349 329.084 481.568 329.235 481.76C329.386 481.958 329.563 482.114 329.776 482.239C330.063 482.406 330.375 482.495 330.709 482.5C331.422 482.489 331.959 482.172 332.307 481.547ZM369.823 503.891L421.834 397.76C421.964 397.542 422.047 397.297 422.078 397.042C422.104 396.786 422.084 396.531 422.011 396.286C421.938 396.036 421.818 395.812 421.646 395.614C421.479 395.422 421.281 395.266 421.047 395.151C420.818 395.036 420.573 394.974 420.313 394.958C420.057 394.948 419.807 394.989 419.563 395.083C419.323 395.172 419.11 395.312 418.927 395.489C418.74 395.672 418.599 395.885 418.505 396.125L366.401 502.161C366.292 502.385 366.229 502.62 366.214 502.864C366.198 503.109 366.229 503.354 366.307 503.588C366.391 503.818 366.511 504.031 366.677 504.213C366.839 504.401 367.031 504.547 367.255 504.656C367.516 504.781 367.787 504.844 368.073 504.844C368.432 504.87 368.766 504.797 369.084 504.63C369.396 504.458 369.646 504.224 369.823 503.911V503.891Z" fill="#58A268"/>
<path d="M542.88 465.48L503.802 557.313C503.802 557.313 414.781 529.85 417.239 513.074C419.583 496.912 451.885 505.923 454.265 506.631C451.495 505.813 409.87 493.412 417.239 480.73C424.604 468.053 462.474 483.318 464.969 484.344C462.307 483.245 420.51 465.725 427.901 455.11C433.484 446.954 458.401 454.459 470.791 458.834C460.13 454.48 441.781 445.542 447.719 437.402C455.943 426.12 496.193 446.547 496.193 446.547C496.193 446.547 481.547 422.751 495.896 419.714C510.245 416.678 542.88 465.48 542.88 465.48Z" fill="#EBB38B"/>
<path d="M497.422 593.953C497.422 593.953 496.583 498.995 546.937 453.562L681.479 484.938L713.838 640.5C713.838 640.5 539.516 616.297 497.422 593.953Z" fill="#00C2CB"/>
<path d="M522.057 168.651L522.412 274.557C522.412 274.557 477.583 308.406 420.365 279.771L422.224 251.844C422.224 251.844 354.229 250.094 344.443 168.448C323.412 165.656 313.422 130.052 325.964 121.693C332.38 117.412 338.99 120.688 344.104 125.323C346.62 96.4481 360.167 25.6356 432.719 26.4012C519.323 27.3126 521.854 97.6772 521.891 129.198C527.307 122.943 535.682 116.276 543.813 121.75C557.042 130.521 545.339 169.432 522.057 168.651Z" fill="#EBB38B"/>
<path d="M545.224 135.922C545.135 136.146 545 136.35 544.828 136.527C544.656 136.699 544.453 136.834 544.229 136.933C544 137.027 543.766 137.079 543.521 137.079C543.271 137.079 543.036 137.037 542.807 136.943C533.948 133.219 526.448 150.443 526.375 150.631C526.229 150.969 526 151.24 525.688 151.443C525.375 151.646 525.036 151.745 524.661 151.745C524.406 151.751 524.156 151.699 523.922 151.6C523.693 151.501 523.495 151.36 523.328 151.183C523.156 151.011 523.026 150.808 522.932 150.579C522.844 150.35 522.797 150.11 522.802 149.865C522.807 149.62 522.854 149.386 522.953 149.157C523.323 148.303 531.995 128.454 544.224 133.501C544.448 133.594 544.646 133.73 544.823 133.902C544.995 134.074 545.125 134.277 545.224 134.501C545.318 134.73 545.365 134.964 545.365 135.209C545.365 135.459 545.318 135.693 545.224 135.922ZM520.089 132.922C522.542 151.896 523.677 200.881 478.422 235.162C477.156 236.131 475.875 237.021 474.552 237.99C474.552 237.99 459.943 255.381 422.354 253.073H422.245L422.339 251.787H421.443C421.365 251.808 421.281 251.808 421.203 251.787C420.792 251.787 420.292 251.787 419.693 251.657C418 251.49 415.599 251.157 412.661 250.558L410.651 250.11C409.458 249.834 408.214 249.537 406.927 249.146C382.87 242.422 339.51 218.922 343.661 137.428C343.661 137.428 343.661 132.792 344.219 125.402C335.214 135.006 320.568 142.547 296.672 135.308C296.672 135.308 315 125.865 314.391 107.73C313.776 89.5943 308.807 67.7714 321.146 60.0839C333.479 52.3912 333.427 60.6985 349.708 50.5683C365.99 40.4381 366.865 6.81308 393.589 1.28183C420.307 -4.24421 429.219 9.88599 438.135 9.88599C447.047 9.88599 453.802 -5.47338 487.594 11.7454C521.391 28.9693 522.953 64.011 519.229 72.3183C519.229 72.3183 535.51 99.6673 531.51 121.808C531.531 121.787 526.62 126.87 520.031 132.995L520.089 132.922ZM502.052 148.058C501.682 147.074 495.766 131.303 499.339 123.558C499.339 123.558 481.734 117.672 489.604 91.5683C489.604 91.5683 456.312 94.0475 444.333 77.4381C430.917 58.8183 427.828 93.0787 402.516 93.0787C378.328 93.0787 362.38 97.287 357.99 102.985C356.818 124.657 355.083 203.245 389.62 225.365C390.047 225.646 390.479 225.902 390.932 226.126C391.385 226.355 391.849 226.558 392.323 226.73C392.797 226.907 393.281 227.053 393.771 227.167C394.266 227.287 394.76 227.376 395.266 227.433C395.766 227.495 396.271 227.527 396.776 227.527C397.281 227.527 397.786 227.495 398.286 227.438C398.792 227.381 399.286 227.297 399.781 227.178C400.271 227.063 400.755 226.922 401.234 226.751C401.708 226.573 402.172 226.376 402.625 226.152C403.078 225.922 403.516 225.672 403.938 225.396C404.359 225.12 404.766 224.818 405.156 224.49C405.542 224.167 405.911 223.823 406.26 223.454C406.604 223.089 406.932 222.698 407.234 222.297C407.536 221.891 407.818 221.469 408.068 221.032C408.323 220.594 408.552 220.141 408.75 219.678C408.953 219.214 409.125 218.74 409.271 218.256L424.906 217.49L425.573 219.001C425.896 219.73 426.276 220.422 426.724 221.084C427.172 221.74 427.677 222.355 428.234 222.922C428.797 223.49 429.401 224.001 430.057 224.454C430.708 224.912 431.401 225.303 432.125 225.631C432.849 225.959 433.599 226.219 434.375 226.412C435.146 226.605 435.932 226.725 436.724 226.771C437.521 226.818 438.312 226.792 439.104 226.693C439.896 226.594 440.667 226.428 441.427 226.188C459.797 220.412 494.703 202.297 502 148.136L502.052 148.058ZM393.177 116.964C393.906 117.074 394.573 117.329 395.188 117.735C395.797 118.141 396.297 118.662 396.677 119.292C397.885 121.584 396.396 124.396 394.63 126.277C393.536 127.428 392.339 128.454 391.031 129.35C389.724 130.251 388.339 131.006 386.875 131.61C385.406 132.219 383.896 132.667 382.339 132.959C380.776 133.245 379.203 133.37 377.62 133.334C376.75 133.386 375.906 133.266 375.083 132.98C374.26 132.693 373.521 132.256 372.875 131.672C372.333 130.985 372.005 130.204 371.885 129.334C371.766 128.464 371.87 127.626 372.203 126.813C372.911 125.245 373.948 123.933 375.312 122.886C377.667 120.745 380.339 119.131 383.333 118.047C384.839 117.615 386.37 117.318 387.927 117.152H388.115C389.792 116.818 391.479 116.756 393.177 116.964ZM428.531 116.126C426.917 115.407 425.224 115.027 423.453 114.99C422.094 114.86 420.776 115.047 419.505 115.553C418.984 115.87 418.526 116.261 418.13 116.73C417.734 117.199 417.427 117.719 417.203 118.287C416.979 118.86 416.854 119.449 416.823 120.063C416.797 120.672 416.865 121.271 417.031 121.86C417.786 124.261 419.167 126.225 421.161 127.745C423.927 130.141 427.026 131.954 430.469 133.183C433.109 134.115 436.443 134.521 438.359 132.495C438.958 131.782 439.354 130.975 439.542 130.058C439.734 129.146 439.693 128.245 439.417 127.355C438.839 125.589 437.906 124.032 436.625 122.683C434.406 119.886 431.698 117.704 428.495 116.126H428.531ZM407.526 174.537C407.547 174.292 407.521 174.053 407.453 173.818C407.38 173.584 407.266 173.37 407.115 173.183C406.958 172.99 406.771 172.839 406.557 172.719C406.339 172.605 406.109 172.532 405.87 172.506C404.76 172.365 403.891 171.829 403.26 170.907C398.5 164.725 400.302 144.594 401.401 137.391C401.438 137.146 401.427 136.902 401.365 136.657C401.307 136.417 401.203 136.193 401.052 135.99C400.906 135.792 400.724 135.626 400.51 135.501C400.297 135.37 400.068 135.287 399.818 135.251C399.573 135.214 399.328 135.225 399.089 135.287C398.844 135.344 398.625 135.449 398.422 135.6C398.224 135.745 398.057 135.928 397.927 136.141C397.802 136.355 397.719 136.584 397.682 136.834C397.25 139.641 393.661 164.61 400.266 173.157C400.875 174.006 401.63 174.693 402.531 175.219C403.432 175.745 404.401 176.063 405.438 176.172H405.625C405.859 176.183 406.083 176.146 406.302 176.068C406.521 175.99 406.719 175.876 406.891 175.725C407.068 175.573 407.208 175.391 407.318 175.188C407.427 174.985 407.495 174.766 407.526 174.537ZM421.479 191.292C428.328 187.308 433 179.975 435.401 169.511C435.453 169.266 435.464 169.021 435.422 168.777C435.375 168.532 435.292 168.308 435.156 168.1C435.026 167.886 434.854 167.709 434.651 167.568C434.448 167.428 434.229 167.329 433.984 167.277C433.745 167.219 433.505 167.214 433.266 167.261C433.021 167.303 432.797 167.386 432.589 167.516C432.385 167.646 432.208 167.813 432.068 168.011C431.927 168.214 431.828 168.433 431.771 168.672C429.609 177.98 425.536 184.589 419.656 188.053C417.141 189.428 414.464 190.303 411.62 190.667C408.781 191.032 405.969 190.87 403.188 190.178C402.953 190.105 402.708 190.084 402.464 190.11C402.219 190.136 401.984 190.209 401.771 190.323C401.552 190.443 401.365 190.6 401.208 190.792C401.052 190.98 400.943 191.198 400.87 191.433C400.802 191.672 400.776 191.912 400.802 192.157C400.828 192.402 400.901 192.636 401.021 192.855C401.135 193.068 401.292 193.256 401.484 193.412C401.677 193.568 401.891 193.683 402.125 193.751C404.323 194.329 406.557 194.61 408.828 194.589C413.328 194.605 417.526 193.485 421.422 191.24L421.479 191.292ZM383.089 143.256C382.526 143.256 381.979 143.36 381.458 143.574C380.932 143.787 380.474 144.094 380.068 144.495C379.667 144.891 379.359 145.355 379.141 145.876C378.922 146.396 378.812 146.943 378.812 147.506C378.807 148.074 378.917 148.62 379.13 149.141C379.344 149.667 379.651 150.126 380.052 150.527C380.453 150.928 380.911 151.24 381.432 151.454C381.958 151.672 382.5 151.782 383.068 151.782C383.63 151.782 384.177 151.678 384.698 151.459C385.224 151.245 385.682 150.938 386.083 150.537C386.484 150.136 386.792 149.678 387.01 149.152C387.224 148.631 387.333 148.084 387.333 147.521C387.339 146.949 387.24 146.391 387.021 145.86C386.807 145.329 386.495 144.86 386.094 144.454C385.688 144.047 385.219 143.735 384.693 143.521C384.161 143.303 383.609 143.193 383.036 143.199L383.089 143.256ZM419.115 142.959C418.547 142.949 417.995 143.047 417.464 143.261C416.932 143.475 416.464 143.777 416.057 144.178C415.651 144.579 415.339 145.042 415.115 145.568C414.896 146.094 414.781 146.646 414.781 147.214C414.781 147.787 414.891 148.339 415.109 148.865C415.333 149.391 415.646 149.855 416.052 150.256C416.458 150.657 416.927 150.964 417.453 151.178C417.984 151.391 418.536 151.495 419.104 151.485C419.677 151.475 420.224 151.36 420.75 151.131C421.271 150.902 421.729 150.579 422.125 150.167C422.521 149.756 422.818 149.282 423.021 148.751C423.229 148.214 423.323 147.662 423.302 147.089C423.297 146.532 423.182 145.995 422.964 145.485C422.745 144.969 422.438 144.516 422.042 144.126C421.646 143.735 421.188 143.433 420.672 143.219C420.156 143.006 419.62 142.902 419.062 142.902L419.115 142.959Z" fill="#231F20"/>
<path d="M475.463 152.547C475.463 153.297 475.39 154.037 475.245 154.771C475.099 155.511 474.88 156.224 474.594 156.917C474.307 157.604 473.958 158.266 473.542 158.886C473.125 159.511 472.651 160.089 472.12 160.615C471.594 161.146 471.015 161.62 470.396 162.037C469.771 162.453 469.114 162.802 468.422 163.094C467.729 163.38 467.015 163.594 466.281 163.74C465.547 163.886 464.807 163.958 464.057 163.958C463.307 163.958 462.568 163.886 461.833 163.74C461.094 163.594 460.385 163.38 459.693 163.094C459 162.802 458.344 162.453 457.719 162.037C457.094 161.62 456.521 161.146 455.989 160.615C455.458 160.089 454.989 159.511 454.573 158.886C454.156 158.266 453.802 157.604 453.515 156.917C453.229 156.224 453.015 155.511 452.87 154.771C452.724 154.037 452.651 153.297 452.651 152.547C452.651 151.797 452.724 151.057 452.87 150.318C453.015 149.583 453.229 148.87 453.515 148.177C453.802 147.485 454.156 146.828 454.573 146.203C454.989 145.583 455.458 145.005 455.989 144.474C456.521 143.948 457.094 143.474 457.719 143.057C458.344 142.641 459 142.287 459.693 142C460.385 141.714 461.094 141.5 461.833 141.354C462.568 141.208 463.307 141.13 464.057 141.13C464.807 141.13 465.547 141.208 466.281 141.354C467.015 141.5 467.729 141.714 468.422 142C469.114 142.287 469.771 142.641 470.396 143.057C471.015 143.474 471.594 143.948 472.12 144.474C472.651 145.005 473.125 145.583 473.542 146.203C473.958 146.828 474.307 147.485 474.594 148.177C474.88 148.87 475.099 149.583 475.245 150.318C475.39 151.057 475.463 151.797 475.463 152.547Z" fill="#F76F6F"/>
<path d="M735.458 741.214C694.318 762.178 622.599 785.042 505.667 785.042C485.661 785.042 464.333 784.376 441.594 782.923C386.057 779.344 331.047 771.902 276.557 760.579C276.557 759.35 276.745 758.084 276.838 756.855C331.328 768.235 386.344 775.714 441.896 779.292C527.286 784.782 647.239 782.084 733.765 737.995C734.172 737.798 734.594 737.751 735.031 737.865L735.703 741.12L735.458 741.214ZM508.792 749.204C617.26 749.204 686.818 729.521 729.151 709.933C728.89 708.704 728.614 707.459 728.354 706.209C642.604 746.298 527.625 748.662 445.021 743.355C389.719 739.751 334.943 732.303 280.687 721.011L280.187 724.735C334.51 736.021 389.354 743.469 444.724 747.079C467.463 748.495 488.771 749.204 508.792 749.204ZM510.333 714.907C612.088 714.907 679.578 697.589 722.474 679.287C722.213 678.058 721.932 676.829 721.672 675.563C636.927 712.152 526.62 714.199 446.599 709.058C392.521 705.527 338.932 698.35 285.823 687.537L285.208 691.261C338.417 702.105 392.114 709.292 446.302 712.818C468.932 714.235 490.333 714.98 510.333 714.98V714.907ZM291.833 653.537C342.885 663.574 394.37 670.303 446.286 673.719C469.005 675.188 490.333 675.86 510.333 675.86C606.021 675.86 671.39 660.558 714.547 643.501C714.302 642.438 714.078 641.396 713.838 640.334L713.724 639.85C630.099 673.219 524.104 675.006 446.583 670.016C394.797 666.605 343.443 659.886 292.526 649.87C292.302 651.152 292.151 652.381 291.833 653.537Z" fill="#F76F6F"/>
<path d="M33.8282 199.469C31.224 194.349 26.3855 174.984 25.8073 172.729C25.7396 172.484 25.7188 172.24 25.75 171.99C25.7813 171.734 25.8594 171.5 25.9844 171.281C26.1094 171.063 26.2761 170.875 26.4792 170.724C26.6823 170.573 26.9063 170.469 27.1511 170.406C27.3959 170.344 27.6407 170.333 27.8907 170.375C28.1407 170.417 28.375 170.5 28.5886 170.636C28.8021 170.771 28.9792 170.943 29.125 171.151C29.2709 171.359 29.3698 171.589 29.4167 171.839C30.9271 177.922 35.2813 194.495 37.2553 197.901C37.3125 198.026 37.3542 198.156 37.3855 198.292C37.9219 199.339 40.5105 203.396 46.6875 200.787C52.8646 198.182 50.7448 176.302 47.3178 161.688C47.2657 161.448 47.2553 161.203 47.2969 160.964C47.3386 160.719 47.4219 160.49 47.5573 160.281C47.6875 160.073 47.8542 159.896 48.0521 159.75C48.2553 159.609 48.474 159.511 48.7136 159.453C48.9532 159.396 49.198 159.391 49.4375 159.427C49.6823 159.469 49.9063 159.552 50.1146 159.682C50.323 159.813 50.5 159.974 50.6459 160.177C50.7917 160.375 50.8907 160.594 50.948 160.833C52.3646 167.198 53.3646 173.63 53.9636 180.12C54.2032 182.896 54.3178 185.427 54.3178 187.734C54.4948 187.984 54.6094 188.255 54.6511 188.557C54.6511 188.688 55.3386 194.011 58.7084 196.542C59.5678 197.146 60.5105 197.552 61.5417 197.755C62.573 197.964 63.599 197.948 64.625 197.719C65.599 197.568 66.4948 197.214 67.3073 196.656C68.1198 196.099 68.7709 195.391 69.2605 194.531C74.4323 186.193 69.3334 164.479 66.9896 156.828C66.9063 156.589 66.875 156.344 66.8907 156.094C66.9115 155.844 66.974 155.604 67.0886 155.38C67.2032 155.156 67.3594 154.964 67.5521 154.802C67.7448 154.641 67.9584 154.521 68.198 154.448C68.4428 154.37 68.6875 154.349 68.9375 154.37C69.1875 154.396 69.4219 154.469 69.6459 154.594C69.8646 154.714 70.0521 154.87 70.2084 155.068C70.3646 155.266 70.474 155.49 70.5417 155.729C70.823 156.589 75.3438 171.427 75.198 183.958C75.3334 184.136 75.4375 184.333 75.4948 184.552C75.7813 185.443 76.2032 186.261 76.7709 187C77.3386 187.74 78.0157 188.37 78.7969 188.875C79.5834 189.386 80.4271 189.75 81.3334 189.964C82.2448 190.182 83.1615 190.24 84.0886 190.141C85.1667 189.984 86.1355 189.573 87 188.912C87.8594 188.25 88.5053 187.417 88.9271 186.417C87.5678 177.313 86.8073 165.932 90.25 160.537C90.7292 159.703 91.3594 159.011 92.1407 158.453C92.9167 157.896 93.7761 157.521 94.7136 157.333C107.052 154.948 115.745 176.865 116.099 177.813C116.208 178.047 116.266 178.292 116.276 178.552C116.287 178.813 116.24 179.063 116.146 179.302C116.047 179.542 115.912 179.75 115.724 179.932C115.542 180.115 115.328 180.255 115.089 180.349C114.849 180.443 114.599 180.484 114.339 180.474C114.078 180.464 113.833 180.401 113.599 180.287C113.37 180.172 113.167 180.016 113 179.823C112.833 179.625 112.708 179.401 112.635 179.151C110.479 173.568 103.125 159.511 95.4063 160.979C94.4896 161.193 93.8073 161.708 93.3594 162.526C89.1511 169.063 93.099 190.453 94.974 198.292C95.125 198.927 94.9844 199.484 94.5469 199.969C94.1094 200.458 93.5625 200.656 92.9115 200.568C92.7969 200.568 80.2396 198.964 72.4428 205.557C68.4792 208.891 66.3542 213.839 66.1146 220.266C66.1146 220.511 66.0678 220.75 65.974 220.979C65.8803 221.203 65.7448 221.406 65.5678 221.583C65.3959 221.755 65.1928 221.891 64.9636 221.984C64.7396 222.078 64.5 222.125 64.2553 222.125C64.0053 222.125 63.7709 222.078 63.5417 221.984C63.3125 221.891 63.1146 221.755 62.9375 221.583C62.7657 221.406 62.6303 221.203 62.5365 220.979C62.4375 220.75 62.3907 220.511 62.3907 220.266C62.6719 212.818 65.2605 206.875 70.0573 202.839C76.8907 197.104 86.3021 196.656 90.8073 196.823C90.5105 195.464 90.1355 193.656 89.7657 191.589C88.2813 193.021 86.5105 193.839 84.4636 194.047C84.0053 194.078 83.5469 194.078 83.0834 194.047C81.474 194.068 79.9271 193.755 78.448 193.104C76.9688 192.453 75.6928 191.531 74.6198 190.323C74.2709 192.537 73.5313 194.609 72.4063 196.542C71.6198 197.865 70.5938 198.948 69.3178 199.797C68.0417 200.651 66.6459 201.188 65.1303 201.401C64.3542 201.537 63.573 201.604 62.7813 201.609C60.3959 201.646 58.25 200.943 56.3438 199.505C55.1719 198.599 54.198 197.511 53.4219 196.245C52.474 200.49 50.6719 203.172 47.9896 204.328C46.3178 205.068 44.5678 205.453 42.7448 205.479C41.8021 205.479 40.875 205.344 39.974 205.073C39.0678 204.807 38.224 204.417 37.4323 203.906C36.6407 203.396 35.9375 202.781 35.3178 202.068C34.7032 201.354 34.198 200.568 33.8125 199.708C33.8073 199.63 33.8125 199.547 33.8282 199.469ZM211.484 375.568C211.359 375.354 211.198 375.167 211.005 375.016C210.807 374.865 210.589 374.755 210.349 374.693C210.109 374.625 209.865 374.609 209.62 374.641C209.375 374.672 209.141 374.75 208.927 374.875C208.714 374.995 208.526 375.156 208.375 375.354C208.224 375.547 208.115 375.766 208.047 376.005C207.984 376.245 207.964 376.49 207.995 376.734C208.026 376.984 208.104 377.214 208.229 377.432L227.021 411.484C227.188 411.787 227.411 412.021 227.708 412.193C228 412.37 228.318 412.453 228.661 412.453C228.979 412.453 229.276 412.375 229.552 412.214C229.766 412.094 229.948 411.938 230.099 411.745C230.255 411.552 230.365 411.339 230.432 411.104C230.5 410.87 230.521 410.63 230.495 410.386C230.469 410.141 230.396 409.912 230.276 409.698L211.484 375.568ZM133.813 253.854C118.016 254.823 95.4584 263.703 66.823 280.24C45.5521 292.49 28.6198 304.63 28.4532 304.761C28.125 304.995 27.8959 305.307 27.7709 305.693C27.6459 306.078 27.6459 306.458 27.7709 306.844C27.8959 307.229 28.125 307.542 28.4532 307.776C28.7813 308.011 29.1459 308.13 29.5469 308.13C29.948 308.125 30.3073 308.011 30.6303 307.776C31.2969 307.292 97.6198 259.792 134.109 257.505C134.359 257.49 134.594 257.427 134.818 257.323C135.037 257.214 135.234 257.068 135.396 256.88C135.563 256.698 135.682 256.484 135.766 256.25C135.849 256.016 135.88 255.776 135.865 255.531C135.849 255.281 135.787 255.047 135.682 254.823C135.573 254.599 135.422 254.406 135.24 254.245C135.052 254.078 134.844 253.958 134.609 253.875C134.375 253.797 134.135 253.766 133.885 253.781L133.813 253.854ZM114.104 235.568C114.594 235.568 115.078 235.62 115.557 235.714C116.037 235.807 116.5 235.948 116.953 236.136C117.406 236.323 117.833 236.552 118.24 236.823C118.646 237.099 119.021 237.406 119.37 237.75C119.714 238.099 120.021 238.474 120.297 238.88C120.568 239.287 120.797 239.714 120.984 240.167C121.172 240.62 121.313 241.083 121.406 241.563C121.5 242.042 121.547 242.526 121.547 243.016C121.547 243.505 121.5 243.99 121.406 244.469C121.313 244.948 121.172 245.417 120.984 245.87C120.797 246.318 120.568 246.75 120.297 247.156C120.021 247.563 119.714 247.938 119.37 248.281C119.021 248.63 118.646 248.938 118.24 249.208C117.833 249.479 117.406 249.714 116.953 249.896C116.5 250.083 116.037 250.229 115.557 250.323C115.078 250.417 114.594 250.464 114.104 250.464C113.615 250.464 113.135 250.417 112.651 250.323C112.172 250.229 111.708 250.083 111.255 249.896C110.807 249.714 110.375 249.479 109.969 249.208C109.563 248.938 109.188 248.63 108.844 248.281C108.495 247.938 108.188 247.563 107.917 247.156C107.646 246.75 107.417 246.318 107.229 245.87C107.042 245.417 106.901 244.948 106.807 244.469C106.708 243.99 106.662 243.505 106.662 243.016C106.662 242.526 106.708 242.042 106.807 241.563C106.901 241.083 107.042 240.62 107.229 240.167C107.417 239.714 107.646 239.287 107.917 238.88C108.188 238.474 108.495 238.099 108.844 237.75C109.188 237.406 109.563 237.099 109.969 236.823C110.375 236.552 110.807 236.323 111.255 236.136C111.708 235.948 112.172 235.807 112.651 235.714C113.135 235.62 113.615 235.568 114.104 235.568ZM114.104 239.292C113.615 239.292 113.135 239.391 112.682 239.578C112.224 239.766 111.823 240.037 111.474 240.386C111.125 240.734 110.854 241.136 110.667 241.594C110.479 242.047 110.385 242.526 110.385 243.016C110.385 243.511 110.479 243.984 110.667 244.443C110.854 244.901 111.125 245.302 111.474 245.651C111.823 246 112.224 246.271 112.682 246.458C113.135 246.646 113.615 246.74 114.104 246.74C114.599 246.74 115.073 246.646 115.531 246.458C115.984 246.271 116.391 246 116.74 245.651C117.089 245.302 117.354 244.901 117.542 244.443C117.734 243.984 117.828 243.511 117.828 243.016C117.828 242.526 117.734 242.047 117.542 241.594C117.354 241.136 117.089 240.734 116.74 240.386C116.391 240.037 115.984 239.766 115.531 239.578C115.073 239.391 114.599 239.292 114.104 239.292ZM706.917 493.261C692.932 487.755 678.698 483.011 664.208 479.016C663.964 478.948 663.719 478.927 663.469 478.958C663.219 478.99 662.979 479.068 662.76 479.193C662.542 479.318 662.359 479.484 662.203 479.688C662.052 479.891 661.948 480.115 661.885 480.359C661.823 480.604 661.813 480.854 661.854 481.104C661.896 481.354 661.984 481.583 662.12 481.797C662.255 482.011 662.422 482.193 662.63 482.333C662.839 482.479 663.068 482.578 663.318 482.63C677.635 486.594 691.708 491.292 705.536 496.724C705.76 496.802 705.99 496.844 706.229 496.854C706.672 496.854 707.068 496.714 707.417 496.427C707.76 496.146 707.974 495.781 708.057 495.344C708.141 494.901 708.078 494.49 707.859 494.094C707.646 493.703 707.333 493.427 706.917 493.261ZM530.526 578.125C530.526 578.615 530.479 579.099 530.38 579.578C530.286 580.063 530.146 580.526 529.958 580.979C529.771 581.427 529.542 581.859 529.271 582.266C529 582.672 528.693 583.047 528.344 583.396C528 583.74 527.625 584.047 527.219 584.318C526.813 584.594 526.38 584.823 525.932 585.01C525.479 585.198 525.016 585.339 524.536 585.432C524.057 585.526 523.573 585.573 523.083 585.573C522.594 585.573 522.109 585.526 521.63 585.432C521.151 585.339 520.688 585.198 520.234 585.01C519.781 584.823 519.354 584.594 518.948 584.318C518.542 584.047 518.167 583.74 517.818 583.396C517.474 583.047 517.167 582.672 516.891 582.266C516.62 581.859 516.391 581.427 516.203 580.979C516.021 580.526 515.875 580.063 515.781 579.578C515.688 579.099 515.641 578.615 515.641 578.125C515.641 577.641 515.688 577.156 515.781 576.672C515.875 576.193 516.021 575.729 516.203 575.276C516.391 574.828 516.62 574.396 516.896 573.99C517.167 573.583 517.474 573.208 517.818 572.859C518.167 572.516 518.542 572.208 518.948 571.932C519.354 571.662 519.781 571.432 520.234 571.245C520.688 571.057 521.151 570.917 521.63 570.823C522.109 570.729 522.594 570.682 523.083 570.682C523.573 570.682 524.057 570.729 524.536 570.823C525.016 570.917 525.479 571.057 525.932 571.245C526.38 571.432 526.813 571.662 527.219 571.932C527.625 572.208 528 572.516 528.344 572.859C528.693 573.208 529 573.583 529.271 573.99C529.542 574.396 529.771 574.828 529.958 575.276C530.146 575.729 530.286 576.193 530.38 576.672C530.479 577.156 530.526 577.641 530.526 578.125ZM526.802 578.125C526.802 577.635 526.708 577.156 526.521 576.703C526.333 576.245 526.063 575.844 525.714 575.495C525.365 575.146 524.964 574.875 524.505 574.688C524.052 574.5 523.578 574.406 523.083 574.406C522.589 574.406 522.115 574.5 521.656 574.688C521.203 574.875 520.802 575.146 520.453 575.495C520.104 575.844 519.833 576.245 519.646 576.703C519.453 577.156 519.359 577.635 519.359 578.125C519.359 578.62 519.453 579.094 519.646 579.552C519.833 580.01 520.104 580.412 520.453 580.76C520.802 581.109 521.203 581.38 521.656 581.568C522.115 581.755 522.589 581.849 523.083 581.849C523.578 581.849 524.052 581.755 524.505 581.568C524.964 581.38 525.365 581.109 525.714 580.76C526.063 580.412 526.333 580.01 526.521 579.552C526.708 579.094 526.802 578.62 526.802 578.125ZM573.141 476.969C549.953 496.854 535.214 586.245 534.599 590.042C534.563 590.287 534.568 590.531 534.625 590.771C534.677 591.01 534.776 591.229 534.922 591.432C535.063 591.63 535.24 591.797 535.448 591.927C535.656 592.057 535.885 592.146 536.125 592.188H536.427C536.885 592.193 537.292 592.047 537.646 591.75C538 591.453 538.214 591.078 538.286 590.62C538.432 589.708 553.411 498.792 575.5 479.781C575.688 479.62 575.839 479.427 575.953 479.208C576.063 478.984 576.125 478.75 576.146 478.505C576.161 478.255 576.135 478.016 576.057 477.781C575.979 477.547 575.859 477.333 575.698 477.146C575.536 476.958 575.344 476.807 575.125 476.698C574.901 476.583 574.667 476.521 574.422 476.5C574.177 476.484 573.932 476.516 573.698 476.594C573.464 476.667 573.25 476.787 573.063 476.948L573.141 476.969ZM463.052 290.104C462.891 289.917 462.703 289.766 462.484 289.651C462.266 289.537 462.031 289.469 461.786 289.448C461.542 289.427 461.297 289.458 461.063 289.531C460.828 289.604 460.615 289.724 460.427 289.88C447.625 300.755 421.854 306.901 413.516 308.688C414.745 302.432 418.057 287.016 421.943 280.761C422.078 280.547 422.161 280.323 422.203 280.078C422.245 279.833 422.234 279.594 422.182 279.349C422.125 279.109 422.026 278.891 421.88 278.688C421.734 278.484 421.557 278.318 421.349 278.188C421.141 278.063 420.917 277.979 420.672 277.938C420.432 277.901 420.193 277.906 419.953 277.964C419.714 278.021 419.495 278.12 419.297 278.261C419.094 278.401 418.932 278.578 418.802 278.787C413.495 287.292 409.495 309.787 409.328 310.734C409.219 311.375 409.391 311.917 409.849 312.375C410.214 312.74 410.656 312.917 411.172 312.917H411.505C412.938 312.656 446.729 306.417 462.828 292.771C463.021 292.609 463.177 292.417 463.297 292.193C463.411 291.974 463.479 291.734 463.5 291.484C463.526 291.234 463.495 290.99 463.417 290.75C463.339 290.511 463.219 290.297 463.052 290.104ZM526.469 312.802H526.802C527.078 312.807 527.344 312.75 527.599 312.636C527.849 312.526 528.068 312.359 528.245 312.151C528.427 311.938 528.552 311.703 528.625 311.432C528.698 311.167 528.714 310.896 528.667 310.625C528.495 309.677 524.495 287.182 519.214 278.672C519.078 278.464 518.917 278.287 518.714 278.146C518.51 278 518.292 277.901 518.052 277.849C517.813 277.792 517.568 277.787 517.323 277.823C517.083 277.865 516.854 277.953 516.646 278.083C516.438 278.214 516.26 278.38 516.115 278.578C515.974 278.781 515.875 279 515.818 279.24C515.76 279.479 515.755 279.724 515.792 279.969C515.833 280.208 515.917 280.438 516.047 280.646C519.938 286.901 523.271 302.318 524.495 308.578C516.141 306.714 490.385 300.646 477.583 289.771C477.396 289.609 477.182 289.495 476.948 289.417C476.714 289.344 476.474 289.313 476.224 289.333C475.979 289.354 475.745 289.422 475.526 289.537C475.307 289.646 475.115 289.797 474.953 289.99C474.797 290.177 474.677 290.391 474.599 290.625C474.526 290.859 474.495 291.099 474.516 291.349C474.536 291.594 474.604 291.828 474.714 292.047C474.828 292.266 474.979 292.458 475.167 292.62C491.26 306.38 525.036 312.615 526.469 312.802ZM471.724 508.063L442.635 501.844C442.396 501.792 442.156 501.787 441.911 501.828C441.672 501.875 441.448 501.964 441.24 502.094C441.031 502.229 440.854 502.396 440.714 502.594C440.573 502.797 440.479 503.021 440.422 503.26C440.37 503.5 440.365 503.745 440.411 503.99C440.458 504.229 440.547 504.458 440.682 504.667C440.813 504.875 440.984 505.047 441.188 505.188C441.391 505.328 441.615 505.422 441.854 505.474L470.943 511.714H471.333C471.578 511.74 471.818 511.714 472.057 511.641C472.292 511.573 472.51 511.458 472.698 511.302C472.891 511.146 473.047 510.958 473.167 510.74C473.281 510.521 473.354 510.292 473.38 510.047C473.406 509.797 473.385 509.557 473.313 509.318C473.245 509.083 473.13 508.87 472.974 508.677C472.823 508.484 472.635 508.328 472.417 508.208C472.198 508.089 471.969 508.016 471.724 507.99V508.063ZM480.229 486.297L449.057 475.906C448.823 475.833 448.583 475.802 448.339 475.818C448.094 475.839 447.865 475.901 447.646 476.011C447.422 476.12 447.234 476.271 447.073 476.453C446.911 476.641 446.792 476.849 446.714 477.078C446.635 477.318 446.604 477.557 446.62 477.802C446.635 478.052 446.698 478.287 446.807 478.505C446.917 478.729 447.068 478.922 447.255 479.083C447.438 479.245 447.651 479.365 447.885 479.443L479.036 489.833C479.229 489.891 479.427 489.922 479.63 489.927C480.031 489.927 480.396 489.813 480.719 489.578C481.047 489.349 481.271 489.042 481.401 488.662C481.479 488.427 481.51 488.188 481.495 487.938C481.479 487.693 481.417 487.458 481.302 487.234C481.193 487.016 481.047 486.823 480.859 486.656C480.672 486.495 480.464 486.375 480.229 486.297ZM490.724 466.599L455.365 452.057C455.135 451.964 454.901 451.912 454.651 451.912C454.406 451.912 454.167 451.958 453.938 452.052C453.708 452.146 453.51 452.281 453.333 452.458C453.156 452.63 453.021 452.833 452.927 453.063C452.833 453.292 452.786 453.526 452.786 453.776C452.786 454.021 452.833 454.261 452.927 454.49C453.021 454.719 453.156 454.922 453.328 455.094C453.505 455.271 453.703 455.406 453.932 455.5L489.292 470.042C489.516 470.136 489.75 470.188 489.995 470.193C490.448 470.198 490.844 470.057 491.193 469.776C491.542 469.49 491.76 469.13 491.844 468.688C491.932 468.25 491.87 467.833 491.651 467.438C491.438 467.042 491.12 466.761 490.703 466.599H490.724Z" fill="#231F20"/>
</svg>
