<svg width="1023" height="1099" viewBox="0 0 1023 1099" fill="none" xmlns="http://www.w3.org/2000/svg">
<path d="M1019.83 1098.84L136.068 875.654C164.709 861.06 202.803 834.628 215.495 827.836C244.443 812.404 270.381 791.894 272.376 755.144C274.344 719.368 244.271 688.904 241.271 653.201C238.48 620.039 260.271 588.701 288.162 570.576C351.235 529.571 448.527 531.555 521.146 527.691C559.105 525.67 618.251 538.805 643.256 500.237C651.516 487.529 650.433 470.571 644.563 456.597C638.719 442.633 628.688 430.888 619.178 419.086C593.74 387.399 570.053 348.899 576.558 308.779C582.167 274.331 609.662 246.644 641.084 231.524C675.12 215.17 711.407 211.019 748.131 210.138C789.548 209.149 838.417 203.763 852.058 157.878C852.683 155.763 853.324 153.623 854.094 151.545L877.969 157.576C875.558 198.727 860.339 225.513 819.74 240.493C795.141 249.576 770.131 260.8 753.318 280.904C715.714 325.878 751.173 355.368 782.412 386.316C834.631 437.982 899.136 475.373 951.923 526.43C981.683 555.237 1017.88 600.05 983.042 639.164C947.693 678.842 784.079 654.149 810.954 741.112C851.193 871.321 1019.77 926.732 1022.15 1074.57C1022.26 1082.61 1021.49 1090.81 1019.83 1098.84Z" fill="#58A268"/>
<path d="M407.881 200.201H468.219V368.758H346.396L407.881 200.201ZM570.037 200.201H509.693V368.758H631.521L570.037 200.201Z" fill="#231F20"/>
<path d="M598.74 179.717C598.73 180.513 598.683 181.316 598.6 182.112C598.516 182.909 598.391 183.701 598.23 184.482C598.063 185.269 597.865 186.045 597.626 186.81C597.386 187.576 597.11 188.326 596.798 189.066C596.485 189.8 596.136 190.524 595.756 191.227C595.37 191.93 594.954 192.612 594.506 193.279C594.053 193.941 593.574 194.581 593.058 195.196C592.542 195.81 592.001 196.399 591.433 196.961C590.86 197.524 590.261 198.055 589.641 198.56C589.016 199.066 588.37 199.534 587.699 199.977C587.032 200.414 586.339 200.821 585.631 201.196C584.923 201.566 584.193 201.904 583.454 202.206C582.709 202.503 581.954 202.769 581.183 202.998C580.417 203.222 579.641 203.409 578.85 203.56C578.063 203.711 577.271 203.821 576.475 203.894C575.678 203.967 574.876 204.003 574.074 203.993C571.527 203.998 569.042 203.623 566.61 202.873C561.428 225.013 550.412 244.05 535.787 257.269V345.987H435.584V254.883H436.074C432.537 251.3 429.271 247.487 426.277 243.441C423.277 239.399 420.579 235.164 418.183 230.737C415.782 226.31 413.709 221.743 411.954 217.024C410.204 212.305 408.787 207.482 407.714 202.566C406.485 202.763 405.251 202.862 404.001 202.873C403.209 202.873 402.412 202.836 401.62 202.758C400.829 202.68 400.042 202.56 399.261 202.404C398.485 202.253 397.714 202.055 396.949 201.826C396.188 201.597 395.438 201.326 394.704 201.024C393.969 200.717 393.251 200.378 392.548 200.003C391.85 199.628 391.167 199.222 390.506 198.779C389.844 198.336 389.204 197.862 388.589 197.357C387.975 196.852 387.386 196.316 386.824 195.753C386.261 195.191 385.725 194.602 385.225 193.987C384.719 193.373 384.245 192.732 383.803 192.071C383.36 191.409 382.949 190.727 382.574 190.029C382.199 189.326 381.86 188.607 381.558 187.873C381.251 187.138 380.985 186.388 380.756 185.628C380.521 184.862 380.329 184.092 380.173 183.31C380.016 182.534 379.902 181.748 379.824 180.956C379.745 180.159 379.709 179.368 379.709 178.571C379.709 177.774 379.745 176.982 379.824 176.191C379.902 175.399 380.016 174.612 380.173 173.831C380.329 173.05 380.521 172.279 380.756 171.519C380.985 170.758 381.251 170.008 381.558 169.274C381.86 168.534 382.199 167.816 382.574 167.118C382.949 166.414 383.36 165.732 383.803 165.071C384.245 164.409 384.719 163.769 385.219 163.154C385.725 162.539 386.261 161.951 386.824 161.388C387.386 160.826 387.975 160.289 388.589 159.784C389.204 159.284 389.844 158.81 390.506 158.368C391.167 157.925 391.85 157.513 392.548 157.138C393.251 156.763 393.969 156.425 394.704 156.123C395.438 155.816 396.188 155.55 396.949 155.316C397.714 155.086 398.485 154.894 399.261 154.737C400.042 154.581 400.829 154.467 401.62 154.388C402.412 154.31 403.209 154.269 404.001 154.269C404.678 154.269 405.329 154.269 406.042 154.269C413.428 106.852 446.964 71.0447 487.256 71.0447C528.053 71.0447 561.876 107.769 568.709 155.925C570.495 155.524 572.303 155.316 574.136 155.31C574.938 155.305 575.74 155.342 576.537 155.42C577.339 155.493 578.131 155.607 578.917 155.758C579.709 155.909 580.485 156.102 581.256 156.331C582.021 156.56 582.782 156.826 583.521 157.133C584.266 157.435 584.99 157.774 585.704 158.149C586.412 158.524 587.1 158.935 587.771 159.378C588.438 159.821 589.084 160.295 589.709 160.8C590.329 161.31 590.928 161.847 591.495 162.409C592.068 162.977 592.605 163.566 593.12 164.185C593.631 164.805 594.11 165.446 594.558 166.112C595.006 166.779 595.423 167.467 595.803 168.17C596.183 168.878 596.532 169.602 596.839 170.342C597.152 171.081 597.423 171.836 597.657 172.602C597.891 173.368 598.089 174.149 598.251 174.935C598.412 175.722 598.532 176.513 598.61 177.31C598.693 178.112 598.735 178.909 598.74 179.717Z" fill="#EBB38B"/>
<path d="M674.319 910.42H322.527C320.855 851.253 335.949 792.243 355.329 733.175L367.959 675.102C364.652 663.92 389.438 692.711 389.152 690.956C383.746 656.024 377.241 640.092 373.058 604.993C368.876 569.899 413.855 563.654 408.84 528.706C406.392 511.461 403.595 494.326 400.048 477.264C396.496 460.206 392.537 443.092 389.173 425.93C385.616 408.67 383.199 391.253 381.933 373.675C381.095 360.045 381.298 346.295 381.444 332.602C396.152 327.196 420.688 324.05 438.803 323.336C484.298 361.941 535.215 323.482 535.215 323.482C535.215 323.482 588.251 328.237 614.058 341.967C616.61 343.336 619.73 345.232 623.298 347.555C622.465 353.946 621.584 360.331 620.751 366.737C616.366 400.18 612.017 433.623 607.267 467.024C602.657 499.383 597.287 531.498 590.475 563.472C583.746 595.097 590.069 613.909 583.069 645.498C577.095 672.389 615.079 656.456 611.631 684.264L625.402 733.232C664.142 775.795 670.751 845.784 674.319 910.42Z" fill="#FF7B6C"/>
<path d="M485.663 815.972C485.934 815.972 486.194 816.024 486.444 816.128C486.694 816.232 486.913 816.378 487.105 816.571C487.298 816.763 487.444 816.982 487.548 817.232C487.652 817.482 487.704 817.743 487.704 818.013L486.949 844.701C486.949 844.972 486.897 845.232 486.793 845.482C486.689 845.732 486.543 845.951 486.35 846.144C486.158 846.336 485.939 846.482 485.689 846.586C485.439 846.691 485.178 846.743 484.908 846.743C484.637 846.743 484.376 846.691 484.126 846.586C483.876 846.482 483.658 846.336 483.465 846.144C483.277 845.951 483.126 845.732 483.022 845.482C482.918 845.232 482.871 844.972 482.871 844.701L483.621 817.993C483.626 817.722 483.678 817.467 483.783 817.217C483.887 816.972 484.038 816.753 484.23 816.56C484.418 816.373 484.637 816.227 484.887 816.128C485.137 816.024 485.397 815.972 485.663 815.972ZM344.908 859.779C344.652 859.868 344.423 860.003 344.225 860.185C344.027 860.362 343.866 860.576 343.751 860.821C343.632 861.06 343.569 861.316 343.553 861.586C343.538 861.857 343.574 862.118 343.663 862.373L346.762 871.06C346.902 871.472 347.152 871.8 347.507 872.05C347.855 872.3 348.246 872.43 348.678 872.43C348.913 872.425 349.137 872.388 349.355 872.305C349.611 872.217 349.84 872.081 350.038 871.899C350.241 871.717 350.402 871.508 350.517 871.258C350.637 871.013 350.699 870.758 350.715 870.487C350.725 870.217 350.689 869.951 350.595 869.696L347.496 861.003C347.402 860.753 347.267 860.529 347.09 860.331C346.908 860.133 346.694 859.977 346.454 859.862C346.21 859.748 345.954 859.68 345.689 859.67C345.418 859.654 345.158 859.691 344.908 859.779ZM577.46 732.93L574.137 731.826C573.882 731.743 573.616 731.706 573.345 731.727C573.074 731.748 572.819 731.816 572.579 731.941C572.335 732.06 572.126 732.222 571.949 732.43C571.772 732.633 571.642 732.862 571.553 733.123C571.47 733.378 571.439 733.644 571.46 733.914C571.475 734.18 571.548 734.441 571.668 734.68C571.793 734.925 571.954 735.133 572.158 735.31C572.366 735.487 572.595 735.618 572.85 735.701L589.173 741.071C589.376 741.149 589.585 741.191 589.803 741.191C590.246 741.191 590.642 741.06 591.001 740.8C591.355 740.545 591.605 740.201 591.741 739.784C591.824 739.529 591.855 739.263 591.835 738.993C591.814 738.722 591.741 738.467 591.621 738.227C591.496 737.987 591.335 737.779 591.132 737.602C590.923 737.425 590.694 737.295 590.434 737.211L578.194 733.133H577.439C577.46 733.066 577.475 732.998 577.48 732.93H577.46ZM371.934 735.154C372.246 735.336 372.574 735.43 372.934 735.435C373.225 735.441 373.507 735.383 373.772 735.263C374.038 735.144 374.267 734.977 374.465 734.763C374.658 734.545 374.798 734.3 374.887 734.024C374.98 733.748 375.007 733.461 374.975 733.175H368.486L371.934 735.154ZM656.491 804.691H657.001C657.262 804.623 657.501 804.508 657.72 804.342C657.934 804.18 658.111 803.982 658.251 803.748C658.387 803.513 658.475 803.263 658.512 802.998C658.553 802.727 658.538 802.461 658.47 802.201L656.267 793.571C656.199 793.305 656.085 793.066 655.923 792.847C655.762 792.628 655.569 792.446 655.335 792.31C655.1 792.17 654.85 792.081 654.585 792.04C654.314 791.998 654.048 792.013 653.783 792.081C653.522 792.149 653.283 792.258 653.064 792.425C652.845 792.586 652.668 792.784 652.527 793.019C652.392 793.253 652.303 793.503 652.262 793.769C652.225 794.04 652.241 794.305 652.309 794.571L654.512 803.222C654.637 803.659 654.887 804.013 655.251 804.284C655.621 804.56 656.033 804.696 656.491 804.691ZM412.345 809.055C412.507 808.836 412.616 808.597 412.684 808.331C412.746 808.066 412.757 807.8 412.715 807.534C412.673 807.269 412.579 807.019 412.439 806.784C412.298 806.555 412.116 806.357 411.897 806.201C411.678 806.04 411.439 805.925 411.173 805.862C410.913 805.8 410.647 805.79 410.376 805.831C410.111 805.873 409.861 805.967 409.626 806.107C409.397 806.248 409.204 806.43 409.043 806.649L390.803 831.665C390.579 831.972 390.449 832.321 390.418 832.706C390.387 833.086 390.46 833.451 390.637 833.795C390.809 834.133 391.059 834.409 391.387 834.607C391.715 834.81 392.074 834.909 392.46 834.909C393.142 834.904 393.684 834.623 394.09 834.071L412.345 809.055ZM391.069 890.914H391.376C391.647 890.878 391.897 890.784 392.132 890.644C392.366 890.503 392.564 890.321 392.725 890.102C392.887 889.883 392.996 889.638 393.059 889.373C393.126 889.107 393.132 888.836 393.09 888.571L388.866 861.43C388.824 861.165 388.73 860.909 388.59 860.675C388.449 860.446 388.267 860.248 388.043 860.086C387.824 859.925 387.579 859.81 387.314 859.748C387.048 859.68 386.783 859.67 386.512 859.711C386.241 859.753 385.991 859.847 385.757 859.987C385.522 860.128 385.324 860.31 385.163 860.534C385.001 860.753 384.887 860.998 384.824 861.263C384.757 861.529 384.746 861.795 384.788 862.066L389.012 889.201C389.105 889.691 389.345 890.097 389.736 890.409C390.126 890.722 390.569 890.868 391.069 890.857V890.914ZM526.34 771.472C526.267 771.211 526.152 770.972 525.986 770.758C525.819 770.545 525.616 770.373 525.382 770.237C525.147 770.102 524.892 770.019 524.626 769.987C524.355 769.951 524.09 769.972 523.829 770.045L504.288 775.409C504.017 775.446 503.762 775.529 503.527 775.665C503.293 775.8 503.09 775.977 502.923 776.196C502.757 776.409 502.637 776.649 502.569 776.915C502.496 777.175 502.48 777.446 502.512 777.717C502.548 777.987 502.637 778.237 502.772 778.477C502.908 778.711 503.085 778.915 503.298 779.081C503.517 779.248 503.757 779.362 504.017 779.435C504.283 779.508 504.548 779.524 504.819 779.487C505.001 779.519 505.184 779.519 505.371 779.487L524.913 774.123C525.189 774.055 525.444 773.93 525.668 773.753C525.892 773.576 526.074 773.362 526.21 773.112C526.345 772.857 526.428 772.592 526.449 772.305C526.47 772.019 526.434 771.743 526.34 771.472ZM356.595 909.034L345.21 905.914C344.949 905.842 344.684 905.821 344.418 905.852C344.147 905.888 343.892 905.972 343.658 906.102C343.423 906.237 343.22 906.409 343.053 906.628C342.887 906.842 342.767 907.076 342.694 907.342C342.626 907.602 342.605 907.868 342.637 908.133C342.673 908.404 342.757 908.659 342.892 908.894C343.027 909.128 343.199 909.331 343.418 909.498C343.632 909.659 343.871 909.779 344.132 909.852L345.908 910.342H357.939C357.72 909.675 357.267 909.237 356.595 909.034ZM383.116 782.263H383.418C383.668 782.269 383.908 782.227 384.137 782.144C384.366 782.06 384.579 781.941 384.767 781.779C384.954 781.618 385.105 781.43 385.225 781.217C385.345 781.003 385.423 780.774 385.46 780.529L387.012 770.326C387.053 770.055 387.038 769.79 386.975 769.524C386.908 769.258 386.793 769.013 386.632 768.795C386.47 768.576 386.267 768.394 386.033 768.253C385.798 768.112 385.548 768.019 385.277 767.982C385.007 767.941 384.736 767.951 384.47 768.019C384.204 768.086 383.965 768.201 383.746 768.362C383.522 768.524 383.345 768.722 383.204 768.956C383.064 769.191 382.97 769.446 382.928 769.717L381.382 779.92C381.324 780.196 381.324 780.472 381.382 780.743C381.439 781.019 381.548 781.274 381.715 781.503C381.876 781.732 382.074 781.92 382.314 782.066C382.559 782.217 382.814 782.305 383.095 782.347L383.116 782.263ZM533.642 818.237C534.043 818.237 534.408 818.128 534.741 817.915C535.079 817.701 535.329 817.409 535.496 817.05C535.663 816.691 535.72 816.31 535.663 815.915C535.611 815.524 535.454 815.175 535.194 814.873L527.033 805.362C526.855 805.154 526.647 804.993 526.402 804.873C526.163 804.748 525.908 804.675 525.637 804.659C525.366 804.638 525.1 804.67 524.84 804.753C524.585 804.842 524.355 804.972 524.147 805.149C523.944 805.326 523.777 805.534 523.658 805.779C523.533 806.019 523.465 806.274 523.444 806.545C523.423 806.816 523.454 807.081 523.538 807.342C523.626 807.597 523.757 807.831 523.934 808.034L532.095 817.524C532.48 818.024 532.991 818.29 533.621 818.321L533.642 818.237ZM422.303 735.602C422.725 735.602 423.111 735.477 423.46 735.237C423.809 734.998 424.059 734.675 424.21 734.279C424.355 733.883 424.382 733.477 424.277 733.066C424.178 732.654 423.965 732.31 423.647 732.029L409.184 719.279C408.986 719.071 408.757 718.909 408.491 718.8C408.225 718.691 407.949 718.638 407.663 718.644C407.376 718.649 407.105 718.717 406.845 718.836C406.585 718.956 406.361 719.128 406.173 719.342C405.98 719.56 405.845 719.805 405.762 720.076C405.673 720.352 405.647 720.628 405.678 720.914C405.715 721.201 405.803 721.467 405.949 721.717C406.09 721.961 406.283 722.17 406.512 722.336L421.038 735.071C421.397 735.399 421.819 735.576 422.303 735.602ZM660.772 837.029C660.527 836.92 660.272 836.857 660.001 836.852C659.73 836.842 659.47 836.888 659.215 836.982C658.965 837.076 658.741 837.217 658.543 837.404C658.345 837.586 658.194 837.805 658.079 838.05L651.064 853.68C650.996 853.836 650.944 853.998 650.913 854.165C650.887 854.331 650.876 854.498 650.892 854.67C650.902 854.836 650.939 855.003 650.991 855.165C651.043 855.326 651.116 855.477 651.21 855.623C651.303 855.763 651.413 855.894 651.538 856.008C651.658 856.128 651.798 856.227 651.944 856.305C652.095 856.388 652.251 856.451 652.418 856.493C652.585 856.534 652.751 856.555 652.918 856.555C653.319 856.555 653.689 856.446 654.027 856.227C654.361 856.008 654.611 855.717 654.777 855.352L661.793 839.659C661.897 839.42 661.949 839.165 661.949 838.904C661.954 838.638 661.908 838.383 661.814 838.138C661.715 837.894 661.579 837.675 661.402 837.482C661.22 837.29 661.012 837.138 660.772 837.029ZM477.178 734.56L472.262 758.925C472.204 759.191 472.204 759.456 472.257 759.722C472.314 759.987 472.413 760.237 472.564 760.461C472.715 760.691 472.908 760.878 473.132 761.029C473.361 761.175 473.605 761.279 473.871 761.331H474.262C474.757 761.342 475.194 761.185 475.579 760.878C475.965 760.566 476.204 760.165 476.298 759.675L481.215 735.316C481.267 735.05 481.267 734.789 481.215 734.524C481.163 734.263 481.059 734.019 480.913 733.795C480.762 733.571 480.574 733.383 480.355 733.232C480.132 733.086 479.887 732.982 479.626 732.93C479.361 732.878 479.095 732.883 478.835 732.941C478.569 732.998 478.329 733.102 478.105 733.258C477.882 733.409 477.699 733.597 477.553 733.826C477.408 734.05 477.309 734.295 477.257 734.56H477.178ZM636.293 755.68C636.121 755.472 635.913 755.305 635.673 755.18C635.434 755.055 635.178 754.982 634.908 754.961C634.637 754.935 634.371 754.967 634.116 755.05C633.855 755.128 633.626 755.258 633.418 755.435L615.059 770.717C614.85 770.888 614.684 771.097 614.553 771.336C614.428 771.576 614.355 771.831 614.329 772.102C614.303 772.368 614.329 772.633 614.413 772.894C614.491 773.149 614.621 773.383 614.793 773.592C615.199 774.081 615.725 774.326 616.366 774.326C616.861 774.321 617.293 774.159 617.668 773.836L636.027 758.555C636.251 758.399 636.439 758.201 636.585 757.972C636.73 757.737 636.824 757.487 636.866 757.217C636.913 756.946 636.902 756.675 636.84 756.409C636.772 756.144 636.663 755.899 636.496 755.68H636.293ZM345.579 822.071C345.533 822.336 345.538 822.602 345.595 822.868C345.652 823.128 345.757 823.373 345.908 823.592C346.059 823.816 346.251 823.998 346.475 824.144C346.699 824.29 346.944 824.388 347.21 824.441L356.001 826.092H356.371C356.871 826.102 357.314 825.946 357.699 825.628C358.085 825.316 358.319 824.909 358.413 824.42C358.46 824.154 358.454 823.894 358.397 823.633C358.345 823.368 358.241 823.128 358.09 822.904C357.939 822.685 357.751 822.498 357.527 822.352C357.303 822.206 357.064 822.102 356.798 822.05L348.007 820.399C347.736 820.342 347.46 820.342 347.189 820.399C346.918 820.451 346.663 820.56 346.434 820.717C346.204 820.878 346.017 821.071 345.871 821.305C345.72 821.545 345.621 821.8 345.579 822.071ZM427.605 857.534C427.48 857.774 427.402 858.024 427.376 858.29C427.345 858.56 427.371 858.821 427.449 859.081C427.522 859.336 427.647 859.571 427.814 859.779C427.986 859.993 428.184 860.159 428.423 860.29L453.491 873.899C453.798 874.066 454.126 874.144 454.47 874.144C454.939 874.149 455.361 874.003 455.73 873.717C456.1 873.43 456.345 873.06 456.46 872.607C456.574 872.154 456.538 871.711 456.35 871.284C456.163 870.857 455.866 870.529 455.449 870.31L430.46 856.717C430.22 856.576 429.96 856.487 429.684 856.451C429.402 856.415 429.126 856.435 428.855 856.508C428.59 856.586 428.345 856.717 428.126 856.894C427.908 857.071 427.736 857.284 427.605 857.534ZM521.772 855.493L526.71 857.066C526.908 857.133 527.111 857.165 527.319 857.17C527.59 857.206 527.855 857.196 528.121 857.128C528.387 857.06 528.632 856.946 528.85 856.784C529.069 856.623 529.251 856.425 529.392 856.191C529.533 855.956 529.621 855.701 529.663 855.435C529.704 855.165 529.689 854.894 529.626 854.628C529.559 854.362 529.444 854.123 529.283 853.899C529.121 853.68 528.923 853.503 528.689 853.357C528.454 853.217 528.199 853.128 527.934 853.086L523.017 851.534C522.751 851.43 522.48 851.383 522.199 851.394C521.918 851.404 521.647 851.467 521.392 851.586C521.137 851.706 520.918 851.873 520.73 852.086C520.543 852.3 520.408 852.54 520.319 852.81C520.236 853.076 520.204 853.352 520.23 853.633C520.262 853.915 520.345 854.18 520.48 854.425C520.616 854.675 520.798 854.883 521.022 855.055C521.246 855.227 521.496 855.347 521.772 855.415V855.493ZM620.751 821.993C620.871 821.748 620.939 821.493 620.96 821.222C620.975 820.951 620.944 820.691 620.855 820.435C620.772 820.18 620.637 819.946 620.46 819.743C620.283 819.54 620.074 819.378 619.829 819.258L599.777 809.321C599.533 809.175 599.272 809.086 598.991 809.055C598.71 809.019 598.434 809.045 598.163 809.128C597.887 809.206 597.647 809.342 597.428 809.524C597.21 809.706 597.043 809.925 596.918 810.18C596.793 810.435 596.72 810.706 596.71 810.987C596.694 811.269 596.741 811.545 596.84 811.81C596.944 812.076 597.095 812.305 597.293 812.508C597.491 812.711 597.72 812.868 597.986 812.972L618.1 822.826C618.371 822.967 618.668 823.045 618.975 823.05C619.355 823.04 619.704 822.935 620.022 822.727C620.34 822.524 620.585 822.248 620.751 821.909V821.993ZM342.517 785.935C342.626 786.415 342.871 786.8 343.257 787.097C343.637 787.399 344.074 787.54 344.559 787.529C344.71 787.55 344.861 787.55 345.007 787.529C345.272 787.472 345.512 787.362 345.736 787.211C345.954 787.055 346.142 786.862 346.283 786.633C346.428 786.409 346.527 786.159 346.574 785.894C346.621 785.628 346.616 785.362 346.559 785.102L343.559 771.493C342.762 774.269 341.97 777.04 341.215 779.816L342.517 785.935ZM483.277 900.894C483.465 900.701 483.611 900.482 483.715 900.232C483.819 899.982 483.871 899.727 483.871 899.456C483.871 899.185 483.819 898.925 483.715 898.675C483.611 898.43 483.465 898.206 483.277 898.019C483.085 897.826 482.866 897.675 482.611 897.571C482.361 897.467 482.1 897.414 481.829 897.414C481.559 897.414 481.293 897.467 481.043 897.571C480.793 897.675 480.569 897.826 480.382 898.019L468.465 909.279C468.126 909.618 467.928 910.024 467.876 910.503H473.116L483.277 900.894ZM615.303 859.618L607.736 869.534C607.569 869.748 607.454 869.987 607.382 870.248C607.314 870.508 607.293 870.774 607.329 871.045C607.366 871.31 607.449 871.566 607.585 871.8C607.72 872.034 607.897 872.232 608.111 872.399C608.329 872.566 608.564 872.68 608.829 872.753C609.09 872.821 609.355 872.842 609.621 872.805C609.892 872.769 610.142 872.685 610.376 872.55C610.616 872.415 610.814 872.237 610.98 872.024L618.548 862.107C618.71 861.888 618.829 861.654 618.897 861.388C618.97 861.128 618.986 860.862 618.949 860.592C618.918 860.326 618.829 860.071 618.694 859.836C618.559 859.602 618.387 859.404 618.168 859.237C617.954 859.076 617.715 858.956 617.454 858.883C617.194 858.816 616.928 858.8 616.658 858.831C616.387 858.868 616.137 858.956 615.902 859.092C615.668 859.227 615.47 859.399 615.303 859.618ZM560.225 837.701C560.116 837.951 560.059 838.211 560.048 838.482C560.043 838.753 560.09 839.013 560.184 839.263C560.283 839.519 560.428 839.743 560.611 839.935C560.798 840.133 561.017 840.284 561.267 840.394L575.913 846.862C576.173 846.977 576.444 847.029 576.725 847.029C577.204 847.024 577.632 846.873 578.001 846.571C578.376 846.269 578.611 845.883 578.715 845.415C578.814 844.946 578.757 844.498 578.543 844.071C578.324 843.644 578.001 843.326 577.564 843.128L562.918 836.659C562.668 836.534 562.408 836.456 562.126 836.435C561.85 836.415 561.579 836.451 561.314 836.545C561.048 836.633 560.814 836.774 560.605 836.961C560.402 837.149 560.241 837.368 560.121 837.623L560.225 837.701ZM521.465 885.446C521.465 885.175 521.413 884.915 521.309 884.665C521.204 884.415 521.059 884.196 520.866 884.003C520.678 883.816 520.454 883.665 520.204 883.56C519.954 883.461 519.694 883.409 519.423 883.409C519.152 883.409 518.892 883.461 518.642 883.56C518.392 883.665 518.173 883.816 517.98 884.003C517.793 884.196 517.642 884.415 517.538 884.665C517.439 884.915 517.387 885.175 517.387 885.446L516.751 910.524H520.835L521.465 885.446ZM436.277 768.836L425.751 766.8C425.48 766.748 425.21 766.753 424.939 766.81C424.668 766.868 424.423 766.977 424.194 767.133C423.97 767.29 423.783 767.482 423.632 767.717C423.48 767.946 423.382 768.201 423.335 768.472C423.288 768.743 423.293 769.013 423.35 769.279C423.408 769.55 423.517 769.8 423.673 770.024C423.835 770.248 424.027 770.435 424.262 770.586C424.491 770.732 424.746 770.831 425.017 770.878L435.543 772.816H435.908C436.178 772.842 436.444 772.81 436.704 772.732C436.96 772.649 437.194 772.524 437.402 772.347C437.611 772.175 437.777 771.967 437.902 771.727C438.027 771.487 438.105 771.232 438.126 770.961C438.152 770.691 438.121 770.425 438.043 770.165C437.96 769.909 437.835 769.675 437.663 769.467C437.486 769.258 437.283 769.092 437.043 768.961C436.803 768.836 436.548 768.763 436.277 768.737V768.836ZM658.408 910.383L657.246 890.935C657.23 890.664 657.163 890.409 657.043 890.164C656.928 889.92 656.767 889.706 656.564 889.524C656.361 889.347 656.132 889.211 655.871 889.123C655.616 889.034 655.355 888.998 655.079 889.013C654.809 889.029 654.553 889.097 654.309 889.217C654.064 889.331 653.855 889.493 653.673 889.701C653.491 889.904 653.361 890.133 653.272 890.388C653.184 890.644 653.147 890.909 653.163 891.18L654.309 910.42H658.387L658.408 910.383ZM566.835 885.04C566.798 884.769 566.71 884.513 566.574 884.279C566.434 884.045 566.257 883.842 566.043 883.675C565.824 883.513 565.585 883.394 565.319 883.326C565.053 883.253 564.788 883.237 564.517 883.274C564.246 883.31 563.996 883.399 563.757 883.534C563.522 883.675 563.324 883.852 563.158 884.066C562.991 884.284 562.871 884.524 562.803 884.79C562.736 885.055 562.715 885.321 562.751 885.592L566.121 910.42H570.199L566.835 885.04ZM445.251 819.748C445.538 819.894 445.845 819.972 446.168 819.972C446.553 819.967 446.913 819.862 447.241 819.659C447.569 819.451 447.814 819.175 447.986 818.831L452.413 809.951C452.522 809.711 452.585 809.461 452.595 809.196C452.611 808.93 452.569 808.67 452.48 808.42C452.392 808.17 452.262 807.946 452.085 807.748C451.913 807.55 451.704 807.394 451.465 807.274C451.23 807.154 450.98 807.086 450.715 807.066C450.449 807.045 450.189 807.076 449.939 807.159C449.684 807.237 449.46 807.362 449.257 807.534C449.048 807.701 448.887 807.904 448.762 808.138L444.335 817.013C444.22 817.248 444.158 817.498 444.137 817.758C444.121 818.019 444.152 818.274 444.23 818.519C444.309 818.769 444.434 818.993 444.6 819.196C444.762 819.399 444.96 819.56 445.189 819.685L445.251 819.748ZM527.46 732.316C527.236 732.461 527.043 732.644 526.887 732.862C526.73 733.086 526.621 733.326 526.564 733.592C526.501 733.857 526.496 734.123 526.543 734.388C526.59 734.654 526.684 734.904 526.829 735.133L533.194 745.191C533.59 745.826 534.163 746.144 534.908 746.149C535.303 746.154 535.673 746.055 536.012 745.842C536.236 745.701 536.428 745.513 536.585 745.295C536.741 745.071 536.85 744.831 536.908 744.566C536.97 744.305 536.975 744.04 536.928 743.769C536.882 743.503 536.788 743.258 536.642 743.029L530.277 732.946C530.137 732.706 529.954 732.503 529.73 732.331C529.507 732.164 529.262 732.05 528.986 731.982C528.715 731.92 528.444 731.909 528.168 731.956C527.892 732.003 527.637 732.102 527.402 732.253L527.46 732.316ZM566.996 792.097H567.142C567.408 792.071 567.663 791.993 567.902 791.862C568.137 791.732 568.34 791.566 568.512 791.352C568.684 791.144 568.809 790.909 568.882 790.649C568.96 790.388 568.986 790.123 568.954 789.857L566.913 770.961C566.887 770.691 566.809 770.435 566.678 770.201C566.548 769.961 566.382 769.758 566.168 769.586C565.96 769.42 565.725 769.295 565.465 769.217C565.204 769.138 564.939 769.118 564.673 769.144C564.402 769.175 564.147 769.253 563.913 769.383C563.673 769.508 563.47 769.68 563.298 769.888C563.126 770.102 563.007 770.336 562.928 770.597C562.85 770.857 562.829 771.118 562.855 771.388L564.897 790.284C564.928 790.529 565.007 790.758 565.126 790.977C565.246 791.196 565.397 791.383 565.585 791.545C565.772 791.706 565.98 791.831 566.215 791.915C566.449 791.998 566.689 792.04 566.934 792.04L566.996 792.097ZM618.444 910.138C618.444 909.868 618.392 909.607 618.288 909.357C618.184 909.107 618.038 908.883 617.845 908.696C617.658 908.503 617.434 908.357 617.184 908.253C616.934 908.149 616.673 908.097 616.402 908.097L607.652 907.914C607.382 907.914 607.121 907.967 606.871 908.066C606.621 908.17 606.402 908.321 606.21 908.508C606.017 908.701 605.871 908.92 605.767 909.17C605.663 909.42 605.611 909.68 605.611 909.951C605.605 910.164 605.642 910.368 605.715 910.566H618.361C618.324 910.3 618.361 910.196 618.382 910.076L618.444 910.138Z" fill="#231F20"/>
<path d="M875.173 536.498C873.522 564.388 872.662 595.998 861.892 622.196C855.121 638.638 838.147 649.967 820.808 652.925C786.006 658.842 753.631 640.191 727.194 619.644C700.756 599.097 673.423 580.529 646.699 560.8C643.027 635.868 645.678 732.196 628.85 738.904C611.183 747.477 585.355 752.003 561.673 754.045V325.56C577.157 328.295 599.022 333.253 614.162 341.316C638.23 354.149 713.121 413.769 754.918 459.394L761.485 356.227C775.772 359.107 790.204 360.55 804.772 360.55C819.345 360.55 833.777 359.107 848.063 356.227C848.063 356.227 877.866 459.472 875.173 536.498Z" fill="#73C4D4"/>
<path d="M409.021 753.435C383.605 751.394 360.818 747.743 352.188 743.071C341.558 731.987 344.027 693.097 346.678 657.737C346.678 657.737 293.928 741.519 246.23 737.316C136.521 724.196 83.0371 569.227 83.0371 569.227C83.4434 556.269 125.344 512.894 151.006 517.237L226.834 577.92L324.381 377.185C344.292 347.435 372.646 330.722 409.084 325.029L409.021 753.435Z" fill="#73C4D4"/>
<path d="M149.334 519.154C149.334 519.154 105.678 450.128 68.0214 463.164C16.8392 501.67 51.0267 544.519 86.9329 566.878C101.886 585.18 157.105 544.539 149.334 519.154Z" fill="#EBB38B"/>
<path d="M106.964 626.519L0.026925 146.519C-0.0147416 146.248 -0.00953332 145.977 0.0529667 145.711C0.110259 145.441 0.214424 145.196 0.365467 144.967C0.521716 144.737 0.709216 144.545 0.933175 144.389C1.16234 144.232 1.40713 144.123 1.67276 144.06C1.93838 144.003 2.20922 143.987 2.48005 144.029C2.75088 144.071 3.00609 144.159 3.24568 144.295C3.48005 144.43 3.68318 144.607 3.85505 144.821C4.02693 145.04 4.15193 145.274 4.23005 145.54L118.084 623.972C118.168 624.336 118.22 624.706 118.23 625.081C118.246 625.456 118.225 625.831 118.162 626.201C118.105 626.571 118.006 626.93 117.876 627.284C117.746 627.633 117.584 627.972 117.386 628.29C117.188 628.607 116.964 628.904 116.709 629.18C116.454 629.456 116.173 629.701 115.865 629.925C115.563 630.144 115.24 630.331 114.902 630.488C114.558 630.644 114.204 630.764 113.839 630.852C113.475 630.935 113.105 630.988 112.73 630.998C112.355 631.014 111.98 630.993 111.61 630.93C111.24 630.873 110.881 630.774 110.527 630.644C110.178 630.514 109.839 630.347 109.522 630.149C109.204 629.956 108.907 629.727 108.631 629.472C108.355 629.217 108.11 628.935 107.892 628.633C107.673 628.326 107.485 628.003 107.329 627.665C107.173 627.321 107.053 626.967 106.964 626.602V626.519Z" fill="#231F20"/>
<path d="M86.0739 477.962C75.2249 476.935 64.5531 477.909 54.0687 480.878C53.7822 486.654 51.1312 491.935 49.3135 497.404C54.2301 516.607 64.8812 551.149 78.1989 553.925C90.7874 553.925 102.537 550.701 104.985 542.435C109.881 520.889 98.9489 487.389 86.0739 477.962Z" fill="#EBB38B"/>
<path d="M114.084 478.185L68.49 432.295C68.49 432.295 59.9432 435.967 63.0421 448.331C66.1463 460.696 80.688 473.206 80.688 473.206L114.084 478.185Z" fill="#EBB38B"/>
<path d="M404.475 393.362C404.246 393.341 404.033 393.279 403.83 393.175C403.632 393.071 403.455 392.935 403.303 392.769C403.147 392.597 403.033 392.409 402.955 392.196C402.871 391.982 402.83 391.763 402.83 391.539C402.83 391.31 402.871 391.091 402.955 390.878C403.033 390.67 403.147 390.477 403.303 390.31C403.455 390.144 403.632 390.008 403.83 389.904C404.033 389.8 404.246 389.737 404.475 389.711C405.168 389.711 474.465 387.67 483.928 340.315C484.022 339.888 484.236 339.539 484.569 339.263C484.908 338.987 485.293 338.852 485.725 338.847C486.168 338.862 486.553 339.013 486.887 339.31C487.22 339.607 487.413 339.977 487.481 340.414C487.481 340.638 490.783 363.065 510.1 376.961C524.955 387.649 545.21 390.67 570.34 385.935C570.569 385.92 570.793 385.94 571.012 386.003C571.225 386.071 571.428 386.17 571.606 386.305C571.788 386.446 571.939 386.612 572.059 386.805C572.178 386.998 572.257 387.206 572.298 387.43C572.34 387.654 572.34 387.878 572.303 388.102C572.262 388.321 572.178 388.534 572.064 388.727C571.944 388.92 571.793 389.086 571.611 389.227C571.434 389.362 571.236 389.466 571.017 389.529C544.845 394.446 523.606 391.201 507.918 379.899C505.257 377.93 502.772 375.763 500.455 373.399C498.142 371.029 496.033 368.493 494.126 365.789C492.22 363.081 490.543 360.243 489.09 357.263C487.642 354.289 486.439 351.216 485.481 348.045C470.465 391.425 405.126 393.341 404.434 393.362H404.475ZM493.58 403.69C493.58 403.123 493.522 402.56 493.413 402.003C493.303 401.446 493.137 400.904 492.918 400.378C492.705 399.852 492.439 399.357 492.121 398.883C491.803 398.409 491.449 397.972 491.043 397.571C490.642 397.17 490.205 396.81 489.736 396.498C489.262 396.18 488.762 395.914 488.241 395.696C487.715 395.477 487.173 395.315 486.616 395.206C486.059 395.091 485.496 395.039 484.928 395.039C484.361 395.039 483.798 395.091 483.241 395.206C482.684 395.315 482.142 395.477 481.621 395.696C481.095 395.914 480.595 396.18 480.121 396.498C479.652 396.81 479.215 397.17 478.814 397.571C478.413 397.972 478.053 398.409 477.736 398.883C477.423 399.357 477.158 399.852 476.939 400.378C476.72 400.904 476.559 401.446 476.444 402.003C476.335 402.56 476.277 403.123 476.277 403.69C476.277 404.258 476.335 404.821 476.444 405.378C476.559 405.935 476.72 406.477 476.939 406.998C477.158 407.524 477.423 408.024 477.736 408.498C478.053 408.966 478.413 409.404 478.814 409.805C479.215 410.206 479.652 410.565 480.121 410.883C480.595 411.196 481.095 411.466 481.621 411.68C482.142 411.899 482.684 412.065 483.241 412.175C483.798 412.284 484.361 412.341 484.928 412.341C485.496 412.336 486.059 412.284 486.616 412.17C487.173 412.06 487.71 411.894 488.236 411.675C488.762 411.456 489.257 411.19 489.731 410.878C490.199 410.56 490.637 410.201 491.038 409.8C491.439 409.399 491.798 408.961 492.116 408.493C492.428 408.019 492.699 407.519 492.913 406.998C493.132 406.472 493.298 405.93 493.408 405.373C493.522 404.821 493.58 404.258 493.58 403.69ZM489.928 403.69C489.928 404.357 489.798 404.998 489.543 405.612C489.288 406.227 488.928 406.769 488.455 407.243C487.986 407.711 487.439 408.076 486.824 408.326C486.21 408.581 485.569 408.711 484.902 408.706C484.236 408.706 483.595 408.581 482.981 408.321C482.366 408.065 481.824 407.701 481.356 407.232C480.882 406.758 480.522 406.216 480.267 405.597C480.017 404.982 479.887 404.341 479.892 403.675C479.892 403.008 480.022 402.368 480.277 401.753C480.533 401.138 480.897 400.597 481.371 400.128C481.845 399.659 482.387 399.295 483.007 399.045C483.621 398.789 484.262 398.664 484.928 398.67C485.595 398.67 486.231 398.795 486.845 399.05C487.46 399.305 488.001 399.67 488.47 400.138C488.939 400.612 489.298 401.154 489.553 401.769C489.803 402.383 489.928 403.024 489.928 403.69ZM493.58 444.498C493.58 443.93 493.522 443.368 493.413 442.81C493.303 442.253 493.137 441.711 492.918 441.185C492.705 440.659 492.439 440.164 492.121 439.69C491.803 439.216 491.449 438.779 491.043 438.378C490.642 437.977 490.205 437.618 489.736 437.305C489.262 436.987 488.762 436.722 488.241 436.503C487.715 436.284 487.173 436.123 486.616 436.013C486.059 435.899 485.496 435.847 484.928 435.847C484.361 435.847 483.798 435.899 483.241 436.013C482.684 436.123 482.142 436.284 481.621 436.503C481.095 436.722 480.595 436.987 480.121 437.305C479.652 437.618 479.215 437.977 478.814 438.378C478.413 438.779 478.053 439.216 477.736 439.69C477.423 440.164 477.158 440.659 476.939 441.185C476.72 441.711 476.559 442.253 476.444 442.81C476.335 443.368 476.277 443.93 476.277 444.498C476.277 445.065 476.335 445.628 476.444 446.185C476.559 446.743 476.72 447.284 476.939 447.805C477.158 448.331 477.423 448.831 477.736 449.305C478.053 449.774 478.413 450.211 478.814 450.612C479.215 451.013 479.652 451.373 480.121 451.69C480.595 452.008 481.095 452.274 481.621 452.487C482.142 452.706 482.684 452.873 483.241 452.982C483.798 453.091 484.361 453.149 484.928 453.149C485.496 453.149 486.059 453.091 486.611 452.977C487.168 452.868 487.71 452.701 488.231 452.487C488.757 452.269 489.251 452.003 489.725 451.69C490.194 451.373 490.632 451.013 491.033 450.618C491.434 450.216 491.793 449.779 492.106 449.31C492.423 448.836 492.689 448.341 492.908 447.821C493.126 447.295 493.293 446.758 493.408 446.201C493.517 445.644 493.574 445.086 493.58 444.519V444.498ZM489.928 444.498C489.928 445.164 489.798 445.805 489.543 446.42C489.288 447.034 488.928 447.576 488.455 448.05C487.986 448.519 487.439 448.883 486.824 449.138C486.21 449.388 485.569 449.519 484.902 449.519C484.236 449.513 483.595 449.388 482.981 449.133C482.366 448.873 481.824 448.513 481.356 448.039C480.882 447.565 480.522 447.024 480.267 446.409C480.017 445.789 479.887 445.149 479.892 444.482C479.892 443.815 480.022 443.175 480.277 442.56C480.533 441.946 480.897 441.404 481.371 440.935C481.845 440.466 482.387 440.107 483.007 439.852C483.621 439.602 484.262 439.477 484.928 439.477C485.595 439.477 486.236 439.607 486.85 439.862C487.465 440.118 488.007 440.482 488.475 440.956C488.949 441.43 489.309 441.977 489.559 442.591C489.809 443.211 489.934 443.852 489.928 444.519V444.498ZM493.58 485.305C493.58 484.737 493.522 484.175 493.413 483.618C493.303 483.06 493.137 482.519 492.918 481.993C492.705 481.472 492.439 480.972 492.121 480.498C491.803 480.024 491.449 479.591 491.043 479.185C490.642 478.784 490.205 478.425 489.736 478.112C489.262 477.795 488.762 477.529 488.241 477.31C487.715 477.097 487.173 476.93 486.616 476.821C486.059 476.711 485.496 476.654 484.928 476.654C484.361 476.654 483.798 476.711 483.241 476.821C482.684 476.93 482.142 477.097 481.621 477.31C481.095 477.529 480.595 477.795 480.121 478.112C479.652 478.425 479.215 478.784 478.814 479.185C478.413 479.591 478.053 480.024 477.736 480.498C477.423 480.972 477.158 481.472 476.939 481.993C476.72 482.519 476.559 483.06 476.444 483.618C476.335 484.175 476.277 484.737 476.277 485.305C476.277 485.873 476.335 486.435 476.444 486.993C476.559 487.55 476.72 488.091 476.939 488.618C477.158 489.138 477.423 489.638 477.736 490.112C478.053 490.581 478.413 491.019 478.814 491.425C479.215 491.826 479.652 492.18 480.121 492.498C480.595 492.815 481.095 493.081 481.621 493.3C482.142 493.513 482.684 493.68 483.241 493.789C483.798 493.899 484.361 493.956 484.928 493.956C485.496 493.956 486.059 493.899 486.611 493.789C487.168 493.68 487.705 493.519 488.231 493.3C488.751 493.086 489.251 492.821 489.72 492.508C490.194 492.19 490.632 491.836 491.033 491.435C491.434 491.039 491.793 490.602 492.106 490.133C492.423 489.664 492.689 489.164 492.908 488.644C493.126 488.123 493.293 487.581 493.408 487.029C493.517 486.472 493.574 485.914 493.58 485.347V485.305ZM489.928 485.305C489.928 485.972 489.798 486.612 489.543 487.227C489.288 487.841 488.928 488.383 488.455 488.857C487.986 489.326 487.439 489.69 486.824 489.946C486.21 490.201 485.569 490.326 484.902 490.326C484.236 490.326 483.595 490.196 482.981 489.94C482.366 489.685 481.824 489.321 481.356 488.847C480.882 488.373 480.522 487.831 480.267 487.216C480.017 486.597 479.887 485.956 479.892 485.289C479.892 484.623 480.022 483.982 480.277 483.368C480.533 482.753 480.897 482.211 481.371 481.743C481.845 481.274 482.387 480.914 483.007 480.659C483.621 480.409 484.262 480.284 484.928 480.284C485.595 480.284 486.241 480.414 486.856 480.67C487.47 480.93 488.017 481.295 488.486 481.774C488.955 482.248 489.314 482.795 489.564 483.414C489.814 484.034 489.934 484.68 489.928 485.347V485.305ZM493.58 526.112C493.58 525.545 493.522 524.982 493.413 524.425C493.303 523.868 493.137 523.326 492.918 522.8C492.705 522.279 492.439 521.779 492.121 521.305C491.803 520.836 491.449 520.399 491.043 519.998C490.642 519.591 490.205 519.237 489.736 518.92C489.262 518.602 488.762 518.336 488.241 518.118C487.715 517.904 487.173 517.737 486.616 517.628C486.059 517.519 485.496 517.461 484.928 517.461C484.361 517.461 483.798 517.519 483.241 517.628C482.684 517.737 482.142 517.904 481.621 518.118C481.095 518.336 480.595 518.602 480.121 518.92C479.652 519.237 479.215 519.591 478.814 519.998C478.413 520.399 478.053 520.836 477.736 521.305C477.423 521.779 477.158 522.279 476.939 522.8C476.72 523.326 476.559 523.868 476.444 524.425C476.335 524.982 476.277 525.545 476.277 526.112C476.277 526.68 476.335 527.243 476.444 527.8C476.559 528.357 476.72 528.899 476.939 529.425C477.158 529.951 477.423 530.446 477.736 530.92C478.053 531.394 478.413 531.831 478.814 532.232C479.215 532.633 479.652 532.993 480.121 533.305C480.595 533.623 481.095 533.888 481.621 534.107C482.142 534.321 482.684 534.487 483.241 534.597C483.798 534.711 484.361 534.763 484.928 534.763C485.496 534.763 486.053 534.711 486.611 534.602C487.163 534.487 487.705 534.326 488.225 534.112C488.746 533.894 489.246 533.633 489.715 533.321C490.189 533.008 490.621 532.649 491.022 532.253C491.423 531.852 491.783 531.42 492.1 530.951C492.418 530.482 492.684 529.987 492.902 529.466C493.121 528.946 493.288 528.409 493.402 527.852C493.517 527.3 493.574 526.737 493.58 526.175V526.112ZM489.928 526.112C489.928 526.779 489.803 527.42 489.553 528.039C489.298 528.654 488.939 529.201 488.465 529.675C487.996 530.144 487.455 530.508 486.84 530.769C486.225 531.024 485.585 531.154 484.918 531.154C484.251 531.154 483.606 531.029 482.991 530.774C482.376 530.519 481.83 530.154 481.361 529.68C480.887 529.211 480.527 528.67 480.272 528.05C480.017 527.435 479.892 526.795 479.892 526.128C479.892 525.461 480.022 524.821 480.277 524.201C480.533 523.586 480.897 523.045 481.371 522.576C481.845 522.102 482.387 521.743 483.007 521.487C483.621 521.237 484.262 521.112 484.928 521.112C485.595 521.118 486.236 521.248 486.85 521.508C487.47 521.763 488.012 522.133 488.481 522.607C488.949 523.081 489.309 523.628 489.559 524.248C489.809 524.862 489.934 525.508 489.928 526.175V526.112ZM493.58 566.92C493.58 566.352 493.522 565.789 493.408 565.232C493.298 564.68 493.132 564.138 492.913 563.612C492.694 563.091 492.428 562.591 492.111 562.118C491.793 561.649 491.434 561.211 491.033 560.81C490.632 560.409 490.194 560.055 489.72 559.737C489.246 559.425 488.751 559.159 488.225 558.94C487.699 558.727 487.158 558.565 486.6 558.451C486.043 558.341 485.486 558.289 484.918 558.289C484.35 558.289 483.788 558.347 483.231 558.461C482.673 558.571 482.132 558.737 481.606 558.951C481.085 559.17 480.585 559.44 480.116 559.753C479.642 560.071 479.205 560.43 478.803 560.831C478.402 561.232 478.048 561.67 477.731 562.144C477.418 562.618 477.152 563.112 476.934 563.638C476.72 564.164 476.553 564.706 476.444 565.263C476.335 565.815 476.277 566.378 476.277 566.946C476.283 567.513 476.335 568.076 476.449 568.633C476.559 569.19 476.72 569.732 476.939 570.258C477.158 570.779 477.423 571.279 477.741 571.753C478.053 572.222 478.413 572.659 478.814 573.06C479.215 573.461 479.652 573.821 480.126 574.138C480.6 574.451 481.095 574.716 481.621 574.935C482.147 575.154 482.684 575.315 483.241 575.425C483.798 575.539 484.361 575.591 484.928 575.591C485.496 575.591 486.053 575.539 486.611 575.43C487.163 575.315 487.705 575.154 488.225 574.94C488.746 574.727 489.246 574.461 489.715 574.149C490.189 573.836 490.621 573.477 491.022 573.081C491.423 572.68 491.783 572.248 492.1 571.779C492.418 571.31 492.684 570.815 492.902 570.295C493.121 569.774 493.288 569.237 493.402 568.68C493.517 568.128 493.574 567.565 493.58 567.003V566.92ZM489.928 566.92C489.928 567.586 489.803 568.227 489.553 568.847C489.298 569.461 488.939 570.008 488.465 570.482C487.996 570.956 487.455 571.321 486.84 571.576C486.225 571.831 485.585 571.961 484.918 571.961C484.251 571.961 483.606 571.836 482.991 571.581C482.376 571.326 481.83 570.961 481.361 570.493C480.887 570.019 480.527 569.477 480.272 568.857C480.017 568.243 479.892 567.602 479.892 566.935C479.892 566.269 480.022 565.628 480.277 565.013C480.533 564.394 480.897 563.852 481.371 563.383C481.845 562.914 482.387 562.55 483.007 562.3C483.621 562.045 484.262 561.92 484.928 561.92C485.6 561.925 486.241 562.055 486.856 562.315C487.475 562.576 488.017 562.946 488.486 563.42C488.955 563.899 489.314 564.446 489.564 565.065C489.814 565.69 489.934 566.331 489.928 567.003V566.92ZM586.642 711.216C586.861 711.118 587.053 710.977 587.215 710.8C587.382 710.623 587.501 710.42 587.585 710.19C587.668 709.966 587.705 709.732 587.694 709.493C587.684 709.248 587.632 709.019 587.527 708.8C587.428 708.581 587.288 708.388 587.111 708.227C586.934 708.06 586.731 707.94 586.507 707.857C586.277 707.774 586.043 707.737 585.803 707.748C585.559 707.753 585.33 707.81 585.111 707.914C517.387 739.17 399.21 714.034 398.027 713.852C397.777 713.769 397.527 713.743 397.267 713.769C397.012 713.795 396.767 713.873 396.543 714.003C396.319 714.133 396.132 714.3 395.975 714.513C395.824 714.722 395.72 714.951 395.663 715.206C395.611 715.461 395.606 715.716 395.658 715.966C395.715 716.222 395.814 716.456 395.965 716.664C396.116 716.878 396.303 717.05 396.527 717.18C396.751 717.31 396.991 717.394 397.251 717.42C429.303 723.722 461.668 726.987 494.335 727.216C526.178 727.295 560.163 723.524 586.642 711.3V711.216Z" fill="#73C4D4"/>
<path d="M348.699 505.873C348.459 505.873 348.23 505.92 348.006 506.008C347.782 506.097 347.589 506.227 347.417 506.394C347.246 506.566 347.11 506.758 347.016 506.977C346.917 507.196 346.871 507.43 346.865 507.67L344.824 657.717C344.818 657.961 344.86 658.196 344.949 658.42C345.037 658.644 345.167 658.842 345.334 659.013C345.506 659.185 345.699 659.321 345.923 659.414C346.147 659.508 346.376 659.555 346.621 659.555C346.86 659.56 347.089 659.513 347.313 659.425C347.532 659.336 347.73 659.206 347.902 659.034C348.074 658.868 348.204 658.675 348.298 658.451C348.386 658.232 348.433 657.998 348.433 657.758L350.475 507.706C350.475 507.472 350.433 507.237 350.345 507.019C350.256 506.795 350.131 506.597 349.964 506.425C349.798 506.253 349.605 506.118 349.386 506.024C349.167 505.93 348.938 505.878 348.699 505.873Z" fill="#231F20"/>
<path d="M621.974 467.899C621.906 467.67 621.797 467.456 621.646 467.269C621.495 467.081 621.318 466.925 621.104 466.81C620.896 466.69 620.667 466.618 620.427 466.591C620.188 466.565 619.953 466.581 619.719 466.649C619.49 466.716 619.276 466.826 619.089 466.972C618.896 467.123 618.745 467.305 618.625 467.513C618.511 467.727 618.438 467.951 618.406 468.19C618.38 468.43 618.396 468.67 618.464 468.899L644.839 561.31C644.953 561.701 645.172 562.019 645.495 562.263C645.823 562.508 646.188 562.633 646.594 562.638C646.766 562.654 646.932 562.654 647.104 562.638C647.334 562.571 647.547 562.461 647.735 562.31C647.922 562.164 648.073 561.982 648.193 561.774C648.307 561.56 648.38 561.336 648.406 561.097C648.432 560.857 648.417 560.623 648.349 560.394L621.974 467.899Z" fill="#231F20"/>
<path d="M108.943 510.607C112.735 495.894 104.11 489.873 101.006 488.159C100.23 483.508 97.0892 476.123 89.5423 475.795C80.8704 475.43 65.3288 475.43 65.0631 475.43C64.8236 475.43 64.5892 475.477 64.3704 475.566C64.1465 475.659 63.9486 475.79 63.7819 475.961C63.61 476.133 63.4798 476.326 63.3861 476.55C63.2923 476.774 63.2454 477.003 63.2454 477.248C63.2454 477.487 63.2923 477.717 63.3861 477.941C63.4798 478.165 63.61 478.357 63.7819 478.529C63.9486 478.701 64.1465 478.831 64.3704 478.925C64.5892 479.014 64.8236 479.06 65.0631 479.06C65.2246 479.06 80.6881 479.06 89.2767 479.451C94.9694 479.696 96.7454 485.899 97.235 488.467C75.5058 502.076 57.985 493.894 57.1465 493.529C56.9329 493.42 56.7038 493.362 56.4642 493.347C56.2246 493.331 55.9902 493.362 55.7611 493.446C55.5319 493.524 55.3288 493.639 55.1517 493.8C54.9694 493.961 54.8236 494.149 54.7194 494.362C54.6152 494.581 54.5527 494.81 54.5371 495.055C54.5267 495.295 54.5579 495.529 54.6361 495.764C54.7142 495.993 54.834 496.196 54.9902 496.378C55.1517 496.56 55.3392 496.706 55.5579 496.81C60.7038 499.003 66.0788 500.05 71.6725 499.956C76.5944 499.894 81.4121 499.149 86.1256 497.717C90.834 496.284 95.2506 494.222 99.3756 491.529C101.74 492.732 108.574 497.404 105.251 509.894C84.8496 522.378 63.2454 515.118 63.0215 515.034C62.7871 514.925 62.5423 514.862 62.2819 514.857C62.0215 514.852 61.7715 514.899 61.5319 514.998C61.2871 515.102 61.0788 515.248 60.9017 515.435C60.7246 515.623 60.5892 515.842 60.5058 516.086C60.4225 516.336 60.3861 516.586 60.4121 516.847C60.4329 517.107 60.5058 517.352 60.6308 517.576C60.7558 517.805 60.9225 517.998 61.1308 518.154C61.334 518.316 61.5683 518.425 61.8183 518.482C65.5163 519.607 69.2871 520.347 73.1361 520.696C76.985 521.05 80.8288 521.003 84.6673 520.566C88.5059 520.128 92.2611 519.305 95.9277 518.092C99.5996 516.883 103.105 515.31 106.454 513.383C108.615 516.014 113.35 523.133 107.537 529.399C104.594 531.175 101.506 532.623 98.2611 533.748C95.0163 534.878 91.6934 535.654 88.2871 536.086C84.8808 536.519 81.4642 536.592 78.0475 536.305C74.6256 536.019 71.2663 535.383 67.9798 534.399C67.7558 534.331 67.5267 534.31 67.2923 534.331C67.0631 534.352 66.8392 534.415 66.6308 534.519C66.4225 534.628 66.2402 534.769 66.0892 534.941C65.9329 535.118 65.8131 535.316 65.735 535.534C65.6569 535.753 65.6204 535.982 65.6256 536.217C65.6361 536.451 65.6829 536.675 65.7767 536.889C65.8704 537.102 66.0006 537.295 66.1673 537.456C66.3288 537.623 66.5215 537.753 66.735 537.847C71.8079 539.461 77.0006 540.243 82.3236 540.191C86.7715 540.222 91.1465 539.675 95.4486 538.56C99.7558 537.441 103.844 535.79 107.719 533.602C108.35 537.071 108.048 544.274 96.6829 549.31C96.2871 549.493 95.9954 549.774 95.7975 550.159C95.6048 550.545 95.5527 550.951 95.6465 551.373C95.735 551.795 95.9486 552.144 96.2871 552.415C96.6204 552.685 97.0059 552.821 97.4381 552.821C97.6934 552.816 97.9381 552.764 98.1725 552.659C104.579 549.8 108.74 545.946 110.553 541.149C111.146 539.566 111.475 537.93 111.532 536.243C111.594 534.55 111.381 532.894 110.902 531.274C117.225 523.706 112.798 514.93 108.943 510.607Z" fill="#231F20"/>
<path d="M398.126 193.383C399.24 194.607 399.922 196.034 400.167 197.67C401.495 202.446 402.839 207.482 401.636 212.3C401.48 213.347 401.063 214.279 400.396 215.102C399.725 215.925 398.896 216.519 397.902 216.888C397.021 217.024 396.178 216.904 395.365 216.534C394.553 216.164 393.912 215.602 393.438 214.852C392.469 213.368 392.001 211.743 392.027 209.972C391.928 205.404 394.131 196.222 398.126 193.383ZM574.745 209.341C574.725 211.112 575.199 212.748 576.157 214.237C576.631 214.987 577.277 215.55 578.089 215.92C578.896 216.289 579.74 216.409 580.62 216.279C581.615 215.909 582.449 215.315 583.115 214.493C583.787 213.67 584.199 212.737 584.355 211.685C585.558 206.873 584.235 201.831 582.907 197.055C582.646 195.43 581.969 194.003 580.865 192.774C576.808 195.529 574.605 204.711 574.745 209.341ZM445.844 187.201C445.23 187.138 444.615 187.138 444.006 187.196C443.391 187.253 442.787 187.373 442.199 187.545C441.61 187.722 441.042 187.956 440.501 188.243C439.954 188.534 439.443 188.873 438.964 189.263C438.49 189.649 438.053 190.081 437.662 190.56C437.271 191.034 436.928 191.545 436.636 192.086C436.344 192.628 436.11 193.19 435.928 193.784C435.751 194.373 435.631 194.972 435.568 195.586C435.506 196.196 435.506 196.81 435.563 197.425C435.626 198.039 435.745 198.638 435.922 199.227C436.1 199.815 436.334 200.383 436.626 200.93C436.912 201.472 437.256 201.982 437.646 202.456C438.037 202.935 438.469 203.368 438.943 203.758C439.422 204.149 439.928 204.487 440.475 204.779C441.016 205.071 441.584 205.305 442.172 205.482C442.761 205.659 443.36 205.779 443.975 205.841C444.589 205.899 445.204 205.899 445.813 205.836C446.428 205.779 447.027 205.654 447.615 205.477C448.204 205.295 448.771 205.06 449.313 204.769C449.855 204.477 450.365 204.138 450.839 203.748C451.318 203.352 451.751 202.92 452.136 202.44C452.527 201.966 452.865 201.456 453.157 200.909C453.443 200.368 453.678 199.8 453.855 199.211C454.032 198.618 454.146 198.019 454.209 197.404C454.261 196.795 454.261 196.185 454.199 195.581C454.136 194.972 454.016 194.373 453.834 193.789C453.657 193.206 453.422 192.644 453.136 192.102C452.844 191.565 452.506 191.06 452.12 190.586C451.73 190.112 451.303 189.68 450.829 189.295C450.36 188.904 449.855 188.565 449.313 188.274C448.777 187.982 448.214 187.748 447.631 187.571C447.047 187.388 446.449 187.269 445.844 187.201Z" fill="#FF7B6C"/>
<path d="M533.277 113.503C529.011 113.326 524.891 112.472 520.912 110.935C516.933 109.404 513.298 107.274 510.021 104.545C490.271 119.727 470.548 103.789 470.548 103.789C468.532 105.232 466.391 106.466 464.131 107.487C461.876 108.508 459.537 109.3 457.12 109.868C454.709 110.43 452.261 110.753 449.782 110.836C447.303 110.92 444.844 110.763 442.396 110.362C435.62 138.17 405.084 155.8 405.084 155.8C410.365 124.133 423.24 107.935 426.115 104.649C428.548 100.93 431.282 97.4613 434.334 94.2321C437.381 91.0029 440.688 88.0706 444.261 85.43C447.829 82.7946 451.605 80.4925 455.584 78.529C459.568 76.5602 463.688 74.9665 467.954 73.7373C467.459 73.0863 466.99 72.4144 466.558 71.7217C466.12 71.029 465.719 70.3154 465.35 69.5863C464.98 68.8519 464.646 68.1071 464.35 67.3415C464.053 66.5811 463.792 65.805 463.563 65.0186C463.339 64.2321 463.152 63.4352 463.001 62.6331C462.85 61.8258 462.735 61.0186 462.657 60.2008C462.584 59.3883 462.548 58.5706 462.548 57.7529C462.548 56.93 462.589 56.1175 462.667 55.2998C462.745 54.4873 462.86 53.6748 463.016 52.8727C463.167 52.0654 463.36 51.2738 463.589 50.4873C463.818 49.7008 464.079 48.9248 464.381 48.1644C464.683 47.404 465.016 46.6592 465.391 45.9248C465.761 45.1956 466.162 44.4873 466.6 43.7946C467.037 43.1019 467.506 42.43 468.006 41.7842C468.506 41.1383 469.037 40.5133 469.594 39.9144C470.157 39.3154 470.74 38.7425 471.355 38.2008C471.964 37.6592 472.6 37.1436 473.261 36.6592C473.923 36.1748 474.605 35.7217 475.308 35.305C476.006 34.8831 476.73 34.4977 477.469 34.1436C478.209 33.7946 478.959 33.4769 479.73 33.1956C480.495 32.9144 481.277 32.6696 482.068 32.4613C482.86 32.2529 483.662 32.0811 484.469 31.9456C485.277 31.8102 486.089 31.7165 486.907 31.6592C487.719 31.6019 488.537 31.5811 489.355 31.6019C490.173 31.6227 490.99 31.68 491.803 31.7738C492.615 31.8727 493.423 32.0029 494.225 32.1748C495.027 32.3467 495.813 32.555 496.594 32.7998C497.376 33.0446 498.146 33.3258 498.896 33.6436C499.652 33.9613 500.391 34.3154 501.115 34.7008C501.834 35.0863 502.537 35.5081 503.219 35.9613C503.902 36.4144 504.558 36.8988 505.199 37.4092C505.834 37.9248 506.443 38.4665 507.032 39.0394C507.615 39.6123 508.178 40.2113 508.704 40.8311C509.235 41.4561 509.735 42.1071 510.204 42.7738C510.673 43.4456 511.11 44.1383 511.516 44.8519C511.917 45.5602 512.287 46.2894 512.626 47.0394C512.959 47.7842 513.261 48.5446 513.527 49.3206C513.792 50.0967 514.021 50.8779 514.209 51.6748C514.402 52.4717 514.553 53.2738 514.673 54.0863C514.787 54.8988 514.865 55.7113 514.902 56.529C514.943 57.3467 514.943 58.1644 514.907 58.9821C514.87 59.7998 514.798 60.6123 514.683 61.4248C514.568 62.2373 514.417 63.0394 514.23 63.8363C514.037 64.6331 513.813 65.4196 513.553 66.1956C513.287 66.9717 512.99 67.7321 512.657 68.4769C512.324 69.2269 511.954 69.9561 511.553 70.6696C511.152 71.3831 510.714 72.0759 510.251 72.7477C509.782 73.4196 509.282 74.0706 508.756 74.6956C528.949 81.5081 542.396 96.4456 548.287 104.201C550.084 106.237 563.813 122.315 568.688 155.883C568.709 155.883 541.313 139.519 533.277 113.503Z" fill="#231F20"/>
<path d="M537.824 149.045C538.163 149.998 538.251 150.972 538.095 151.966C537.933 152.961 537.548 153.862 536.928 154.659C534.886 156.925 531.319 156.701 528.423 155.758C524.621 154.591 521.157 152.774 518.038 150.31C515.824 148.763 514.246 146.722 513.303 144.19C513.1 143.56 513.006 142.914 513.011 142.253C513.017 141.591 513.126 140.951 513.345 140.326C513.558 139.701 513.866 139.123 514.267 138.597C514.668 138.076 515.147 137.623 515.694 137.253C517.043 136.659 518.459 136.404 519.933 136.477C521.85 136.44 523.699 136.774 525.485 137.477C529.022 139.034 532.064 141.274 534.6 144.19C536.048 145.565 537.121 147.18 537.824 149.045ZM441.131 155.758C444.928 154.586 448.392 152.774 451.517 150.31C453.725 148.763 455.303 146.722 456.246 144.19C456.449 143.56 456.548 142.914 456.543 142.253C456.532 141.591 456.423 140.951 456.209 140.326C455.991 139.701 455.683 139.123 455.282 138.597C454.881 138.076 454.407 137.623 453.86 137.253C452.501 136.659 451.079 136.399 449.595 136.477C447.689 136.44 445.845 136.774 444.069 137.477C440.527 139.039 437.48 141.279 434.928 144.19C433.491 145.586 432.423 147.227 431.725 149.107C431.386 150.06 431.298 151.034 431.459 152.029C431.616 153.024 432.006 153.92 432.626 154.722C434.543 156.925 438.235 156.659 441.131 155.758ZM520.22 192.081C519.985 191.951 519.73 191.873 519.465 191.847C519.194 191.821 518.933 191.841 518.673 191.92C518.418 191.998 518.183 192.118 517.975 192.289C517.767 192.456 517.595 192.659 517.465 192.894C511.345 204.159 503.454 209.972 494.168 210.138C493.897 210.138 493.636 210.19 493.386 210.289C493.142 210.394 492.918 210.545 492.725 210.732C492.537 210.925 492.386 211.144 492.287 211.394C492.183 211.644 492.131 211.904 492.131 212.175C492.131 212.446 492.183 212.706 492.287 212.956C492.386 213.206 492.537 213.43 492.725 213.618C492.918 213.81 493.142 213.956 493.386 214.06C493.636 214.164 493.897 214.216 494.168 214.216C501.86 214.076 512.47 210.607 521.095 194.894C521.23 194.649 521.314 194.388 521.34 194.112C521.371 193.836 521.345 193.565 521.261 193.3C521.178 193.034 521.048 192.795 520.866 192.581C520.683 192.373 520.47 192.201 520.22 192.081ZM448.209 161.086C447.6 161.019 447.001 161.071 446.413 161.243C445.824 161.414 445.293 161.69 444.814 162.076C444.334 162.456 443.949 162.92 443.657 163.456C443.36 163.993 443.183 164.571 443.116 165.18C443.053 165.789 443.105 166.388 443.282 166.972C443.454 167.56 443.735 168.091 444.121 168.571C444.506 169.045 444.965 169.43 445.506 169.722C446.043 170.013 446.621 170.19 447.23 170.253C447.84 170.321 448.439 170.263 449.022 170.086C449.61 169.909 450.142 169.628 450.616 169.243C451.09 168.852 451.475 168.388 451.761 167.852C452.053 167.31 452.23 166.737 452.288 166.123C452.345 165.524 452.287 164.93 452.11 164.347C451.939 163.769 451.657 163.243 451.277 162.774C450.897 162.3 450.439 161.92 449.907 161.628C449.376 161.336 448.814 161.154 448.209 161.086ZM517.569 161.086C516.959 161.019 516.36 161.071 515.772 161.243C515.183 161.414 514.652 161.69 514.173 162.076C513.694 162.456 513.308 162.92 513.017 163.456C512.72 163.993 512.543 164.571 512.475 165.18C512.412 165.789 512.465 166.388 512.636 166.972C512.814 167.56 513.09 168.091 513.475 168.571C513.866 169.045 514.324 169.43 514.866 169.722C515.402 170.013 515.975 170.19 516.584 170.253C517.199 170.321 517.793 170.263 518.381 170.086C518.97 169.909 519.501 169.628 519.975 169.243C520.449 168.852 520.834 168.388 521.121 167.852C521.413 167.31 521.59 166.737 521.647 166.123C521.704 165.524 521.647 164.94 521.48 164.362C521.308 163.784 521.032 163.263 520.657 162.789C520.282 162.321 519.834 161.94 519.308 161.644C518.788 161.347 518.225 161.164 517.631 161.086H517.569ZM489.621 194.55H489.949C490.22 194.565 490.48 194.534 490.735 194.451C490.996 194.362 491.225 194.232 491.433 194.055C491.636 193.878 491.798 193.67 491.923 193.43C492.043 193.185 492.116 192.93 492.136 192.659C492.157 192.388 492.121 192.128 492.037 191.868C491.954 191.612 491.824 191.378 491.647 191.175C491.47 190.966 491.261 190.805 491.022 190.68C490.777 190.56 490.522 190.487 490.251 190.466C489.355 190.326 488.527 190.008 487.767 189.513C487.006 189.019 486.381 188.394 485.886 187.633C479.256 178.493 483.376 153.211 483.418 152.946C483.465 152.68 483.454 152.414 483.392 152.149C483.334 151.888 483.225 151.644 483.069 151.425C482.912 151.206 482.72 151.024 482.491 150.878C482.261 150.737 482.011 150.644 481.746 150.597C481.48 150.555 481.215 150.56 480.954 150.623C480.689 150.685 480.449 150.795 480.225 150.951C480.006 151.107 479.824 151.3 479.683 151.529C479.537 151.758 479.444 152.003 479.402 152.269C479.199 153.373 474.975 179.487 482.584 189.998C483.386 191.211 484.402 192.216 485.626 193.008C486.85 193.8 488.183 194.31 489.621 194.55ZM495.741 268.144C469.402 277.795 447.251 261.8 438.949 254.477C438.746 254.295 438.517 254.164 438.261 254.076C438.006 253.987 437.741 253.956 437.47 253.972C437.204 253.987 436.944 254.055 436.704 254.175C436.459 254.295 436.251 254.456 436.074 254.659C435.985 254.774 435.918 254.894 435.866 255.024L435.704 254.883V255.289C435.548 255.753 435.548 256.216 435.704 256.68V292.836C435.704 292.836 448.293 289.222 475.095 275.102C476.36 275.102 477.668 275.248 478.97 275.248C485.22 275.232 491.272 274.149 497.126 271.982C497.386 271.888 497.616 271.753 497.814 271.565C498.017 271.383 498.173 271.17 498.287 270.92C498.402 270.675 498.465 270.414 498.48 270.144C498.491 269.868 498.449 269.607 498.35 269.347C498.256 269.081 498.116 268.841 497.923 268.633C497.73 268.425 497.506 268.263 497.246 268.154C496.985 268.039 496.715 267.982 496.433 267.977C496.152 267.977 495.876 268.034 495.616 268.144H495.741ZM589.579 173.003C585.6 169.8 581.704 168.633 578.053 169.513C572.282 170.878 569.485 176.899 569.36 177.164C569.293 177.321 569.246 177.482 569.215 177.649C569.183 177.815 569.178 177.982 569.189 178.154C569.204 178.326 569.235 178.487 569.288 178.649C569.345 178.81 569.418 178.961 569.511 179.107C569.6 179.248 569.709 179.378 569.834 179.493C569.959 179.612 570.095 179.711 570.246 179.789C570.397 179.873 570.553 179.935 570.715 179.977C570.881 180.019 571.048 180.039 571.22 180.039C571.621 180.039 571.991 179.93 572.324 179.711C572.663 179.493 572.913 179.201 573.074 178.836C573.673 177.591 574.485 176.503 575.506 175.576C576.532 174.644 577.694 173.946 578.991 173.472C581.376 172.899 584.069 173.815 587.027 176.185C587.241 176.352 587.475 176.477 587.741 176.555C588.001 176.628 588.267 176.649 588.538 176.618C588.803 176.591 589.058 176.508 589.298 176.378C589.532 176.243 589.735 176.071 589.907 175.857C590.074 175.649 590.194 175.409 590.267 175.154C590.34 174.894 590.36 174.628 590.329 174.362C590.298 174.097 590.22 173.841 590.09 173.607C589.959 173.373 589.788 173.17 589.579 173.003ZM399.86 169.493C396.209 168.633 392.314 169.8 388.334 173.003C388.126 173.17 387.954 173.373 387.824 173.607C387.694 173.841 387.616 174.097 387.584 174.362C387.553 174.628 387.574 174.894 387.647 175.154C387.725 175.409 387.845 175.649 388.011 175.857C388.178 176.071 388.381 176.243 388.621 176.378C388.855 176.508 389.11 176.591 389.381 176.618C389.652 176.649 389.918 176.628 390.178 176.555C390.439 176.477 390.673 176.352 390.886 176.185C393.824 173.815 396.517 172.92 398.881 173.472C400.194 173.935 401.36 174.638 402.392 175.571C403.418 176.503 404.23 177.602 404.819 178.857C404.985 179.216 405.241 179.508 405.574 179.722C405.913 179.935 406.277 180.039 406.678 180.039C406.975 180.039 407.261 179.977 407.532 179.857C407.777 179.743 407.991 179.586 408.173 179.388C408.355 179.196 408.491 178.966 408.584 178.716C408.678 178.466 408.72 178.201 408.715 177.935C408.704 177.664 408.642 177.409 408.532 177.164C407.694 175.331 406.517 173.748 405.011 172.409C403.501 171.076 401.782 170.102 399.86 169.493Z" fill="#231F20"/>
<path d="M715.402 9.00821C716.954 9.82071 718.511 10.6384 719.917 11.3884C721.558 12.4092 723.193 13.4301 724.834 14.4561C726.475 15.477 728.199 16.7061 729.782 17.8728C731.36 19.0395 732.73 20.2947 734.308 21.4665C735.886 22.6332 737.261 23.8884 738.568 25.2895C739.881 26.6905 741.256 27.9457 742.563 29.3467C745.334 32.2113 747.688 35.2478 750.126 38.4926C752.568 41.7374 754.589 45.154 756.407 48.654C757.735 51.2686 759.058 53.878 760.178 56.5759C760.693 57.8207 761.298 59.2738 761.813 60.5186C762.329 61.7634 762.725 63.3051 763.24 64.5499L763.157 64.3415C763.871 66.3572 764.584 68.3728 765.152 70.3259C765.719 72.279 766.079 74.3207 766.292 76.2999C766.443 78.4249 766.594 80.5499 766.6 82.6176C766.605 84.6853 766.527 86.5447 766.235 88.4874C765.891 92.6436 765.344 96.8884 764.35 100.951C763.855 102.982 763.423 104.862 762.777 106.836C762.136 108.805 761.287 110.862 760.496 112.769C758.98 116.441 757.256 120.201 755.443 123.753C753.574 127.451 751.318 130.821 748.777 134.066C746.23 137.316 743.454 140.295 740.589 143.066C739.188 144.378 737.641 145.628 735.943 146.821C734.251 148.013 732.907 149.18 731.214 150.368C727.886 152.607 724.261 154.717 720.61 156.477C717.048 158.446 713.23 159.789 709.235 160.722C707.136 161.227 705.1 161.592 703.058 161.951C701.022 162.31 699.1 162.378 697.183 162.446C693.287 162.727 689.246 162.951 685.173 162.816C681.105 162.68 677.1 162.399 673.063 161.763C671.121 161.477 668.969 161.279 666.943 160.784C664.912 160.289 662.969 160.003 661.027 159.717C659.084 159.425 656.844 159.019 654.818 158.524C652.787 158.029 650.699 157.68 648.876 157.102C644.964 156.17 641.235 154.8 637.626 153.138C633.662 151.503 629.881 149.425 626.371 147.112C623.006 144.862 619.818 142.17 617.053 139.305L612.594 134.711L608.282 130.18C606.824 128.717 605.511 127.316 604.115 125.706C602.719 124.097 601.469 122.55 600.277 120.852C597.902 117.461 596.084 113.961 594.594 110.076C593.818 108.206 593.251 106.253 592.683 104.3C592.115 102.347 591.553 100.394 591.193 98.352C590.834 96.3103 590.558 94.477 590.344 92.4978C590.131 90.5186 589.98 88.3936 589.829 86.2686C589.751 85.2009 589.678 84.1384 589.662 82.9301C589.647 81.7218 589.594 81.0082 589.605 80.154C589.615 79.2999 589.6 78.0863 589.667 77.0863C589.74 76.0811 589.813 75.0811 589.881 74.0759C590.022 72.0707 590.371 69.9822 590.808 68.0968C591.303 66.0655 591.798 64.0343 592.438 62.0655C593.725 58.1228 595.391 54.5134 596.969 50.6957C597.756 48.7843 598.548 46.878 599.48 45.029C600.417 43.1801 601.412 41.1801 602.641 39.4561C602.584 39.602 602.584 39.602 602.522 39.7478C603.032 38.9301 603.693 38.1697 604.204 37.3467C604.714 36.5238 605.308 35.9145 605.969 35.154L606.027 35.0082C607.881 33.0186 609.818 31.2426 611.756 29.4613C613.693 27.6853 615.631 25.904 617.511 24.2738L617.303 24.3572C617.511 24.2738 617.631 23.977 617.839 23.8936C618.048 23.8051 618.105 23.6592 618.376 23.4249L618.313 23.5759L618.496 23.1332C621.568 20.2738 624.959 17.8936 628.496 15.5707C629.386 15.0811 630.126 14.5238 631.016 14.0342C631.907 13.5447 633.006 12.9665 633.897 12.4717C635.824 11.5499 637.839 10.8363 639.709 10.0603C644.001 8.39362 648.443 6.78946 652.829 5.33633C656.647 3.98737 660.496 2.99779 664.485 2.07071C668.48 1.13842 672.704 0.476958 676.808 0.112374C677.871 0.0342497 678.933 -0.0438756 679.938 0.0290404C680.938 0.0967498 682.001 0.0186241 683.152 0.148832C685.303 0.351957 687.449 0.555083 689.542 0.898832C693.574 1.53425 697.485 2.46654 701.423 3.74779C703.891 4.42487 706.303 5.24779 708.652 6.21654L708.798 6.27904C709.152 6.253 709.443 6.37279 709.74 6.49779L712.818 7.76862C713.787 8.34154 714.667 8.70612 715.402 9.00821Z" fill="#FF7B6C"/>
<path d="M649.241 100.128C655.741 101.076 662.001 99.6385 668.324 99.1802C670.662 99.0031 672.996 98.9614 675.34 98.8572C675.912 98.8416 676.496 98.8416 677.079 98.8364C678.506 98.7999 679.188 98.4406 679.095 97.6593C678.949 96.5395 678.037 96.4458 677.162 96.4302C673.668 96.3885 670.162 96.2791 666.673 96.3885C663.09 96.5031 659.485 96.9041 655.892 97.0604C654.043 97.1281 652.178 96.951 650.027 96.852C650.423 96.3156 650.626 96.0239 650.845 95.7479C658.673 85.7843 666.569 75.852 674.303 65.8052C677.324 61.8885 679.959 57.6854 682.793 53.602C682.98 53.3312 683.241 52.9979 683.22 52.701C683.168 52.1697 683.079 51.4718 682.725 51.2062C682.371 50.9458 681.616 50.9874 681.183 51.1906C680.662 51.4406 680.23 51.9666 679.881 52.4562C677.855 55.1697 675.923 57.9666 673.86 60.6489C667.47 68.9249 661.053 77.1489 654.626 85.3833C652.636 87.9249 650.621 90.4458 648.61 92.9614C648.36 93.2791 648.079 93.5708 647.751 93.9562C647.647 93.7739 647.548 93.5708 647.47 93.3885C644.47 82.1124 641.47 70.8572 638.454 59.5916C638.027 58.0187 637.699 56.4093 637.1 54.8989C636.808 54.1854 636.105 53.5499 635.47 53.076C635.183 52.8729 634.397 52.977 634.105 53.2322C633.761 53.5187 633.491 54.2114 633.574 54.6281C634.152 57.5812 634.746 60.5499 635.496 63.4666C637.251 70.1958 639.121 76.9302 640.928 83.6541C641.944 87.4979 642.938 91.3468 643.933 95.1906C644.006 95.4874 644.053 95.7791 644.147 96.2114C640.944 96.3104 637.84 96.5187 634.725 96.4666C629.73 96.3833 624.751 96.1229 619.746 95.9406C619.235 95.9145 618.73 95.9406 618.225 96.0135C617.35 96.1593 616.699 96.6177 616.548 97.5499C616.392 98.477 616.881 99.1802 617.662 99.5343C618.345 99.8468 619.079 100.019 619.829 100.04C627.126 100.331 634.423 100.628 641.725 99.9249C642.105 99.8833 642.506 99.8833 643.063 99.8572C642.829 100.206 642.704 100.404 642.579 100.571C634.907 110.836 627.225 121.118 619.569 131.394C618.438 132.915 617.308 134.441 616.204 135.982C615.923 136.368 615.579 136.81 615.59 137.232C615.579 137.805 615.688 138.618 616.074 138.93C616.459 139.237 617.287 139.165 617.834 138.993C618.329 138.821 618.777 138.326 619.131 137.894C620.678 135.967 622.251 134.04 623.709 132.06C630.808 122.456 637.907 112.852 644.97 103.243C645.173 102.977 645.402 102.737 645.699 102.394C645.819 102.607 645.907 102.852 646.001 103.066C648.329 110.8 650.715 118.513 652.975 126.3C654.027 129.92 654.845 133.597 655.767 137.258C656.011 138.237 656.188 139.243 656.485 140.217C656.813 141.29 657.636 141.842 658.522 141.68C659.402 141.519 659.991 140.732 659.933 139.612C659.907 138.597 659.772 137.576 659.532 136.586C658.376 132.013 657.215 127.446 655.918 122.899C653.866 115.68 651.699 108.487 649.563 101.29C649.412 100.972 649.35 100.592 649.241 100.128Z" fill="#231F20"/>
<path d="M126.719 737.545C127.61 731.034 126.12 724.784 125.61 718.467C125.412 716.128 125.349 713.795 125.23 711.451C125.209 710.883 125.198 710.3 125.188 709.712C125.141 708.284 124.776 707.607 124 707.706C122.881 707.863 122.792 708.779 122.782 709.649C122.776 713.149 122.688 716.654 122.829 720.139C122.974 723.727 123.407 727.326 123.594 730.92C123.678 732.764 123.516 734.633 123.433 736.779C122.891 736.389 122.605 736.191 122.323 735.977C112.292 728.232 102.297 720.42 92.1827 712.769C88.24 709.784 84.0161 707.18 79.9119 704.383C79.6359 704.196 79.3025 703.935 79.0057 703.962C78.4744 704.019 77.7765 704.113 77.5161 704.472C77.2609 704.826 77.3077 705.587 77.5161 706.014C77.7661 706.529 78.2973 706.956 78.7869 707.305C81.5213 709.305 84.3338 711.212 87.0317 713.253C95.3598 719.576 103.636 725.92 111.928 732.279C114.485 734.248 117.021 736.243 119.553 738.232C119.875 738.482 120.167 738.758 120.558 739.087C120.375 739.185 120.172 739.29 119.995 739.368C108.74 742.467 97.5109 745.56 86.2713 748.67C84.7036 749.107 83.0994 749.451 81.5942 750.06C80.8806 750.357 80.2556 751.071 79.7817 751.706C79.5786 751.998 79.6932 752.784 79.9536 753.076C80.24 753.409 80.9327 753.675 81.3494 753.592C84.2973 752.988 87.2609 752.368 90.1723 751.592C96.8859 749.779 103.605 747.857 110.313 745.993C114.151 744.941 117.99 743.915 121.829 742.889C122.12 742.816 122.412 742.764 122.844 742.67C122.969 745.868 123.204 748.972 123.178 752.087C123.136 757.081 122.917 762.066 122.776 767.071C122.756 767.581 122.787 768.087 122.86 768.592C123.016 769.462 123.48 770.113 124.412 770.258C125.344 770.404 126.037 769.909 126.386 769.123C126.693 768.435 126.86 767.701 126.875 766.956C127.11 759.654 127.339 752.352 126.579 745.06C126.537 744.675 126.526 744.279 126.495 743.722C126.849 743.956 127.047 744.076 127.219 744.196C137.547 751.784 147.891 759.378 158.235 766.951C159.766 768.066 161.297 769.185 162.849 770.274C163.235 770.555 163.683 770.894 164.105 770.883C164.678 770.883 165.49 770.769 165.797 770.383C166.099 769.993 166.021 769.17 165.844 768.623C165.667 768.128 165.172 767.68 164.735 767.331C162.797 765.8 160.855 764.243 158.865 762.8C149.198 755.784 139.537 748.769 129.865 741.79C129.599 741.587 129.36 741.357 129.011 741.06C129.224 740.946 129.469 740.852 129.683 740.758C137.396 738.363 145.089 735.909 152.86 733.587C156.469 732.503 160.136 731.654 163.792 730.706C164.766 730.451 165.776 730.269 166.745 729.962C167.813 729.623 168.36 728.795 168.188 727.915C168.021 727.029 167.224 726.451 166.11 726.519C165.094 726.55 164.073 726.696 163.084 726.941C158.526 728.139 153.969 729.342 149.433 730.675C142.23 732.784 135.053 735.014 127.875 737.212C127.563 737.363 127.183 737.43 126.719 737.545Z" fill="#231F20"/>
</svg>
